<svg width="48" height="48" viewBox="0 0 48 48" fill="none" xmlns="http://www.w3.org/2000/svg">
<path d="M45.4432 0.138783L1.14652 18.2802C0.442285 18.5686 -0.0124941 19.2563 0.000261562 20.0135C0.0129143 20.7706 0.490736 21.443 1.20412 21.7077L19.6564 28.5558L26.7946 46.8256C27.0705 47.5317 27.7531 47.9977 28.5149 48C28.5169 48 28.5186 48 28.5206 48C29.2802 48 29.9629 47.5387 30.2424 46.8359L47.8701 2.51851C48.1434 1.83162 47.9773 1.04888 47.4484 0.530255C46.9194 0.0116334 46.1302 -0.142521 45.4432 0.138783ZM28.5359 41.1141L23.2415 27.5633L29.0654 21.6873C29.7832 20.963 29.7748 19.7972 29.0462 19.0834C28.318 18.3695 27.1457 18.3781 26.4277 19.1024L20.605 24.9774L6.91977 19.8986L42.8233 5.19427L28.5359 41.1141Z" fill="#FF842B"/>
</svg>
