<svg width="48" height="48" viewBox="0 0 48 48" fill="none" xmlns="http://www.w3.org/2000/svg">
<rect width="48" height="48" rx="24" fill="#570DB4"/>
<path d="M35 24L32.56 21.22L32.9 17.54L29.29 16.72L27.4 13.54L24 15L20.6 13.54L18.71 16.72L15.1 17.53L15.44 21.21L13 24L15.44 26.78L15.1 30.47L18.71 31.29L20.6 34.47L24 33L27.4 34.46L29.29 31.28L32.9 30.46L32.56 26.78L35 24ZM30.49 26.11L30.75 28.9L28.01 29.52L26.58 31.93L24 30.82L21.42 31.93L19.99 29.52L17.25 28.9L17.51 26.1L15.66 24L17.51 21.88L17.25 19.1L19.99 18.49L21.42 16.08L24 17.18L26.58 16.07L28.01 18.48L30.75 19.1L30.49 21.89L32.34 24L30.49 26.11ZM23 27H25V29H23V27ZM23 19H25V25H23V19Z" fill="white"/>
</svg>
