<svg width="424" height="450" viewBox="0 0 424 450" fill="none" xmlns="http://www.w3.org/2000/svg">
<g clip-path="url(#clip0_5022_67905)">
<rect width="424" height="450" fill="#FAFAFA"/>
<path d="M259.13 251.519L251.001 271.837" stroke="#1F1F1F" stroke-width="0.782026"/>
<path d="M287.511 234.348L294.007 264.076" stroke="#1F1F1F" stroke-width="0.782026"/>
<path d="M285.938 270.764C286.833 265.767 296.946 259.595 304.697 266.693" stroke="#1F1F1F" stroke-width="0.782026"/>
<path d="M242.915 276.648C244.177 272.807 252.839 269.067 258.161 275.526" stroke="#1F1F1F" stroke-width="0.782026"/>
<path d="M152.519 200.315L167.544 213.368L212.931 209.267L210.61 183.577C210.62 182.82 208.879 180.477 201.832 177.167C177.765 165.846 158.477 182.888 151.842 192.824L152.519 200.315Z" fill="#D7D7D7"/>
<path d="M301.273 160.849C304.6 169.462 306.198 178.646 305.976 187.876C305.753 197.106 303.715 206.202 299.977 214.645C296.239 223.088 290.875 230.711 284.191 237.081C277.507 243.45 269.634 248.441 261.021 251.768C252.408 255.095 243.225 256.692 233.994 256.47C224.764 256.248 215.668 254.209 207.225 250.472C198.783 246.734 191.159 241.37 184.79 234.686C178.42 228.002 174.596 222.923 167.446 213.172L235.688 186.182L301.273 160.849Z" fill="#D7D7D7"/>
<path d="M331.436 154.264C274.285 167.567 158.335 194.32 151.74 194.916L192.635 206.878C196.969 208.146 200.874 210.527 204.522 213.189C219.761 224.31 236.756 224.685 249.407 221.951C259.029 219.871 267.008 213.661 274.246 206.988L331.436 154.264Z" fill="#C5C5C5"/>
<path d="M379.958 152.584L314.326 167.566L313.496 158.389L382.414 143.322L379.958 152.584Z" fill="#C5C5C5"/>
<path d="M135.49 195.748L151.856 193.068L152.527 200.487L135.49 195.748Z" fill="#A7A7A7"/>
<circle cx="170.493" cy="189.929" r="5.2875" transform="rotate(-5.16319 170.493 189.929)" fill="#7D7D7D"/>
<path d="M152.563 200.492L152.049 194.81L140.057 209.734L152.563 200.492Z" fill="#A7A7A7"/>
<circle cx="286.526" cy="232.615" r="4.61957" transform="rotate(-5.16319 286.526 232.615)" fill="#EBEBEB"/>
<circle cx="139.437" cy="220.483" r="4.51669" fill="#E1B48B"/>
<path fill-rule="evenodd" clip-rule="evenodd" d="M143.261 324.891L90.105 287.15C88.5852 286.071 87.6823 284.322 87.6823 282.459C87.6823 279.281 90.2582 276.705 93.4358 276.705H300.112C303.288 276.705 305.862 279.28 305.862 282.455C305.862 284.321 304.957 286.07 303.435 287.148L250.283 324.784V334.682C264.898 341.211 278.204 350.364 289.537 361.696C301.719 373.878 311.382 388.34 317.975 404.257C324.568 420.173 327.961 437.233 327.961 454.461H196.772L65.584 454.461C65.584 437.233 68.9773 420.173 75.5701 404.257C82.1629 388.34 91.8262 373.878 104.008 361.696C115.341 350.364 128.647 341.211 143.261 334.682V324.891Z" fill="#FFD7D8"/>
<path fill-rule="evenodd" clip-rule="evenodd" d="M160.46 378.385C152.217 373.961 144.92 373.982 135.454 378.768C130.853 381.093 124.89 381.219 120.782 381.306C120.455 381.312 120.139 381.319 119.837 381.327H115.976C107.604 390.576 100.872 401.205 96.0876 412.757C90.6108 425.979 87.792 440.15 87.792 454.461L196.772 454.461H305.752C305.752 440.15 302.933 425.979 297.457 412.757C292.672 401.205 285.94 390.576 277.568 381.327H276.679C271.427 378.934 256.301 374.265 246.416 378.768C243.407 380.138 239.947 380.936 236.402 381.327H224.572C219.344 380.814 214.962 379.736 212.927 378.768C209.173 376.981 195.518 373.902 185.047 378.768C184.843 378.863 184.639 378.954 184.434 379.043C182.789 384.034 178.088 387.636 172.546 387.636C166.763 387.636 161.896 383.714 160.46 378.385Z" fill="#FAFAFA"/>
<circle cx="172.546" cy="375.119" r="10.3499" fill="#E1B48B"/>
<path d="M214.639 374.354C214.412 374.814 214.207 375.25 214.026 375.65C214.026 375.292 214.252 374.852 214.639 374.354C216.867 369.825 221.162 362.878 224.512 363.487C228.562 364.223 217.421 370.777 214.639 374.354Z" fill="#FAFAFA"/>
<path d="M148.517 357.785C151.081 359.378 156.378 363.93 157.065 369.39C148.953 361.204 147.579 363.842 145.015 361.255C141.535 357.742 146.672 356.996 148.517 357.785Z" fill="#FAFAFA"/>
<circle cx="101.916" cy="454.46" r="14.1239" fill="#E1B48B"/>
<circle cx="126.197" cy="443.112" r="14.1239" fill="#E1B48B"/>
<circle cx="255.554" cy="451.718" r="14.1239" fill="#E1B48B"/>
<circle cx="291.461" cy="454.46" r="14.1239" fill="#E1B48B"/>
<circle cx="151.911" cy="434.554" r="14.1239" fill="#E1B48B"/>
<circle cx="170.522" cy="453.745" r="14.1239" fill="#E1B48B"/>
<circle cx="198.769" cy="448.679" r="14.1239" fill="#E1B48B"/>
<circle cx="213.182" cy="430.949" r="8.67194" fill="#E1B48B"/>
<circle cx="227.306" cy="448.679" r="14.1239" fill="#E1B48B"/>
</g>
<defs>
<clipPath id="clip0_5022_67905">
<rect width="424" height="450" fill="white"/>
</clipPath>
</defs>
</svg>
