<svg width="36" height="36" viewBox="0 0 36 36" fill="none" xmlns="http://www.w3.org/2000/svg">
<path d="M5.55606 36H30.4439C31.917 35.9984 33.3292 35.4125 34.3708 34.371C35.4125 33.3295 35.9984 31.9174 36 30.4445V9.78287C35.998 8.32614 35.4242 6.9284 34.4021 5.89032C33.38 4.85224 31.9913 4.25677 30.5346 4.232V3.87081C30.5351 3.36267 30.4354 2.85942 30.2413 2.38981C30.0472 1.92021 29.7624 1.49346 29.4033 1.13397C29.0441 0.774483 28.6176 0.489299 28.1481 0.294725C27.6787 0.10015 27.1755 0 26.6673 0C26.1591 0 25.6559 0.10015 25.1864 0.294725C24.717 0.489299 24.2905 0.774483 23.9313 1.13397C23.5721 1.49346 23.2874 1.92021 23.0932 2.38981C22.8991 2.85942 22.7995 3.36267 22.8 3.87081V4.22741H13.2V3.87081C13.2005 3.36267 13.1009 2.85942 12.9067 2.38981C12.7126 1.92021 12.4279 1.49346 12.0687 1.13397C11.7095 0.774483 11.283 0.489299 10.8136 0.294725C10.3441 0.10015 9.8409 0 9.33271 0C8.82452 0 8.32132 0.10015 7.85186 0.294725C7.3824 0.489299 6.9559 0.774483 6.59674 1.13397C6.23758 1.49346 5.9528 1.92021 5.75868 2.38981C5.56456 2.85942 5.46491 3.36267 5.46543 3.87081V4.232C4.00875 4.25677 2.61999 4.85224 1.59789 5.89032C0.57579 6.9284 0.0020177 8.32614 0 9.78287V30.4445C0.00164737 31.9174 0.587545 33.3295 1.62915 34.371C2.67076 35.4125 4.083 35.9984 5.55606 36ZM30.4439 33.6003H5.55606C4.71931 33.5993 3.91711 33.2665 3.32544 32.6749C2.73377 32.0833 2.40095 31.2812 2.4 30.4445V15.6022H33.6V30.4445C33.599 31.2812 33.2662 32.0833 32.6746 32.6749C32.0829 33.2665 31.2807 33.5993 30.4439 33.6003ZM25.2 3.87081C25.1997 3.67794 25.2374 3.4869 25.311 3.30862C25.3846 3.13034 25.4926 2.96832 25.6289 2.83182C25.7652 2.69533 25.927 2.58705 26.1052 2.51317C26.2834 2.43928 26.4744 2.40125 26.6673 2.40125C26.8602 2.40125 27.0512 2.43928 27.2294 2.51317C27.4075 2.58705 27.5694 2.69533 27.7057 2.83182C27.8419 2.96832 27.95 3.13034 28.0236 3.30862C28.0972 3.4869 28.1349 3.67794 28.1346 3.87081V6.98688C28.1339 7.37556 27.9791 7.74811 27.704 8.02273C27.4289 8.29735 27.056 8.45159 26.6673 8.45159C26.2786 8.45159 25.9057 8.29735 25.6306 8.02273C25.3555 7.74811 25.2006 7.37556 25.2 6.98688V3.87081ZM7.86543 3.87081C7.86511 3.67794 7.90283 3.4869 7.97642 3.30862C8.05002 3.13034 8.15805 2.96832 8.29433 2.83182C8.43061 2.69533 8.59247 2.58705 8.77065 2.51317C8.94882 2.43928 9.13982 2.40125 9.33271 2.40125C9.5256 2.40125 9.7166 2.43928 9.89478 2.51317C10.073 2.58705 10.2348 2.69533 10.3711 2.83182C10.5074 2.96832 10.6154 3.13034 10.689 3.30862C10.7626 3.4869 10.8003 3.67794 10.8 3.87081V6.98688C10.7994 7.37556 10.6445 7.74811 10.3694 8.02273C10.0943 8.29735 9.72144 8.45159 9.33271 8.45159C8.94398 8.45159 8.57114 8.29735 8.29604 8.02273C8.02094 7.74811 7.86607 7.37556 7.86543 6.98688V3.87081ZM5.46543 6.63174V6.98688C5.46647 8.01176 5.87438 8.9943 6.59952 9.71863C7.32466 10.443 8.30773 10.8498 9.33271 10.8498C10.3577 10.8498 11.3408 10.443 12.0659 9.71863C12.7911 8.9943 13.199 8.01176 13.2 6.98688V6.62715H22.8V6.98688C22.801 8.01176 23.2089 8.9943 23.9341 9.71863C24.6592 10.443 25.6423 10.8498 26.6673 10.8498C27.6923 10.8498 28.6753 10.443 29.4005 9.71863C30.1256 8.9943 30.5335 8.01176 30.5346 6.98688V6.63174C31.3549 6.65572 32.1336 6.99807 32.7058 7.58627C33.278 8.17447 33.5987 8.96231 33.6 9.78287V13.2024H2.4V9.78287C2.40127 8.96231 2.72198 8.17447 3.29418 7.58627C3.86638 6.99807 4.64513 6.65572 5.46543 6.63174ZM22.7014 19.336C22.9265 19.111 23.2317 18.9846 23.5499 18.9846C23.8682 18.9845 24.1734 19.1109 24.3984 19.3359C24.5099 19.4473 24.5983 19.5796 24.6586 19.7252C24.7189 19.8708 24.75 20.0268 24.75 20.1844C24.75 20.3419 24.719 20.498 24.6587 20.6436C24.5984 20.7892 24.51 20.9214 24.3985 21.0329L16.5321 28.8986C16.4207 29.01 16.2884 29.0984 16.1428 29.1587C15.9973 29.219 15.8412 29.25 15.6837 29.25C15.5261 29.25 15.37 29.219 15.2245 29.1587C15.0789 29.0984 14.9466 29.01 14.8352 28.8986L11.875 25.9386C11.65 25.7136 11.5236 25.4085 11.5236 25.0903C11.5236 24.7721 11.65 24.4669 11.875 24.2419C12.1001 24.0169 12.4053 23.8905 12.7235 23.8905C13.0417 23.8905 13.3469 24.0169 13.5719 24.2419L15.6836 26.3532L22.7014 19.336Z" fill="#7128CE"/>
</svg>
