<svg width="1632" height="665" viewBox="0 0 1632 665" fill="none" xmlns="http://www.w3.org/2000/svg">
<rect width="1632" height="665" fill="#FAFAFA"/>
<path d="M53.334 194.733C53.334 118.284 115.308 56.3096 191.757 56.3096C268.206 56.3096 330.18 118.284 330.18 194.733V616.705H53.334V194.733Z" fill="#F5F5F5"/>
<rect x="844.163" y="385.604" width="86.7571" height="29.9734" transform="rotate(14.2757 844.163 385.604)" fill="#7128CE"/>
<circle cx="924.152" cy="203.117" r="28.3789" fill="#E1B48B"/>
<path d="M844.005 388.874L892.715 410.174L836.382 499.619C829.674 510.27 815.757 513.733 804.839 507.468C793.723 501.089 789.779 486.972 795.98 475.755L844.005 388.874Z" fill="#7128CE"/>
<path d="M656.404 499.793C664.288 503.03 673.303 499.261 676.54 491.377L701.931 429.514L679.495 420.306C676.117 418.919 672.255 420.533 670.868 423.912L647.987 479.658C644.751 487.542 648.519 496.557 656.404 499.793Z" fill="#414141"/>
<path d="M927.488 411.022L863.509 411.022L973.716 597.87L1005.76 580.667L927.488 411.022Z" fill="#7128CE"/>
<path d="M820.773 467.542C833.074 471.689 839.223 485.444 834.111 497.376C829.273 508.665 816.199 513.895 804.91 509.057L689.353 459.539L702.688 427.736L820.773 467.542Z" fill="#7128CE"/>
<path d="M1048.55 572.502C1044.87 565.775 1036.43 563.305 1029.71 566.986L976.922 595.865L987.078 614.426C988.83 617.63 992.848 618.806 996.052 617.053L1043.03 591.347C1049.76 587.667 1052.23 579.229 1048.55 572.502Z" fill="#414141"/>
<path fill-rule="evenodd" clip-rule="evenodd" d="M779.082 194.184C814.983 217.295 866.6 254.107 904.72 289.469C923.724 307.099 939.754 324.713 948.678 340.335C953.136 348.139 956.088 355.899 956.42 363.21C956.764 370.797 954.258 377.708 948.314 383.121C934.242 395.937 915.97 393.687 897.834 385.564C879.6 377.398 859.467 362.476 839.439 346.351C832.006 340.366 824.599 334.227 817.26 328.143C804.551 317.609 792.045 307.243 779.957 298.14C760.769 283.691 743.91 273.461 730.585 271.055C719.579 269.068 712.448 270.478 707.828 273.186C703.263 275.861 700.29 280.309 698.613 286.231C695.153 298.447 697.768 315.121 701.617 327.064L694.975 322.927L690.862 330.529C686.764 317.81 683.378 298.558 687.742 283.152C689.976 275.263 694.372 267.976 702.115 263.437C709.805 258.931 719.924 257.649 732.593 259.936C748.863 262.874 767.662 274.738 786.753 289.114C799.018 298.349 811.927 309.047 824.804 319.718C832.096 325.761 839.377 331.794 846.525 337.55C866.574 353.692 885.696 367.748 902.452 375.252C919.306 382.801 931.76 382.915 940.706 374.767C943.969 371.795 945.337 368.23 945.132 363.723C944.915 358.94 942.894 352.989 938.867 345.939C930.82 331.853 915.827 315.185 897.035 297.753C859.579 263.006 808.544 226.585 772.924 203.657L772.88 203.629L772.837 203.6C759.577 194.716 739.191 185.428 720.818 185.422C711.778 185.419 703.503 187.655 696.677 193.003C689.877 198.33 683.95 207.188 680.388 221.481C679.28 227.376 677.46 232.604 674.292 236.623C670.935 240.883 666.405 243.355 660.885 244.162C655.596 244.936 649.511 244.175 642.687 242.395C635.809 240.6 627.766 237.657 618.409 233.707C600.142 225.994 585.208 222.053 573.471 222.332C562.139 222.602 553.904 226.766 548.059 235.704L546.152 228.572L538.603 229.521C546.734 217.084 558.639 211.383 573.202 211.036C587.361 210.699 604.078 215.391 622.804 223.297C631.944 227.156 639.419 229.865 645.539 231.462C651.714 233.073 656.112 233.442 659.249 232.983C662.156 232.557 663.997 231.432 665.418 229.629C666.998 227.625 668.359 224.385 669.31 219.252L669.34 219.087L669.381 218.925C673.386 202.727 680.437 191.373 689.708 184.109C698.978 176.847 709.898 174.119 720.822 174.123C742.352 174.13 764.937 184.716 779.082 194.184Z" fill="#CD2026"/>
<path d="M881.612 194.456C895.299 208.834 911.191 200.129 917.426 193.98C935.184 187.534 936.586 171.11 935.067 163.704C933.669 162.463 927.494 167.295 924.581 169.867C925.116 166.764 919.953 161.122 917.304 158.69C915.48 158.907 911.901 166.747 910.34 170.64C908.92 167.251 902.357 164.921 899.254 164.18C898.139 166.092 898.553 172.665 898.898 175.712C889.439 174.469 886.783 176.479 886.637 177.639C885.654 180.055 890.442 185.37 892.959 187.726C889.868 187.206 884.107 191.996 881.612 194.456Z" fill="#1F1F1F"/>
<rect width="30.855" height="133.117" rx="15.4275" transform="matrix(0.64017 0.768233 0.768233 -0.64017 941.332 247.967)" fill="#E1B48B"/>
<path d="M921.909 257.259C913.334 264.405 912.175 277.149 919.32 285.723C926.466 294.298 939.21 295.457 947.784 288.312L994.227 249.611L968.351 218.559L921.909 257.259Z" fill="#EDAB00"/>
<path d="M964.041 222.198L989.855 253.177L994.196 249.56L968.381 218.582L964.041 222.198Z" fill="#C48D00"/>
<path d="M873.521 266.054C879.495 242.575 903.372 228.385 926.85 234.359C950.329 240.333 964.519 264.209 958.545 287.688L929.146 403.23L844.122 381.596L873.521 266.054Z" fill="#FFB800"/>
<rect x="882.242" y="230.484" width="30.855" height="133.117" rx="15.4275" transform="rotate(111.696 882.242 230.484)" fill="#E1B48B"/>
<path d="M903.525 233.613C913.928 237.752 919.006 249.541 914.867 259.944C910.728 270.347 898.94 275.425 888.537 271.286L832.424 248.96L847.412 211.288L903.525 233.613Z" fill="#FFB800"/>
<path d="M852.65 213.386L837.678 251.016L832.429 248.927L847.401 211.297L852.65 213.386Z" fill="#C48D00"/>
<path fill-rule="evenodd" clip-rule="evenodd" d="M849.237 339.725C868.297 354.948 886.452 368.087 902.451 375.252C919.305 382.801 931.759 382.914 940.705 374.767C941.292 374.233 941.817 373.68 942.282 373.106L938.466 389.488C926.211 394.663 911.981 391.901 897.833 385.564C881.63 378.308 863.928 365.716 846.132 351.686L849.237 339.725Z" fill="#CD2026"/>
<path d="M809.423 597.147C782.88 585.971 779.738 605.878 781.484 617.228H980.38C947.446 592.89 914.82 574.159 879.116 568.619C850.553 564.186 844.023 595.975 844.329 612.424C843.753 611.988 835.965 608.322 809.423 597.147Z" fill="#F5EEFF"/>
<path d="M432.647 606.977C422.378 603.554 420.952 612.397 421.522 617.246H448.791C447.688 615.25 442.916 610.4 432.647 606.977Z" stroke="#C5C5C5"/>
<path d="M467.632 598.112C456.327 596.354 461.247 610.359 465.12 617.582L739.58 616.64C732.546 603.074 708.178 598.845 696.873 598.426C685.044 584.086 656.991 555.342 639.406 555.09C617.424 554.776 635.009 585.551 629.357 586.179C623.704 586.807 575.658 556.033 535.776 550.38C495.895 544.728 504.06 590.262 503.746 601.881C503.432 613.5 481.764 600.31 467.632 598.112Z" stroke="#C5C5C5"/>
<path d="M596.3 610.554C572.761 598.785 568.481 609.751 569.283 616.706H735.127C734.057 615.458 729.402 611.784 719.345 607.076C709.287 602.368 704.098 607.433 702.76 610.554C694.022 607.522 674.353 601.191 665.579 600.121C654.612 598.784 654.88 610.554 653.542 610.554C652.205 610.554 624.386 593.434 610.209 591.829C598.868 590.545 596.211 603.777 596.3 610.554Z" fill="#F5EEFF"/>
<path d="M782.901 517.855H672.713" stroke="#A7A7A7"/>
<path d="M786.467 245.139L719.258 245.139" stroke="#C5C5C5"/>
<path d="M928.211 550.673H862.484" stroke="#A7A7A7"/>
<path d="M616.272 517.855L656.713 517.855" stroke="#A7A7A7"/>
<path d="M615.934 397.51L638.968 397.51" stroke="#A7A7A7"/>
<rect x="450.784" y="313.931" width="79.9618" height="94.5355" transform="rotate(31.0568 450.784 313.931)" fill="#FFB800"/>
<rect x="450.784" y="313.931" width="15.9366" height="94.5355" transform="rotate(31.0568 450.784 313.931)" fill="#EDAB00"/>
<path d="M496.334 358.616L503.894 346.063L511.696 350.762L504.137 363.315L502.72 357.607L496.334 358.616Z" fill="#CD2026"/>
<path d="M284.743 420.269H159.179V617.582H433.226V564.766H381.406V519.922H331.579V469.099H284.743V420.269Z" fill="#E2CBFF"/>
<path d="M53.334 617.279H1578.18" stroke="#A7A7A7"/>
<path d="M1469.74 170.31C1469.74 172.721 1469.31 175.005 1468.51 177.162H1396.96C1396.9 177.098 1396.9 177.035 1396.84 177.035C1396.84 177.098 1396.84 177.162 1396.78 177.162C1396.78 177.162 1394.87 177.162 1391.37 177.225C1355.93 177.415 1158.01 178.557 1158.01 176.781C1158.01 155.973 1173.46 139.098 1192.47 139.098C1196.9 139.098 1201.2 139.986 1205.08 141.699C1208.71 138.527 1213.32 136.623 1218.31 136.623C1225.57 136.623 1231.96 140.557 1235.78 146.647C1235.84 146.52 1235.9 146.393 1235.9 146.33C1239.59 138.209 1246.79 131.421 1256.08 126.917C1263.52 123.301 1272.32 121.207 1281.8 121.207C1284.5 121.207 1287.21 121.398 1289.79 121.715C1299.82 101.541 1319.39 87.8379 1341.84 87.8379C1370.63 87.8379 1394.63 110.296 1399.98 139.986C1403.18 137.829 1406.99 136.56 1411.11 136.56C1419.3 136.56 1426.43 141.635 1429.94 149.058C1433.51 147.725 1437.38 147.028 1441.51 147.028C1452.64 147.028 1462.24 152.356 1466.79 160.096C1468.7 163.205 1469.74 166.63 1469.74 170.31Z" fill="#EAD9FF"/>
<path opacity="0.4" d="M1466.92 160.096C1457.81 157.559 1448.03 157.686 1438.5 157.812C1417.21 158.066 1395.92 158.32 1374.57 158.574C1349.04 158.891 1326.34 143.856 1300.26 146.266C1287.77 147.472 1275.03 152.737 1263.04 153.435C1253.5 154.006 1241.93 152.293 1236.03 146.33C1239.72 138.209 1246.92 131.421 1256.21 126.917C1263.65 123.301 1272.45 121.207 1281.92 121.207C1284.63 121.207 1287.34 121.398 1289.92 121.715C1299.95 101.541 1319.51 87.8379 1341.97 87.8379C1370.76 87.8379 1394.75 110.296 1400.11 139.986C1403.31 137.829 1407.12 136.56 1411.24 136.56C1419.42 136.56 1426.56 141.635 1430.07 149.058C1433.64 147.725 1437.51 147.028 1441.63 147.028C1452.71 147.091 1462.3 152.42 1466.92 160.096Z" fill="white"/>
<circle cx="1019.49" cy="286.579" r="3.42004" fill="#FF842B"/>
<circle cx="603.535" cy="450.427" r="3.42004" fill="#7CE391"/>
<circle r="4.1549" transform="matrix(1 0 0 -1 1185.44 101.607)" fill="#43BE5C"/>
<rect x="1185.94" y="494.324" width="16" height="16" stroke="#1F1F1F"/>
<path d="M1578.18 313.931L1568.91 304.917L1578.18 295.902" stroke="#570DB4"/>
<path d="M1568.47 313.931L1559.19 304.917L1568.47 295.902" stroke="#570DB4"/>
<path d="M1558.76 313.931L1549.48 304.917L1558.76 295.902" stroke="#570DB4"/>
<path d="M1549.04 313.931L1539.77 304.917L1549.04 295.902" stroke="#570DB4"/>
<path d="M421.251 157.117L422.682 146.117L431.251 152.992L421.251 157.117Z" stroke="#007618"/>
<path d="M319.441 375.048L327.247 385.136L335.461 375.34L343.267 385.136L350.665 376.071L358.587 385.428L365.636 376.217L372.393 385.282L380.024 375.925" stroke="#A7A7A7" stroke-miterlimit="10" stroke-linecap="round" stroke-linejoin="round"/>
<path d="M1351.47 363.314L1354.76 369.453L1361.42 367.434L1359.4 374.097L1365.54 377.381L1359.4 380.664L1361.42 387.327L1354.76 385.308L1351.47 391.447L1348.19 385.308L1341.53 387.327L1343.55 380.664L1337.41 377.381L1343.55 374.097L1341.53 367.434L1348.19 369.453L1351.47 363.314Z" fill="#FFB800"/>
<path fill-rule="evenodd" clip-rule="evenodd" d="M1364.15 559.872C1348.16 575.863 1339.17 597.553 1339.17 620.169H1424.45L1509.72 620.169C1509.72 597.553 1500.74 575.863 1484.74 559.872C1468.75 543.88 1447.06 534.896 1424.45 534.896C1401.83 534.896 1380.14 543.88 1364.15 559.872ZM1274.99 593.583C1267.94 600.634 1263.98 610.197 1263.98 620.169H1301.57L1339.17 620.169C1339.17 610.197 1335.21 600.634 1328.16 593.583C1321.11 586.532 1311.55 582.57 1301.57 582.57C1291.6 582.57 1282.04 586.532 1274.99 593.583Z" fill="#B2E7BC"/>
</svg>
