<svg width="23" height="27" viewBox="0 0 23 27" fill="none" xmlns="http://www.w3.org/2000/svg">
<path d="M16 24.2129H2.66667V6.87956C2.66667 6.14622 2.06667 5.54622 1.33333 5.54622C0.6 5.54622 0 6.14622 0 6.87956V24.2129C0 25.6796 1.2 26.8796 2.66667 26.8796H16C16.7333 26.8796 17.3333 26.2796 17.3333 25.5462C17.3333 24.8129 16.7333 24.2129 16 24.2129ZM22.6667 18.8796V2.87956C22.6667 1.41289 21.4667 0.212891 20 0.212891H8C6.53333 0.212891 5.33333 1.41289 5.33333 2.87956V18.8796C5.33333 20.3462 6.53333 21.5462 8 21.5462H20C21.4667 21.5462 22.6667 20.3462 22.6667 18.8796ZM20 18.8796H8V2.87956H20V18.8796Z" fill="#CD2026"/>
</svg>
