<svg width="120" height="24" viewBox="0 0 120 24" fill="none" xmlns="http://www.w3.org/2000/svg">
<path d="M22.3829 16.3058L21.1946 15.1128C19.4861 13.3971 19.4861 10.6015 21.1946 8.88586L22.341 7.73556C22.6669 7.40946 22.9254 7.02197 23.1019 6.5953C23.2783 6.16864 23.3691 5.7112 23.3691 5.24922C23.3691 5.03089 23.3489 4.81358 23.3088 4.60005C23.2196 4.12378 23.0312 3.78081 22.7441 3.3904C22.469 3.01614 22.0918 2.59103 21.7519 2.27444L20.9573 1.53435C20.0152 0.794152 17.8234 0.246847 16.5835 1.49192L15.2475 2.75019C13.26 4.68298 10.7517 4.64698 8.93228 2.90574L7.86401 1.71782C7.53923 1.39062 7.15332 1.13101 6.72842 0.953871C6.30352 0.776731 5.84798 0.685547 5.38791 0.685547C4.92784 0.685547 4.4723 0.776731 4.0474 0.953871C3.6225 1.13101 3.18692 1.39849 2.88772 1.64344L1.59653 2.93256C0.339176 4.48273 0.406793 6.25522 1.64626 7.50045L2.94293 8.86504C4.65131 10.5808 4.70458 13.3882 2.9962 15.1038L1.60184 16.5325C0.36221 17.7775 0.430004 19.8843 1.51104 21.0912L3.0247 22.611C4.11658 23.4745 6.35482 23.7876 7.59461 22.5425L8.96077 21.0912C10.6847 19.4212 13.0944 19.2424 15.2315 21.2467L16.6413 22.5425C17.3559 23.2601 18.5207 23.4195 19.4934 23.2602C20.6742 23.0669 21.4919 22.0575 22.3286 21.202C23.1568 20.3939 23.7703 17.6749 22.3829 16.3058ZM20.676 19.1558C20.5511 19.4454 20.3689 19.7061 20.1572 19.9397L20.1483 19.9495C20.0312 20.0786 19.9038 20.1981 19.7673 20.3065C19.5125 20.509 19.2286 20.674 18.9228 20.7855C18.0967 21.0867 17.643 21.174 16.9758 21.0277C16.1833 20.8539 15.4885 20.3933 14.8611 19.8789C13.2351 18.42 11.0391 18.3162 9.24929 19.6966L9.02122 19.8769C8.36734 20.3941 7.661 20.9096 6.83099 20.9873C6.29483 21.0376 5.87823 20.9361 5.55936 20.8295C5.22588 20.718 4.90975 20.5515 4.62286 20.3482C4.38293 20.1782 4.17044 19.9724 3.99278 19.7381L3.89244 19.6058C3.6924 19.3419 3.5197 19.0562 3.41261 18.7428C3.19864 18.1169 3.12032 17.5435 3.23903 16.9382C3.40093 16.1126 3.96932 15.4413 4.51195 14.7984C5.88685 13.1276 5.85123 10.9409 4.38448 9.18289C3.81031 8.592 3.25078 7.94172 3.06818 7.1383C2.8983 6.39093 3.02898 5.76808 3.32696 5.06816C3.44746 4.78513 3.61751 4.52639 3.81074 4.28704L3.82192 4.27319C4.00579 4.04543 4.21695 3.84112 4.45066 3.66486C4.69724 3.47889 4.96312 3.31776 5.252 3.2085C5.92933 2.95231 6.4778 2.87645 7.29535 3.12462C8.06403 3.35796 8.72305 3.84678 9.32943 4.37367C10.7115 5.57161 12.8717 5.77186 14.8956 4.2437L15.0892 4.07267C15.6198 3.60399 16.2261 3.20493 16.9184 3.05692C17.7185 2.88583 18.28 2.96556 18.9321 3.19488C19.2379 3.30241 19.5177 3.47282 19.772 3.67375C19.9336 3.80145 20.0838 3.94346 20.2203 4.09774C20.4222 4.32598 20.598 4.57799 20.7182 4.85801C21.1526 5.86962 21.2428 6.75964 20.7407 7.90695C20.5285 8.3916 20.1867 8.80486 19.8145 9.18082C18.2431 10.5654 18.2703 13.2475 19.8145 14.7984C20.2983 15.284 20.7632 15.8161 20.9598 16.4728C21.2287 17.3707 21.0906 18.1953 20.676 19.1558Z" fill="url(#paint0_linear_5800_88653)"/>
<path d="M28.962 17.7629H32.9351C37.275 17.7629 39.6937 15.1171 39.6937 11.0567C39.6937 6.99624 37.275 4.35042 32.9351 4.35042H28.962C28.7263 4.35042 28.604 4.47267 28.604 4.70844V17.4049C28.604 17.6406 28.7263 17.7629 28.962 17.7629ZM31.0141 15.8942C30.7783 15.8942 30.656 15.7632 30.656 15.5362V6.5771C30.656 6.35007 30.7783 6.21909 31.0141 6.21909H32.8653C36.0175 6.21909 37.5806 7.9655 37.5806 11.0567C37.5806 14.1478 36.0175 15.8942 32.8653 15.8942H31.0141Z" fill="black"/>
<path d="M46.2515 17.9375C47.9805 17.9375 49.4213 17.1429 50.2595 15.8593C50.3731 15.6672 50.3032 15.5013 50.0762 15.3965L49.1593 15.0123C48.9585 14.9162 48.8013 14.9774 48.6616 15.1607C48.094 15.903 47.212 16.3134 46.2428 16.3134C44.7496 16.3134 43.4922 15.2742 43.2652 13.7898C43.2128 13.554 43.3612 13.4143 43.597 13.4143H50.6088C50.8271 13.4143 50.9668 13.2746 50.9843 13.0563V12.9428C50.9232 10.2882 48.8537 8.33225 46.2079 8.33225C43.4398 8.33225 41.3441 10.4716 41.3441 13.1349C41.3441 15.8069 43.4049 17.9375 46.2515 17.9375ZM43.7629 12.087C43.5096 12.087 43.3612 11.9211 43.466 11.6766C43.9201 10.5851 44.9592 9.87782 46.2166 9.87782C47.474 9.87782 48.4957 10.5939 48.9235 11.6766C49.0283 11.9299 48.8799 12.087 48.6354 12.087H43.7629Z" fill="black"/>
<path d="M55.7957 17.9375C57.8128 17.9375 59.2623 16.9246 59.2623 15.0297C59.2623 13.1873 57.8564 12.6459 56.5728 12.2529C55.4551 11.9124 54.4073 11.6854 54.4073 10.8907C54.4073 10.2446 54.9923 9.88656 55.8219 9.88656C56.4069 9.88656 57.1229 10.0699 57.7779 10.4629C57.9787 10.5851 58.1446 10.5502 58.2756 10.3668L58.817 9.5722C58.9567 9.38883 58.9218 9.21419 58.7209 9.09194C57.8826 8.60294 56.9046 8.34098 55.9179 8.34098C54.1191 8.34098 52.5473 9.24912 52.5473 11.0741C52.5473 12.8904 54.058 13.3619 55.3765 13.7723C56.4331 14.0954 57.35 14.3486 57.35 15.1782C57.35 15.9204 56.73 16.3308 55.8044 16.3308C54.9399 16.3308 54.0143 15.9553 53.3245 15.4751C53.1237 15.3354 52.949 15.3528 52.8268 15.5537L52.2941 16.4356C52.1719 16.6277 52.1981 16.8024 52.3989 16.9333C53.2459 17.4835 54.4422 17.9375 55.7957 17.9375Z" fill="black"/>
<path d="M62.4058 6.59457C63.0608 6.59457 63.6196 6.05318 63.6196 5.38954C63.6196 4.69971 63.0608 4.17578 62.4058 4.17578C61.7422 4.17578 61.1834 4.69971 61.1834 5.38954C61.1834 6.05318 61.7422 6.59457 62.4058 6.59457ZM61.7859 17.7629H63.0084C63.2441 17.7629 63.3664 17.6406 63.3664 17.4049V8.87364C63.3664 8.6466 63.2441 8.51562 63.0084 8.51562H61.7859C61.5588 8.51562 61.4279 8.6466 61.4279 8.87364V17.4049C61.4279 17.6406 61.5588 17.7629 61.7859 17.7629Z" fill="black"/>
<path d="M70.3258 22.1115C73.3908 22.1115 75.111 20.2515 75.111 17.4922V8.87364C75.111 8.6466 74.9888 8.51562 74.753 8.51562H73.513C73.2773 8.51562 73.155 8.6466 73.155 8.87364V9.18799C73.155 9.50235 72.9804 9.56347 72.7446 9.3539C72.081 8.72519 71.1903 8.34098 70.0551 8.34098C67.4966 8.34098 65.497 10.3232 65.497 12.9864C65.497 15.641 67.4966 17.6581 70.0726 17.6581C71.199 17.6581 72.0897 17.2826 72.7446 16.6539C72.9804 16.4443 73.155 16.4967 73.155 16.8111V17.6057C73.155 19.3085 72.2032 20.4262 70.2822 20.4262C69.2081 20.4262 68.1428 20.0769 67.3831 18.9679C67.2521 18.7583 67.0688 18.7234 66.8854 18.8719L66.0995 19.5442C65.9336 19.6839 65.8899 19.8586 66.0122 20.042C67.1823 21.6225 68.7803 22.1115 70.3258 22.1115ZM70.3433 15.9204C68.7279 15.9204 67.4355 14.663 67.4355 12.9864C67.4355 11.3012 68.7279 10.035 70.3433 10.035C71.9587 10.035 73.2685 11.3012 73.2685 12.9864C73.2685 14.663 71.9587 15.9204 70.3433 15.9204Z" fill="black"/>
<path d="M78.3943 17.7629H79.6255C79.8613 17.7629 79.9835 17.6406 79.9835 17.4049V12.4625C80.001 10.8296 80.9528 10.0263 82.1927 10.0263C83.389 10.0263 84.2622 10.6288 84.2622 12.4189V17.4049C84.2622 17.6406 84.3845 17.7629 84.6202 17.7629H85.8515C86.0872 17.7629 86.2095 17.6406 86.2095 17.4049V12.1394C86.2095 9.61586 84.7774 8.34098 82.7603 8.34098C81.7736 8.34098 80.9702 8.69026 80.3764 9.31897C80.1494 9.55474 79.9835 9.51108 79.9835 9.18799V8.87364C79.9835 8.6466 79.8613 8.51562 79.6255 8.51562H78.3943C78.1672 8.51562 78.0363 8.6466 78.0363 8.87364V17.4049C78.0363 17.6406 78.1672 17.7629 78.3943 17.7629Z" fill="black"/>
<path d="M100.172 17.7598H101.403C101.63 17.7598 101.761 17.6375 101.761 17.4018V13.0183C101.761 11.0972 102.862 10.3725 104.556 10.2939C104.791 10.2851 104.914 10.1367 104.914 9.92713V8.79196C104.914 8.55619 104.783 8.42521 104.538 8.45141C103.49 8.56492 102.652 9.01026 102.102 9.62151C101.875 9.866 101.709 9.80488 101.709 9.48179V8.87055C101.709 8.64351 101.578 8.51253 101.351 8.51253H100.172C99.9452 8.51253 99.8142 8.64351 99.8142 8.87055V17.4018C99.8142 17.6375 99.9452 17.7598 100.172 17.7598Z" fill="#1F1F1F"/>
<path d="M107.001 17.7598H108.232C108.459 17.7598 108.59 17.6375 108.59 17.4018V13.0183C108.59 11.0972 109.69 10.3725 111.384 10.2939C111.62 10.2851 111.742 10.1367 111.742 9.92713V8.79196C111.742 8.55619 111.611 8.42521 111.367 8.45141C110.319 8.56492 109.481 9.01026 108.93 9.62151C108.703 9.866 108.538 9.80488 108.538 9.48179V8.87055C108.538 8.64351 108.407 8.51253 108.18 8.51253H107.001C106.774 8.51253 106.643 8.64351 106.643 8.87055V17.4018C106.643 17.6375 106.774 17.7598 107.001 17.7598Z" fill="#1F1F1F"/>
<path d="M116.239 17.9344C118.256 17.9344 119.706 16.9215 119.706 15.0267C119.706 13.1842 118.3 12.6428 117.016 12.2499C115.899 11.9093 114.851 11.6823 114.851 10.8877C114.851 10.2415 115.436 9.88347 116.265 9.88347C116.85 9.88347 117.567 10.0668 118.221 10.4598C118.422 10.582 118.588 10.5471 118.719 10.3637L119.261 9.56911C119.4 9.38574 119.365 9.2111 119.164 9.08885C118.326 8.59985 117.348 8.33789 116.361 8.33789C114.563 8.33789 112.991 9.24603 112.991 11.071C112.991 12.8873 114.502 13.3588 115.82 13.7692C116.877 14.0923 117.794 14.3456 117.794 15.1751C117.794 15.9173 117.174 16.3277 116.248 16.3277C115.383 16.3277 114.458 15.9523 113.768 15.472C113.567 15.3323 113.393 15.3497 113.27 15.5506L112.738 16.4325C112.615 16.6246 112.642 16.7993 112.842 16.9303C113.689 17.4804 114.886 17.9344 116.239 17.9344Z" fill="#1F1F1F"/>
<path d="M95.4261 17.2495C96.9234 16.385 97.7739 14.9764 97.8581 13.4457C97.8603 13.2225 97.7169 13.1138 97.4679 13.1365L96.4817 13.2622C96.2598 13.2795 96.1542 13.411 96.1249 13.6397C96.0045 14.5662 95.4459 15.3626 94.6065 15.8473C93.3133 16.5939 91.7048 16.3227 90.766 15.1506C90.6027 14.9726 90.6614 14.7774 90.8656 14.6595L96.9381 11.1536C97.1271 11.0444 97.1783 10.8536 97.0842 10.6558L97.0275 10.5575C95.6473 8.28916 92.877 7.62997 90.5857 8.95288C88.1885 10.3369 87.4432 13.2375 88.7749 15.544C90.1109 17.858 92.9609 18.6728 95.4261 17.2495ZM90.3457 13.4271C90.1264 13.5537 89.9148 13.4843 89.8833 13.2201C89.7308 12.0478 90.2771 10.9157 91.366 10.287C92.455 9.65832 93.6978 9.76759 94.6097 10.4914C94.8271 10.6583 94.7771 10.8686 94.5654 10.9909L90.3457 13.4271Z" fill="#1F1F1F"/>
<defs>
<linearGradient id="paint0_linear_5800_88653" x1="25.3275" y1="26.7454" x2="1.5595" y2="-3.97362" gradientUnits="userSpaceOnUse">
<stop stop-color="#CD2026"/>
<stop offset="0.224683" stop-color="#A40707"/>
<stop offset="0.257819" stop-color="#E33333"/>
<stop offset="0.507758" stop-color="#9F0000"/>
<stop offset="0.553624" stop-color="#E33333"/>
<stop offset="0.786628" stop-color="#9D0000"/>
<stop offset="0.837331" stop-color="#DF3333"/>
</linearGradient>
</defs>
</svg>
