<svg width="40" height="40" viewBox="0 0 40 40" fill="none" xmlns="http://www.w3.org/2000/svg">
<rect width="40" height="40" rx="20" fill="white"/>
<path d="M31.7916 19.5233L29.6953 17.427L30.4783 14.5225C30.5288 14.3457 30.5036 14.1689 30.4025 13.9921C30.3015 13.8406 30.15 13.7143 29.9984 13.6638L27.0939 12.9313L26.311 10.0268C26.2099 9.67324 25.8311 9.44594 25.4775 9.54696L22.5983 10.3299L20.502 8.20837C20.2242 7.93054 19.7948 7.93054 19.5422 8.20837L17.4459 10.3047L14.5162 9.54696C14.1626 9.44594 13.7837 9.64799 13.6827 10.0268L12.925 12.9061L10.0205 13.689C9.66693 13.7901 9.43962 14.1689 9.54065 14.5225L10.3236 17.4017L8.20205 19.498C8.07577 19.6243 8 19.8011 8 19.9779C8 20.1547 8.07577 20.3315 8.20205 20.4578L10.2983 22.5541L9.54065 25.4838C9.49013 25.6606 9.51539 25.8374 9.61642 26.0142C9.71744 26.1657 9.86898 26.292 10.0205 26.3425L12.8998 27.075L13.6827 29.9795C13.7837 30.3331 14.1626 30.5604 14.5162 30.4594L17.3954 29.6764L19.517 31.7979C19.6433 31.9242 19.82 32 19.9968 32C20.1736 32 20.3504 31.9242 20.4767 31.7979L22.573 29.7017L25.4775 30.4846C25.6543 30.5351 25.8311 30.5099 26.0079 30.4088C26.1594 30.3078 26.2857 30.1563 26.3362 30.0047L27.0687 27.1002L29.9732 26.3173C30.15 26.2668 30.3015 26.1657 30.3773 25.989C30.4783 25.8374 30.5036 25.6354 30.453 25.4586L29.6701 22.5793L31.7916 20.4578C32.0695 20.2305 32.0695 19.8011 31.7916 19.5233ZM28.4325 21.9227C28.2557 22.0994 28.18 22.352 28.2557 22.5793L28.9629 25.1807L26.3615 25.8879C26.1342 25.9637 25.9321 26.1405 25.8816 26.3678L25.1744 28.9692L22.573 28.262C22.3457 28.1863 22.0931 28.262 21.9163 28.4388L19.9716 30.3583L18.0521 28.4388C17.9258 28.3125 17.749 28.2368 17.5722 28.2368C17.5217 28.2368 17.4459 28.2368 17.3954 28.262L14.794 28.9692L14.0868 26.3678C14.011 26.1405 13.8343 25.9384 13.6069 25.8879L11.0055 25.1807L11.7127 22.5793C11.7632 22.352 11.7127 22.0994 11.5359 21.9227L9.64167 19.9779L11.5612 18.0584C11.738 17.8816 11.8137 17.629 11.738 17.4017L11.0308 14.8003L13.6322 14.0931C13.8595 14.0174 14.0616 13.8406 14.1121 13.6133L14.8193 11.0118L17.4207 11.719C17.648 11.7948 17.9006 11.719 18.0773 11.5422L20.0221 9.64799L21.9416 11.5675C22.1184 11.7443 22.371 11.82 22.5983 11.7443L25.1997 11.0371L25.9069 13.6385C25.9826 13.8658 26.1594 14.0679 26.3867 14.1184L28.9882 14.8256L28.281 17.427C28.2052 17.6543 28.281 17.9069 28.4578 18.0837L30.352 19.9779L28.4325 21.9227Z" fill="#CD2026"/>
<path d="M17.37 19.447C18.5065 19.447 19.4158 18.5378 19.4158 17.4012C19.4158 16.2647 18.5065 15.3555 17.37 15.3555C16.2335 15.3555 15.3242 16.2647 15.3242 17.4012C15.3242 18.5378 16.2587 19.447 17.37 19.447ZM17.37 16.6941C17.7488 16.6941 18.0519 16.9971 18.0519 17.376C18.0519 17.7548 17.7488 18.0579 17.37 18.0579C16.9911 18.0579 16.6881 17.7548 16.6881 17.376C16.6881 16.9971 16.9911 16.6941 17.37 16.6941Z" fill="#CD2026"/>
<path d="M22.6239 20.5586C21.4874 20.5586 20.5781 21.4678 20.5781 22.6044C20.5781 23.7409 21.4874 24.6501 22.6239 24.6501C23.7604 24.6501 24.6697 23.7409 24.6697 22.6044C24.6697 21.4678 23.7352 20.5586 22.6239 20.5586ZM22.6239 23.3116C22.2451 23.3116 21.942 23.0085 21.942 22.6296C21.942 22.2508 22.2451 21.9477 22.6239 21.9477C23.0028 21.9477 23.3058 22.2508 23.3058 22.6296C23.3058 23.0085 23.0028 23.3116 22.6239 23.3116Z" fill="#CD2026"/>
<path d="M23.8858 16.1146C23.608 15.8368 23.1786 15.8368 22.9261 16.1146L16.1068 22.9086C15.829 23.1864 15.829 23.6158 16.1068 23.8684C16.2331 23.9946 16.4099 24.0704 16.5867 24.0704C16.7635 24.0704 16.9403 23.9946 17.0666 23.8684L23.8606 17.0744C24.1384 16.8218 24.1384 16.3924 23.8858 16.1146Z" fill="#CD2026"/>
</svg>
