<svg width="164" height="32" viewBox="0 0 164 32" fill="none" xmlns="http://www.w3.org/2000/svg">
<path d="M10.62 9.49L6.48 17.464V22H4.428V17.464L0.27 9.49H2.556L5.454 15.628L8.352 9.49H10.62ZM16.5504 22.162C15.6144 22.162 14.7684 21.952 14.0124 21.532C13.2564 21.1 12.6624 20.5 12.2304 19.732C11.7984 18.952 11.5824 18.052 11.5824 17.032C11.5824 16.024 11.8044 15.13 12.2484 14.35C12.6924 13.57 13.2984 12.97 14.0664 12.55C14.8344 12.13 15.6924 11.92 16.6404 11.92C17.5884 11.92 18.4464 12.13 19.2144 12.55C19.9824 12.97 20.5884 13.57 21.0324 14.35C21.4764 15.13 21.6984 16.024 21.6984 17.032C21.6984 18.04 21.4704 18.934 21.0144 19.714C20.5584 20.494 19.9344 21.1 19.1424 21.532C18.3624 21.952 17.4984 22.162 16.5504 22.162ZM16.5504 20.38C17.0784 20.38 17.5704 20.254 18.0264 20.002C18.4944 19.75 18.8724 19.372 19.1604 18.868C19.4484 18.364 19.5924 17.752 19.5924 17.032C19.5924 16.312 19.4544 15.706 19.1784 15.214C18.9024 14.71 18.5364 14.332 18.0804 14.08C17.6244 13.828 17.1324 13.702 16.6044 13.702C16.0764 13.702 15.5844 13.828 15.1284 14.08C14.6844 14.332 14.3304 14.71 14.0664 15.214C13.8024 15.706 13.6704 16.312 13.6704 17.032C13.6704 18.1 13.9404 18.928 14.4804 19.516C15.0324 20.092 15.7224 20.38 16.5504 20.38ZM32.709 12.082V22H30.657V20.83C30.333 21.238 29.907 21.562 29.379 21.802C28.863 22.03 28.311 22.144 27.723 22.144C26.943 22.144 26.241 21.982 25.617 21.658C25.005 21.334 24.519 20.854 24.159 20.218C23.811 19.582 23.637 18.814 23.637 17.914V12.082H25.671V17.608C25.671 18.496 25.893 19.18 26.337 19.66C26.781 20.128 27.387 20.362 28.155 20.362C28.923 20.362 29.529 20.128 29.973 19.66C30.429 19.18 30.657 18.496 30.657 17.608V12.082H32.709ZM37.4684 13.522C37.7684 13.018 38.1644 12.628 38.6564 12.352C39.1604 12.064 39.7544 11.92 40.4384 11.92V14.044H39.9164C39.1124 14.044 38.5004 14.248 38.0804 14.656C37.6724 15.064 37.4684 15.772 37.4684 16.78V22H35.4164V12.082H37.4684V13.522ZM51.1584 13.756H49.3224V22H47.2524V13.756H46.0824V12.082H47.2524V11.38C47.2524 10.24 47.5524 9.412 48.1524 8.896C48.7644 8.368 49.7184 8.104 51.0144 8.104V9.814C50.3904 9.814 49.9524 9.934 49.7004 10.174C49.4484 10.402 49.3224 10.804 49.3224 11.38V12.082H51.1584V13.756ZM62.067 16.798C62.067 17.17 62.043 17.506 61.995 17.806H54.417C54.477 18.598 54.771 19.234 55.299 19.714C55.827 20.194 56.475 20.434 57.243 20.434C58.347 20.434 59.127 19.972 59.583 19.048H61.797C61.497 19.96 60.951 20.71 60.159 21.298C59.379 21.874 58.407 22.162 57.243 22.162C56.295 22.162 55.443 21.952 54.687 21.532C53.943 21.1 53.355 20.5 52.923 19.732C52.503 18.952 52.293 18.052 52.293 17.032C52.293 16.012 52.497 15.118 52.905 14.35C53.325 13.57 53.907 12.97 54.651 12.55C55.407 12.13 56.271 11.92 57.243 11.92C58.179 11.92 59.013 12.124 59.745 12.532C60.477 12.94 61.047 13.516 61.455 14.26C61.863 14.992 62.067 15.838 62.067 16.798ZM59.925 16.15C59.913 15.394 59.643 14.788 59.115 14.332C58.587 13.876 57.933 13.648 57.153 13.648C56.445 13.648 55.839 13.876 55.335 14.332C54.831 14.776 54.531 15.382 54.435 16.15H59.925ZM73.1763 16.798C73.1763 17.17 73.1523 17.506 73.1043 17.806H65.5263C65.5863 18.598 65.8803 19.234 66.4083 19.714C66.9363 20.194 67.5843 20.434 68.3523 20.434C69.4563 20.434 70.2363 19.972 70.6923 19.048H72.9063C72.6063 19.96 72.0603 20.71 71.2683 21.298C70.4883 21.874 69.5163 22.162 68.3523 22.162C67.4043 22.162 66.5523 21.952 65.7963 21.532C65.0523 21.1 64.4643 20.5 64.0323 19.732C63.6123 18.952 63.4023 18.052 63.4023 17.032C63.4023 16.012 63.6063 15.118 64.0143 14.35C64.4343 13.57 65.0163 12.97 65.7603 12.55C66.5163 12.13 67.3803 11.92 68.3523 11.92C69.2883 11.92 70.1223 12.124 70.8543 12.532C71.5863 12.94 72.1563 13.516 72.5643 14.26C72.9723 14.992 73.1763 15.838 73.1763 16.798ZM71.0343 16.15C71.0223 15.394 70.7523 14.788 70.2243 14.332C69.6963 13.876 69.0423 13.648 68.2623 13.648C67.5543 13.648 66.9483 13.876 66.4443 14.332C65.9403 14.776 65.6403 15.382 65.5443 16.15H71.0343ZM74.5117 16.996C74.5117 16 74.7157 15.118 75.1237 14.35C75.5437 13.582 76.1077 12.988 76.8157 12.568C77.5357 12.136 78.3337 11.92 79.2097 11.92C79.8577 11.92 80.4937 12.064 81.1177 12.352C81.7537 12.628 82.2577 13 82.6297 13.468V8.68H84.6997V22H82.6297V20.506C82.2937 20.986 81.8257 21.382 81.2257 21.694C80.6377 22.006 79.9597 22.162 79.1917 22.162C78.3277 22.162 77.5357 21.946 76.8157 21.514C76.1077 21.07 75.5437 20.458 75.1237 19.678C74.7157 18.886 74.5117 17.992 74.5117 16.996ZM82.6297 17.032C82.6297 16.348 82.4857 15.754 82.1977 15.25C81.9217 14.746 81.5557 14.362 81.0997 14.098C80.6437 13.834 80.1517 13.702 79.6237 13.702C79.0957 13.702 78.6037 13.834 78.1477 14.098C77.6917 14.35 77.3197 14.728 77.0317 15.232C76.7557 15.724 76.6177 16.312 76.6177 16.996C76.6177 17.68 76.7557 18.28 77.0317 18.796C77.3197 19.312 77.6917 19.708 78.1477 19.984C78.6157 20.248 79.1077 20.38 79.6237 20.38C80.1517 20.38 80.6437 20.248 81.0997 19.984C81.5557 19.72 81.9217 19.336 82.1977 18.832C82.4857 18.316 82.6297 17.716 82.6297 17.032ZM89.4469 13.558C89.7949 13.078 90.2689 12.688 90.8689 12.388C91.4809 12.076 92.1589 11.92 92.9029 11.92C93.7789 11.92 94.5709 12.13 95.2789 12.55C95.9869 12.97 96.5449 13.57 96.9529 14.35C97.3609 15.118 97.5649 16 97.5649 16.996C97.5649 17.992 97.3609 18.886 96.9529 19.678C96.5449 20.458 95.9809 21.07 95.2609 21.514C94.5529 21.946 93.7669 22.162 92.9029 22.162C92.1349 22.162 91.4509 22.012 90.8509 21.712C90.2629 21.412 89.7949 21.028 89.4469 20.56V22H87.3949V8.68H89.4469V13.558ZM95.4769 16.996C95.4769 16.312 95.3329 15.724 95.0449 15.232C94.7689 14.728 94.3969 14.35 93.9289 14.098C93.4729 13.834 92.9809 13.702 92.4529 13.702C91.9369 13.702 91.4449 13.834 90.9769 14.098C90.5209 14.362 90.1489 14.746 89.8609 15.25C89.5849 15.754 89.4469 16.348 89.4469 17.032C89.4469 17.716 89.5849 18.316 89.8609 18.832C90.1489 19.336 90.5209 19.72 90.9769 19.984C91.4449 20.248 91.9369 20.38 92.4529 20.38C92.9809 20.38 93.4729 20.248 93.9289 19.984C94.3969 19.708 94.7689 19.312 95.0449 18.796C95.3329 18.28 95.4769 17.68 95.4769 16.996ZM98.9101 16.996C98.9101 16 99.1141 15.118 99.5221 14.35C99.9421 13.582 100.506 12.988 101.214 12.568C101.934 12.136 102.726 11.92 103.59 11.92C104.37 11.92 105.048 12.076 105.624 12.388C106.212 12.688 106.68 13.066 107.028 13.522V12.082H109.098V22H107.028V20.524C106.68 20.992 106.206 21.382 105.606 21.694C105.006 22.006 104.322 22.162 103.554 22.162C102.702 22.162 101.922 21.946 101.214 21.514C100.506 21.07 99.9421 20.458 99.5221 19.678C99.1141 18.886 98.9101 17.992 98.9101 16.996ZM107.028 17.032C107.028 16.348 106.884 15.754 106.596 15.25C106.32 14.746 105.954 14.362 105.498 14.098C105.042 13.834 104.55 13.702 104.022 13.702C103.494 13.702 103.002 13.834 102.546 14.098C102.09 14.35 101.718 14.728 101.43 15.232C101.154 15.724 101.016 16.312 101.016 16.996C101.016 17.68 101.154 18.28 101.43 18.796C101.718 19.312 102.09 19.708 102.546 19.984C103.014 20.248 103.506 20.38 104.022 20.38C104.55 20.38 105.042 20.248 105.498 19.984C105.954 19.72 106.32 19.336 106.596 18.832C106.884 18.316 107.028 17.716 107.028 17.032ZM111.109 17.032C111.109 16.012 111.313 15.118 111.721 14.35C112.141 13.57 112.717 12.97 113.449 12.55C114.181 12.13 115.021 11.92 115.969 11.92C117.169 11.92 118.159 12.208 118.939 12.784C119.731 13.348 120.265 14.158 120.541 15.214H118.327C118.147 14.722 117.859 14.338 117.463 14.062C117.067 13.786 116.569 13.648 115.969 13.648C115.129 13.648 114.457 13.948 113.953 14.548C113.461 15.136 113.215 15.964 113.215 17.032C113.215 18.1 113.461 18.934 113.953 19.534C114.457 20.134 115.129 20.434 115.969 20.434C117.157 20.434 117.943 19.912 118.327 18.868H120.541C120.253 19.876 119.713 20.68 118.921 21.28C118.129 21.868 117.145 22.162 115.969 22.162C115.021 22.162 114.181 21.952 113.449 21.532C112.717 21.1 112.141 20.5 111.721 19.732C111.313 18.952 111.109 18.052 111.109 17.032ZM126.51 17.05L131.082 22H128.31L124.638 17.734V22H122.586V8.68H124.638V16.42L128.238 12.082H131.082L126.51 17.05Z" fill="#1F1F1F"/>
<path d="M152 6C146.48 6 142 10.48 142 16C142 21.52 146.48 26 152 26C157.52 26 162 21.52 162 16C162 10.48 157.52 6 152 6ZM152 24C147.59 24 144 20.41 144 16C144 11.59 147.59 8 152 8C156.41 8 160 11.59 160 16C160 20.41 156.41 24 152 24ZM151 20H153V22H151V20ZM152.61 10.04C150.55 9.74 148.73 11.01 148.18 12.83C148 13.41 148.44 14 149.05 14H149.25C149.66 14 149.99 13.71 150.13 13.33C150.45 12.44 151.4 11.83 152.43 12.05C153.38 12.25 154.08 13.18 154 14.15C153.9 15.49 152.38 15.78 151.55 17.03C151.55 17.04 151.54 17.04 151.54 17.05C151.53 17.07 151.52 17.08 151.51 17.1C151.42 17.25 151.33 17.42 151.26 17.6C151.25 17.63 151.23 17.65 151.22 17.68C151.21 17.7 151.21 17.72 151.2 17.75C151.08 18.09 151 18.5 151 19H153C153 18.58 153.11 18.23 153.28 17.93C153.3 17.9 153.31 17.87 153.33 17.84C153.41 17.7 153.51 17.57 153.61 17.45C153.62 17.44 153.63 17.42 153.64 17.41C153.74 17.29 153.85 17.18 153.97 17.07C154.93 16.16 156.23 15.42 155.96 13.51C155.72 11.77 154.35 10.3 152.61 10.04V10.04Z" fill="#616161"/>
</svg>
