<svg width="253" height="249" viewBox="0 0 253 249" fill="none" xmlns="http://www.w3.org/2000/svg">
<g clip-path="url(#clip0_5800_88659)">
<path d="M133.641 3.90245C133.285 3.54576 132.861 3.2628 132.395 3.06976C131.93 2.87671 131.43 2.77734 130.926 2.77734C130.422 2.77734 129.922 2.87671 129.456 3.06976C128.99 3.2628 128.567 3.54576 128.211 3.90245L127.471 4.64236L126.731 3.90245C126.011 3.18229 125.034 2.77772 124.015 2.77772C122.997 2.77772 122.02 3.18229 121.3 3.90245C120.58 4.6226 120.175 5.59934 120.175 6.61779C120.175 7.63624 120.58 8.61298 121.3 9.33313L122.04 10.073L127.471 15.5037L132.901 10.073L133.641 9.33313C133.998 8.97661 134.281 8.5533 134.474 8.08739C134.667 7.62148 134.766 7.12211 134.766 6.61779C134.766 6.11347 134.667 5.61409 134.474 5.14819C134.281 4.68228 133.998 4.25897 133.641 3.90245Z" fill="white" stroke="#1F1F1F" stroke-width="1.67527" stroke-linecap="round" stroke-linejoin="round"/>
</g>
<path d="M143.123 88.9789L143.27 89.6116L143.822 89.2686L200.771 53.8663L165.369 110.815L165.026 111.367L165.658 111.515L230.961 126.75L165.658 141.986L165.026 142.134L165.369 142.686L200.771 199.635L143.822 164.232L143.27 163.889L143.123 164.522L127.887 229.824L112.651 164.522L112.504 163.889L111.952 164.232L55.0028 199.635L90.4051 142.686L90.7481 142.134L90.1154 141.986L24.8133 126.75L90.1154 111.515L90.7481 111.367L90.4051 110.815L55.0028 53.8663L111.952 89.2686L112.504 89.6116L112.651 88.9789L127.887 23.6768L143.123 88.9789Z" fill="white" stroke="#EDEDED" stroke-width="0.931476"/>
<path d="M212.489 36.607L214.624 42.3767C214.794 42.8353 215.155 43.1968 215.614 43.3665L221.384 45.5015L215.614 47.6364C215.155 47.8061 214.794 48.1677 214.624 48.6262L212.489 54.3959L210.354 48.6262C210.185 48.1677 209.823 47.8061 209.365 47.6364L203.595 45.5015L209.365 43.3665C209.823 43.1968 210.185 42.8353 210.354 42.3767L212.489 36.607Z" fill="white" stroke="#1F1F1F" stroke-width="1.67527" stroke-linejoin="round"/>
<mask id="path-4-inside-1_5800_88659" fill="white">
<rect x="235.526" y="117.957" width="16.7527" height="16.7527" rx="0.837637"/>
</mask>
<rect x="235.526" y="117.957" width="16.7527" height="16.7527" rx="0.837637" fill="white" stroke="#1F1F1F" stroke-width="3.35055" mask="url(#path-4-inside-1_5800_88659)"/>
<path d="M30.6228 42.5658L39.2445 33.9441L47.8662 42.5658L39.2445 51.1875L30.6228 42.5658Z" fill="white" stroke="#1F1F1F" stroke-width="1.58128"/>
<mask id="path-6-inside-2_5800_88659" fill="white">
<path d="M36.2771 214.731C36.2771 209.18 40.7774 204.68 46.3287 204.68H50.3431C50.8057 204.68 51.1807 205.055 51.1807 205.517V208.6C51.1807 214.152 46.6804 218.652 41.1291 218.652H37.1147C36.6521 218.652 36.2771 218.277 36.2771 217.814V214.731Z"/>
</mask>
<path d="M36.2771 214.731C36.2771 209.18 40.7774 204.68 46.3287 204.68H50.3431C50.8057 204.68 51.1807 205.055 51.1807 205.517V208.6C51.1807 214.152 46.6804 218.652 41.1291 218.652H37.1147C36.6521 218.652 36.2771 218.277 36.2771 217.814V214.731Z" fill="white" stroke="#1F1F1F" stroke-width="3.35055" mask="url(#path-6-inside-2_5800_88659)"/>
<path d="M210.814 198.374L218.999 212.608L202.629 212.608L210.814 198.374Z" stroke="black" stroke-width="1.67527"/>
<mask id="path-8-inside-3_5800_88659" fill="white">
<path fill-rule="evenodd" clip-rule="evenodd" d="M133.59 248.659C137.246 248.659 140.21 245.695 140.21 242.038C140.21 238.382 137.246 235.418 133.59 235.418C131.544 235.418 129.715 236.346 128.501 237.804C128.169 238.202 127.495 238.203 127.163 237.804C125.948 236.346 124.12 235.418 122.074 235.418C118.417 235.418 115.453 238.382 115.453 242.039C115.453 245.695 118.417 248.659 122.074 248.659C124.12 248.659 125.949 247.731 127.163 246.273C127.495 245.875 128.169 245.875 128.501 246.273C129.715 247.731 131.544 248.659 133.59 248.659Z"/>
</mask>
<path d="M127.163 246.273L128.191 247.13L127.163 246.273ZM128.501 237.804L129.529 238.66L128.501 237.804ZM138.872 242.038C138.872 244.956 136.507 247.321 133.59 247.321V249.997C137.985 249.997 141.549 246.434 141.549 242.038H138.872ZM133.59 236.756C136.507 236.756 138.872 239.121 138.872 242.038H141.549C141.549 237.643 137.985 234.08 133.59 234.08V236.756ZM129.529 238.66C130.5 237.494 131.958 236.756 133.59 236.756V234.08C131.13 234.08 128.93 235.197 127.473 236.947L129.529 238.66ZM122.074 236.756C123.706 236.756 125.164 237.495 126.135 238.66L128.191 236.947C126.733 235.198 124.533 234.08 122.074 234.08V236.756ZM116.791 242.039C116.791 239.121 119.156 236.756 122.074 236.756V234.08C117.678 234.08 114.115 237.643 114.115 242.039H116.791ZM122.074 247.321C119.156 247.321 116.791 244.956 116.791 242.039H114.115C114.115 246.434 117.678 249.997 122.074 249.997V247.321ZM126.135 245.417C125.164 246.583 123.706 247.321 122.074 247.321V249.997C124.534 249.997 126.734 248.88 128.191 247.13L126.135 245.417ZM133.59 247.321C131.958 247.321 130.5 246.583 129.529 245.417L127.473 247.13C128.931 248.88 131.13 249.997 133.59 249.997V247.321ZM128.191 247.13C128.067 247.279 127.918 247.312 127.832 247.312C127.746 247.312 127.597 247.279 127.473 247.13L129.529 245.417C128.662 244.376 127.002 244.376 126.135 245.417L128.191 247.13ZM127.473 236.947C127.597 236.798 127.746 236.765 127.832 236.765C127.918 236.765 128.067 236.798 128.191 236.947L126.135 238.66C127.002 239.701 128.662 239.701 129.529 238.66L127.473 236.947Z" fill="#1F1F1F" mask="url(#path-8-inside-3_5800_88659)"/>
<path d="M9.78176 118.993L17.5926 124.676L14.6086 133.872H4.95488L1.97093 124.676L9.78176 118.993Z" stroke="#1F1F1F" stroke-width="1.67527"/>
<path d="M55.5764 125.677L90.021 111.07H139.072L129.993 142.447H90.0079L55.5764 125.677Z" fill="#620000"/>
<path d="M128.027 39.3418L112.207 89.144L138.63 111.058L143.555 88.924L128.027 39.3418Z" fill="#D31E1E"/>
<path d="M194.933 59.8652L143.373 89.0811L138.463 111.082H165.79L194.933 59.8652Z" fill="#E94242"/>
<path d="M196.375 125.778L165.712 111.102H138.918L130.091 142.599H165.712L196.375 125.778Z" fill="#C22626"/>
<path d="M169.421 167.045L165.772 142.471H129.909L143.594 164.622L169.421 167.045Z" fill="#860000"/>
<path d="M128.248 196.512L143.575 164.595L130.088 142.584H112.178V164.595L128.248 196.512Z" fill="#CF0000"/>
<path d="M69.6721 184.965L112.274 164.499V142.322H90.1283L69.6721 184.965Z" fill="#940000"/>
<path d="M75.5374 74.3965L89.6954 111.275H138.376L111.759 88.9275L75.5374 74.3965Z" fill="#A70B11"/>
<path d="M111.767 88.6367L127.682 126.33L143.598 88.6367H111.767Z" fill="#D31E1E"/>
<path d="M111.767 164.023L127.682 126.33L143.598 164.023H111.767Z" fill="#CF0000"/>
<path d="M165.375 110.416L127.681 126.331L165.375 142.246L165.375 110.416Z" fill="#C22626"/>
<path d="M165.589 141.943L127.682 126.544L143.082 164.451L165.589 141.943Z" fill="#860000"/>
<path d="M89.9866 141.943L127.894 126.544L112.494 164.451L89.9866 141.943Z" fill="#940000"/>
<path d="M89.9866 110.416L127.68 126.331L89.9866 142.246L89.9866 110.416Z" fill="#620000"/>
<path d="M112.284 88.6367L127.684 126.544L89.7768 111.144L112.284 88.6367Z" fill="#A70B11"/>
<path d="M143.292 88.6367L127.892 126.544L165.8 111.144L143.292 88.6367Z" fill="#E94242"/>
<path d="M139.481 88.6367H142.62V89.0555L144.016 89.0555L145.003 90.0425L145.299 89.7463L147.518 91.9656L147.222 92.2617L149.441 94.481L149.737 94.1848L151.956 96.4041L151.66 96.7002L153.88 98.9195L154.176 98.6234L156.395 100.843L156.099 101.139L158.318 103.358L158.614 103.062L160.833 105.281L160.537 105.577L162.757 107.797L163.053 107.5L165.272 109.72L164.976 110.016L165.963 111.003V112.398H166.382V115.537H165.963V118.675L166.382 118.675V121.814H165.963V124.952H166.382L166.382 128.091H165.963V131.229H166.382V134.368H165.963V137.506H166.382V140.645H165.963V142.041L164.976 143.028L165.272 143.324L163.053 145.543L162.757 145.247L160.537 147.466L160.833 147.762L158.614 149.982L158.318 149.685L156.099 151.905L156.395 152.201L154.176 154.42L153.88 154.124L151.66 156.343L151.956 156.639L149.737 158.859L149.441 158.562L147.222 160.782L147.518 161.078L145.299 163.297L145.003 163.001L144.016 163.988H142.62V164.407H139.481V163.988H136.343V164.407H133.204V163.988H130.066V164.407L126.927 164.407V163.988H123.789V164.407H120.65V163.988H117.512V164.407H114.373V163.988H112.978L111.991 163.001L111.694 163.297L109.475 161.078L109.771 160.782L107.552 158.562L107.256 158.859L105.037 156.639L105.333 156.343L103.114 154.124L102.817 154.42L100.598 152.201L100.894 151.905L98.6751 149.685L98.379 149.982L96.1597 147.762L96.4559 147.466L94.2366 145.247L93.9405 145.543L91.7212 143.324L92.0173 143.028L91.0304 142.041L91.0304 140.645H90.6116V137.506H91.0304L91.0304 134.368H90.6116V131.229H91.0304L91.0304 128.091H90.6116V124.952H91.0304L91.0304 121.814H90.6116V118.675L91.0304 118.675L91.0304 115.537H90.6116V112.398H91.0304L91.0304 111.003L92.0173 110.016L91.7212 109.72L93.9404 107.5L94.2366 107.797L96.4559 105.577L96.1597 105.281L98.379 103.062L98.6751 103.358L100.894 101.139L100.598 100.843L102.817 98.6234L103.114 98.9195L105.333 96.7002L105.037 96.4041L107.256 94.1848L107.552 94.481L109.771 92.2617L109.475 91.9656L111.694 89.7463L111.991 90.0425L112.978 89.0555L114.373 89.0555V88.6367H117.512V89.0555L120.65 89.0555V88.6367H123.789V89.0555L126.927 89.0555V88.6367H130.066V89.0555L133.204 89.0555V88.6367H136.343V89.0555L139.481 89.0555V88.6367Z" stroke="#CA8C8F" stroke-width="0.837637" stroke-dasharray="3.35 3.35"/>
<defs>
<clipPath id="clip0_5800_88659">
<rect width="16.7527" height="16.7527" fill="white" transform="translate(119.095 0.685547)"/>
</clipPath>
</defs>
</svg>
