<svg width="28" height="28" viewBox="0 0 28 28" fill="none" xmlns="http://www.w3.org/2000/svg">
<path d="M13.988 0.666992C6.62797 0.666992 0.667969 6.64033 0.667969 14.0003C0.667969 21.3603 6.62797 27.3337 13.988 27.3337C21.3613 27.3337 27.3346 21.3603 27.3346 14.0003C27.3346 6.64033 21.3613 0.666992 13.988 0.666992ZM23.228 8.66699H19.2946C18.868 7.00033 18.2546 5.40033 17.4546 3.92033C19.908 4.76033 21.948 6.46699 23.228 8.66699ZM14.0013 3.38699C15.108 4.98699 15.9746 6.76033 16.548 8.66699H11.4546C12.028 6.76033 12.8946 4.98699 14.0013 3.38699ZM3.6813 16.667C3.46797 15.8137 3.33464 14.9203 3.33464 14.0003C3.33464 13.0803 3.46797 12.187 3.6813 11.3337H8.18797C8.0813 12.2137 8.0013 13.0937 8.0013 14.0003C8.0013 14.907 8.0813 15.787 8.18797 16.667H3.6813ZM4.77464 19.3337H8.70797C9.13464 21.0003 9.74797 22.6003 10.548 24.0803C8.09464 23.2403 6.05464 21.547 4.77464 19.3337ZM8.70797 8.66699H4.77464C6.05464 6.45366 8.09464 4.76033 10.548 3.92033C9.74797 5.40033 9.13464 7.00033 8.70797 8.66699ZM14.0013 24.6137C12.8946 23.0137 12.028 21.2403 11.4546 19.3337H16.548C15.9746 21.2403 15.108 23.0137 14.0013 24.6137ZM17.1213 16.667H10.8813C10.7613 15.787 10.668 14.907 10.668 14.0003C10.668 13.0937 10.7613 12.2003 10.8813 11.3337H17.1213C17.2413 12.2003 17.3346 13.0937 17.3346 14.0003C17.3346 14.907 17.2413 15.787 17.1213 16.667ZM17.4546 24.0803C18.2546 22.6003 18.868 21.0003 19.2946 19.3337H23.228C21.948 21.5337 19.908 23.2403 17.4546 24.0803ZM19.8146 16.667C19.9213 15.787 20.0013 14.907 20.0013 14.0003C20.0013 13.0937 19.9213 12.2137 19.8146 11.3337H24.3213C24.5346 12.187 24.668 13.0803 24.668 14.0003C24.668 14.9203 24.5346 15.8137 24.3213 16.667H19.8146Z" fill="#169F32"/>
</svg>
