<svg width="77" height="58" viewBox="0 0 77 58" fill="none" xmlns="http://www.w3.org/2000/svg">
<mask id="path-1-outside-1_1739_123024" maskUnits="userSpaceOnUse" x="0" y="0" width="77" height="58" fill="black">
<rect fill="white" width="77" height="58"/>
<path d="M76.0118 28.2356L59.3106 1.58244C59.1791 1.31855 58.7846 1.05465 58.5216 1.05465C58.1271 0.922707 57.8641 1.05465 57.4696 1.1866L49.5793 6.20057C48.9217 6.59641 48.7902 7.38809 49.1847 8.04782L49.5793 8.70756C46.4231 8.17977 41.5574 7.91588 38.4013 9.36729H38.2698C34.8507 8.17977 29.0645 8.8395 25.6453 9.49923L26.6974 7.78393C27.0919 7.1242 26.8289 6.33252 26.1713 5.93668L18.4125 1.31855C18.1495 1.1866 17.755 1.05465 17.3605 1.1866C16.966 1.31855 16.703 1.45049 16.5715 1.84633L1.18536 29.0273C0.790846 29.6871 1.05386 30.4787 1.71138 30.8746L9.33868 35.2288C9.60169 35.3608 9.7332 35.3608 9.99621 35.3608C10.3907 35.3608 10.9167 35.0969 11.1798 34.701L12.7578 31.9302C13.1523 32.8538 13.6783 33.6455 14.2044 34.1732C13.2838 35.2288 12.7578 36.5483 12.7578 37.8677C12.7578 39.3192 13.2838 40.7706 14.3359 41.8261C15.3879 42.8817 16.8345 43.4095 18.281 43.4095C18.4125 43.4095 18.544 43.4095 18.8071 43.4095C18.8071 43.5414 18.8071 43.6734 18.8071 43.9373C18.8071 45.3887 19.3331 46.8401 20.3851 47.8957C21.4372 48.9513 22.7522 49.479 24.3303 49.479C24.4618 49.479 24.5933 49.479 24.8563 49.479C24.8563 49.611 24.8563 49.7429 24.8563 50.0068C24.8563 51.4582 25.3823 52.9097 26.4344 53.9652C27.4864 55.0208 28.9329 55.5486 30.3795 55.5486C31.8261 55.5486 33.1411 55.0208 34.3247 53.9652L34.8507 53.4374L38.0068 55.8125C39.0588 56.6042 40.1109 57 41.2944 57C43.004 57 44.5821 56.3403 45.5026 55.0208C46.1601 54.0972 46.5546 53.1735 46.5546 52.118C46.6861 52.118 46.6861 52.118 46.8176 52.118C48.3957 52.118 49.9738 51.4582 51.0258 50.1388C51.6833 49.2152 52.0779 48.1596 52.0779 47.236C52.2094 47.236 52.3409 47.236 52.4724 47.236C54.0504 47.236 55.6285 46.5762 56.6805 45.3887C57.3381 44.597 57.7326 43.6734 57.7326 42.4859C59.0476 42.3539 60.3627 41.6942 61.1517 40.5067C62.3353 38.9233 62.4668 36.9441 61.6777 35.3608L65.2284 33.2496L66.2804 34.9649C66.4119 35.2288 66.8064 35.4927 67.0694 35.4927C67.2009 35.4927 67.2009 35.4927 67.3325 35.4927C67.5955 35.4927 67.8585 35.3608 67.99 35.2288L75.8803 30.0829C76.2748 29.5551 76.4063 28.7634 76.0118 28.2356ZM9.47019 32.194L4.07847 29.1593L18.1495 4.08943L23.6727 7.38809L9.47019 32.194ZM16.0454 39.9789C15.5194 39.4511 15.2564 38.6594 15.2564 37.9997C15.2564 37.208 15.5194 36.5483 16.0454 36.0205L16.8345 35.2288C17.8865 34.1732 19.8591 34.1732 20.9111 35.2288C21.4372 35.7566 21.7002 36.5483 21.7002 37.208C21.7002 37.9997 21.4372 38.6594 20.9111 39.1872L20.1221 39.9789C19.0701 41.0345 17.229 41.0345 16.0454 39.9789ZM21.9632 45.9165C21.4372 45.3887 21.1741 44.597 21.1741 43.9373C21.1741 43.1456 21.4372 42.4859 21.9632 41.9581L22.7522 41.1664C23.2782 40.6386 24.0673 40.3747 24.7248 40.3747C25.3823 40.3747 26.1713 40.6386 26.6974 41.1664C27.8809 42.3539 27.8809 44.0692 26.6974 45.2568L25.9083 46.0484C24.9878 46.9721 23.1467 46.9721 21.9632 45.9165ZM31.9576 51.8541C30.774 52.9097 29.0644 52.9097 27.8809 51.8541C27.3549 51.3263 27.0919 50.5346 27.0919 49.8749C27.0919 49.0832 27.3549 48.4235 27.8809 47.8957L28.6699 47.104C29.196 46.5762 29.985 46.3123 30.6425 46.3123C31.3 46.3123 32.0891 46.5762 32.6151 47.104C33.1411 47.6318 33.4041 48.4235 33.4041 49.0832C33.4041 49.8749 33.1411 50.5346 32.6151 51.0624L31.9576 51.8541ZM58.6531 38.6594C58.1271 39.3192 57.3381 39.715 56.4175 39.583C56.286 39.4511 56.023 39.4511 55.76 39.4511C55.497 39.3192 55.234 39.1872 54.971 39.0553L52.3409 36.9441C51.8148 36.5483 50.8943 36.5483 50.4998 37.208C50.1053 37.7358 50.1053 38.6594 50.7628 39.0553L53.3929 41.1664C53.7874 41.4303 54.1819 41.6942 54.708 41.9581C54.708 42.4859 54.5765 43.0137 54.3134 43.4095C53.3929 44.4651 51.6833 44.729 50.6313 43.9373L50.4998 43.8053C50.4998 43.8053 50.3683 43.8053 50.3683 43.6734L47.7382 41.5622C47.2122 41.1664 46.2916 41.1664 45.8971 41.8261C45.5026 42.3539 45.5026 43.2776 46.1601 43.6734L48.7902 45.7845L48.9217 45.9165C49.3162 46.5762 49.3162 47.6318 48.7902 48.2915C48.0012 49.2152 46.4231 49.611 45.3711 48.9513C45.2396 48.8193 45.1081 48.8193 44.9766 48.6874L44.8451 48.5554L42.215 46.4443C41.6889 46.0484 40.7684 46.0484 40.3739 46.7082C39.9794 47.236 39.9794 48.1596 40.6369 48.5554L43.267 50.6666C43.3985 50.6666 43.3985 50.7985 43.53 50.9305C43.793 51.7221 43.793 52.5138 43.1355 53.3055C42.741 53.9652 41.952 54.2291 41.0314 54.2291C40.3739 54.2291 39.8479 54.0972 39.3219 53.5694L36.6917 51.5902L36.0342 51.1944C36.2972 50.5346 36.4287 49.8749 36.4287 49.0832C36.4287 47.6318 35.9027 46.1804 34.8507 45.1248C33.6671 43.9373 32.0891 43.4095 30.511 43.5414C30.6425 41.9581 30.1165 40.3747 28.9329 39.1872C27.7494 37.9997 26.1713 37.4719 24.5933 37.6039C24.5933 37.4719 24.5933 37.34 24.5933 37.0761C24.5933 35.6247 24.0673 34.1732 23.0152 33.1177C21.9632 32.0621 20.6481 31.5343 19.0701 31.5343C18.018 31.5343 16.966 31.7982 16.1769 32.326C15.6509 31.6663 14.8619 30.4787 14.5989 28.7634L24.0673 12.2701C26.6974 11.7423 32.2206 10.8187 35.9027 11.3465L26.8289 19.7911C25.2508 21.3744 25.1193 23.8814 26.6974 25.5967C27.4864 26.5203 28.6699 27.0481 29.8535 27.0481C30.6425 27.0481 31.4315 26.7842 32.0891 26.3884L39.5849 21.3744C40.6369 20.5827 41.952 20.3189 43.267 20.5827L44.5821 20.7147L56.549 33.3816L58.6531 35.6247C59.3106 36.2844 59.3106 37.7358 58.6531 38.6594ZM59.7052 32.9857L58.2586 31.4024L48.5272 20.9786L50.2368 21.1105C50.8943 21.2425 51.5518 20.7147 51.6833 19.923C51.8148 19.2633 51.2888 18.6035 50.4998 18.4716L45.5026 17.9438C45.2396 17.8119 45.1081 17.8119 44.8451 17.8119L43.53 17.6799C41.6889 17.416 39.5849 17.8119 38.0068 18.9994L30.511 24.0134C29.8535 24.4092 29.0645 24.2773 28.5384 23.7495C28.0124 23.0897 28.0124 22.1661 28.5384 21.6383L38.4013 12.4021C38.5328 12.2701 38.7958 12.1382 38.9273 11.8743C39.1903 11.8743 39.3219 11.7423 39.4534 11.6104C42.215 10.2909 47.8697 10.8187 51.4203 11.6104L63.3873 30.7426L59.7052 32.9857ZM67.464 32.194L66.5434 30.8746C66.5434 30.7426 66.5434 30.6107 66.4119 30.4787C66.2804 30.3468 66.1489 30.2148 66.1489 30.0829L52.2094 7.65198L57.8641 4.08943L73.1187 28.4995L67.464 32.194Z"/>
</mask>
<path d="M76.0118 28.2356L59.3106 1.58244C59.1791 1.31855 58.7846 1.05465 58.5216 1.05465C58.1271 0.922707 57.8641 1.05465 57.4696 1.1866L49.5793 6.20057C48.9217 6.59641 48.7902 7.38809 49.1847 8.04782L49.5793 8.70756C46.4231 8.17977 41.5574 7.91588 38.4013 9.36729H38.2698C34.8507 8.17977 29.0645 8.8395 25.6453 9.49923L26.6974 7.78393C27.0919 7.1242 26.8289 6.33252 26.1713 5.93668L18.4125 1.31855C18.1495 1.1866 17.755 1.05465 17.3605 1.1866C16.966 1.31855 16.703 1.45049 16.5715 1.84633L1.18536 29.0273C0.790846 29.6871 1.05386 30.4787 1.71138 30.8746L9.33868 35.2288C9.60169 35.3608 9.7332 35.3608 9.99621 35.3608C10.3907 35.3608 10.9167 35.0969 11.1798 34.701L12.7578 31.9302C13.1523 32.8538 13.6783 33.6455 14.2044 34.1732C13.2838 35.2288 12.7578 36.5483 12.7578 37.8677C12.7578 39.3192 13.2838 40.7706 14.3359 41.8261C15.3879 42.8817 16.8345 43.4095 18.281 43.4095C18.4125 43.4095 18.544 43.4095 18.8071 43.4095C18.8071 43.5414 18.8071 43.6734 18.8071 43.9373C18.8071 45.3887 19.3331 46.8401 20.3851 47.8957C21.4372 48.9513 22.7522 49.479 24.3303 49.479C24.4618 49.479 24.5933 49.479 24.8563 49.479C24.8563 49.611 24.8563 49.7429 24.8563 50.0068C24.8563 51.4582 25.3823 52.9097 26.4344 53.9652C27.4864 55.0208 28.9329 55.5486 30.3795 55.5486C31.8261 55.5486 33.1411 55.0208 34.3247 53.9652L34.8507 53.4374L38.0068 55.8125C39.0588 56.6042 40.1109 57 41.2944 57C43.004 57 44.5821 56.3403 45.5026 55.0208C46.1601 54.0972 46.5546 53.1735 46.5546 52.118C46.6861 52.118 46.6861 52.118 46.8176 52.118C48.3957 52.118 49.9738 51.4582 51.0258 50.1388C51.6833 49.2152 52.0779 48.1596 52.0779 47.236C52.2094 47.236 52.3409 47.236 52.4724 47.236C54.0504 47.236 55.6285 46.5762 56.6805 45.3887C57.3381 44.597 57.7326 43.6734 57.7326 42.4859C59.0476 42.3539 60.3627 41.6942 61.1517 40.5067C62.3353 38.9233 62.4668 36.9441 61.6777 35.3608L65.2284 33.2496L66.2804 34.9649C66.4119 35.2288 66.8064 35.4927 67.0694 35.4927C67.2009 35.4927 67.2009 35.4927 67.3325 35.4927C67.5955 35.4927 67.8585 35.3608 67.99 35.2288L75.8803 30.0829C76.2748 29.5551 76.4063 28.7634 76.0118 28.2356ZM9.47019 32.194L4.07847 29.1593L18.1495 4.08943L23.6727 7.38809L9.47019 32.194ZM16.0454 39.9789C15.5194 39.4511 15.2564 38.6594 15.2564 37.9997C15.2564 37.208 15.5194 36.5483 16.0454 36.0205L16.8345 35.2288C17.8865 34.1732 19.8591 34.1732 20.9111 35.2288C21.4372 35.7566 21.7002 36.5483 21.7002 37.208C21.7002 37.9997 21.4372 38.6594 20.9111 39.1872L20.1221 39.9789C19.0701 41.0345 17.229 41.0345 16.0454 39.9789ZM21.9632 45.9165C21.4372 45.3887 21.1741 44.597 21.1741 43.9373C21.1741 43.1456 21.4372 42.4859 21.9632 41.9581L22.7522 41.1664C23.2782 40.6386 24.0673 40.3747 24.7248 40.3747C25.3823 40.3747 26.1713 40.6386 26.6974 41.1664C27.8809 42.3539 27.8809 44.0692 26.6974 45.2568L25.9083 46.0484C24.9878 46.9721 23.1467 46.9721 21.9632 45.9165ZM31.9576 51.8541C30.774 52.9097 29.0644 52.9097 27.8809 51.8541C27.3549 51.3263 27.0919 50.5346 27.0919 49.8749C27.0919 49.0832 27.3549 48.4235 27.8809 47.8957L28.6699 47.104C29.196 46.5762 29.985 46.3123 30.6425 46.3123C31.3 46.3123 32.0891 46.5762 32.6151 47.104C33.1411 47.6318 33.4041 48.4235 33.4041 49.0832C33.4041 49.8749 33.1411 50.5346 32.6151 51.0624L31.9576 51.8541ZM58.6531 38.6594C58.1271 39.3192 57.3381 39.715 56.4175 39.583C56.286 39.4511 56.023 39.4511 55.76 39.4511C55.497 39.3192 55.234 39.1872 54.971 39.0553L52.3409 36.9441C51.8148 36.5483 50.8943 36.5483 50.4998 37.208C50.1053 37.7358 50.1053 38.6594 50.7628 39.0553L53.3929 41.1664C53.7874 41.4303 54.1819 41.6942 54.708 41.9581C54.708 42.4859 54.5765 43.0137 54.3134 43.4095C53.3929 44.4651 51.6833 44.729 50.6313 43.9373L50.4998 43.8053C50.4998 43.8053 50.3683 43.8053 50.3683 43.6734L47.7382 41.5622C47.2122 41.1664 46.2916 41.1664 45.8971 41.8261C45.5026 42.3539 45.5026 43.2776 46.1601 43.6734L48.7902 45.7845L48.9217 45.9165C49.3162 46.5762 49.3162 47.6318 48.7902 48.2915C48.0012 49.2152 46.4231 49.611 45.3711 48.9513C45.2396 48.8193 45.1081 48.8193 44.9766 48.6874L44.8451 48.5554L42.215 46.4443C41.6889 46.0484 40.7684 46.0484 40.3739 46.7082C39.9794 47.236 39.9794 48.1596 40.6369 48.5554L43.267 50.6666C43.3985 50.6666 43.3985 50.7985 43.53 50.9305C43.793 51.7221 43.793 52.5138 43.1355 53.3055C42.741 53.9652 41.952 54.2291 41.0314 54.2291C40.3739 54.2291 39.8479 54.0972 39.3219 53.5694L36.6917 51.5902L36.0342 51.1944C36.2972 50.5346 36.4287 49.8749 36.4287 49.0832C36.4287 47.6318 35.9027 46.1804 34.8507 45.1248C33.6671 43.9373 32.0891 43.4095 30.511 43.5414C30.6425 41.9581 30.1165 40.3747 28.9329 39.1872C27.7494 37.9997 26.1713 37.4719 24.5933 37.6039C24.5933 37.4719 24.5933 37.34 24.5933 37.0761C24.5933 35.6247 24.0673 34.1732 23.0152 33.1177C21.9632 32.0621 20.6481 31.5343 19.0701 31.5343C18.018 31.5343 16.966 31.7982 16.1769 32.326C15.6509 31.6663 14.8619 30.4787 14.5989 28.7634L24.0673 12.2701C26.6974 11.7423 32.2206 10.8187 35.9027 11.3465L26.8289 19.7911C25.2508 21.3744 25.1193 23.8814 26.6974 25.5967C27.4864 26.5203 28.6699 27.0481 29.8535 27.0481C30.6425 27.0481 31.4315 26.7842 32.0891 26.3884L39.5849 21.3744C40.6369 20.5827 41.952 20.3189 43.267 20.5827L44.5821 20.7147L56.549 33.3816L58.6531 35.6247C59.3106 36.2844 59.3106 37.7358 58.6531 38.6594ZM59.7052 32.9857L58.2586 31.4024L48.5272 20.9786L50.2368 21.1105C50.8943 21.2425 51.5518 20.7147 51.6833 19.923C51.8148 19.2633 51.2888 18.6035 50.4998 18.4716L45.5026 17.9438C45.2396 17.8119 45.1081 17.8119 44.8451 17.8119L43.53 17.6799C41.6889 17.416 39.5849 17.8119 38.0068 18.9994L30.511 24.0134C29.8535 24.4092 29.0645 24.2773 28.5384 23.7495C28.0124 23.0897 28.0124 22.1661 28.5384 21.6383L38.4013 12.4021C38.5328 12.2701 38.7958 12.1382 38.9273 11.8743C39.1903 11.8743 39.3219 11.7423 39.4534 11.6104C42.215 10.2909 47.8697 10.8187 51.4203 11.6104L63.3873 30.7426L59.7052 32.9857ZM67.464 32.194L66.5434 30.8746C66.5434 30.7426 66.5434 30.6107 66.4119 30.4787C66.2804 30.3468 66.1489 30.2148 66.1489 30.0829L52.2094 7.65198L57.8641 4.08943L73.1187 28.4995L67.464 32.194Z" fill="#007618"/>
<path d="M76.0118 28.2356L59.3106 1.58244C59.1791 1.31855 58.7846 1.05465 58.5216 1.05465C58.1271 0.922707 57.8641 1.05465 57.4696 1.1866L49.5793 6.20057C48.9217 6.59641 48.7902 7.38809 49.1847 8.04782L49.5793 8.70756C46.4231 8.17977 41.5574 7.91588 38.4013 9.36729H38.2698C34.8507 8.17977 29.0645 8.8395 25.6453 9.49923L26.6974 7.78393C27.0919 7.1242 26.8289 6.33252 26.1713 5.93668L18.4125 1.31855C18.1495 1.1866 17.755 1.05465 17.3605 1.1866C16.966 1.31855 16.703 1.45049 16.5715 1.84633L1.18536 29.0273C0.790846 29.6871 1.05386 30.4787 1.71138 30.8746L9.33868 35.2288C9.60169 35.3608 9.7332 35.3608 9.99621 35.3608C10.3907 35.3608 10.9167 35.0969 11.1798 34.701L12.7578 31.9302C13.1523 32.8538 13.6783 33.6455 14.2044 34.1732C13.2838 35.2288 12.7578 36.5483 12.7578 37.8677C12.7578 39.3192 13.2838 40.7706 14.3359 41.8261C15.3879 42.8817 16.8345 43.4095 18.281 43.4095C18.4125 43.4095 18.544 43.4095 18.8071 43.4095C18.8071 43.5414 18.8071 43.6734 18.8071 43.9373C18.8071 45.3887 19.3331 46.8401 20.3851 47.8957C21.4372 48.9513 22.7522 49.479 24.3303 49.479C24.4618 49.479 24.5933 49.479 24.8563 49.479C24.8563 49.611 24.8563 49.7429 24.8563 50.0068C24.8563 51.4582 25.3823 52.9097 26.4344 53.9652C27.4864 55.0208 28.9329 55.5486 30.3795 55.5486C31.8261 55.5486 33.1411 55.0208 34.3247 53.9652L34.8507 53.4374L38.0068 55.8125C39.0588 56.6042 40.1109 57 41.2944 57C43.004 57 44.5821 56.3403 45.5026 55.0208C46.1601 54.0972 46.5546 53.1735 46.5546 52.118C46.6861 52.118 46.6861 52.118 46.8176 52.118C48.3957 52.118 49.9738 51.4582 51.0258 50.1388C51.6833 49.2152 52.0779 48.1596 52.0779 47.236C52.2094 47.236 52.3409 47.236 52.4724 47.236C54.0504 47.236 55.6285 46.5762 56.6805 45.3887C57.3381 44.597 57.7326 43.6734 57.7326 42.4859C59.0476 42.3539 60.3627 41.6942 61.1517 40.5067C62.3353 38.9233 62.4668 36.9441 61.6777 35.3608L65.2284 33.2496L66.2804 34.9649C66.4119 35.2288 66.8064 35.4927 67.0694 35.4927C67.2009 35.4927 67.2009 35.4927 67.3325 35.4927C67.5955 35.4927 67.8585 35.3608 67.99 35.2288L75.8803 30.0829C76.2748 29.5551 76.4063 28.7634 76.0118 28.2356ZM9.47019 32.194L4.07847 29.1593L18.1495 4.08943L23.6727 7.38809L9.47019 32.194ZM16.0454 39.9789C15.5194 39.4511 15.2564 38.6594 15.2564 37.9997C15.2564 37.208 15.5194 36.5483 16.0454 36.0205L16.8345 35.2288C17.8865 34.1732 19.8591 34.1732 20.9111 35.2288C21.4372 35.7566 21.7002 36.5483 21.7002 37.208C21.7002 37.9997 21.4372 38.6594 20.9111 39.1872L20.1221 39.9789C19.0701 41.0345 17.229 41.0345 16.0454 39.9789ZM21.9632 45.9165C21.4372 45.3887 21.1741 44.597 21.1741 43.9373C21.1741 43.1456 21.4372 42.4859 21.9632 41.9581L22.7522 41.1664C23.2782 40.6386 24.0673 40.3747 24.7248 40.3747C25.3823 40.3747 26.1713 40.6386 26.6974 41.1664C27.8809 42.3539 27.8809 44.0692 26.6974 45.2568L25.9083 46.0484C24.9878 46.9721 23.1467 46.9721 21.9632 45.9165ZM31.9576 51.8541C30.774 52.9097 29.0644 52.9097 27.8809 51.8541C27.3549 51.3263 27.0919 50.5346 27.0919 49.8749C27.0919 49.0832 27.3549 48.4235 27.8809 47.8957L28.6699 47.104C29.196 46.5762 29.985 46.3123 30.6425 46.3123C31.3 46.3123 32.0891 46.5762 32.6151 47.104C33.1411 47.6318 33.4041 48.4235 33.4041 49.0832C33.4041 49.8749 33.1411 50.5346 32.6151 51.0624L31.9576 51.8541ZM58.6531 38.6594C58.1271 39.3192 57.3381 39.715 56.4175 39.583C56.286 39.4511 56.023 39.4511 55.76 39.4511C55.497 39.3192 55.234 39.1872 54.971 39.0553L52.3409 36.9441C51.8148 36.5483 50.8943 36.5483 50.4998 37.208C50.1053 37.7358 50.1053 38.6594 50.7628 39.0553L53.3929 41.1664C53.7874 41.4303 54.1819 41.6942 54.708 41.9581C54.708 42.4859 54.5765 43.0137 54.3134 43.4095C53.3929 44.4651 51.6833 44.729 50.6313 43.9373L50.4998 43.8053C50.4998 43.8053 50.3683 43.8053 50.3683 43.6734L47.7382 41.5622C47.2122 41.1664 46.2916 41.1664 45.8971 41.8261C45.5026 42.3539 45.5026 43.2776 46.1601 43.6734L48.7902 45.7845L48.9217 45.9165C49.3162 46.5762 49.3162 47.6318 48.7902 48.2915C48.0012 49.2152 46.4231 49.611 45.3711 48.9513C45.2396 48.8193 45.1081 48.8193 44.9766 48.6874L44.8451 48.5554L42.215 46.4443C41.6889 46.0484 40.7684 46.0484 40.3739 46.7082C39.9794 47.236 39.9794 48.1596 40.6369 48.5554L43.267 50.6666C43.3985 50.6666 43.3985 50.7985 43.53 50.9305C43.793 51.7221 43.793 52.5138 43.1355 53.3055C42.741 53.9652 41.952 54.2291 41.0314 54.2291C40.3739 54.2291 39.8479 54.0972 39.3219 53.5694L36.6917 51.5902L36.0342 51.1944C36.2972 50.5346 36.4287 49.8749 36.4287 49.0832C36.4287 47.6318 35.9027 46.1804 34.8507 45.1248C33.6671 43.9373 32.0891 43.4095 30.511 43.5414C30.6425 41.9581 30.1165 40.3747 28.9329 39.1872C27.7494 37.9997 26.1713 37.4719 24.5933 37.6039C24.5933 37.4719 24.5933 37.34 24.5933 37.0761C24.5933 35.6247 24.0673 34.1732 23.0152 33.1177C21.9632 32.0621 20.6481 31.5343 19.0701 31.5343C18.018 31.5343 16.966 31.7982 16.1769 32.326C15.6509 31.6663 14.8619 30.4787 14.5989 28.7634L24.0673 12.2701C26.6974 11.7423 32.2206 10.8187 35.9027 11.3465L26.8289 19.7911C25.2508 21.3744 25.1193 23.8814 26.6974 25.5967C27.4864 26.5203 28.6699 27.0481 29.8535 27.0481C30.6425 27.0481 31.4315 26.7842 32.0891 26.3884L39.5849 21.3744C40.6369 20.5827 41.952 20.3189 43.267 20.5827L44.5821 20.7147L56.549 33.3816L58.6531 35.6247C59.3106 36.2844 59.3106 37.7358 58.6531 38.6594ZM59.7052 32.9857L58.2586 31.4024L48.5272 20.9786L50.2368 21.1105C50.8943 21.2425 51.5518 20.7147 51.6833 19.923C51.8148 19.2633 51.2888 18.6035 50.4998 18.4716L45.5026 17.9438C45.2396 17.8119 45.1081 17.8119 44.8451 17.8119L43.53 17.6799C41.6889 17.416 39.5849 17.8119 38.0068 18.9994L30.511 24.0134C29.8535 24.4092 29.0645 24.2773 28.5384 23.7495C28.0124 23.0897 28.0124 22.1661 28.5384 21.6383L38.4013 12.4021C38.5328 12.2701 38.7958 12.1382 38.9273 11.8743C39.1903 11.8743 39.3219 11.7423 39.4534 11.6104C42.215 10.2909 47.8697 10.8187 51.4203 11.6104L63.3873 30.7426L59.7052 32.9857ZM67.464 32.194L66.5434 30.8746C66.5434 30.7426 66.5434 30.6107 66.4119 30.4787C66.2804 30.3468 66.1489 30.2148 66.1489 30.0829L52.2094 7.65198L57.8641 4.08943L73.1187 28.4995L67.464 32.194Z" stroke="#007618" mask="url(#path-1-outside-1_1739_123024)"/>
</svg>
