<svg width="27" height="24" viewBox="0 0 27 24" fill="none" xmlns="http://www.w3.org/2000/svg">
<path d="M24.076 3.22076C23.4819 2.62631 22.7764 2.15475 22 1.83303C21.2235 1.5113 20.3912 1.3457 19.5508 1.3457C18.7103 1.3457 17.878 1.5113 17.1016 1.83303C16.3251 2.15475 15.6197 2.62631 15.0255 3.22076L13.7924 4.45387L12.5593 3.22076C11.3591 2.02058 9.7313 1.34633 8.03399 1.34633C6.33668 1.34633 4.70889 2.02058 3.50871 3.22076C2.30853 4.42094 1.63428 6.04873 1.63428 7.74604C1.63428 9.44335 2.30853 11.0711 3.50871 12.2713L4.74182 13.5044L13.7924 22.555L22.8429 13.5044L24.076 12.2713C24.6705 11.6772 25.142 10.9717 25.4638 10.1952C25.7855 9.41876 25.9511 8.58652 25.9511 7.74604C25.9511 6.90556 25.7855 6.07332 25.4638 5.29685C25.142 4.52039 24.6705 3.81493 24.076 3.22076Z" fill="white" stroke="#7D7D7D" stroke-width="1.74497" stroke-linecap="round" stroke-linejoin="round"/>
</svg>
