<svg width="33" height="21" viewBox="0 0 33 21" fill="none" xmlns="http://www.w3.org/2000/svg">
<mask id="path-1-inside-1_5800_88612" fill="white">
<path fill-rule="evenodd" clip-rule="evenodd" d="M22.7981 20.6706C28.3395 20.6706 32.8317 16.1785 32.8317 10.6371C32.8317 5.09569 28.3395 0.603516 22.7981 0.603516C20.7404 0.603516 18.8274 1.22294 17.2353 2.2855C16.9065 2.50492 16.4746 2.50494 16.1458 2.28553C14.5539 1.22321 12.6411 0.603938 10.5836 0.603938C5.04223 0.603938 0.550049 5.09611 0.550049 10.6375C0.550049 16.1789 5.04223 20.6711 10.5836 20.6711C12.6413 20.6711 14.5543 20.0516 16.1464 18.9891C16.4752 18.7696 16.9071 18.7696 17.2359 18.989C18.8278 20.0514 20.7406 20.6706 22.7981 20.6706Z"/>
</mask>
<path d="M16.1464 18.9891L17.1151 20.4405L16.1464 18.9891ZM17.2359 18.989L16.2673 20.4405L17.2359 18.989ZM17.2353 2.2855L16.2666 0.834092L17.2353 2.2855ZM16.1458 2.28553L15.1773 3.737L16.1458 2.28553ZM31.0867 10.6371C31.0867 15.2147 27.3758 18.9257 22.7981 18.9257V22.4156C29.3032 22.4156 34.5766 17.1422 34.5766 10.6371H31.0867ZM22.7981 2.34848C27.3758 2.34848 31.0867 6.05941 31.0867 10.6371H34.5766C34.5766 4.13197 29.3032 -1.14145 22.7981 -1.14145V2.34848ZM18.204 3.7369C19.5182 2.8598 21.0958 2.34848 22.7981 2.34848V-1.14145C20.385 -1.14145 18.1366 -0.413919 16.2666 0.834092L18.204 3.7369ZM10.5836 2.3489C12.2857 2.3489 13.8632 2.8601 15.1773 3.737L17.1144 0.834063C15.2446 -0.413672 12.9964 -1.14103 10.5836 -1.14103V2.3489ZM2.29502 10.6375C2.29502 6.05983 6.00594 2.3489 10.5836 2.3489V-1.14103C4.07851 -1.14103 -1.19492 4.1324 -1.19492 10.6375H2.29502ZM10.5836 18.9261C6.00594 18.9261 2.29502 15.2152 2.29502 10.6375H-1.19492C-1.19492 17.1426 4.07851 22.416 10.5836 22.416V18.9261ZM15.1777 17.5377C13.8635 18.4148 12.2859 18.9261 10.5836 18.9261V22.416C12.9967 22.416 15.2451 21.6885 17.1151 20.4405L15.1777 17.5377ZM22.7981 18.9257C21.096 18.9257 19.5185 18.4145 18.2044 17.5376L16.2673 20.4405C18.1371 21.6882 20.3853 22.4156 22.7981 22.4156V18.9257ZM17.1151 20.4405C16.8574 20.6124 16.525 20.6125 16.2673 20.4405L18.2044 17.5376C17.2892 16.9268 16.0929 16.9269 15.1777 17.5377L17.1151 20.4405ZM16.2666 0.834092C16.5243 0.662124 16.8567 0.662113 17.1144 0.834063L15.1773 3.737C16.0925 4.34776 17.2888 4.34772 18.204 3.7369L16.2666 0.834092Z" fill="#7D7D7D" mask="url(#path-1-inside-1_5800_88612)"/>
</svg>
