<svg width="22" height="22" viewBox="0 0 22 22" fill="none" xmlns="http://www.w3.org/2000/svg">
<mask id="path-1-inside-1_5800_88598" fill="white">
<path d="M0.281494 11.3272C0.281494 5.54491 4.96898 0.857422 10.7513 0.857422H20.3486C20.8305 0.857422 21.2211 1.24805 21.2211 1.72991V11.3272C21.2211 17.1095 16.5336 21.797 10.7513 21.797H1.15398C0.672119 21.797 0.281494 21.4064 0.281494 20.9245V11.3272Z"/>
</mask>
<path d="M0.281494 11.3272C0.281494 5.54491 4.96898 0.857422 10.7513 0.857422H20.3486C20.8305 0.857422 21.2211 1.24805 21.2211 1.72991V11.3272C21.2211 17.1095 16.5336 21.797 10.7513 21.797H1.15398C0.672119 21.797 0.281494 21.4064 0.281494 20.9245V11.3272Z" fill="white" stroke="#7D7D7D" stroke-width="3.48993" mask="url(#path-1-inside-1_5800_88598)"/>
</svg>
