<svg width="32" height="33" viewBox="0 0 32 33" fill="none" xmlns="http://www.w3.org/2000/svg">
<path d="M25.3333 0.546875H6.66667C2.98533 0.546875 0 3.53221 0 7.21354V25.8802C0 29.5615 2.98533 32.5469 6.66667 32.5469H25.3333C29.016 32.5469 32 29.5615 32 25.8802V7.21354C32 3.53221 29.016 0.546875 25.3333 0.546875ZM10.6667 25.8802H6.66667V11.2135H10.6667V25.8802ZM8.66667 9.52287C7.37867 9.52287 6.33333 8.46954 6.33333 7.17088C6.33333 5.87221 7.37867 4.81888 8.66667 4.81888C9.95467 4.81888 11 5.87221 11 7.17088C11 8.46954 9.956 9.52287 8.66667 9.52287ZM26.6667 25.8802H22.6667V18.4082C22.6667 13.9175 17.3333 14.2575 17.3333 18.4082V25.8802H13.3333V11.2135H17.3333V13.5669C19.1947 10.1189 26.6667 9.86421 26.6667 16.8682V25.8802Z" fill="#CD2026"/>
</svg>
