<svg width="32" height="33" viewBox="0 0 32 33" fill="none" xmlns="http://www.w3.org/2000/svg">
<path d="M16 3.42982C20.2722 3.42982 20.7782 3.44608 22.4653 3.52305C24.0253 3.59425 24.8725 3.8549 25.4363 4.07396C26.1831 4.36421 26.7162 4.71098 27.276 5.27084C27.8359 5.8307 28.1827 6.36376 28.4729 7.11053C28.692 7.67439 28.9526 8.52158 29.0238 10.0815C29.1008 11.7687 29.1171 12.2747 29.1171 16.5469C29.1171 20.8191 29.1008 21.3251 29.0238 23.0122C28.9526 24.5722 28.692 25.4194 28.4729 25.9833C28.1827 26.7301 27.8359 27.2631 27.276 27.823C26.7162 28.3828 26.1831 28.7296 25.4363 29.0198C24.8725 29.2389 24.0253 29.4996 22.4653 29.5708C20.7784 29.6477 20.2724 29.664 16 29.664C11.7275 29.664 11.2215 29.6477 9.53463 29.5708C7.97464 29.4996 7.12746 29.2389 6.56366 29.0198C5.81682 28.7296 5.28376 28.3828 4.7239 27.823C4.16404 27.2631 3.81727 26.7301 3.52708 25.9833C3.30796 25.4194 3.04731 24.5722 2.97611 23.0123C2.89914 21.3251 2.88288 20.8191 2.88288 16.5469C2.88288 12.2747 2.89914 11.7687 2.97611 10.0816C3.04731 8.52158 3.30796 7.67439 3.52708 7.11053C3.81727 6.36376 4.16404 5.8307 4.7239 5.27084C5.28376 4.71098 5.81682 4.36421 6.56366 4.07396C7.12746 3.8549 7.97464 3.59425 9.53456 3.52305C11.2218 3.44608 11.7278 3.42982 16 3.42982ZM16 0.546875C11.6546 0.546875 11.1098 0.565294 9.40322 0.643159C7.70014 0.720898 6.53711 0.991333 5.51933 1.38689C4.46719 1.79578 3.57491 2.34287 2.68542 3.23236C1.79593 4.12184 1.24884 5.01413 0.839948 6.06627C0.444394 7.08405 0.17396 8.24708 0.0962208 9.95016C0.018355 11.6567 0 12.2015 0 16.5469C0 20.8923 0.018355 21.4371 0.0962208 23.1437C0.17396 24.8467 0.444394 26.0098 0.839948 27.0275C1.24884 28.0796 1.79593 28.972 2.68542 29.8615C3.57491 30.7509 4.46719 31.298 5.51933 31.7069C6.53711 32.1025 7.70014 32.3729 9.40322 32.4507C11.1098 32.5285 11.6546 32.5469 16 32.5469C20.3453 32.5469 20.8902 32.5285 22.5967 32.4507C24.2998 32.3729 25.4628 32.1025 26.4806 31.7069C27.5328 31.298 28.425 30.7509 29.3145 29.8615C30.204 28.972 30.7511 28.0797 31.16 27.0275C31.5555 26.0098 31.826 24.8467 31.9037 23.1437C31.9816 21.4371 32 20.8923 32 16.5469C32 12.2015 31.9816 11.6567 31.9037 9.95016C31.826 8.24708 31.5555 7.08405 31.16 6.06627C30.7511 5.01413 30.204 4.12184 29.3145 3.23236C28.425 2.34287 27.5328 1.79578 26.4806 1.38689C25.4628 0.991333 24.2998 0.720898 22.5967 0.643159C20.8902 0.565294 20.3453 0.546875 16 0.546875ZM16 8.33066C11.4623 8.33066 7.78373 12.0092 7.78373 16.5469C7.78373 21.0846 11.4623 24.7632 16 24.7632C20.5377 24.7632 24.2162 21.0846 24.2162 16.5469C24.2162 12.0092 20.5377 8.33066 16 8.33066ZM16 21.8803C13.0545 21.8803 10.6666 19.4924 10.6666 16.5469C10.6666 13.6014 13.0545 11.2135 16 11.2135C18.9455 11.2135 21.3333 13.6014 21.3333 16.5469C21.3333 19.4924 18.9455 21.8803 16 21.8803ZM26.4608 8.00605C26.4608 9.06645 25.6012 9.92609 24.5408 9.92609C23.4804 9.92609 22.6208 9.06645 22.6208 8.00605C22.6208 6.94566 23.4804 6.08608 24.5408 6.08608C25.6012 6.08608 26.4608 6.94566 26.4608 8.00605Z" fill="#CD2026"/>
</svg>
