<svg width="32" height="32" viewBox="0 0 32 32" fill="none" xmlns="http://www.w3.org/2000/svg">
<path d="M21.5891 9.00393C21.1742 9.41888 20.7559 9.83715 20.341 10.2521C19.3351 11.2579 18.3326 12.2605 17.3268 13.2663C16.1151 14.4779 14.9035 15.6896 13.6918 16.9012C12.6462 17.9469 11.5972 18.9959 10.5515 20.0416C10.0436 20.5495 9.52242 21.0507 9.02116 21.5719C9.01452 21.5785 9.00788 21.5852 9.00125 21.5918C8.63277 21.9603 8.60621 22.6375 9.00125 22.9993C9.3996 23.3645 10.017 23.3944 10.4088 22.9993C10.8237 22.5844 11.242 22.1661 11.6569 21.7512C12.6628 20.7453 13.6653 19.7428 14.6711 18.737C15.8828 17.5253 17.0944 16.3137 18.3061 15.102C19.3517 14.0564 20.4007 13.0074 21.4464 11.9617C21.9543 11.4538 22.4755 10.9525 22.9767 10.4314C22.9834 10.4247 22.99 10.4181 22.9967 10.4114C23.3651 10.043 23.3917 9.36577 22.9967 9.00393C22.6016 8.63877 21.9842 8.6089 21.5891 9.00393Z" fill="#1F1F1F"/>
<path d="M12.2982 12.2996C12.2451 12.3494 12.192 12.3992 12.1389 12.4457C12.0094 12.5552 12.1887 12.4258 12.2086 12.3926C12.192 12.4191 12.1356 12.4424 12.1123 12.459C11.9895 12.542 11.8601 12.6083 11.724 12.6714C11.8036 12.6382 11.8833 12.605 11.963 12.5718C11.7505 12.6615 11.5314 12.7212 11.3057 12.7544C11.3953 12.7411 11.4816 12.7312 11.5713 12.7179C11.3455 12.7478 11.1198 12.7478 10.8941 12.7179C10.9837 12.7312 11.07 12.7411 11.1596 12.7544C10.9306 12.7212 10.7148 12.6615 10.5023 12.5718C10.582 12.605 10.6617 12.6382 10.7414 12.6714C10.6053 12.6117 10.4758 12.542 10.353 12.459C10.3297 12.4424 10.2799 12.3959 10.2567 12.3926C10.2733 12.3959 10.4459 12.5486 10.3463 12.459C10.2866 12.4059 10.2235 12.3527 10.1671 12.2963C10.1173 12.2465 10.0675 12.1901 10.021 12.137C9.97121 12.0772 9.92141 11.971 10.0741 12.2067C10.0575 12.1801 10.0376 12.1569 10.021 12.1303C9.93469 12.0009 9.86166 11.8648 9.79859 11.722C9.83179 11.8017 9.86498 11.8814 9.89818 11.961C9.80855 11.7486 9.7488 11.5295 9.7156 11.3037C9.72888 11.3934 9.73884 11.4797 9.75211 11.5693C9.72224 11.3436 9.72224 11.1179 9.75211 10.8921C9.73884 10.9817 9.72888 11.0681 9.7156 11.1577C9.7488 10.9286 9.80855 10.7129 9.89818 10.5004C9.86498 10.5801 9.83179 10.6597 9.79859 10.7394C9.85834 10.6033 9.92805 10.4738 10.011 10.351C10.0276 10.3278 10.0741 10.278 10.0774 10.2548C10.0741 10.2714 9.92141 10.444 10.011 10.3444C10.0642 10.2846 10.1173 10.2216 10.1737 10.1651C10.2235 10.1153 10.2799 10.0655 10.333 10.0191C10.3928 9.96927 10.499 9.91948 10.2633 10.0722C10.2899 10.0556 10.3131 10.0357 10.3397 10.0191C10.4691 9.93275 10.6053 9.85972 10.748 9.79665C10.6683 9.82985 10.5887 9.86304 10.509 9.89624C10.7214 9.80661 10.9405 9.74686 11.1663 9.71366C11.0766 9.72694 10.9903 9.7369 10.9007 9.75018C11.1264 9.7203 11.3522 9.7203 11.5779 9.75018C11.4883 9.7369 11.402 9.72694 11.3123 9.71366C11.5414 9.74686 11.7571 9.80661 11.9696 9.89624C11.8899 9.86304 11.8103 9.82985 11.7306 9.79665C11.8667 9.8564 11.9962 9.92612 12.119 10.0091C12.1422 10.0257 12.192 10.0722 12.2153 10.0755C12.1987 10.0722 12.026 9.91948 12.1256 10.0091C12.1854 10.0622 12.2485 10.1153 12.3049 10.1718C12.3547 10.2216 12.4045 10.278 12.4509 10.3311C12.5007 10.3909 12.5505 10.4971 12.3978 10.2614C12.4144 10.288 12.4343 10.3112 12.4509 10.3377C12.5373 10.4672 12.6103 10.6033 12.6734 10.7461C12.6402 10.6664 12.607 10.5867 12.5738 10.507C12.6634 10.7195 12.7232 10.9386 12.7563 11.1643C12.7431 11.0747 12.7331 10.9884 12.7198 10.8988C12.7497 11.1245 12.7497 11.3502 12.7198 11.576C12.7331 11.4863 12.7431 11.4 12.7563 11.3104C12.7232 11.5394 12.6634 11.7552 12.5738 11.9677C12.607 11.888 12.6402 11.8083 12.6734 11.7287C12.6136 11.8648 12.5439 11.9942 12.4609 12.117C12.4443 12.1436 12.4244 12.1702 12.4078 12.1934C12.3414 12.2897 12.5671 12.0009 12.4609 12.1237C12.4078 12.1834 12.3547 12.2432 12.2982 12.2996C11.9331 12.6714 11.8999 13.342 12.2982 13.7071C12.6933 14.069 13.3174 14.1055 13.7058 13.7071C14.1904 13.2125 14.5556 12.5652 14.6684 11.878C14.7913 11.1145 14.6983 10.3909 14.373 9.6871C13.7954 8.43562 12.3514 7.59908 10.977 7.73518C10.1936 7.81485 9.50978 8.0937 8.90894 8.6016C8.38444 9.0431 7.99605 9.69374 7.83007 10.3577C7.66741 11.0149 7.67737 11.7486 7.9197 12.3859C8.19855 13.1262 8.66329 13.727 9.32057 14.1719C10.6783 15.0914 12.5605 14.8391 13.7091 13.7105C14.0809 13.3453 14.1041 12.6648 13.7091 12.3029C13.3074 11.9312 12.6966 11.9112 12.2982 12.2996Z" fill="#1F1F1F"/>
<path d="M21.849 21.8406C21.7959 21.8904 21.7428 21.9402 21.6897 21.9867C21.5602 22.0962 21.7395 21.9668 21.7594 21.9336C21.7428 21.9601 21.6864 21.9834 21.6631 22C21.5403 22.083 21.4108 22.1494 21.2747 22.2124C21.3544 22.1792 21.4341 22.146 21.5137 22.1128C21.3013 22.2025 21.0822 22.2622 20.8565 22.2954C20.9461 22.2821 21.0324 22.2722 21.122 22.2589C20.8963 22.2888 20.6706 22.2888 20.4448 22.2589C20.5345 22.2722 20.6208 22.2821 20.7104 22.2954C20.4814 22.2622 20.2656 22.2025 20.0531 22.1128C20.1328 22.146 20.2125 22.1792 20.2921 22.2124C20.156 22.1527 20.0266 22.083 19.9037 22C19.8805 21.9834 19.8307 21.9369 19.8075 21.9336C19.8241 21.9369 19.9967 22.0896 19.8971 22C19.8374 21.9469 19.7743 21.8938 19.7178 21.8373C19.6681 21.7875 19.6183 21.7311 19.5718 21.678C19.522 21.6182 19.4722 21.512 19.6249 21.7477C19.6083 21.7211 19.5884 21.6979 19.5718 21.6713C19.4855 21.5419 19.4124 21.4058 19.3494 21.263C19.3826 21.3427 19.4158 21.4224 19.449 21.502C19.3593 21.2896 19.2996 21.0705 19.2664 20.8448C19.2797 20.9344 19.2896 21.0207 19.3029 21.1103C19.273 20.8846 19.273 20.6589 19.3029 20.4331C19.2896 20.5228 19.2797 20.6091 19.2664 20.6987C19.2996 20.4696 19.3593 20.2539 19.449 20.0414C19.4158 20.1211 19.3826 20.2008 19.3494 20.2804C19.4091 20.1443 19.4788 20.0149 19.5618 19.892C19.5784 19.8688 19.6249 19.819 19.6282 19.7958C19.6249 19.8124 19.4722 19.985 19.5618 19.8854C19.6149 19.8256 19.6681 19.7626 19.7245 19.7061C19.7743 19.6563 19.8307 19.6066 19.8838 19.5601C19.9436 19.5103 20.0498 19.4605 19.8141 19.6132C19.8407 19.5966 19.8639 19.5767 19.8905 19.5601C20.0199 19.4738 20.156 19.4007 20.2988 19.3377C20.2191 19.3709 20.1394 19.4041 20.0598 19.4373C20.2722 19.3476 20.4913 19.2879 20.717 19.2547C20.6274 19.268 20.5411 19.2779 20.4515 19.2912C20.6772 19.2613 20.9029 19.2613 21.1287 19.2912C21.039 19.2779 20.9527 19.268 20.8631 19.2547C21.0922 19.2879 21.3079 19.3476 21.5204 19.4373C21.4407 19.4041 21.361 19.3709 21.2814 19.3377C21.4175 19.3974 21.5469 19.4671 21.6698 19.5501C21.693 19.5667 21.7428 19.6132 21.766 19.6165C21.7494 19.6132 21.5768 19.4605 21.6764 19.5501C21.7362 19.6032 21.7992 19.6563 21.8557 19.7128C21.9055 19.7626 21.9553 19.819 22.0017 19.8721C22.0515 19.9319 22.1013 20.0381 21.9486 19.8024C21.9652 19.829 21.9851 19.8522 22.0017 19.8788C22.088 20.0082 22.1611 20.1443 22.2241 20.2871C22.1909 20.2074 22.1577 20.1277 22.1246 20.0481C22.2142 20.2605 22.2739 20.4796 22.3071 20.7053C22.2939 20.6157 22.2839 20.5294 22.2706 20.4398C22.3005 20.6655 22.3005 20.8912 22.2706 21.117C22.2839 21.0273 22.2939 20.941 22.3071 20.8514C22.2739 21.0805 22.2142 21.2962 22.1246 21.5087C22.1577 21.429 22.1909 21.3493 22.2241 21.2697C22.1644 21.4058 22.0947 21.5352 22.0117 21.6581C21.9951 21.6846 21.9752 21.7112 21.9586 21.7344C21.8922 21.8307 22.1179 21.5419 22.0117 21.6647C21.9586 21.7245 21.9055 21.7842 21.849 21.8406C21.4839 22.2124 21.4507 22.883 21.849 23.2481C22.2441 23.61 22.8681 23.6465 23.2565 23.2481C23.7412 22.7535 24.1063 22.1062 24.2192 21.4191C24.342 20.6555 24.2491 19.9319 23.9238 19.2281C23.3462 17.9766 21.9021 17.1401 20.5278 17.2762C19.7444 17.3559 19.0606 17.6347 18.4597 18.1426C17.9352 18.5841 17.5468 19.2348 17.3809 19.8987C17.2182 20.556 17.2282 21.2896 17.4705 21.9269C17.7493 22.6672 18.2141 23.2681 18.8713 23.7129C20.2291 24.6324 22.1113 24.3801 23.2599 23.2515C23.6316 22.8863 23.6549 22.2058 23.2599 21.844C22.8549 21.4722 22.2441 21.4522 21.849 21.8406Z" fill="#1F1F1F"/>
<path d="M30.0086 16.0017C30.0086 16.6789 29.9621 17.3561 29.8725 18.03C29.8858 17.9404 29.8957 17.8541 29.909 17.7644C29.7297 19.069 29.3845 20.3438 28.8733 21.5554C28.9065 21.4758 28.9397 21.3961 28.9729 21.3164C28.6807 22.0102 28.3355 22.6841 27.9405 23.3248C27.7479 23.6401 27.5421 23.9489 27.323 24.2509C27.2666 24.3273 27.2135 24.4036 27.1571 24.48C27.1305 24.5165 27.1039 24.5497 27.0774 24.5829C26.9579 24.7389 27.2035 24.4202 27.1139 24.5364C26.9977 24.6858 26.8782 24.8319 26.7554 24.9746C26.274 25.5456 25.7495 26.08 25.1885 26.5713C25.0458 26.6942 24.903 26.817 24.757 26.9365C24.6906 26.9929 24.6209 27.046 24.5545 27.0991C24.4151 27.212 24.6707 27.0128 24.6176 27.0494C24.5777 27.0792 24.5379 27.1124 24.4947 27.1423C24.1927 27.368 23.8806 27.5838 23.5619 27.7896C22.8482 28.2477 22.0947 28.6428 21.3112 28.9714C21.3909 28.9382 21.4706 28.905 21.5503 28.8718C20.3386 29.3797 19.0606 29.7283 17.7593 29.9075C17.8489 29.8942 17.9352 29.8843 18.0248 29.871C16.6804 30.0503 15.3127 30.0503 13.9683 29.871C14.0579 29.8843 14.1442 29.8942 14.2339 29.9075C12.9293 29.7283 11.6545 29.383 10.4429 28.8718C10.5226 28.905 10.6022 28.9382 10.6819 28.9714C9.98811 28.6793 9.31423 28.334 8.67355 27.939C8.35819 27.7465 8.04947 27.5407 7.74739 27.3216C7.67104 27.2651 7.59469 27.212 7.51834 27.1556C7.48182 27.129 7.44862 27.1025 7.41543 27.0759C7.25941 26.9564 7.57809 27.2021 7.4619 27.1124C7.31252 26.9962 7.16646 26.8767 7.02372 26.7539C6.45275 26.2726 5.91829 25.7481 5.42699 25.1871C5.30417 25.0443 5.18134 24.9016 5.06184 24.7555C5.0054 24.6891 4.95229 24.6194 4.89918 24.553C4.78631 24.4136 4.98549 24.6692 4.94897 24.6161C4.91909 24.5763 4.8859 24.5364 4.85602 24.4933C4.63029 24.1912 4.41452 23.8791 4.2087 23.5605C3.7506 22.8467 3.35556 22.0932 3.02693 21.3098C3.06012 21.3894 3.09332 21.4691 3.12651 21.5488C2.61862 20.3371 2.27006 19.0591 2.0908 17.7578C2.10408 17.8474 2.11404 17.9338 2.12732 18.0234C1.94806 16.6789 1.94806 15.3113 2.12732 13.9668C2.11404 14.0565 2.10408 14.1428 2.0908 14.2324C2.27006 12.9278 2.6153 11.6531 3.12651 10.4414C3.09332 10.5211 3.06012 10.6008 3.02693 10.6804C3.31905 9.98664 3.66429 9.31276 4.05932 8.67208C4.25186 8.35672 4.45767 8.048 4.67676 7.74591C4.7332 7.66956 4.78631 7.59321 4.84274 7.51686C4.8693 7.48035 4.89586 7.44715 4.92241 7.41396C5.04192 7.25794 4.79627 7.57662 4.8859 7.46043C5.00208 7.31105 5.12159 7.16499 5.24441 7.02224C5.72575 6.45127 6.25025 5.91682 6.81126 5.42552C6.954 5.30269 7.09675 5.17987 7.24281 5.06036C7.3092 5.00393 7.37891 4.95082 7.4453 4.8977C7.58473 4.78484 7.32912 4.98401 7.38223 4.9475C7.42207 4.91762 7.4619 4.88443 7.50506 4.85455C7.80714 4.62882 8.11918 4.41304 8.43786 4.20723C9.15158 3.74913 9.90512 3.35409 10.6885 3.02545C10.6089 3.05865 10.5292 3.09185 10.4495 3.12504C11.6612 2.61714 12.9392 2.26859 14.2405 2.08933C14.1509 2.10261 14.0646 2.11257 13.9749 2.12584C15.3194 1.94659 16.6871 1.94659 18.0315 2.12584C17.9419 2.11257 17.8556 2.10261 17.7659 2.08933C19.0705 2.26859 20.3452 2.61382 21.5569 3.12504C21.4772 3.09185 21.3976 3.05865 21.3179 3.02545C22.0117 3.31758 22.6856 3.66282 23.3262 4.05785C23.6416 4.25038 23.9503 4.4562 24.2524 4.67529C24.3288 4.73172 24.4051 4.78484 24.4815 4.84127C24.518 4.86783 24.5512 4.89438 24.5844 4.92094C24.7404 5.04045 24.4217 4.7948 24.5379 4.88443C24.6873 5.00061 24.8333 5.12012 24.9761 5.24294C25.5471 5.72428 26.0815 6.24878 26.5728 6.80979C26.6956 6.95253 26.8185 7.09528 26.938 7.24134C26.9944 7.30773 27.0475 7.37744 27.1006 7.44383C27.2135 7.58326 27.0143 7.32765 27.0508 7.38076C27.0807 7.4206 27.1139 7.46043 27.1438 7.50359C27.3695 7.80567 27.5853 8.11771 27.7911 8.43639C28.2492 9.1501 28.6442 9.90365 28.9729 10.6871C28.9397 10.6074 28.9065 10.5277 28.8733 10.4481C29.3812 11.6597 29.7297 12.9378 29.909 14.239C29.8957 14.1494 29.8858 14.0631 29.8725 13.9735C29.9621 14.6474 30.0086 15.3245 30.0086 16.0017C30.0086 16.5229 30.4667 17.0209 31.0045 16.9976C31.5422 16.9744 32.0003 16.5594 32.0003 16.0017C31.997 14.3453 31.7447 12.6755 31.2335 11.0987C30.7356 9.56837 30.0185 8.10443 29.0824 6.79651C28.1131 5.43548 26.9645 4.25702 25.64 3.24123C24.3686 2.26527 22.9478 1.5084 21.444 0.954027C19.8905 0.383057 18.234 0.074335 16.5808 0.0112627C14.9177 -0.0518096 13.228 0.150686 11.628 0.60215C10.0877 1.04034 8.5972 1.71421 7.25941 2.59391C5.92825 3.46696 4.7166 4.53255 3.70412 5.76412C2.63521 7.06208 1.79204 8.48287 1.15135 10.0364C0.530591 11.5601 0.172075 13.1801 0.0459303 14.8166C-0.0835338 16.4897 0.0625283 18.196 0.46088 19.8292C0.839313 21.3894 1.47004 22.9065 2.30325 24.2775C3.12319 25.6286 4.15227 26.8767 5.33404 27.9257C6.5291 28.988 7.87353 29.8876 9.33415 30.5449C10.9043 31.252 12.5342 31.7001 14.2438 31.8993C15.9136 32.0951 17.6099 31.9989 19.2564 31.6669C20.8432 31.3449 22.3901 30.7607 23.8043 29.9706C25.1852 29.2004 26.4666 28.2079 27.5587 27.0626C28.6542 25.9174 29.5936 24.5995 30.3007 23.1787C31.0277 21.7181 31.5489 20.1512 31.7945 18.5379C31.924 17.6947 32.0003 16.8482 32.0003 15.9951C32.0003 15.4739 31.5422 14.976 31.0045 14.9992C30.4634 15.0291 30.0086 15.4441 30.0086 16.0017Z" fill="#1F1F1F"/>
</svg>
