<svg width="48" height="48" viewBox="0 0 48 48" fill="none" xmlns="http://www.w3.org/2000/svg">
<rect width="48" height="48" rx="24" fill="#FF842B"/>
<path d="M26.3765 13.75H21.6123C20.9531 13.75 20.3198 14.0066 19.8521 14.4648C19.3842 14.9232 19.1204 15.5461 19.1204 16.1966V17.2289H14.8024C13.9945 17.2289 13.2187 17.5433 12.6459 18.1045C12.0729 18.6659 11.75 19.4284 11.75 20.2246V31.2543C11.75 31.6484 11.8292 32.0385 11.9831 32.4024C12.1369 32.7662 12.3622 33.0964 12.6459 33.3744C12.9295 33.6523 13.266 33.8725 13.636 34.0226C14.0059 34.1728 14.4023 34.25 14.8024 34.25H33.1976C33.5977 34.25 33.9941 34.1728 34.364 34.0226C34.734 33.8725 35.0705 33.6523 35.3541 33.3744C35.6378 33.0964 35.8631 32.7662 36.0169 32.4024C36.1708 32.0385 36.25 31.6484 36.25 31.2543V20.2246C36.25 19.4284 35.9271 18.6659 35.3541 18.1045C34.7813 17.5433 34.0055 17.2289 33.1976 17.2289H28.8684V16.1966C28.8684 15.8746 28.8037 15.5559 28.678 15.2586C28.5524 14.9614 28.3683 14.6917 28.1367 14.4648C27.9051 14.2379 27.6304 14.0581 27.3284 13.9356C27.0265 13.813 26.703 13.75 26.3765 13.75ZM20.7414 16.1966C20.7414 15.9733 20.8319 15.7581 20.9946 15.5986L20.8197 15.42L20.9946 15.5986C21.1576 15.4389 21.3797 15.3483 21.6123 15.3483H26.3765C26.6091 15.3483 26.8312 15.4389 26.9941 15.5986C27.1569 15.7581 27.2474 15.9733 27.2474 16.1966V17.2289H20.7414V16.1966ZM33.1864 32.6517H14.8024C14.4212 32.6517 14.0565 32.5033 13.7884 32.2406C13.5205 31.9781 13.371 31.6232 13.371 31.2543V23.3714H20.247V26.7595C20.247 26.9731 20.3336 27.1769 20.4862 27.3264C20.6385 27.4756 20.8441 27.5586 21.0575 27.5586H26.9426C27.1559 27.5586 27.3615 27.4756 27.5138 27.3264C27.6664 27.1769 27.753 26.9731 27.753 26.7595V23.3714H34.629V31.2543C34.629 31.6232 34.4795 31.9781 34.2116 32.2406C33.9435 32.5033 33.5788 32.6517 33.1976 32.6517H33.1864ZM21.8679 23.3714H26.1321V25.9603H21.8679V23.3714ZM34.629 20.2246V21.7731H13.371V20.2246C13.371 19.8556 13.5205 19.5007 13.7884 19.2383C14.0565 18.9756 14.4212 18.8272 14.8024 18.8272H33.1976C33.5788 18.8272 33.9435 18.9756 34.2116 19.2383C34.4795 19.5007 34.629 19.8556 34.629 20.2246Z" fill="#FAFAFA" stroke="#FAFAFA" stroke-width="0.5"/>
</svg>
