<svg width="129" height="611" viewBox="0 0 129 611" fill="none" xmlns="http://www.w3.org/2000/svg">
<path d="M-2.26383 227.511L-2.47751 186.368L-43.62 227.511L-43.62 186.262H-2.47751V145.226H-2.26383V145.119L38.665 145.119L38.665 103.977L82.5859 103.977L82.5859 269.295H-84.5488V227.511H-2.26383Z" fill="#F5F5F5"/>
<path d="M114.641 349.763C122.019 349.763 127.999 343.782 127.999 336.405C127.999 329.027 122.019 323.047 114.641 323.047C107.264 323.047 101.283 329.027 101.283 336.405C101.283 343.782 107.264 349.763 114.641 349.763Z" stroke="#8A49DD" stroke-miterlimit="10" stroke-linecap="round" stroke-linejoin="round"/>
<path d="M123.3 273.678C123.3 276.136 121.376 278.06 118.918 278.06C116.461 278.06 114.537 276.136 114.537 273.678C114.537 271.22 116.461 269.297 118.918 269.297C121.376 269.297 123.3 271.327 123.3 273.678Z" fill="#FFB800"/>
<path d="M123.3 250.698C123.3 253.156 121.376 255.079 118.918 255.079C116.461 255.079 114.537 253.156 114.537 250.698C114.537 248.24 116.461 246.316 118.918 246.316C121.376 246.316 123.3 248.347 123.3 250.698Z" fill="#FFB800"/>
<path d="M123.299 227.831C123.299 230.288 121.375 232.212 118.918 232.212C116.46 232.212 114.536 230.288 114.536 227.831C114.536 225.373 116.46 223.449 118.918 223.449C121.375 223.449 123.299 225.373 123.299 227.831Z" fill="#FFB800"/>
<path d="M123.299 204.858C123.299 207.316 121.375 209.239 118.918 209.239C116.46 209.239 114.536 207.316 114.536 204.858C114.536 202.4 116.46 200.477 118.918 200.477C121.375 200.477 123.299 202.4 123.299 204.858Z" fill="#FFB800"/>
<path d="M123.3 181.881C123.3 184.339 121.376 186.263 118.918 186.263C116.461 186.263 114.537 184.339 114.537 181.881C114.537 179.424 116.461 177.5 118.918 177.5C121.376 177.5 123.3 179.53 123.3 181.881Z" fill="#FFB800"/>
<path d="M123.3 159.01C123.3 161.468 121.376 163.392 118.918 163.392C116.461 163.392 114.537 161.468 114.537 159.01C114.537 156.552 116.461 154.629 118.918 154.629C121.376 154.629 123.3 156.552 123.3 159.01Z" fill="#FFB800"/>
<path d="M123.299 136.034C123.299 138.492 121.375 140.415 118.918 140.415C116.46 140.415 114.536 138.492 114.536 136.034C114.536 133.576 116.46 131.652 118.918 131.652C121.375 131.652 123.299 133.576 123.299 136.034Z" fill="#FFB800"/>
<path d="M123.301 113.061C123.301 115.519 121.377 117.443 118.919 117.443C116.462 117.443 114.538 115.519 114.538 113.061C114.538 110.603 116.462 108.68 118.919 108.68C121.377 108.68 123.301 110.71 123.301 113.061Z" fill="#FFB800"/>
<path d="M62.493 39.8607L71.7901 26.2891L71.2558 42.7461L86.751 37.296L76.8127 50.3334L92.5216 54.9285L76.8127 59.6305L86.751 72.6679L71.2558 67.111L71.7901 83.568L62.493 69.9963L53.1958 83.568L53.6233 67.111L38.1281 72.6679L48.1732 59.6305L32.3574 54.9285L48.1732 50.3334L38.1281 37.296L53.6233 42.7461L53.1958 26.2891L62.493 39.8607Z" fill="#EBEBEB"/>
<path d="M-85.2998 290.455L-71.3794 305.664L-55.8634 290.148L-41.899 305.664L-27.9347 290.924L-13.1945 305.664L-0.00594421 290.924L13.1826 305.664L26.3712 290.924" stroke="#A7A7A7" stroke-width="0.625987" stroke-miterlimit="10" stroke-linecap="round" stroke-linejoin="round"/>
<path d="M-84.6572 315.031L-70.3375 329.778L-55.2697 315.459L-40.95 329.778L-27.3784 316.527L-12.8449 330.206L0.0856042 316.741L12.4818 329.992L26.4809 316.314" stroke="#A7A7A7" stroke-width="0.625987" stroke-miterlimit="10" stroke-linecap="round" stroke-linejoin="round"/>
<path d="M37.7 186.155H-2.9082L37.7 145.547L37.7 186.155Z" fill="#EBEBEB"/>
<path d="M71.5748 325.825C77.2996 325.825 81.9406 321.184 81.9406 315.46C81.9406 309.735 77.2996 305.094 71.5748 305.094C65.8499 305.094 61.209 309.735 61.209 315.46C61.209 321.184 65.8499 325.825 71.5748 325.825Z" fill="#FFB800"/>
<path d="M61.5318 521.067C67.2567 521.067 71.8976 516.427 71.8976 510.702C71.8976 504.977 67.2567 500.336 61.5318 500.336C55.8069 500.336 51.166 504.977 51.166 510.702C51.166 516.427 55.8069 521.067 61.5318 521.067Z" fill="#FFB800"/>
<path d="M116.78 431.729L68.05 493.496L3.29064 575.46C0.298454 579.201 -4.08296 581.124 -8.46437 581.124C-11.6703 581.124 -14.9831 580.056 -17.7615 577.918C-24.2802 572.789 -25.3488 563.385 -20.2194 556.866L46.3567 472.444C46.3567 472.444 92.5218 414.096 93.163 413.135C99.2542 404.906 92.415 398.922 87.2855 400.525C82.6904 401.914 79.4844 406.402 76.8128 409.715C74.5687 412.493 72.3246 415.272 70.1873 418.05C64.8441 424.676 59.501 431.408 54.1578 438.034C47.8528 445.942 41.5478 453.743 35.2429 461.651L-19.685 530.15C-32.6155 546.287 -55.8049 549.386 -72.4756 537.31C-81.0247 531.112 -86.7954 521.494 -88.1846 511.022C-89.5738 500.549 -86.5817 489.756 -79.8493 481.527L-20.1125 408.005L52.2342 318.881C57.4705 312.469 66.8745 311.507 73.3932 316.744C79.8051 321.98 80.7668 331.384 75.6373 337.903L1.3671 428.95L-56.6598 500.442C-58.6902 503.007 -58.6902 505.679 -58.5834 507.068C-58.3696 508.457 -57.7285 511.022 -55.0569 512.945C-51.3167 515.617 -46.0804 514.976 -43.195 511.342L13.5496 440.705L59.7146 383.106C65.9127 375.412 74.9961 370.71 84.8276 370.175C94.659 369.641 104.277 373.381 111.223 380.328L113.895 382.999C126.932 395.93 128.214 417.409 116.78 431.729Z" stroke="#CD2026" stroke-width="0.625987" stroke-miterlimit="10"/>
<path d="M-0.768147 60.0575C2.18281 60.0575 4.57503 57.6652 4.57503 54.7143C4.57503 51.7633 2.18281 49.3711 -0.768147 49.3711C-3.7191 49.3711 -6.11133 51.7633 -6.11133 54.7143C-6.11133 57.6652 -3.7191 60.0575 -0.768147 60.0575Z" stroke="#A7A7A7" stroke-width="1.01291" stroke-miterlimit="10" stroke-linecap="round" stroke-linejoin="round"/>
</svg>
