<svg width="738" height="543" viewBox="0 0 738 543" fill="none" xmlns="http://www.w3.org/2000/svg">
<path d="M621.075 202.477L620.885 165.861L584.27 202.477V165.766H620.885V129.246H621.075V129.151H657.501V92.5352L696.589 92.5352V239.663L547.844 239.663V202.477H621.075Z" fill="#FFB800"/>
<path d="M408.511 376.903L542.61 242.805" stroke="#570DB4" stroke-width="0.650565" stroke-miterlimit="10" stroke-linecap="round" stroke-linejoin="round"/>
<path d="M436.38 213.418C436.19 194.492 420.783 179.18 401.762 179.18C382.741 179.18 367.334 194.492 367.144 213.418H436.38Z" fill="#CD2026"/>
<path d="M436.378 255.168C436.188 236.242 420.781 220.93 401.76 220.93C382.739 220.93 367.332 236.242 367.141 255.168H436.378Z" stroke="#CD2026" stroke-width="0.631829" stroke-miterlimit="10"/>
<path d="M429.911 202.288C421.827 202.288 415.265 195.726 415.265 187.642C415.265 179.558 421.827 172.996 429.911 172.996C437.995 172.996 444.558 179.558 444.558 187.642C444.558 195.726 437.995 202.288 429.911 202.288Z" stroke="#A7A7A7" stroke-width="1.05268" stroke-miterlimit="10" stroke-linecap="round" stroke-linejoin="round"/>
<path d="M348.498 299.773C348.498 354.363 304.179 398.682 249.589 398.682C194.999 398.682 150.68 354.363 150.68 299.773C150.68 245.182 194.999 200.863 249.589 200.863C249.779 200.863 249.969 200.863 250.16 200.863C303.419 201.149 346.787 243.661 348.403 296.634C348.498 297.68 348.498 298.727 348.498 299.773Z" stroke="#C5C5C5" stroke-width="0.650565" stroke-miterlimit="10"/>
<path d="M249.593 373.576C290.352 373.576 323.394 340.534 323.394 299.774C323.394 259.015 290.352 225.973 249.593 225.973C208.833 225.973 175.791 259.015 175.791 299.774C175.791 340.534 208.833 373.576 249.593 373.576Z" stroke="#A7A7A7" stroke-width="1.4749" stroke-miterlimit="10"/>
<path d="M249.589 344.851C274.486 344.851 294.668 324.668 294.668 299.771C294.668 274.874 274.486 254.691 249.589 254.691C224.692 254.691 204.509 274.874 204.509 299.771C204.509 324.668 224.692 344.851 249.589 344.851Z" stroke="#616161" stroke-width="1.4749" stroke-miterlimit="10"/>
<path d="M249.588 321.836C261.774 321.836 271.652 311.957 271.652 299.771C271.652 287.586 261.774 277.707 249.588 277.707C237.402 277.707 227.524 287.586 227.524 299.771C227.524 311.957 237.402 321.836 249.588 321.836Z" stroke="#616161" stroke-width="0.650565" stroke-miterlimit="10"/>
<path d="M725.113 311.28C731.678 311.28 737.001 305.958 737.001 299.392C737.001 292.826 731.678 287.504 725.113 287.504C718.547 287.504 713.224 292.826 713.224 299.392C713.224 305.958 718.547 311.28 725.113 311.28Z" stroke="#570DB4" stroke-width="0.650565" stroke-miterlimit="10" stroke-linecap="round" stroke-linejoin="round"/>
<path d="M725.113 455.839C731.678 455.839 737.001 450.516 737.001 443.951C737.001 437.385 731.678 432.062 725.113 432.062C718.547 432.062 713.224 437.385 713.224 443.951C713.224 450.516 718.547 455.839 725.113 455.839Z" fill="#007618"/>
<path d="M331.475 133.43C331.57 133.905 331.57 134.381 331.57 134.856C331.57 142.274 325.483 148.361 318.065 148.361C310.647 148.361 304.56 142.274 304.56 134.856C304.56 134.381 304.56 133.905 304.655 133.43H294.003C294.003 133.905 293.908 134.381 293.908 134.856C293.908 148.171 304.75 159.013 318.065 159.013C331.38 159.013 342.222 148.171 342.222 134.856C342.222 134.381 342.222 133.905 342.222 133.43H331.475Z" fill="#D7D7D7"/>
<path d="M332.331 164.434C332.426 164.909 332.426 165.385 332.426 165.86C332.426 173.278 326.339 179.365 318.921 179.365C311.503 179.365 305.416 173.278 305.416 165.86C305.416 165.385 305.416 164.909 305.511 164.434H294.86C294.86 164.909 294.764 165.385 294.764 165.86C294.764 179.175 305.606 190.017 318.921 190.017C332.236 190.017 343.078 179.175 343.078 165.86C343.078 165.385 343.078 164.909 343.078 164.434H332.331Z" fill="#616161"/>
<path d="M216.4 186.502C220.076 186.502 223.057 183.522 223.057 179.845C223.057 176.168 220.076 173.188 216.4 173.188C212.723 173.188 209.742 176.168 209.742 179.845C209.742 183.522 212.723 186.502 216.4 186.502Z" fill="#FFB800"/>
<path d="M331 406.381C334.677 406.381 337.657 403.401 337.657 399.724C337.657 396.047 334.677 393.066 331 393.066C327.323 393.066 324.343 396.047 324.343 399.724C324.343 403.401 327.323 406.381 331 406.381Z" fill="#FFB800"/>
<path d="M488.873 162.44C492.55 162.44 495.531 159.459 495.531 155.782C495.531 152.106 492.55 149.125 488.873 149.125C485.196 149.125 482.216 152.106 482.216 155.782C482.216 159.459 485.196 162.44 488.873 162.44Z" fill="#FFB800"/>
<path d="M75.171 477.615L75.171 280.082H120.251C118.634 288.071 117.778 296.44 117.778 304.904C117.778 375.377 174.841 432.441 245.314 432.441C254.73 432.441 263.955 431.394 272.8 429.492L272.8 477.615H75.171Z" fill="#D7D7D7"/>
<path d="M124.526 473.145L46.2549 536.485C34.3667 546.091 16.7723 544.284 7.16663 532.396C-2.43899 520.508 -0.631996 502.913 11.2562 493.307L89.5277 429.967C101.416 420.362 119.01 422.169 128.616 434.057C138.222 445.945 136.415 463.444 124.526 473.145Z" stroke="#A7A7A7" stroke-width="0.650565" stroke-miterlimit="10" stroke-linecap="round" stroke-linejoin="round"/>
<path d="M119.105 508.903C128.901 501.199 137.936 492.45 146.115 483.034C151.25 477.138 156.101 470.766 159.049 463.443C161.807 456.69 162.853 449.272 164.47 442.139C170.081 418.077 183.491 395.918 202.322 379.75" stroke="#A7A7A7" stroke-width="0.650565" stroke-miterlimit="10" stroke-linecap="round" stroke-linejoin="round"/>
<path d="M164.476 355.598C156.867 373.573 139.368 386.982 120.062 389.55C111.122 390.787 101.992 389.836 93.0518 390.787C73.4601 392.974 56.1509 404.101 39.6978 414.848" stroke="#A7A7A7" stroke-width="0.650565" stroke-miterlimit="10" stroke-linecap="round" stroke-linejoin="round"/>
<path d="M65.4665 378.705C74.8819 374.615 84.012 369.479 90.9547 361.871C97.8023 354.262 102.177 343.801 100.56 333.72C98.5631 321.356 88.1966 311.655 76.4987 307.09C64.8959 302.43 52.0567 301.955 39.5979 301.574" stroke="#A7A7A7" stroke-width="0.650565" stroke-miterlimit="10" stroke-linecap="round" stroke-linejoin="round"/>
<path d="M178.829 502.437C174.93 489.218 178.734 474.001 188.435 464.3C198.136 454.504 213.353 450.605 226.572 454.409C232.944 456.216 238.65 459.64 244.737 462.113C269.655 472.194 300.754 464.776 318.349 444.328" stroke="#A7A7A7" stroke-width="0.650565" stroke-miterlimit="10" stroke-linecap="round" stroke-linejoin="round"/>
<path d="M61.3741 428.544C61.3741 430.731 59.6622 432.443 57.4748 432.443C55.2873 432.443 53.5754 430.731 53.5754 428.544C53.5754 426.356 55.2873 424.645 57.4748 424.645C59.6622 424.645 61.3741 426.452 61.3741 428.544Z" fill="#FFB800"/>
<path d="M61.3741 408.188C61.3741 410.376 59.6622 412.088 57.4748 412.088C55.2873 412.088 53.5754 410.376 53.5754 408.188C53.5754 406.001 55.2873 404.289 57.4748 404.289C59.6622 404.289 61.3741 406.001 61.3741 408.188Z" fill="#FFB800"/>
<path d="M61.3716 387.743C61.3716 389.93 59.6597 391.642 57.4723 391.642C55.2849 391.642 53.573 389.93 53.573 387.743C53.573 385.556 55.2849 383.844 57.4723 383.844C59.6597 383.844 61.3716 385.556 61.3716 387.743Z" fill="#FFB800"/>
<path d="M61.3741 367.294C61.3741 369.481 59.6622 371.193 57.4748 371.193C55.2873 371.193 53.5754 369.481 53.5754 367.294C53.5754 365.106 55.2873 363.395 57.4748 363.395C59.6622 363.395 61.3741 365.202 61.3741 367.294Z" fill="#FFB800"/>
<path d="M61.3716 346.942C61.3716 349.13 59.6597 350.842 57.4723 350.842C55.2849 350.842 53.573 349.13 53.573 346.942C53.573 344.755 55.2849 343.043 57.4723 343.043C59.6597 343.043 61.3716 344.755 61.3716 346.942Z" fill="#FFB800"/>
<path d="M61.3741 326.497C61.3741 328.684 59.6622 330.396 57.4748 330.396C55.2873 330.396 53.5754 328.684 53.5754 326.497C53.5754 324.31 55.2873 322.598 57.4748 322.598C59.6622 322.598 61.3741 324.31 61.3741 326.497Z" fill="#FFB800"/>
<path d="M61.3741 306.048C61.3741 308.235 59.6622 309.947 57.4748 309.947C55.2873 309.947 53.5754 308.235 53.5754 306.048C53.5754 303.86 55.2873 302.148 57.4748 302.148C59.6622 302.148 61.3741 303.955 61.3741 306.048Z" fill="#FFB800"/>
<path d="M61.3722 285.696C61.3722 287.884 59.6603 289.595 57.4729 289.595C55.2855 289.595 53.5736 287.884 53.5736 285.696C53.5736 283.509 55.2855 281.797 57.4729 281.797C59.6603 281.797 61.3722 283.509 61.3722 285.696Z" fill="#FFB800"/>
<path d="M732.825 243.563C732.825 245.751 731.113 247.463 728.926 247.463C726.738 247.463 725.027 245.751 725.027 243.563C725.027 241.376 726.738 239.664 728.926 239.664C731.113 239.664 732.825 241.471 732.825 243.563Z" fill="#FFB800"/>
<path d="M732.825 223.114C732.825 225.302 731.113 227.013 728.926 227.013C726.738 227.013 725.027 225.302 725.027 223.114C725.027 220.927 726.738 219.215 728.926 219.215C731.113 219.215 732.825 221.022 732.825 223.114Z" fill="#FFB800"/>
<path d="M732.823 202.763C732.823 204.95 731.111 206.662 728.923 206.662C726.736 206.662 725.024 204.95 725.024 202.763C725.024 200.575 726.736 198.863 728.923 198.863C731.111 198.863 732.823 200.575 732.823 202.763Z" fill="#FFB800"/>
<path d="M732.823 182.317C732.823 184.505 731.111 186.217 728.923 186.217C726.736 186.217 725.024 184.505 725.024 182.317C725.024 180.13 726.736 178.418 728.923 178.418C731.111 178.418 732.823 180.13 732.823 182.317Z" fill="#FFB800"/>
<path d="M732.825 161.868C732.825 164.055 731.113 165.767 728.926 165.767C726.738 165.767 725.027 164.055 725.027 161.868C725.027 159.681 726.738 157.969 728.926 157.969C731.113 157.969 732.825 159.776 732.825 161.868Z" fill="#FFB800"/>
<path d="M732.825 141.517C732.825 143.704 731.113 145.416 728.926 145.416C726.738 145.416 725.027 143.704 725.027 141.517C725.027 139.329 726.738 137.617 728.926 137.617C731.113 137.617 732.825 139.329 732.825 141.517Z" fill="#FFB800"/>
<path d="M732.823 121.067C732.823 123.255 731.111 124.967 728.923 124.967C726.736 124.967 725.024 123.255 725.024 121.067C725.024 118.88 726.736 117.168 728.923 117.168C731.111 117.168 732.823 118.88 732.823 121.067Z" fill="#FFB800"/>
<path d="M732.825 100.622C732.825 102.809 731.113 104.521 728.926 104.521C726.738 104.521 725.027 102.809 725.027 100.622C725.027 98.4345 726.738 96.7227 728.926 96.7227C731.113 96.7227 732.825 98.5297 732.825 100.622Z" fill="#FFB800"/>
<path d="M52.4367 90.7322C50.2492 90.7322 48.5374 89.0203 48.5374 86.8329C48.5374 84.6455 50.2492 82.9336 52.4367 82.9336C54.6241 82.9336 56.336 84.6455 56.336 86.8329C56.2409 88.9252 54.529 90.7322 52.4367 90.7322Z" fill="#FFB800"/>
<path d="M72.7865 90.7322C70.5991 90.7322 68.8872 89.0203 68.8872 86.8329C68.8872 84.6455 70.5991 82.9336 72.7865 82.9336C74.9739 82.9336 76.6858 84.6455 76.6858 86.8329C76.6858 88.9252 74.9739 90.7322 72.7865 90.7322Z" fill="#FFB800"/>
<path d="M93.2335 90.7322C91.0461 90.7322 89.3342 89.0203 89.3342 86.8329C89.3342 84.6455 91.0461 82.9336 93.2335 82.9336C95.421 82.9336 97.1329 84.6455 97.1329 86.8329C97.1329 88.9252 95.3259 90.7322 93.2335 90.7322Z" fill="#FFB800"/>
<path d="M113.685 90.7322C111.498 90.7322 109.786 89.0203 109.786 86.8329C109.786 84.6455 111.498 82.9336 113.685 82.9336C115.873 82.9336 117.585 84.6455 117.585 86.8329C117.585 88.9252 115.778 90.7322 113.685 90.7322Z" fill="#FFB800"/>
<path d="M134.035 90.7322C131.848 90.7322 130.136 89.0203 130.136 86.8329C130.136 84.6455 131.848 82.9336 134.035 82.9336C136.222 82.9336 137.934 84.6455 137.934 86.8329C137.934 88.9252 136.222 90.7322 134.035 90.7322Z" fill="#FFB800"/>
<path d="M154.479 90.7322C152.292 90.7322 150.58 89.0203 150.58 86.8329C150.58 84.6455 152.292 82.9336 154.479 82.9336C156.667 82.9336 158.379 84.6455 158.379 86.8329C158.379 88.9252 156.667 90.7322 154.479 90.7322Z" fill="#FFB800"/>
<path d="M174.934 90.7322C172.747 90.7322 171.035 89.0203 171.035 86.8329C171.035 84.6455 172.747 82.9336 174.934 82.9336C177.121 82.9336 178.833 84.6455 178.833 86.8329C178.833 88.9252 177.026 90.7322 174.934 90.7322Z" fill="#FFB800"/>
<path d="M195.284 90.7322C193.096 90.7322 191.384 89.0203 191.384 86.8329C191.384 84.6455 193.096 82.9336 195.284 82.9336C197.471 82.9336 199.183 84.6455 199.183 86.8329C199.183 88.9252 197.471 90.7322 195.284 90.7322Z" fill="#FFB800"/>
<path d="M77.4483 35.4727L37.5042 35.4727L37.5042 67.428H77.4483V35.4727Z" fill="#CD2026"/>
<path d="M94.7576 35.4727H83.1548L83.1548 67.428H94.7576V35.4727Z" fill="#CD2026"/>
<path d="M112.352 35.4727H100.749L100.749 67.428H112.352V35.4727Z" fill="#CD2026"/>
<path d="M130.613 35.4727H119.01L119.01 67.428H130.613V35.4727Z" fill="#CD2026"/>
<path d="M142.407 35.4727H136.13V67.428H142.407V35.4727Z" fill="#CD2026"/>
<path d="M153.63 35.4727H147.353V67.428H153.63V35.4727Z" fill="#CD2026"/>
<path d="M164.851 35.4727H158.574V67.428H164.851V35.4727Z" fill="#CD2026"/>
<path d="M176.071 35.4727H169.794V67.428H176.071V35.4727Z" fill="#CD2026"/>
<path d="M187.294 35.4727H181.017V67.428H187.294V35.4727Z" fill="#CD2026"/>
<path d="M192.999 67.334C201.653 66.5732 208.501 59.3452 208.501 50.4053C208.501 41.5605 201.653 34.2374 192.999 33.4766V67.334Z" fill="#CD2026"/>
<path d="M214.402 67.334C223.056 66.5732 229.904 59.3452 229.904 50.4053C229.904 41.5605 223.056 34.2374 214.402 33.4766V67.334Z" fill="#CD2026"/>
<path d="M234.375 67.334C243.029 66.5732 249.877 59.3452 249.877 50.4053C249.877 41.5605 243.029 34.2374 234.375 33.4766V67.334Z" fill="#CD2026"/>
<path d="M678.703 35.4729L686.977 23.3945L686.502 38.0407L700.292 33.1904L691.447 44.7932L705.427 48.8827L691.447 53.0673L700.292 64.6702L686.502 59.7247L686.977 74.3709L678.703 62.2925L670.429 74.3709L670.809 59.7247L657.019 64.6702L665.959 53.0673L651.883 48.8827L665.959 44.7932L657.019 33.1904L670.809 38.0407L670.429 23.3945L678.703 35.4729Z" fill="#EBEBEB"/>
<path d="M343.457 2.08984L295.239 2.08984V91.1083L343.457 91.1083V2.08984Z" fill="#570DB4"/>
<path d="M343.457 103.855L295.239 103.855V116.504H343.457V103.855Z" fill="#570DB4"/>
<path d="M164.946 226.254H57.4768L164.946 118.785L164.946 226.254Z" fill="#FFB800"/>
<path d="M164.946 118.785L57.4768 118.785L57.4768 226.254H164.946L164.946 118.785Z" stroke="#FF842B" stroke-width="0.650565" stroke-miterlimit="10"/>
<path d="M156.575 128.008L67.6519 128.008L67.6519 216.931H156.575V128.008Z" stroke="#EBEBEB" stroke-width="0.650565" stroke-miterlimit="10"/>
<path d="M147.068 136.664H75.3585L75.3585 208.373H147.068V136.664Z" fill="#EBEBEB"/>
<path d="M75.3585 208.373L75.3585 136.664H147.068L75.3585 208.373Z" fill="#CD2026"/>
<path d="M194.052 117.742V150.268" stroke="#570DB4" stroke-width="0.650565" stroke-miterlimit="10" stroke-linecap="round" stroke-linejoin="round"/>
<path d="M210.311 134.004H177.785" stroke="#570DB4" stroke-width="0.650565" stroke-miterlimit="10" stroke-linecap="round" stroke-linejoin="round"/>
<path d="M234.562 117.742V150.268" stroke="#570DB4" stroke-width="0.650565" stroke-miterlimit="10" stroke-linecap="round" stroke-linejoin="round"/>
<path d="M250.824 134.004H218.298" stroke="#570DB4" stroke-width="0.650565" stroke-miterlimit="10" stroke-linecap="round" stroke-linejoin="round"/>
<path d="M350.401 298.536H248.258L248.258 198.961C303.609 199.246 348.689 243.47 350.401 298.536Z" fill="#CD2026"/>
<path d="M249.593 373.572C290.352 373.572 323.394 340.53 323.394 299.77C323.394 259.011 290.352 225.969 249.593 225.969C208.833 225.969 175.791 259.011 175.791 299.77C175.791 340.53 208.833 373.572 249.593 373.572Z" stroke="#EBEBEB" stroke-width="0.650565" stroke-miterlimit="10"/>
<path d="M249.593 344.566C274.332 344.566 294.387 324.51 294.387 299.771C294.387 275.032 274.332 254.977 249.593 254.977C224.853 254.977 204.798 275.032 204.798 299.771C204.798 324.51 224.853 344.566 249.593 344.566Z" stroke="#EBEBEB" stroke-width="0.650565" stroke-miterlimit="10"/>
<path d="M390.342 133.336H369.419V154.259H390.342V133.336Z" fill="#EBEBEB"/>
<path d="M390.342 90.3477H369.419V111.271H390.342V90.3477Z" stroke="#EBEBEB" stroke-width="0.650565" stroke-miterlimit="10"/>
<path d="M390.342 52.2109H369.419V73.1341H390.342V52.2109Z" fill="#CD2026"/>
<path d="M390.347 13.9805L369.424 13.9805V34.9036H390.347V13.9805Z" stroke="#EBEBEB" stroke-width="0.650565" stroke-miterlimit="10"/>
<path d="M547.17 258.496L559.819 271.525L573.324 258.877L585.973 271.525L598.147 259.828L611.081 271.906L622.589 260.018L633.621 271.716L646.08 259.637" stroke="#A7A7A7" stroke-width="0.650565" stroke-miterlimit="10" stroke-linecap="round" stroke-linejoin="round"/>
<path d="M547.747 280.367L560.491 293.492L573.901 280.748L586.645 293.492L598.723 281.699L611.658 293.872L623.165 281.889L634.198 293.682L646.656 281.508" stroke="#A7A7A7" stroke-width="0.650565" stroke-miterlimit="10" stroke-linecap="round" stroke-linejoin="round"/>
<path d="M398.523 327.923C401.202 327.923 403.373 325.752 403.373 323.073C403.373 320.394 401.202 318.223 398.523 318.223C395.844 318.223 393.672 320.394 393.672 323.073C393.672 325.752 395.844 327.923 398.523 327.923Z" fill="#CD2026"/>
<path d="M446.741 278.755C449.42 278.755 451.592 276.584 451.592 273.905C451.592 271.226 449.42 269.055 446.741 269.055C444.063 269.055 441.891 271.226 441.891 273.905C441.891 276.584 444.063 278.755 446.741 278.755Z" fill="#CD2026"/>
<path d="M498.005 225.115C500.683 225.115 502.855 222.943 502.855 220.264C502.855 217.586 500.683 215.414 498.005 215.414C495.326 215.414 493.154 217.586 493.154 220.264C493.154 222.943 495.326 225.115 498.005 225.115Z" fill="#CD2026"/>
<path d="M526.633 197.533C529.311 197.533 531.483 195.361 531.483 192.682C531.483 190.004 529.311 187.832 526.633 187.832C523.954 187.832 521.782 190.004 521.782 192.682C521.782 195.361 523.954 197.533 526.633 197.533Z" fill="#CD2026"/>
<path d="M421.727 303.673C424.406 303.673 426.578 301.502 426.578 298.823C426.578 296.144 424.406 293.973 421.727 293.973C419.049 293.973 416.877 296.144 416.877 298.823C416.877 301.502 419.049 303.673 421.727 303.673Z" fill="#CD2026"/>
<path d="M472.04 252.31C474.719 252.31 476.89 250.139 476.89 247.46C476.89 244.781 474.719 242.609 472.04 242.609C469.361 242.609 467.189 244.781 467.189 247.46C467.189 250.139 469.361 252.31 472.04 252.31Z" fill="#CD2026"/>
<path d="M656.638 165.671H620.498L656.638 129.531V165.671Z" fill="#1F1F1F"/>
<path d="M584.36 239.853H547.555L584.36 203.047V239.853Z" fill="#1F1F1F"/>
<path d="M575.898 128.391C574.471 128.581 573.045 128.676 571.618 128.676C549.363 128.676 531.293 110.606 531.293 88.3514C531.293 66.0968 549.363 48.0269 571.618 48.0269C573.045 48.0269 574.566 48.122 575.898 48.3122V16.3568C574.471 16.2617 573.045 16.2617 571.618 16.2617C531.864 16.2617 499.528 48.5975 499.528 88.3514C499.528 128.105 531.864 160.346 571.618 160.346C573.045 160.346 574.471 160.251 575.898 160.251V128.391Z" stroke="#570DB4" stroke-width="1.41042" stroke-miterlimit="10"/>
<path d="M531.293 89.8731C531.293 89.3025 531.293 88.827 531.293 88.2563C531.293 66.0017 549.363 47.9318 571.618 47.9318C573.045 47.9318 574.566 48.0269 575.898 48.2171V16.3568C574.471 16.2617 573.045 16.2617 571.618 16.2617C531.864 16.2617 499.528 48.5975 499.528 88.3515C499.528 88.9221 499.528 89.3976 499.528 89.9682H531.293V89.8731Z" fill="#570DB4"/>
<path d="M488.78 395.355C491.564 395.355 493.82 393.098 493.82 390.314C493.82 387.53 491.564 385.273 488.78 385.273C485.996 385.273 483.739 387.53 483.739 390.314C483.739 393.098 485.996 395.355 488.78 395.355Z" fill="#CD2026"/>
<path d="M488.781 407.051C498.025 407.051 505.519 399.557 505.519 390.313C505.519 381.068 498.025 373.574 488.781 373.574C479.536 373.574 472.042 381.068 472.042 390.313C472.042 399.557 479.536 407.051 488.781 407.051Z" stroke="#EBEBEB" stroke-width="0.650565" stroke-miterlimit="10"/>
<path d="M445.033 463.64C459.32 463.64 470.901 452.058 470.901 437.771C470.901 423.484 459.32 411.902 445.033 411.902C430.746 411.902 419.164 423.484 419.164 437.771C419.164 452.058 430.746 463.64 445.033 463.64Z" stroke="#EBEBEB" stroke-width="0.650565" stroke-miterlimit="10"/>
<path d="M445.034 450.894C452.282 450.894 458.158 445.018 458.158 437.769C458.158 430.521 452.282 424.645 445.034 424.645C437.785 424.645 431.909 430.521 431.909 437.769C431.909 445.018 437.785 450.894 445.034 450.894Z" stroke="#CD2026" stroke-width="0.650565" stroke-miterlimit="10"/>
<path d="M445.033 442.812C447.817 442.812 450.074 440.555 450.074 437.771C450.074 434.987 447.817 432.73 445.033 432.73C442.25 432.73 439.993 434.987 439.993 437.771C439.993 440.555 442.25 442.812 445.033 442.812Z" fill="#CD2026"/>
<path d="M488.782 416.183C503.069 416.183 514.65 404.601 514.65 390.314C514.65 376.027 503.069 364.445 488.782 364.445C474.495 364.445 462.913 376.027 462.913 390.314C462.913 404.601 474.495 416.183 488.782 416.183Z" stroke="#CD2026" stroke-width="0.650565" stroke-miterlimit="10"/>
<path d="M525.391 356.554C528.175 356.554 530.432 354.297 530.432 351.513C530.432 348.729 528.175 346.473 525.391 346.473C522.607 346.473 520.351 348.729 520.351 351.513C520.351 354.297 522.607 356.554 525.391 356.554Z" stroke="#EBEBEB" stroke-width="0.737676" stroke-miterlimit="10"/>
<path d="M553.737 324.12C556.521 324.12 558.777 321.863 558.777 319.08C558.777 316.296 556.521 314.039 553.737 314.039C550.953 314.039 548.696 316.296 548.696 319.08C548.696 321.863 550.953 324.12 553.737 324.12Z" stroke="#CD2026" stroke-width="0.948263" stroke-miterlimit="10"/>
<path d="M572.657 415.232C577.752 415.232 581.883 411.101 581.883 406.006C581.883 400.912 577.752 396.781 572.657 396.781C567.562 396.781 563.432 400.912 563.432 406.006C563.432 411.101 567.562 415.232 572.657 415.232Z" fill="#CD2026"/>
<path d="M686.786 289.974C691.881 289.974 696.012 285.844 696.012 280.749C696.012 275.654 691.881 271.523 686.786 271.523C681.692 271.523 677.561 275.654 677.561 280.749C677.561 285.844 681.692 289.974 686.786 289.974Z" fill="#CD2026"/>
<path d="M716.557 407.239C721.652 407.239 725.782 403.109 725.782 398.014C725.782 392.919 721.652 388.789 716.557 388.789C711.462 388.789 707.332 392.919 707.332 398.014C707.332 403.109 711.462 407.239 716.557 407.239Z" fill="#CD2026"/>
<path d="M677.847 463.732C682.942 463.732 687.072 459.601 687.072 454.506C687.072 449.412 682.942 445.281 677.847 445.281C672.752 445.281 668.622 449.412 668.622 454.506C668.622 459.601 672.752 463.732 677.847 463.732Z" fill="#CD2026"/>
<path d="M482.319 106.992L441.043 106.992V114.505L482.319 114.505V106.992Z" fill="#CD2026"/>
<path d="M482.317 120.402H441.041V127.916H482.317V120.402Z" stroke="#EBEBEB" stroke-width="0.596373" stroke-miterlimit="10"/>
<path d="M510.561 303.574H499.434V314.702H510.561V303.574Z" fill="#CD2026"/>
<path d="M522.735 315.273H511.607V326.401H522.735V315.273Z" fill="#EBEBEB"/>
<path d="M562.868 92.7266C563.629 99.1937 569.145 104.139 575.802 104.139C582.46 104.139 587.881 99.1937 588.737 92.7266H562.868Z" fill="#CD2026"/>
<path d="M575.8 104.235C582.996 104.235 588.83 98.4011 588.83 91.2052C588.83 84.0092 582.996 78.1758 575.8 78.1758C568.604 78.1758 562.771 84.0092 562.771 91.2052C562.771 98.4011 568.604 104.235 575.8 104.235Z" stroke="#CD2026" stroke-width="0.631829" stroke-miterlimit="10"/>
<path d="M727.019 384.225L683.651 439.196L626.017 512.141C623.354 515.47 619.455 517.182 615.555 517.182C612.702 517.182 609.754 516.231 607.281 514.329C601.48 509.764 600.529 501.394 605.094 495.593L664.344 420.46C664.344 420.46 705.43 368.533 706 367.677C711.421 360.353 705.335 355.028 700.77 356.454C696.68 357.691 693.827 361.685 691.449 364.633C689.452 367.106 687.455 369.579 685.553 372.051C680.798 377.948 676.042 383.94 671.287 389.836C665.676 396.874 660.065 403.817 654.453 410.854L605.569 471.817C594.062 486.178 573.424 488.936 558.587 478.189C550.979 472.673 545.843 464.113 544.607 454.793C543.371 445.473 546.033 435.867 552.025 428.544L605.189 363.112L669.575 283.794C674.235 278.087 682.605 277.232 688.406 281.892C694.112 286.552 694.968 294.921 690.403 300.723L624.305 381.752L572.663 445.377C570.856 447.66 570.856 450.038 570.951 451.274C571.141 452.51 571.712 454.793 574.089 456.505C577.418 458.882 582.078 458.312 584.646 455.078L635.147 392.214L676.232 340.952C681.749 334.104 689.832 329.92 698.582 329.444C707.332 328.969 715.891 332.297 722.073 338.479L724.451 340.857C736.054 352.365 737.195 371.481 727.019 384.225Z" stroke="#CD2026" stroke-width="0.650565" stroke-miterlimit="10"/>
<path d="M376.075 401.055V478.47" stroke="#CD2026" stroke-width="0.650565" stroke-miterlimit="10"/>
<path d="M405.942 405.621H330.809" stroke="#CD2026" stroke-width="0.650565" stroke-miterlimit="10"/>
<path d="M403.659 424.828H328.43" stroke="#CD2026" stroke-width="0.650565" stroke-miterlimit="10"/>
<path d="M401.375 443.945H326.147" stroke="#CD2026" stroke-width="0.650565" stroke-miterlimit="10"/>
<path d="M399.093 463.156H319.87" stroke="#CD2026" stroke-width="0.650565" stroke-miterlimit="10"/>
<path d="M357.627 407.332V479.232" stroke="#CD2026" stroke-width="0.650565" stroke-miterlimit="10"/>
<path d="M339.938 408.094V479.993" stroke="#CD2026" stroke-width="0.650565" stroke-miterlimit="10"/>
<path d="M323.864 408.664V478.471" stroke="#CD2026" stroke-width="0.650565" stroke-miterlimit="10"/>
<path d="M303.515 478.855L393.675 388.695V478.855C393.675 478.855 300.853 478.855 303.515 478.855Z" stroke="#CD2026" stroke-width="0.650565" stroke-miterlimit="10"/>
<path d="M431.909 95.9613V1.90234" stroke="#D7D7D7" stroke-width="0.650565" stroke-miterlimit="10"/>
<path d="M395.58 90.3477L486.881 90.3477" stroke="#D7D7D7" stroke-width="0.650565" stroke-miterlimit="10"/>
<path d="M398.338 67.0508L489.639 67.0508" stroke="#D7D7D7" stroke-width="0.650565" stroke-miterlimit="10"/>
<path d="M401.19 43.75L492.491 43.75" stroke="#D7D7D7" stroke-width="0.650565" stroke-miterlimit="10"/>
<path d="M403.948 20.4492L500.099 20.4492" stroke="#D7D7D7" stroke-width="0.650565" stroke-miterlimit="10"/>
<path d="M454.258 88.2597V0.953125" stroke="#D7D7D7" stroke-width="0.650565" stroke-miterlimit="10"/>
<path d="M475.658 87.3066V0" stroke="#D7D7D7" stroke-width="0.650565" stroke-miterlimit="10"/>
<path d="M495.249 86.6424V1.80859" stroke="#D7D7D7" stroke-width="0.650565" stroke-miterlimit="10"/>
<path d="M519.978 1.33203L410.512 110.798V1.33203C410.512 1.33203 523.211 1.33203 519.978 1.33203Z" stroke="#D7D7D7" stroke-width="0.650565" stroke-miterlimit="10"/>
<path d="M622.401 53.448C625.027 53.448 627.156 51.319 627.156 48.6928C627.156 46.0665 625.027 43.9375 622.401 43.9375C619.775 43.9375 617.646 46.0665 617.646 48.6928C617.646 51.319 619.775 53.448 622.401 53.448Z" stroke="#A7A7A7" stroke-width="1.05268" stroke-miterlimit="10" stroke-linecap="round" stroke-linejoin="round"/>
</svg>
