<svg width="48" height="48" viewBox="0 0 48 48" fill="none" xmlns="http://www.w3.org/2000/svg">
<rect width="48" height="48" rx="24" fill="#CD2026"/>
<path d="M16.4192 33.1843L22.4412 39.3368C22.6463 39.547 22.89 39.7138 23.1583 39.8276C23.4267 39.9414 23.7143 40 24.0049 40C24.2954 40 24.5831 39.9414 24.8514 39.8276C25.1197 39.7138 25.3634 39.547 25.5686 39.3368L31.5905 33.1843C31.7605 33.01 31.8837 32.7939 31.9484 32.5569C32.0131 32.3198 32.017 32.0698 31.9599 31.8308L28.3467 16.7038L30.1453 12.2412C30.333 11.7725 30.4045 11.2636 30.3535 10.7599C30.3026 10.2561 30.1306 9.77297 29.853 9.3534C29.5754 8.93382 29.2007 8.59076 28.7621 8.35468C28.3235 8.11859 27.8347 7.99678 27.339 8.00006H20.6346C20.1399 8.00029 19.6529 8.12502 19.2166 8.36325C18.7803 8.60148 18.4082 8.94585 18.1332 9.36593C17.8582 9.78601 17.6887 10.2689 17.6397 10.7718C17.5907 11.2747 17.6638 11.7822 17.8524 12.2494L19.651 16.7038L16.0378 31.8308C15.9822 32.0709 15.988 32.3215 16.0548 32.5586C16.1216 32.7957 16.2471 33.0112 16.4192 33.1843ZM20.47 10.9533C20.4877 10.9243 20.5127 10.9007 20.5423 10.8848C20.5719 10.869 20.6052 10.8615 20.6386 10.863H27.343C27.3759 10.8632 27.4082 10.8716 27.4372 10.8875C27.4661 10.9035 27.4908 10.9264 27.5091 10.9544C27.5273 10.9823 27.5385 11.0144 27.5418 11.0478C27.545 11.0812 27.5402 11.115 27.5277 11.146L25.9219 15.1493H22.0638L20.4579 11.146C20.4431 11.1157 20.4365 11.0819 20.4386 11.048C20.4407 11.0142 20.4515 10.9815 20.47 10.9533ZM22.2284 18.0204H25.7492L29.0131 31.7241L23.9868 36.8717L18.9645 31.7241L22.2284 18.0204Z" fill="white"/>
</svg>
