<svg width="64" height="64" viewBox="0 0 64 64" fill="none" xmlns="http://www.w3.org/2000/svg">
<rect width="64" height="64" rx="32" fill="#FFB800"/>
<path d="M22.524 43.4804L30.0514 51.171C30.3078 51.4338 30.6125 51.6423 30.9479 51.7845C31.2833 51.9268 31.6429 52 32.0061 52C32.3692 52 32.7288 51.9268 33.0642 51.7845C33.3997 51.6423 33.7043 51.4338 33.9607 51.171L41.4882 43.4804C41.7006 43.2624 41.8546 42.9924 41.9355 42.6961C42.0163 42.3998 42.0213 42.0873 41.9499 41.7885L37.4334 22.8798L39.6816 17.3015C39.9162 16.7156 40.0057 16.0795 39.9419 15.4498C39.8782 14.8201 39.6633 14.2162 39.3162 13.6917C38.9692 13.1673 38.5008 12.7385 37.9526 12.4433C37.4044 12.1482 36.7934 11.996 36.1738 12.0001H27.7932C27.1749 12.0004 26.5661 12.1563 26.0208 12.4541C25.4754 12.7518 25.0103 13.1823 24.6665 13.7074C24.3227 14.2325 24.1108 14.8361 24.0496 15.4647C23.9884 16.0934 24.0797 16.7277 24.3155 17.3117L26.5637 22.8798L22.0472 41.7885C21.9777 42.0886 21.985 42.4019 22.0685 42.6983C22.1521 42.9946 22.3089 43.264 22.524 43.4804V43.4804ZM27.5875 15.6916C27.6096 15.6554 27.6409 15.6259 27.6779 15.606C27.7149 15.5862 27.7565 15.5768 27.7982 15.5788L36.1788 15.5788C36.2199 15.579 36.2603 15.5895 36.2965 15.6094C36.3327 15.6293 36.3635 15.658 36.3863 15.6929C36.4091 15.7279 36.4232 15.768 36.4272 15.8098C36.4313 15.8516 36.4253 15.8937 36.4096 15.9326L34.4023 20.9366H29.5797L27.5724 15.9326C27.5539 15.8946 27.5456 15.8523 27.5483 15.81C27.5509 15.7677 27.5644 15.7268 27.5875 15.6916V15.6916ZM29.7855 24.5256H34.1865L38.2664 41.6552L31.9835 48.0897L25.7056 41.6552L29.7855 24.5256Z" fill="#CD2026"/>
</svg>
