<svg width="70" height="56" viewBox="0 0 70 56" fill="none" xmlns="http://www.w3.org/2000/svg">
<path d="M35 36C40.5142 36 45 31.5137 45 26C45 20.4863 40.5142 16 35 16C29.4858 16 25 20.4863 25 26C25 31.5137 29.4858 36 35 36ZM35 20C38.3086 20 41 22.6914 41 26C41 29.3086 38.3086 32 35 32C31.6914 32 29 29.3086 29 26C29 22.6914 31.6914 20 35 20Z" fill="#8A4B12"/>
<path d="M14.4448 40.4443C18.9785 40.4443 22.667 36.7559 22.667 32.2227C22.667 27.6885 18.9785 24 14.4448 24C9.91113 24 6.22266 27.6885 6.22266 32.2227C6.22266 36.7559 9.91113 40.4443 14.4448 40.4443ZM14.4448 28C16.7729 28 18.667 29.8945 18.667 32.2227C18.667 34.5508 16.7729 36.4443 14.4448 36.4443C12.1167 36.4443 10.2227 34.5508 10.2227 32.2227C10.2227 29.8945 12.1167 28 14.4448 28Z" fill="#8A4B12"/>
<path d="M60.2222 41.1113H50.8887C50.3218 41.1113 49.7615 41.173 49.2072 41.2694C47.0586 39.2485 44.1754 38 41 38H29C25.8247 38 22.9417 39.2484 20.7931 41.2692C20.2394 41.173 19.679 41.1113 19.1113 41.1113H9.77783C4.38623 41.1113 0 45.4971 0 50.8887V56H17H19H43.1113H53H70V50.8887C70 45.4971 65.6138 41.1113 60.2222 41.1113ZM4 52V50.8887C4 47.7031 6.5918 45.1113 9.77783 45.1113H18.0516C17.3813 46.6064 17 48.2581 17 50V52H4ZM43.1113 52H21V50C21 45.5889 24.5889 42 29 42H41C45.4111 42 49 45.5889 49 50V52H43.1113ZM66 52H53V50C53 48.2581 52.6187 46.6064 51.9484 45.1113H60.2222C63.4082 45.1113 66 47.7031 66 50.8887V52Z" fill="#8A4B12"/>
<path d="M47.332 32.2227C47.332 36.7559 51.0205 40.4443 55.5542 40.4443C60.0879 40.4443 63.7764 36.7559 63.7764 32.2227C63.7764 27.6885 60.0879 24 55.5542 24C51.0205 24 47.332 27.6885 47.332 32.2227ZM59.7764 32.2227C59.7764 34.5508 57.8823 36.4443 55.5542 36.4443C53.2261 36.4443 51.332 34.5508 51.332 32.2227C51.332 29.8945 53.2261 28 55.5542 28C57.8823 28 59.7764 29.8945 59.7764 32.2227Z" fill="#8A4B12"/>
<path d="M60.5054 11.0469C59.7242 10.2656 58.4581 10.2656 57.6768 11.0469L55.5552 13.1682L53.4337 11.0469C52.6524 10.2656 51.3863 10.2656 50.605 11.0469C49.8243 11.8281 49.8243 13.0947 50.6055 13.875L52.7269 15.9961L50.6055 18.1172C49.8243 18.8975 49.8243 20.1641 50.605 20.9453C50.9957 21.3359 51.5079 21.5312 52.0196 21.5312C52.5313 21.5312 53.043 21.3359 53.4337 20.9453L55.5552 18.824L57.6768 20.9453C58.0674 21.3359 58.5792 21.5312 59.0909 21.5312C59.6026 21.5312 60.1148 21.3359 60.5054 20.9453C61.2862 20.1641 61.2862 18.8975 60.5049 18.1172L58.3835 15.9961L60.5049 13.875C61.2862 13.0947 61.2862 11.8281 60.5054 11.0469Z" fill="#8A4B12"/>
<path d="M19.3961 11.0547C18.6148 10.2734 17.3487 10.2734 16.5674 11.0547L14.4459 13.176L12.3243 11.0547C11.543 10.2734 10.2769 10.2734 9.49567 11.0547C8.7149 11.8359 8.7149 13.1025 9.49615 13.8828L11.6176 16.0039L9.49615 18.125C8.7149 18.9053 8.7149 20.1719 9.49567 20.9531C9.88629 21.3438 10.3985 21.5391 10.9102 21.5391C11.4219 21.5391 11.9337 21.3438 12.3243 20.9531L14.4459 18.8318L16.5674 20.9531C16.9581 21.3438 17.4698 21.5391 17.9815 21.5391C18.4932 21.5391 19.0054 21.3438 19.3961 20.9531C20.1768 20.1719 20.1768 18.9053 19.3956 18.125L17.2742 16.0039L19.3956 13.8828C20.1768 13.1025 20.1768 11.8359 19.3961 11.0547Z" fill="#8A4B12"/>
<path d="M32 13C32.5117 13 33.0239 12.8047 33.4141 12.4141L42.4141 3.41406C43.1953 2.63281 43.1953 1.36719 42.4141 0.585937C41.6338 -0.195312 40.3662 -0.195312 39.5859 0.585937L32 8.17187L30.4141 6.58594C29.6338 5.80469 28.3662 5.80469 27.5859 6.58594C26.8047 7.36719 26.8047 8.63281 27.5859 9.41406L30.5859 12.4141C30.9761 12.8047 31.4883 13 32 13Z" fill="#8A4B12"/>
</svg>
