<svg width="603" height="344" viewBox="0 0 603 344" fill="none" xmlns="http://www.w3.org/2000/svg">
<rect width="605" height="344" fill="white"/>
<rect x="556.71" y="303.023" width="6.31854" height="6.31915" stroke="#FF842B"/>
<rect x="542.072" y="303.023" width="6.3186" height="6.31915" stroke="#FF842B"/>
<rect x="549.392" y="295.703" width="6.31854" height="6.31915" stroke="#FF842B"/>
<rect x="556.71" y="288.387" width="6.31854" height="6.31921" stroke="#FF842B"/>
<rect x="527.436" y="303.023" width="6.31848" height="6.31915" stroke="#FF842B"/>
<rect x="534.754" y="295.703" width="6.31854" height="6.31915" stroke="#FF842B"/>
<rect x="542.072" y="288.387" width="6.3186" height="6.31921" stroke="#FF842B"/>
<rect x="549.392" y="281.066" width="6.31854" height="6.31915" stroke="#FF842B"/>
<rect x="556.71" y="273.746" width="6.31854" height="6.31912" stroke="#FF842B"/>
<rect x="512.799" y="303.023" width="6.31854" height="6.31915" stroke="#FF842B"/>
<rect x="520.117" y="295.703" width="6.31854" height="6.31915" stroke="#FF842B"/>
<rect x="527.436" y="288.387" width="6.31848" height="6.31921" stroke="#FF842B"/>
<rect x="534.754" y="281.066" width="6.31854" height="6.31915" stroke="#FF842B"/>
<rect x="542.072" y="273.746" width="6.3186" height="6.31912" stroke="#FF842B"/>
<rect x="549.392" y="266.43" width="6.31854" height="6.31912" stroke="#FF842B"/>
<rect x="556.71" y="259.109" width="6.31854" height="6.31918" stroke="#FF842B"/>
<rect x="498.161" y="303.023" width="6.31854" height="6.31915" stroke="#FF842B"/>
<rect x="505.479" y="295.703" width="6.31863" height="6.31915" stroke="#FF842B"/>
<rect x="512.799" y="288.387" width="6.31854" height="6.31921" stroke="#FF842B"/>
<rect x="520.117" y="281.066" width="6.31854" height="6.31915" stroke="#FF842B"/>
<rect x="527.436" y="273.746" width="6.31848" height="6.31912" stroke="#FF842B"/>
<rect x="534.754" y="266.43" width="6.31854" height="6.31912" stroke="#FF842B"/>
<rect x="542.072" y="259.109" width="6.3186" height="6.31918" stroke="#FF842B"/>
<rect x="549.392" y="251.793" width="6.31854" height="6.31911" stroke="#FF842B"/>
<rect x="556.71" y="244.473" width="6.31854" height="6.31914" stroke="#FF842B"/>
<rect x="483.524" y="303.023" width="6.31848" height="6.31915" stroke="#FF842B"/>
<rect x="490.843" y="295.703" width="6.31854" height="6.31915" stroke="#FF842B"/>
<rect x="498.161" y="288.387" width="6.31854" height="6.31921" stroke="#FF842B"/>
<rect x="505.479" y="281.066" width="6.31863" height="6.31915" stroke="#FF842B"/>
<rect x="512.799" y="273.746" width="6.31854" height="6.31912" stroke="#FF842B"/>
<rect x="520.117" y="266.43" width="6.31854" height="6.31912" stroke="#FF842B"/>
<rect x="527.436" y="259.109" width="6.31848" height="6.31918" stroke="#FF842B"/>
<rect x="534.754" y="251.793" width="6.31854" height="6.31911" stroke="#FF842B"/>
<rect x="542.072" y="244.473" width="6.3186" height="6.31914" stroke="#FF842B"/>
<rect x="549.392" y="237.152" width="6.31854" height="6.31915" stroke="#FF842B"/>
<rect x="556.71" y="229.832" width="6.31854" height="6.31915" stroke="#FF842B"/>
<rect x="468.887" y="303.023" width="6.31857" height="6.31915" stroke="#FF842B"/>
<rect x="476.206" y="295.703" width="6.3186" height="6.31915" stroke="#FF842B"/>
<rect x="483.524" y="288.387" width="6.31848" height="6.31921" stroke="#FF842B"/>
<rect x="490.843" y="281.066" width="6.31854" height="6.31915" stroke="#FF842B"/>
<rect x="498.161" y="273.746" width="6.31854" height="6.31912" stroke="#FF842B"/>
<rect x="505.479" y="266.43" width="6.31863" height="6.31912" stroke="#FF842B"/>
<rect x="512.799" y="259.109" width="6.31854" height="6.31918" stroke="#FF842B"/>
<rect x="520.117" y="251.793" width="6.31854" height="6.31911" stroke="#FF842B"/>
<rect x="527.436" y="244.473" width="6.31848" height="6.31914" stroke="#FF842B"/>
<rect x="534.754" y="237.152" width="6.31854" height="6.31915" stroke="#FF842B"/>
<rect x="542.072" y="229.832" width="6.3186" height="6.31915" stroke="#FF842B"/>
<rect x="549.392" y="222.516" width="6.31854" height="6.31915" stroke="#FF842B"/>
<rect x="556.71" y="215.195" width="6.31854" height="6.31914" stroke="#FF842B"/>
<rect x="454.25" y="303.023" width="6.31854" height="6.31915" stroke="#FF842B"/>
<rect x="461.568" y="295.703" width="6.31851" height="6.31915" stroke="#FF842B"/>
<rect x="468.887" y="288.387" width="6.31857" height="6.31921" stroke="#FF842B"/>
<rect x="476.206" y="281.066" width="6.3186" height="6.31915" stroke="#FF842B"/>
<rect x="483.524" y="273.746" width="6.31848" height="6.31912" stroke="#FF842B"/>
<rect x="490.843" y="266.43" width="6.31854" height="6.31912" stroke="#FF842B"/>
<rect x="498.161" y="259.109" width="6.31854" height="6.31918" stroke="#FF842B"/>
<rect x="505.479" y="251.793" width="6.31863" height="6.31911" stroke="#FF842B"/>
<rect x="512.799" y="244.473" width="6.31854" height="6.31914" stroke="#FF842B"/>
<rect x="520.117" y="237.152" width="6.31854" height="6.31915" stroke="#FF842B"/>
<rect x="527.436" y="229.832" width="6.31848" height="6.31915" stroke="#FF842B"/>
<rect x="534.754" y="222.516" width="6.31854" height="6.31915" stroke="#FF842B"/>
<rect x="542.072" y="215.195" width="6.3186" height="6.31914" stroke="#FF842B"/>
<rect x="549.392" y="207.875" width="6.31854" height="6.31915" stroke="#FF842B"/>
<rect x="556.71" y="200.559" width="6.31854" height="6.31917" stroke="#FF842B"/>
<rect x="439.613" y="303.023" width="6.31851" height="6.31915" stroke="#FF842B"/>
<rect x="446.932" y="295.703" width="6.3186" height="6.31915" stroke="#FF842B"/>
<rect x="454.25" y="288.387" width="6.31854" height="6.31921" stroke="#FF842B"/>
<rect x="461.568" y="281.066" width="6.31851" height="6.31915" stroke="#FF842B"/>
<rect x="468.887" y="273.746" width="6.31857" height="6.31912" stroke="#FF842B"/>
<rect x="476.206" y="266.43" width="6.3186" height="6.31912" stroke="#FF842B"/>
<rect x="483.524" y="259.109" width="6.31848" height="6.31918" stroke="#FF842B"/>
<rect x="490.843" y="251.793" width="6.31854" height="6.31911" stroke="#FF842B"/>
<rect x="498.161" y="244.473" width="6.31854" height="6.31914" stroke="#FF842B"/>
<rect x="505.479" y="237.152" width="6.31863" height="6.31915" stroke="#FF842B"/>
<rect x="512.799" y="229.832" width="6.31854" height="6.31915" stroke="#FF842B"/>
<rect x="520.117" y="222.516" width="6.31854" height="6.31915" stroke="#FF842B"/>
<rect x="527.436" y="215.195" width="6.31848" height="6.31914" stroke="#FF842B"/>
<rect x="534.754" y="207.875" width="6.31854" height="6.31915" stroke="#FF842B"/>
<rect x="542.072" y="200.559" width="6.3186" height="6.31917" stroke="#FF842B"/>
<rect x="549.392" y="193.238" width="6.31854" height="6.31914" stroke="#FF842B"/>
<rect x="556.71" y="185.918" width="6.31854" height="6.31914" stroke="#FF842B"/>
<rect x="424.976" y="303.023" width="6.31857" height="6.31915" stroke="#FF842B"/>
<rect x="432.294" y="295.703" width="6.31854" height="6.31915" stroke="#FF842B"/>
<rect x="439.613" y="288.387" width="6.31851" height="6.31921" stroke="#FF842B"/>
<rect x="446.932" y="281.066" width="6.3186" height="6.31915" stroke="#FF842B"/>
<rect x="454.25" y="273.746" width="6.31854" height="6.31912" stroke="#FF842B"/>
<rect x="461.568" y="266.43" width="6.31851" height="6.31912" stroke="#FF842B"/>
<rect x="468.887" y="259.109" width="6.31857" height="6.31918" stroke="#FF842B"/>
<rect x="476.206" y="251.793" width="6.3186" height="6.31911" stroke="#FF842B"/>
<rect x="483.524" y="244.473" width="6.31848" height="6.31914" stroke="#FF842B"/>
<rect x="490.843" y="237.152" width="6.31854" height="6.31915" stroke="#FF842B"/>
<rect x="498.161" y="229.832" width="6.31854" height="6.31915" stroke="#FF842B"/>
<rect x="505.479" y="222.516" width="6.31863" height="6.31915" stroke="#FF842B"/>
<rect x="512.799" y="215.195" width="6.31854" height="6.31914" stroke="#FF842B"/>
<rect x="520.117" y="207.875" width="6.31854" height="6.31915" stroke="#FF842B"/>
<rect x="527.436" y="200.559" width="6.31848" height="6.31917" stroke="#FF842B"/>
<rect x="534.754" y="193.238" width="6.31854" height="6.31914" stroke="#FF842B"/>
<rect x="542.072" y="185.918" width="6.3186" height="6.31914" stroke="#FF842B"/>
<rect x="549.392" y="178.598" width="6.31854" height="6.31914" stroke="#FF842B"/>
<rect x="556.71" y="171.281" width="6.31854" height="6.31914" stroke="#FF842B"/>
<path d="M97.0807 64.6527C97.0807 81.2193 83.6519 94.6492 67.0867 94.6492C50.5216 94.6492 37.0928 81.2193 37.0928 64.6527C37.0928 48.0861 50.5216 34.6562 67.0867 34.6562C83.6519 34.6562 97.0807 48.0861 97.0807 64.6527Z" stroke="#FF842B"/>
<path d="M84.8828 64.6533C84.8828 74.4829 76.915 82.4512 67.0864 82.4512C57.2578 82.4512 49.29 74.4829 49.29 64.6533C49.29 54.8238 57.2578 46.8555 67.0864 46.8555C76.915 46.8555 84.8828 54.8238 84.8828 64.6533Z" stroke="#FF842B"/>
<rect x="37.0928" y="124.926" width="147.81" height="186.858" fill="#EAD9FF" stroke="#8A49DD"/>
<rect x="136.613" y="126.867" width="21.9556" height="21.9574" fill="#F5EEFF"/>
<rect x="158.568" y="148.824" width="21.9557" height="24.3972" fill="#F5EEFF"/>
<rect x="112.218" y="148.824" width="24.3952" height="24.3972" fill="#F5EEFF"/>
<rect x="136.613" y="173.219" width="21.9556" height="21.9574" fill="#F5EEFF"/>
<rect x="90.2617" y="173.219" width="21.9556" height="21.9574" fill="#F5EEFF"/>
<rect x="112.218" y="195.176" width="24.3952" height="24.3971" fill="#F5EEFF"/>
<rect x="65.8672" y="195.176" width="24.3952" height="24.3971" fill="#F5EEFF"/>
<rect x="43.9111" y="219.574" width="21.9557" height="21.9574" fill="#F5EEFF"/>
<rect x="90.2617" y="219.574" width="21.9556" height="21.9574" fill="#F5EEFF"/>
<rect x="65.8672" y="241.531" width="24.3952" height="21.9574" fill="#F5EEFF"/>
<rect x="112.218" y="241.531" width="24.3952" height="21.9574" fill="#F5EEFF"/>
<rect x="90.2617" y="263.488" width="21.9556" height="24.3972" fill="#F5EEFF"/>
<rect x="136.613" y="263.488" width="21.9556" height="24.3972" fill="#F5EEFF"/>
<rect x="112.218" y="287.887" width="24.3952" height="21.9575" fill="#F5EEFF"/>
<rect x="227.375" y="239.594" width="152.69" height="72.1915" fill="#DD3B41" stroke="#80060B"/>
<rect x="227.375" y="34.6562" width="152.69" height="172.22" fill="#DAF4DF" stroke="#43BE5C"/>
<rect x="293" y="108" width="22" height="23" rx="11" fill="#43BE5C"/>
<rect x="266" y="86" width="22" height="22" rx="11" fill="#43BE5C"/>
<rect x="266" y="134" width="22" height="22" rx="11" fill="#43BE5C"/>
<rect x="320" y="86" width="22" height="22" rx="11" fill="#43BE5C"/>
<rect x="320" y="134" width="22" height="22" rx="11" fill="#43BE5C"/>
<rect x="112.718" y="34.6562" width="81.9435" height="23.3972" stroke="#FFB800"/>
<rect x="112.718" y="68.8125" width="52.6694" height="23.3971" stroke="#FFB800"/>
<rect x="422.536" y="34.6562" width="142.931" height="101.468" fill="#F5F5F5" stroke="#414141"/>
<rect x="422.536" y="163.961" width="142.931" height="147.823" stroke="#FFB800"/>
</svg>
