<svg width="28" height="25" viewBox="0 0 28 25" fill="none" xmlns="http://www.w3.org/2000/svg">
<path d="M23.3334 7.21354H4.66675C2.45341 7.21354 0.666748 9.00021 0.666748 11.2135V16.5469C0.666748 18.0135 1.86675 19.2135 3.33341 19.2135H6.00008V21.8802C6.00008 23.3469 7.20008 24.5469 8.66675 24.5469H19.3334C20.8001 24.5469 22.0001 23.3469 22.0001 21.8802V19.2135H24.6667C26.1334 19.2135 27.3334 18.0135 27.3334 16.5469V11.2135C27.3334 9.00021 25.5467 7.21354 23.3334 7.21354ZM18.0001 21.8802H10.0001C9.26675 21.8802 8.66675 21.2802 8.66675 20.5469V15.2135H19.3334V20.5469C19.3334 21.2802 18.7334 21.8802 18.0001 21.8802ZM23.3334 12.5469C22.6001 12.5469 22.0001 11.9469 22.0001 11.2135C22.0001 10.4802 22.6001 9.88021 23.3334 9.88021C24.0667 9.88021 24.6667 10.4802 24.6667 11.2135C24.6667 11.9469 24.0667 12.5469 23.3334 12.5469ZM20.6667 0.546875H7.33342C6.60008 0.546875 6.00008 1.14688 6.00008 1.88021V4.54688C6.00008 5.28021 6.60008 5.88021 7.33342 5.88021H20.6667C21.4001 5.88021 22.0001 5.28021 22.0001 4.54688V1.88021C22.0001 1.14688 21.4001 0.546875 20.6667 0.546875Z" fill="#CD2026"/>
</svg>
