<svg width="129" height="516" viewBox="0 0 129 516" fill="none" xmlns="http://www.w3.org/2000/svg">
<path d="M68.2441 456.032L68.2441 276.938H109.116C107.65 284.181 106.874 291.769 106.874 299.443C106.874 363.338 158.611 415.074 222.505 415.074C231.042 415.074 239.406 414.126 247.425 412.401V456.032H68.2441Z" fill="#F5F5F5"/>
<path d="M112.996 451.981L42.0306 509.408C31.2521 518.117 15.3 516.479 6.59101 505.7C-2.11798 494.922 -0.479658 478.97 10.2988 470.261L81.2641 412.833C92.0426 404.124 107.995 405.763 116.704 416.541C125.413 427.319 123.774 443.185 112.996 451.981Z" stroke="#A7A7A7" stroke-width="0.625987" stroke-miterlimit="10" stroke-linecap="round" stroke-linejoin="round"/>
<path d="M108.08 484.402C116.962 477.417 125.153 469.484 132.569 460.948C137.225 455.602 141.623 449.825 144.296 443.185C146.796 437.063 147.745 430.337 149.211 423.87C154.298 402.054 166.456 381.963 183.529 367.305" stroke="#A7A7A7" stroke-width="0.625987" stroke-miterlimit="10" stroke-linecap="round" stroke-linejoin="round"/>
<path d="M149.213 345.402C142.314 361.699 126.449 373.857 108.944 376.186C100.839 377.307 92.5611 376.444 84.4557 377.307C66.6928 379.29 50.9994 389.378 36.082 399.122" stroke="#A7A7A7" stroke-width="0.625987" stroke-miterlimit="10" stroke-linecap="round" stroke-linejoin="round"/>
<path d="M59.4493 366.356C67.9858 362.649 76.2637 357.992 82.5583 351.094C88.7667 344.196 92.7332 334.711 91.2673 325.571C89.4565 314.361 80.0577 305.566 69.4517 301.427C58.9319 297.202 47.2912 296.771 35.9954 296.426" stroke="#A7A7A7" stroke-width="0.625987" stroke-miterlimit="10" stroke-linecap="round" stroke-linejoin="round"/>
<path d="M48.642 387.684C48.642 389.667 47.0899 391.219 45.1066 391.219C43.1234 391.219 41.5713 389.667 41.5713 387.684C41.5713 385.701 43.1234 384.148 45.1066 384.148C47.0899 384.148 48.642 385.787 48.642 387.684Z" fill="#FFB800"/>
<path d="M48.642 369.231C48.642 371.214 47.0899 372.766 45.1066 372.766C43.1234 372.766 41.5713 371.214 41.5713 369.231C41.5713 367.247 43.1234 365.695 45.1066 365.695C47.0899 365.695 48.642 367.247 48.642 369.231Z" fill="#FFB800"/>
<path d="M48.641 350.692C48.641 352.675 47.0889 354.227 45.1056 354.227C43.1224 354.227 41.5703 352.675 41.5703 350.692C41.5703 348.708 43.1224 347.156 45.1056 347.156C47.0889 347.156 48.641 348.708 48.641 350.692Z" fill="#FFB800"/>
<path d="M48.642 332.153C48.642 334.136 47.0899 335.688 45.1066 335.688C43.1234 335.688 41.5713 334.136 41.5713 332.153C41.5713 330.169 43.1234 328.617 45.1066 328.617C47.0899 328.617 48.642 330.256 48.642 332.153Z" fill="#FFB800"/>
<path d="M48.641 313.699C48.641 315.683 47.0889 317.235 45.1056 317.235C43.1224 317.235 41.5703 315.683 41.5703 313.699C41.5703 311.716 43.1224 310.164 45.1056 310.164C47.0889 310.164 48.641 311.716 48.641 313.699Z" fill="#FFB800"/>
<path d="M48.642 295.16C48.642 297.144 47.0899 298.696 45.1066 298.696C43.1234 298.696 41.5713 297.144 41.5713 295.16C41.5713 293.177 43.1234 291.625 45.1066 291.625C47.0899 291.625 48.642 293.177 48.642 295.16Z" fill="#FFB800"/>
<path d="M48.642 276.621C48.642 278.605 47.0899 280.157 45.1066 280.157C43.1234 280.157 41.5713 278.605 41.5713 276.621C41.5713 274.638 43.1234 273.086 45.1066 273.086C47.0899 273.086 48.642 274.724 48.642 276.621Z" fill="#FFB800"/>
<path d="M48.6434 258.168C48.6434 260.151 47.0913 261.703 45.1081 261.703C43.1249 261.703 41.5728 260.151 41.5728 258.168C41.5728 256.185 43.1249 254.633 45.1081 254.633C47.0913 254.633 48.6434 256.185 48.6434 258.168Z" fill="#FFB800"/>
<path d="M40.5373 81.4027C38.5541 81.4027 37.002 79.8506 37.002 77.8674C37.002 75.8841 38.5541 74.332 40.5373 74.332C42.5205 74.332 44.0726 75.8841 44.0726 77.8674C43.9864 79.7644 42.4343 81.4027 40.5373 81.4027Z" fill="#FFB800"/>
<path d="M58.988 81.3988C57.0047 81.3988 55.4526 79.8467 55.4526 77.8635C55.4526 75.8802 57.0047 74.3281 58.988 74.3281C60.9712 74.3281 62.5233 75.8802 62.5233 77.8635C62.5233 79.7605 60.9712 81.3988 58.988 81.3988Z" fill="#FFB800"/>
<path d="M77.5278 81.3988C75.5445 81.3988 73.9924 79.8467 73.9924 77.8635C73.9924 75.8802 75.5445 74.3281 77.5278 74.3281C79.511 74.3281 81.0631 75.8802 81.0631 77.8635C81.0631 79.7605 79.4248 81.3988 77.5278 81.3988Z" fill="#FFB800"/>
<path d="M96.0663 81.3988C94.0831 81.3988 92.531 79.8467 92.531 77.8635C92.531 75.8802 94.0831 74.3281 96.0663 74.3281C98.0496 74.3281 99.6017 75.8802 99.6017 77.8635C99.6017 79.7605 97.9633 81.3988 96.0663 81.3988Z" fill="#FFB800"/>
<path d="M114.518 81.3988C112.535 81.3988 110.983 79.8467 110.983 77.8635C110.983 75.8802 112.535 74.3281 114.518 74.3281C116.502 74.3281 118.054 75.8802 118.054 77.8635C118.054 79.7605 116.502 81.3988 114.518 81.3988Z" fill="#FFB800"/>
<path d="M63.2156 31.3008L27 31.3008L27 60.2733L63.2156 60.2733L63.2156 31.3008Z" fill="#43BE5C"/>
<path d="M78.908 31.3008H68.3882V60.2733H78.908V31.3008Z" fill="#43BE5C"/>
<path d="M94.8621 31.3008H84.3423V60.2733H94.8621V31.3008Z" fill="#43BE5C"/>
<path d="M111.417 31.3008H100.898V60.2733H111.417V31.3008Z" fill="#43BE5C"/>
<path d="M122.111 31.2969H116.42V60.2694H122.111V31.2969Z" fill="#43BE5C"/>
<path d="M132.285 31.2969H126.594V60.2694H132.285V31.2969Z" fill="#43BE5C"/>
<path d="M142.545 204.273H45.1074L142.545 106.836L142.545 204.273Z" fill="#FFB800"/>
<path d="M142.545 106.836L45.1074 106.836L45.1074 204.273H142.545L142.545 106.836Z" stroke="#FFB800" stroke-width="0.625987" stroke-miterlimit="10"/>
<path d="M134.958 115.203L54.3347 115.203L54.3347 195.826H134.958V115.203Z" stroke="#EBEBEB" stroke-width="0.625987" stroke-miterlimit="10"/>
<path d="M126.334 123.047L61.3186 123.047L61.3186 188.063H126.334L126.334 123.047Z" fill="#EBEBEB"/>
<path d="M61.3186 188.063L61.3186 123.047L126.334 123.047L61.3186 188.063Z" fill="#FF842B"/>
</svg>
