<svg width="1016" height="898" viewBox="0 0 1016 898" fill="none" xmlns="http://www.w3.org/2000/svg">
<path d="M18.2442 496.146H16.7051V495.012C16.6906 494.822 16.606 494.645 16.4684 494.515C16.3307 494.386 16.1501 494.314 15.9625 494.314C15.775 494.314 15.5943 494.386 15.4566 494.515C15.319 494.645 15.2344 494.822 15.2199 495.012V496.146H5.53206V495.012C5.53206 494.812 5.45382 494.62 5.31455 494.479C5.17528 494.337 4.98639 494.258 4.78943 494.258C4.59247 494.258 4.40358 494.337 4.26431 494.479C4.12504 494.62 4.0468 494.812 4.0468 495.012V496.146H2.49424C2.29806 496.145 2.10359 496.183 1.92206 496.258C1.74053 496.334 1.57553 496.445 1.4366 496.586C1.29767 496.726 1.18756 496.893 1.11262 497.077C1.03769 497.261 0.999411 497.459 1.00001 497.658V510.492C1.00001 510.892 1.15649 511.276 1.43503 511.558C1.71357 511.841 2.09135 512 2.48526 512H18.2353C18.4303 512 18.6234 511.961 18.8036 511.885C18.9838 511.809 19.1476 511.698 19.2855 511.558C19.4234 511.418 19.5328 511.252 19.6075 511.069C19.6821 510.886 19.7205 510.69 19.7205 510.492V497.658C19.7217 497.259 19.567 496.876 19.2903 496.592C19.0135 496.309 18.6374 496.148 18.2442 496.146ZM17.7462 509.55C17.7462 509.649 17.7269 509.747 17.6894 509.838C17.6519 509.93 17.5969 510.013 17.5277 510.083C17.4585 510.153 17.3763 510.208 17.286 510.245C17.1957 510.283 17.0989 510.302 17.0013 510.301H3.73719C3.63958 510.302 3.54282 510.283 3.45248 510.245C3.36213 510.208 3.27998 510.153 3.21075 510.083C3.14152 510.013 3.08659 509.93 3.0491 509.838C3.01161 509.747 2.99231 509.649 2.99231 509.55V500.737C2.99231 500.536 3.07079 500.344 3.21048 500.202C3.35017 500.06 3.53963 499.981 3.73719 499.981H17.0013C17.1988 499.981 17.3883 500.06 17.528 500.202C17.6677 500.344 17.7462 500.536 17.7462 500.737V509.55ZM7.42565 502.454V503.292C7.42565 503.492 7.34717 503.685 7.20748 503.826C7.06779 503.968 6.87833 504.048 6.68077 504.048H5.85962C5.66207 504.048 5.47261 503.968 5.33292 503.826C5.19323 503.685 5.11475 503.492 5.11475 503.292V502.458C5.11475 502.258 5.19323 502.065 5.33292 501.924C5.47261 501.782 5.66207 501.702 5.85962 501.702H6.69424C6.89179 501.702 7.08125 501.782 7.22094 501.924C7.36063 502.065 7.43911 502.258 7.43911 502.458L7.42565 502.454ZM7.42565 506.985V507.846C7.42565 508.047 7.34717 508.239 7.20748 508.381C7.06779 508.523 6.87833 508.602 6.68077 508.602H5.85962C5.66207 508.602 5.47261 508.523 5.33292 508.381C5.19323 508.239 5.11475 508.047 5.11475 507.846V506.985C5.11475 506.785 5.19323 506.593 5.33292 506.451C5.47261 506.309 5.66207 506.229 5.85962 506.229H6.69424C6.89179 506.229 7.08125 506.309 7.22094 506.451C7.36063 506.593 7.43911 506.785 7.43911 506.985H7.42565ZM11.5224 502.454V503.292C11.5224 503.391 11.503 503.49 11.4653 503.582C11.4276 503.674 11.3723 503.758 11.3027 503.828C11.233 503.898 11.1504 503.954 11.0595 503.992C10.9686 504.029 10.8713 504.048 10.7731 504.048H9.94744C9.84983 504.048 9.75319 504.028 9.66307 503.99C9.57295 503.952 9.49113 503.896 9.42232 503.826C9.35351 503.756 9.29907 503.672 9.26212 503.581C9.22518 503.489 9.20647 503.391 9.20706 503.292V502.458C9.20647 502.359 9.22518 502.261 9.26212 502.169C9.29907 502.078 9.35351 501.994 9.42232 501.924C9.49113 501.854 9.57295 501.798 9.66307 501.76C9.75319 501.722 9.84983 501.702 9.94744 501.702H10.7865C10.8847 501.702 10.9821 501.721 11.073 501.758C11.1639 501.796 11.2465 501.852 11.3162 501.922C11.3858 501.992 11.4411 502.076 11.4788 502.168C11.5165 502.26 11.5359 502.359 11.5359 502.458L11.5224 502.454ZM11.5224 506.985V507.846C11.5224 507.946 11.503 508.045 11.4653 508.137C11.4276 508.229 11.3723 508.312 11.3027 508.383C11.233 508.453 11.1504 508.508 11.0595 508.546C10.9686 508.584 10.8713 508.603 10.7731 508.602H9.94744C9.84983 508.602 9.75319 508.583 9.66307 508.545C9.57295 508.507 9.49113 508.451 9.42232 508.381C9.35351 508.31 9.29907 508.227 9.26212 508.135C9.22518 508.044 9.20647 507.945 9.20706 507.846V506.985C9.20647 506.886 9.22518 506.788 9.26212 506.696C9.29907 506.605 9.35351 506.521 9.42232 506.451C9.49113 506.381 9.57295 506.325 9.66307 506.287C9.75319 506.249 9.84983 506.229 9.94744 506.229H10.7865C10.8847 506.229 10.9821 506.248 11.073 506.286C11.1639 506.323 11.2465 506.379 11.3162 506.449C11.3858 506.52 11.4411 506.603 11.4788 506.695C11.5165 506.787 11.5359 506.886 11.5359 506.985H11.5224ZM15.6103 502.454V503.292C15.6109 503.391 15.5921 503.489 15.5552 503.581C15.5183 503.672 15.4638 503.756 15.395 503.826C15.3262 503.896 15.2444 503.952 15.1542 503.99C15.0641 504.028 14.9675 504.048 14.8699 504.048H14.0442C13.9464 504.048 13.8496 504.028 13.7592 503.99C13.6688 503.952 13.5867 503.897 13.5175 503.826C13.4484 503.756 13.3935 503.673 13.3561 503.581C13.3186 503.489 13.2994 503.391 13.2994 503.292V502.458C13.2994 502.258 13.3778 502.065 13.5175 501.924C13.6572 501.782 13.8467 501.702 14.0442 501.702H14.8833C14.9809 501.702 15.0776 501.722 15.1677 501.76C15.2578 501.798 15.3397 501.854 15.4085 501.924C15.4773 501.994 15.5317 502.078 15.5687 502.169C15.6056 502.261 15.6243 502.359 15.6237 502.458L15.6103 502.454ZM15.6103 506.985V507.846C15.6109 507.945 15.5921 508.044 15.5552 508.135C15.5183 508.227 15.4638 508.31 15.395 508.381C15.3262 508.451 15.2444 508.507 15.1542 508.545C15.0641 508.583 14.9675 508.602 14.8699 508.602H14.0442C13.9464 508.602 13.8496 508.583 13.7592 508.545C13.6688 508.507 13.5867 508.451 13.5175 508.381C13.4484 508.311 13.3935 508.227 13.3561 508.136C13.3186 508.044 13.2994 507.946 13.2994 507.846V506.985C13.2994 506.785 13.3778 506.593 13.5175 506.451C13.6572 506.309 13.8467 506.229 14.0442 506.229H14.8833C14.9809 506.229 15.0776 506.249 15.1677 506.287C15.2578 506.325 15.3397 506.381 15.4085 506.451C15.4773 506.521 15.5317 506.605 15.5687 506.696C15.6056 506.788 15.6243 506.886 15.6237 506.985H15.6103ZM36 492.912C35.9964 496.336 34.6543 499.618 32.2683 502.038C29.8823 504.458 26.6475 505.818 23.2744 505.82V503.998C25.4345 503.998 27.5461 503.348 29.3422 502.129C31.1383 500.911 32.5381 499.18 33.3648 497.154C34.1914 495.129 34.4077 492.9 33.9863 490.749C33.5649 488.599 32.5247 486.624 30.9972 485.073C29.4698 483.523 27.5237 482.467 25.4051 482.039C23.2865 481.612 21.0905 481.831 19.0948 482.67C17.0991 483.509 15.3933 484.93 14.1932 486.753C12.9931 488.576 12.3526 490.719 12.3526 492.912H10.5577C10.5577 489.488 11.898 486.203 14.2836 483.782C16.6693 481.36 19.905 480 23.2788 480C26.6527 480 29.8884 481.36 32.2741 483.782C34.6597 486.203 36 489.488 36 492.912Z" fill="#1F1F1F" stroke="#1F1F1F" stroke-width="0.01" stroke-miterlimit="10"/>
</svg>
