<svg width="24" height="25" viewBox="0 0 24 25" fill="none" xmlns="http://www.w3.org/2000/svg">
<path d="M19.4533 1.33354C18.9467 0.826875 18.2667 0.546875 17.56 0.546875H2.66667C1.18667 0.546875 0 1.74688 0 3.21354V21.8802C0 23.3469 1.2 24.5469 2.66667 24.5469H21.3333C22.8 24.5469 24 23.3469 24 21.8802V6.98688C24 6.28021 23.72 5.60021 23.2133 5.10688L19.4533 1.33354ZM12 21.8802C9.78667 21.8802 8 20.0935 8 17.8802C8 15.6669 9.78667 13.8802 12 13.8802C14.2133 13.8802 16 15.6669 16 17.8802C16 20.0935 14.2133 21.8802 12 21.8802ZM13.3333 8.54688H5.33333C3.86667 8.54688 2.66667 7.34688 2.66667 5.88021C2.66667 4.41354 3.86667 3.21354 5.33333 3.21354H13.3333C14.8 3.21354 16 4.41354 16 5.88021C16 7.34688 14.8 8.54688 13.3333 8.54688Z" fill="#CD2026"/>
</svg>
