<svg width="18" height="21" viewBox="0 0 18 21" fill="none" xmlns="http://www.w3.org/2000/svg">
<path d="M15 14.6269C14.24 14.6269 13.56 14.9269 13.04 15.3969L5.91 11.2469C5.96 11.0169 6 10.7869 6 10.5469C6 10.3069 5.96 10.0769 5.91 9.84688L12.96 5.73688C13.5 6.23688 14.21 6.54688 15 6.54688C16.66 6.54688 18 5.20687 18 3.54688C18 1.88688 16.66 0.546875 15 0.546875C13.34 0.546875 12 1.88688 12 3.54688C12 3.78688 12.04 4.01687 12.09 4.24687L5.04 8.35688C4.5 7.85688 3.79 7.54688 3 7.54688C1.34 7.54688 0 8.88688 0 10.5469C0 12.2069 1.34 13.5469 3 13.5469C3.79 13.5469 4.5 13.2369 5.04 12.7369L12.16 16.8969C12.11 17.1069 12.08 17.3269 12.08 17.5469C12.08 19.1569 13.39 20.4669 15 20.4669C16.61 20.4669 17.92 19.1569 17.92 17.5469C17.92 15.9369 16.61 14.6269 15 14.6269Z" fill="#1F1F1F"/>
</svg>
