<svg width="12" height="12" viewBox="0 0 12 12" fill="none" xmlns="http://www.w3.org/2000/svg">
<path d="M1.84257 3.31138C2.08113 3.39658 2.3197 3.48604 2.554 3.58403C2.45176 3.54142 2.34951 3.49882 2.24727 3.45622C2.82664 3.70331 3.38895 3.98874 3.92572 4.31677C4.1941 4.47865 4.45396 4.65332 4.70956 4.8365C4.7692 4.8791 4.82884 4.9217 4.88422 4.96431C4.9183 4.98987 4.95238 5.01543 4.9822 5.04099C5.0887 5.12193 4.8331 4.92171 4.84588 4.93449C4.95664 5.04951 5.11 5.14323 5.23354 5.24973C5.71066 5.65445 6.15796 6.08898 6.56692 6.55759C6.6649 6.66836 6.75862 6.77912 6.84808 6.88988C6.8992 6.95378 6.95458 7.01769 7.0057 7.08585C7.03552 7.11993 7.10794 7.21791 6.9844 7.05603C6.84382 6.8771 6.96736 7.03473 6.99718 7.07733C7.18462 7.32868 7.36354 7.58428 7.52968 7.84841C7.91308 8.44909 8.24536 9.08385 8.52226 9.73991C8.47966 9.63766 8.43706 9.53542 8.39446 9.43318C8.49244 9.66749 8.5819 9.90605 8.6671 10.1446C8.77786 10.4599 8.95678 10.7325 9.25498 10.9072C9.52762 11.0691 9.93232 11.1372 10.239 11.035C10.861 10.8348 11.3722 10.1361 11.1336 9.463C10.0388 6.36589 7.90882 3.70757 5.07592 2.02482C4.26652 1.54343 3.40174 1.15575 2.51565 0.840505C1.88517 0.618979 1.08855 1.09185 0.943712 1.73513C0.786091 2.45509 1.16523 3.06855 1.84257 3.31138Z" fill="#FF842B"/>
</svg>
