<svg width="40" height="38" viewBox="0 0 40 38" fill="none" xmlns="http://www.w3.org/2000/svg">
<path d="M32.3848 36.309L32.3851 36.31C32.4106 36.4296 32.4097 36.553 32.3825 36.6722C32.3552 36.7915 32.302 36.9047 32.2256 37.0041C32.1491 37.1035 32.051 37.187 31.9371 37.2483C31.8232 37.3095 31.6966 37.3469 31.5656 37.3573C31.3796 37.3713 31.1944 37.3303 31.0343 37.2409L31.0323 37.2399L20.2417 31.2795L20 31.146L19.7582 31.2795L8.96763 37.2399L8.9675 37.2399C8.81397 37.3248 8.63741 37.3654 8.4592 37.3557C8.28097 37.346 8.11062 37.2867 7.96846 37.1862C7.82643 37.0859 7.71906 36.9493 7.65719 36.7941L7.19277 36.9794L7.65718 36.7941C7.59538 36.6392 7.58096 36.471 7.61512 36.309C7.61513 36.3089 7.61514 36.3089 7.61515 36.3088L10.1126 24.4873L10.1726 24.2031L9.95546 24.0101L0.793641 15.8716L0.793201 15.8712C0.664093 15.7568 0.573319 15.6102 0.529624 15.4499C0.485959 15.2898 0.490625 15.1209 0.543227 14.9631C0.595873 14.8051 0.694894 14.6632 0.830546 14.5554C0.966293 14.4476 1.1326 14.379 1.30987 14.3596C1.30992 14.3596 1.30997 14.3596 1.31002 14.3596L13.641 13.0131L13.9209 12.9825L14.0399 12.7273L19.1637 1.7373L19.1644 1.73583C19.2349 1.58334 19.3502 1.45177 19.4984 1.35854C19.6467 1.26522 19.821 1.21484 20 1.21484C20.179 1.21484 20.3532 1.26522 20.5016 1.35854C20.6498 1.45177 20.7651 1.58334 20.8356 1.73584L20.8363 1.73731L25.9601 12.7273L26.0791 12.9825L26.359 13.0131L38.69 14.3596C38.69 14.3596 38.6901 14.3596 38.6901 14.3596C38.8674 14.379 39.0337 14.4476 39.1695 14.5554C39.3051 14.6632 39.4041 14.8051 39.4568 14.9631C39.5094 15.1209 39.514 15.2898 39.4704 15.4499C39.4267 15.6102 39.3359 15.7568 39.2068 15.8712L39.2064 15.8716L30.0445 24.0101L29.8274 24.2031L29.8874 24.4873L32.3848 36.309ZM29.2321 34.2274L30.189 34.7564L29.9632 33.6866L27.9341 24.0697C27.9341 24.0696 27.9341 24.0696 27.934 24.0695C27.9032 23.9231 27.9121 23.7715 27.9599 23.6291C28.0078 23.4865 28.0935 23.3569 28.2102 23.2537L28.2111 23.253L35.6695 16.6325L36.5129 15.8839L35.3918 15.7615L25.3545 14.6658L25.3533 14.6657C25.1931 14.6486 25.0414 14.5914 24.9129 14.5008C24.7845 14.4103 24.6841 14.29 24.6201 14.1529C24.6201 14.1529 24.6201 14.1528 24.6201 14.1528L20.4531 5.21569L20 4.24375L19.5468 5.21569L15.38 14.1528C15.3799 14.1528 15.3799 14.1529 15.3799 14.1529C15.3159 14.29 15.2155 14.4103 15.0871 14.5008C14.9586 14.5914 14.8069 14.6486 14.6467 14.6657L14.6455 14.6658L4.60816 15.7615L3.48714 15.8839L4.3305 16.6325L11.7889 23.253L11.7897 23.2537C11.9065 23.3569 11.9922 23.4865 12.0401 23.6291C12.0879 23.7716 12.0967 23.9233 12.0659 24.0697L10.0368 33.6866L9.81106 34.7564L10.7679 34.2274L19.5429 29.3759L19.543 29.3758C19.6814 29.2993 19.839 29.2585 20 29.2585C20.161 29.2585 20.3186 29.2993 20.457 29.3758L20.4571 29.3759L29.2321 34.2274Z" fill="#CD2026" stroke="#CD2026"/>
</svg>
