<svg width="25" height="26" viewBox="0 0 25 26" fill="none" xmlns="http://www.w3.org/2000/svg">
<path d="M23.4411 6.46707V6.49192C22.936 6.05761 22.2937 5.81657 21.6268 5.81657C20.8937 5.81657 20.1903 6.10787 19.6661 6.627V3.65899C19.6661 3.29691 19.596 2.93834 19.4598 2.60373C19.3236 2.26912 19.1239 1.96497 18.872 1.7087C18.6201 1.45243 18.321 1.24904 17.9917 1.11025C17.6623 0.971459 17.3093 0.9 16.9527 0.9H2.9474C2.2272 0.9 1.53684 1.19111 1.02812 1.7087C0.519449 2.22624 0.233984 2.92781 0.233984 3.65899V22.341C0.233984 23.0722 0.519449 23.7738 1.02812 24.2913C1.53684 24.8089 2.2272 25.1 2.9474 25.1H16.9527C17.6729 25.1 18.3633 24.8089 18.872 24.2913C19.3807 23.7738 19.6661 23.0722 19.6661 22.341V14.7028L22.7276 11.5879C22.811 11.5378 22.8804 11.467 22.9294 11.3825L23.6125 10.677C23.6125 10.6769 23.6126 10.6768 23.6127 10.6768C24.1388 10.1413 24.434 9.41557 24.434 8.65921C24.434 7.90273 24.1387 7.17688 23.6125 6.64141L23.4411 6.46707ZM4.98587 18.9498H9.61497L9.1548 20.5613L9.15446 20.5626C9.12532 20.67 9.12469 20.7833 9.15264 20.891C9.1806 20.9988 9.23617 21.0973 9.3139 21.1764C9.39165 21.2555 9.48878 21.3123 9.59549 21.341C9.70221 21.3696 9.81451 21.369 9.9209 21.3391L9.92128 21.339L14.2174 20.1144H14.2269H14.2465L14.2646 20.107L14.3169 20.0858L14.3171 20.0863L14.3266 20.0812L14.371 20.0572L14.3714 20.0578L14.3809 20.0511L14.4227 20.0219L14.423 20.0222L14.4297 20.0166L14.4741 19.9794L14.4744 19.9797L14.4812 19.9728L14.4968 19.9569L14.4969 19.9569L18.4208 15.9696V22.341C18.4208 22.7382 18.2657 23.1187 17.9902 23.399C17.7147 23.6793 17.3415 23.8364 16.9527 23.8364H2.9474C2.55861 23.8364 2.18539 23.6793 1.90994 23.399C1.63443 23.1187 1.47935 22.7382 1.47935 22.341V3.65899C1.47935 3.26183 1.63443 2.88128 1.90994 2.60097C2.18539 2.32072 2.55861 2.16359 2.9474 2.16359H16.9527C17.3415 2.16359 17.7147 2.32072 17.9902 2.60097C18.2657 2.88128 18.4208 3.26183 18.4208 3.65899V7.90701L14.036 12.3682H4.98587C4.82016 12.3682 4.66159 12.4352 4.54496 12.5539C4.42838 12.6725 4.36319 12.833 4.36319 13C4.36319 13.167 4.42838 13.3275 4.54496 13.4461C4.66159 13.5648 4.82016 13.6318 4.98587 13.6318H12.781L10.5308 15.9213L10.5306 15.9215C10.4703 15.9832 10.4232 16.0568 10.3923 16.1376C10.3634 16.2133 10.3491 16.2939 10.3502 16.3749L9.97773 17.6862H4.98587C4.82016 17.6862 4.66159 17.7532 4.54496 17.8718C4.42838 17.9904 4.36319 18.151 4.36319 18.318C4.36319 18.485 4.42838 18.6455 4.54496 18.7641C4.66159 18.8828 4.82016 18.9498 4.98587 18.9498ZM22.73 9.79519L22.3884 10.1449L20.1768 7.89475L20.5208 7.54473C20.8141 7.24632 21.2115 7.079 21.6255 7.079C22.0395 7.079 22.4369 7.24632 22.7302 7.54473C23.0236 7.84319 23.1887 8.24835 23.1887 8.67117C23.1887 9.06639 23.0444 9.44617 22.786 9.73782L22.73 9.79519ZM21.501 11.0483L14.0623 18.6167L11.8504 16.3663L19.2891 8.79788L21.501 11.0483ZM11.2986 17.5952L12.8693 19.1932L10.6518 19.8236L11.2986 17.5952Z" fill="#CD2026" stroke="#CD2026" stroke-width="0.2"/>
<path d="M4.98753 8.31496H14.9185C15.0842 8.31496 15.2428 8.24797 15.3594 8.1293C15.476 8.01068 15.5412 7.85017 15.5412 7.68316C15.5412 7.51615 15.476 7.35564 15.3594 7.23703C15.2428 7.11836 15.0842 7.05137 14.9185 7.05137H4.98753C4.82182 7.05137 4.66325 7.11836 4.54662 7.23703C4.43004 7.35564 4.36484 7.51615 4.36484 7.68316C4.36484 7.85017 4.43004 8.01069 4.54662 8.1293C4.66325 8.24797 4.82182 8.31496 4.98753 8.31496Z" fill="#CD2026" stroke="#CD2026" stroke-width="0.2"/>
</svg>
