<svg width="24" height="24" viewBox="0 0 24 24" fill="none" xmlns="http://www.w3.org/2000/svg">
<path d="M3.70404 24H20.296C21.278 23.9989 22.2195 23.6083 22.9139 22.914C23.6083 22.2197 23.9989 21.2783 24 20.2964V6.52192C23.9987 5.55076 23.6161 4.61893 22.9347 3.92688C22.2533 3.23483 21.3275 2.83785 20.3564 2.82133V2.58054C20.3567 2.24178 20.2903 1.90628 20.1609 1.59321C20.0315 1.28014 19.8416 0.995641 19.6022 0.755982C19.3627 0.516322 19.0784 0.3262 18.7654 0.196483C18.4525 0.0667667 18.117 0 17.7782 0C17.4394 0 17.1039 0.0667667 16.791 0.196483C16.478 0.3262 16.1936 0.516322 15.9542 0.755982C15.7148 0.995641 15.5249 1.28014 15.3955 1.59321C15.2661 1.90628 15.1997 2.24178 15.2 2.58054V2.81827H8.8V2.58054C8.80034 2.24178 8.73391 1.90628 8.6045 1.59321C8.47509 1.28014 8.28524 0.995641 8.04579 0.755982C7.80635 0.516322 7.52202 0.3262 7.20905 0.196483C6.89607 0.0667667 6.5606 0 6.22181 0C5.88302 0 5.54754 0.0667667 5.23457 0.196483C4.9216 0.3262 4.63727 0.516322 4.39783 0.755982C4.15838 0.995641 3.96853 1.28014 3.83912 1.59321C3.70971 1.90628 3.64327 2.24178 3.64362 2.58054V2.82133C2.6725 2.83785 1.74666 3.23483 1.06526 3.92688C0.38386 4.61893 0.00134513 5.55076 0 6.52192V20.2964C0.00109825 21.2783 0.391697 22.2197 1.0861 22.914C1.7805 23.6083 2.722 23.9989 3.70404 24ZM20.296 22.4002H3.70404C3.14621 22.3995 2.61141 22.1777 2.21696 21.7833C1.82251 21.3889 1.60064 20.8541 1.6 20.2964V10.4015H22.4V20.2964C22.3994 20.8541 22.1775 21.3889 21.783 21.7833C21.3886 22.1777 20.8538 22.3995 20.296 22.4002ZM16.8 2.58054C16.7998 2.45196 16.8249 2.3246 16.874 2.20575C16.9231 2.08689 16.9951 1.97888 17.0859 1.88788C17.1768 1.79689 17.2847 1.7247 17.4035 1.67544C17.5223 1.62619 17.6496 1.60084 17.7782 1.60084C17.9068 1.60084 18.0341 1.62619 18.1529 1.67544C18.2717 1.7247 18.3796 1.79689 18.4704 1.88788C18.5613 1.97888 18.6333 2.08689 18.6824 2.20575C18.7315 2.3246 18.7566 2.45196 18.7564 2.58054V4.65792C18.756 4.91704 18.6527 5.16541 18.4693 5.34849C18.2859 5.53156 18.0373 5.63439 17.7782 5.63439C17.519 5.63439 17.2705 5.53156 17.0871 5.34849C16.9037 5.16541 16.8004 4.91704 16.8 4.65792V2.58054ZM5.24362 2.58054C5.24341 2.45196 5.26855 2.3246 5.31761 2.20575C5.36668 2.08689 5.4387 1.97888 5.52955 1.88788C5.62041 1.79689 5.72831 1.7247 5.8471 1.67544C5.96588 1.62619 6.09322 1.60084 6.22181 1.60084C6.3504 1.60084 6.47774 1.62619 6.59652 1.67544C6.7153 1.7247 6.82321 1.79689 6.91407 1.88788C7.00492 1.97888 7.07694 2.08689 7.126 2.20575C7.17507 2.3246 7.20021 2.45196 7.2 2.58054V4.65792C7.19957 4.91704 7.09632 5.16541 6.91292 5.34849C6.72952 5.53156 6.48096 5.63439 6.22181 5.63439C5.96266 5.63439 5.71409 5.53156 5.53069 5.34849C5.34729 5.16541 5.24405 4.91704 5.24362 4.65792V2.58054ZM3.64362 4.42116V4.65792C3.64431 5.34117 3.91625 5.9962 4.39968 6.47909C4.88311 6.96198 5.53849 7.23322 6.22181 7.23322C6.90513 7.23322 7.56051 6.96198 8.04394 6.47909C8.52737 5.9962 8.7993 5.34117 8.8 4.65792V4.4181H15.2V4.65792C15.2007 5.34117 15.4726 5.9962 15.9561 6.47909C16.4395 6.96198 17.0949 7.23322 17.7782 7.23322C18.4615 7.23322 19.1169 6.96198 19.6003 6.47909C20.0838 5.9962 20.3557 5.34117 20.3564 4.65792V4.42116C20.9032 4.43715 21.4224 4.66538 21.8039 5.05752C22.1853 5.44965 22.3992 5.97487 22.4 6.52192V8.80162H1.6V6.52192C1.60085 5.97487 1.81465 5.44965 2.19612 5.05752C2.57759 4.66538 3.09675 4.43715 3.64362 4.42116ZM15.1343 12.8907C15.2843 12.7407 15.4878 12.6564 15.6999 12.6564C15.9121 12.6564 16.1156 12.7406 16.2656 12.8906C16.3399 12.9649 16.3989 13.0531 16.4391 13.1501C16.4793 13.2472 16.5 13.3512 16.5 13.4562C16.5 13.5613 16.4793 13.6653 16.4391 13.7624C16.3989 13.8594 16.34 13.9476 16.2657 14.0219L11.0214 19.2657C10.9471 19.34 10.859 19.3989 10.7619 19.4391C10.6648 19.4793 10.5608 19.5 10.4558 19.5C10.3507 19.5 10.2467 19.4793 10.1496 19.4391C10.0526 19.3989 9.96441 19.34 9.89013 19.2657L7.9167 17.2924C7.76668 17.1424 7.68241 16.939 7.68241 16.7269C7.68241 16.5147 7.76668 16.3113 7.9167 16.1613C8.06671 16.0113 8.27017 15.927 8.48232 15.927C8.69448 15.927 8.89794 16.0113 9.04796 16.1613L10.4558 17.5688L15.1343 12.8907Z" fill="#007618"/>
</svg>
