<svg width="30" height="25" viewBox="0 0 30 25" fill="none" xmlns="http://www.w3.org/2000/svg">
<path d="M30 3.38811C28.8844 3.86995 27.6956 4.18934 26.4562 4.34441C27.7312 3.59487 28.7044 2.41703 29.1619 0.997336C27.9731 1.69518 26.6606 2.18811 25.2619 2.46318C24.1331 1.2798 22.5244 0.546875 20.7694 0.546875C17.3644 0.546875 14.6231 3.26811 14.6231 6.60411C14.6231 7.08411 14.6644 7.54564 14.7656 7.98503C9.6525 7.73949 5.12813 5.32657 2.08875 1.65088C1.55812 2.55734 1.24688 3.59488 1.24688 4.7118C1.24688 6.80903 2.34375 8.66811 3.97875 9.74441C2.99062 9.72595 2.02125 9.44349 1.2 8.99857C1.2 9.01703 1.2 9.04103 1.2 9.06503C1.2 12.0078 3.33187 14.4521 6.1275 15.0152C5.62687 15.15 5.08125 15.2146 4.515 15.2146C4.12125 15.2146 3.72375 15.1924 3.35062 15.1112C4.1475 17.5093 6.40875 19.2724 9.0975 19.3296C7.005 20.9413 4.34812 21.9124 1.47188 21.9124C0.9675 21.9124 0.48375 21.8903 0 21.8293C2.72438 23.5592 5.95312 24.5469 9.435 24.5469C20.7525 24.5469 26.94 15.3161 26.94 7.31487C26.94 7.04718 26.9306 6.78872 26.9175 6.53211C28.1381 5.67918 29.1637 4.61395 30 3.38811Z" fill="#CD2026"/>
</svg>
