<svg width="28" height="28" viewBox="0 0 28 28" fill="none" xmlns="http://www.w3.org/2000/svg">
<path d="M18.7727 10.6667C18.6668 10.6667 18.5605 10.668 18.4545 10.6693V3.66667C18.4545 1.25933 13.8126 0 9.22727 0C4.64195 0 0 1.25933 0 3.66667V17C0 19.4073 4.64195 20.6667 9.22727 20.6667C9.33482 20.6667 9.43886 20.6617 9.54545 20.6603V24.3333C9.54545 26.7407 14.1874 28 18.7727 28C23.358 28 28 26.7407 28 24.3333V14.3333C28 11.926 23.358 10.6667 18.7727 10.6667ZM9.22727 1.33333C14.083 1.33333 17.1818 2.71533 17.1818 3.66667C17.1818 4.618 14.083 6 9.22727 6C4.3715 6 1.27273 4.618 1.27273 3.66667C1.27273 2.71533 4.3715 1.33333 9.22727 1.33333ZM1.27273 5.62C2.96545 6.75 6.10877 7.33333 9.22727 7.33333C12.3458 7.33333 15.4891 6.75 17.1818 5.62V7C17.1818 7.95133 14.083 9.33333 9.22727 9.33333C4.3715 9.33333 1.27273 7.95133 1.27273 7V5.62ZM1.27273 8.95333C2.96545 10.0833 6.10877 10.6667 9.22727 10.6667C12.3458 10.6667 15.4891 10.0833 17.1818 8.95333V10.3333C17.1818 10.4713 17.0978 10.6107 16.9982 10.73C14.2883 10.9247 11.7788 11.5667 10.4771 12.6317C10.0638 12.6533 9.64505 12.6667 9.22727 12.6667C4.3715 12.6667 1.27273 11.2847 1.27273 10.3333V8.95333ZM1.27273 12.2867C2.96545 13.4167 6.10877 14 9.22727 14C9.345 14 9.46273 13.9963 9.58045 13.9947C9.55945 14.105 9.54545 14.2173 9.54545 14.3333V15.9937C9.43886 15.9953 9.33482 16 9.22727 16C4.3715 16 1.27273 14.618 1.27273 13.6667V12.2867ZM9.22727 19.3333C4.3715 19.3333 1.27273 17.9513 1.27273 17V15.62C2.96545 16.75 6.10877 17.3333 9.22727 17.3333C9.33482 17.3333 9.43886 17.3283 9.54545 17.327V17.6667V19.327C9.43886 19.3287 9.33482 19.3333 9.22727 19.3333ZM18.7727 26.6667C13.917 26.6667 10.8182 25.2847 10.8182 24.3333V22.9533C12.5109 24.0833 15.6542 24.6667 18.7727 24.6667C21.8912 24.6667 25.0345 24.0833 26.7273 22.9533V24.3333C26.7273 25.2847 23.6285 26.6667 18.7727 26.6667ZM18.7727 23.3333C13.917 23.3333 10.8182 21.9513 10.8182 21V19.62C12.5109 20.75 15.6542 21.3333 18.7727 21.3333C21.8912 21.3333 25.0345 20.75 26.7273 19.62V21C26.7273 21.9513 23.6285 23.3333 18.7727 23.3333ZM18.7727 20C13.917 20 10.8182 18.618 10.8182 17.6667V16.2867C12.5109 17.4167 15.6542 18 18.7727 18C21.8912 18 25.0345 17.4167 26.7273 16.2867V17.6667C26.7273 18.618 23.6285 20 18.7727 20ZM18.7727 16.6667C13.917 16.6667 10.8182 15.2847 10.8182 14.3333C10.8182 13.382 13.917 12 18.7727 12C23.6285 12 26.7273 13.382 26.7273 14.3333C26.7273 15.2847 23.6285 16.6667 18.7727 16.6667Z" fill="#CD2026"/>
</svg>
