<svg width="28" height="22" viewBox="0 0 28 22" fill="none" xmlns="http://www.w3.org/2000/svg">
<path d="M24.6665 0.333984H3.33317C1.8665 0.333984 0.679837 1.53398 0.679837 3.00065L0.666504 19.0006C0.666504 20.4673 1.8665 21.6673 3.33317 21.6673H24.6665C26.1332 21.6673 27.3332 20.4673 27.3332 19.0006V3.00065C27.3332 1.53398 26.1332 0.333984 24.6665 0.333984ZM23.3332 19.0006H4.6665C3.93317 19.0006 3.33317 18.4006 3.33317 17.6673V5.66732L12.5865 11.454C13.4532 12.0007 14.5465 12.0007 15.4132 11.454L24.6665 5.66732V17.6673C24.6665 18.4006 24.0665 19.0006 23.3332 19.0006ZM13.9998 9.66732L3.33317 3.00065H24.6665L13.9998 9.66732Z" fill="#CD2026"/>
</svg>
