<svg width="481" height="273" viewBox="0 0 481 273" fill="none" xmlns="http://www.w3.org/2000/svg">
<path d="M0.360352 120.523H85.1104C126.946 120.523 160.86 154.438 160.86 196.273V272.023H76.1104C34.2748 272.023 0.360352 238.109 0.360352 196.273V120.523Z" fill="#FFB800"/>
<path d="M160.86 196.273C160.86 154.438 194.775 120.523 236.61 120.523H245.61C287.446 120.523 321.36 154.438 321.36 196.273C321.36 238.109 287.446 272.023 245.61 272.023H236.61C194.775 272.023 160.86 238.109 160.86 196.273Z" fill="#FFB800"/>
<path d="M0.360352 0.523438H100.86C133.997 0.523438 160.86 27.3864 160.86 60.5234V120.523H0.360352V0.523438Z" fill="#CD2026"/>
<path d="M320.61 0.523438H420.36C453.497 0.523438 480.36 27.3864 480.36 60.5234V120.148H380.61C347.473 120.148 320.61 93.2855 320.61 60.1484V0.523438Z" fill="#CD2026"/>
<path d="M160.86 120.523H260.61C293.747 120.523 320.61 93.6605 320.61 60.5234V0.523438H160.86V120.523Z" fill="#80060B"/>
<path d="M480.36 272.023H395.61C354.189 272.023 320.61 237.695 320.61 196.273C320.61 154.852 354.189 120.523 395.61 120.523H480.36V272.023Z" fill="#80060B"/>
</svg>
