<svg width="1057" height="343" viewBox="0 0 1057 343" fill="none" xmlns="http://www.w3.org/2000/svg">
<g clip-path="url(#clip0_3855_3516)">
<rect x="0.360352" y="0.476562" width="1120" height="342" fill="#F5F5F5"/>
<rect x="0.360352" y="-2.82031" width="1120" height="348.956" fill="white"/>
<path d="M456.852 177.857C444.047 162.365 429.689 154.783 416.545 146.312C401.065 156.827 369.579 181.887 367.476 198.01C365.758 211.184 372.503 220.965 378.056 226.014C380.063 227.84 381.496 230.324 381.496 233.037C381.496 237.405 385.037 240.945 389.405 240.945H456.852C456.981 232.579 465.307 218.62 465.284 207.075C465.254 192.42 458.618 179.994 456.852 177.857Z" fill="#FFB27D"/>
<path d="M64.3604 56.6562H232.36V286.656H64.3604V56.6562Z" fill="#CD2026"/>
<path d="M93.4502 95.6484C93.4502 87.088 100.39 80.1484 108.95 80.1484H187.331C195.891 80.1484 202.831 87.088 202.831 95.6484V233.839C202.831 250.132 189.623 263.339 173.331 263.339H108.95C100.39 263.339 93.4502 256.4 93.4502 247.839V95.6484Z" fill="white" stroke="#A7A7A7"/>
<path d="M176.415 236.637L179.872 237.451H183.515L187.257 237.213L191.031 236.846L194.354 236.154L197.76 235.055L200.508 233.671L202.552 231.977V236.543C202.552 250.977 190.85 262.679 176.415 262.679L176.415 236.637Z" fill="#D7D7D7"/>
<g clip-path="url(#clip1_3855_3516)">
<path d="M330.544 48.7187C330.544 42.6436 335.469 37.7188 341.544 37.7188H427.544C433.62 37.7188 438.544 42.6436 438.544 48.7188V188.719C438.544 205.84 424.665 219.719 407.544 219.719H341.544C335.469 219.719 330.544 214.794 330.544 208.719V48.7187Z" fill="white" stroke="#A7A7A7" stroke-width="2"/>
<path d="M411.408 192.278L414.865 193.092H418.508L422.25 192.853L426.024 192.487L429.348 191.795L432.753 190.696L435.502 189.312L437.545 187.617V192.183C437.545 206.618 425.843 218.32 411.408 218.32L411.408 192.278Z" fill="#D7D7D7"/>
<circle cx="384.544" cy="50.3897" r="5.58497" fill="#80060B"/>
<circle cx="384.544" cy="50.3906" r="2.5" fill="#A70B11"/>
<path d="M344.922 92.8298C348.334 92.911 349.951 96.267 353.287 96.7117C357.06 97.2147 358.34 93.9448 361.069 92.2466C362.955 91.0731 364.081 92.8482 365.735 93.4494C366.487 93.7228 367.42 93.1578 368.214 93.1578C370.816 93.1578 373.194 93.518 375.358 91.8456C377.006 90.5724 377.192 91.2003 379.167 91.9732C380.065 92.3245 381.121 92.1527 382.065 92.1737C384.36 92.2247 386.25 92.6342 388.553 92.1737" stroke="#D7D7D7" stroke-width="2" stroke-linecap="round" stroke-linejoin="round"/>
<path d="M344.922 80.5547C347.137 82.7699 350.166 87.1157 353.743 87.1157C355.908 87.1157 357.215 84.7427 358.809 83.4343C359.333 83.0043 360.129 81.6897 360.851 81.5935C361.768 81.4712 362.814 82.6136 363.53 83.0151C365.461 84.0985 367.38 84.9158 369.599 84.8194C371.257 84.7473 372.795 83.7341 374.465 83.5254C376.508 83.2699 377.997 83.319 380.06 82.5959C381.805 81.9842 383.26 81.2108 385.108 81.2108C386.256 81.2108 387.405 81.2108 388.553 81.2108C392.498 81.2108 397.159 80.6082 401.019 81.4659C402.713 81.8424 404.531 81.7704 406.268 81.8669C407.904 81.9578 409.476 82.523 411.188 82.523" stroke="#D7D7D7" stroke-width="2" stroke-linecap="round" stroke-linejoin="round"/>
<path d="M346.392 109.228C346.392 115.515 346.392 121.802 346.392 128.089C346.392 132.342 345.503 137.684 346.419 141.805C347.202 145.329 346.735 149.052 346.881 152.719C346.92 153.684 350.383 155.232 351.29 155.277C354.739 155.45 358.235 155.277 361.687 155.277C372.328 155.277 382.97 155.277 393.611 155.277C396.233 155.277 398.946 155.478 401.531 155.032C403.631 154.67 405.783 154.705 407.9 154.406C409.745 154.146 411.415 153.318 413.288 153.318C414.185 153.318 418.196 153.946 418.895 153.073C420.267 151.357 420.854 153.911 420.854 150.106C420.854 143.326 421.344 136.627 421.344 129.858C421.344 122.317 421.289 114.652 420.854 107.268C420.755 105.572 388.819 105.799 383.378 105.799C379.545 105.799 375.697 105.689 371.866 105.799C368.433 105.897 365.01 106.778 361.578 106.778C359.685 106.778 356.132 107.515 354.447 108.357C351.822 109.67 347.9 109.228 344.922 109.228" stroke="#D7D7D7" stroke-width="2" stroke-linecap="round" stroke-linejoin="round"/>
</g>
<g clip-path="url(#clip2_3855_3516)">
<rect x="506.044" y="176.898" width="108" height="182" rx="11" fill="white" stroke="#A7A7A7" stroke-width="2"/>
<circle cx="560.36" cy="189.882" r="5.58497" fill="#80060B"/>
<circle cx="560.36" cy="189.883" r="2.5" fill="#A70B11"/>
<path d="M523.666 247.187C523.666 266.176 523.666 285.165 523.666 304.153C523.666 314.147 521.893 323.972 521.893 333.983C521.893 337.029 521.893 340.074 521.893 343.12C521.893 346.741 526.202 350.451 528.362 352.217C537.868 359.987 550.358 354.716 560.907 354.716C566.905 354.716 572.904 354.716 578.903 354.716C581.502 354.716 583.717 354.013 586.325 354.013C587.682 354.013 590.444 354.171 591.513 353.154C595.684 349.188 596.373 344.562 596.373 337.849C596.373 330.951 596.373 324.053 596.373 317.155C596.373 309.626 595.191 302.443 595.191 294.978C595.191 288.038 594.6 281.097 594.6 274.284C594.6 267.321 595.84 257.861 594.567 251.053C594.135 248.739 593.712 246.484 591.645 246.484C586.916 246.484 582.187 246.484 577.458 246.484C568.186 246.484 558.809 249.967 549.544 250.701C544.052 251.136 538.665 251.404 533.124 251.404C529.536 251.404 526.783 249.296 523.075 249.296" stroke="#D7D7D7" stroke-width="2" stroke-linecap="round" stroke-linejoin="round"/>
<path d="M594.6 247.188C591.482 251.007 589.795 255.563 587.211 259.838C584.066 265.04 580.834 270.219 577.917 275.612C571.114 288.194 563.668 300.037 555.586 311.494C547.348 323.172 536.63 332.782 529.38 345.424C527.384 348.905 525.023 351.765 522.024 354.014C518.656 356.54 516.112 360.341 512.829 363.033C512.381 363.4 510.662 365.227 510.662 364.556" stroke="#D7D7D7" stroke-width="2" stroke-linecap="round" stroke-linejoin="round"/>
<path d="M524.849 248.594C528.398 254.113 531.585 260.636 535.62 265.617C537.029 267.357 538.719 268.579 540.283 270.107C542.428 272.202 544.407 276.33 547.015 277.409C552.54 279.694 555.967 290.161 558.542 295.604C560.939 300.67 564.406 305.304 567.409 309.894C569.695 313.389 571.819 316.809 574.305 320.124C577.173 323.946 578.742 328.41 581.267 332.384C582.499 334.323 584.021 336.153 585.109 338.201C585.793 339.487 586.046 341.253 587.244 342.067C591.697 345.092 592.277 352.609 598.147 352.609" stroke="#D7D7D7" stroke-width="2" stroke-linecap="round" stroke-linejoin="round"/>
<path d="M521.893 227.664C523.795 229.879 526.397 234.225 529.468 234.225C531.327 234.225 532.449 231.852 533.819 230.544C534.268 230.114 534.952 228.799 535.571 228.703C536.359 228.581 537.257 229.723 537.872 230.124C539.53 231.208 541.178 232.025 543.083 231.929C544.507 231.857 545.828 230.843 547.262 230.635C549.017 230.379 550.295 230.428 552.067 229.705C553.566 229.094 554.815 228.32 556.402 228.32C557.388 228.32 558.374 228.32 559.36 228.32C562.748 228.32 566.75 227.718 570.064 228.575C571.519 228.952 573.08 228.88 574.572 228.976C575.977 229.067 577.327 229.632 578.797 229.632" stroke="#D7D7D7" stroke-width="2" stroke-linecap="round" stroke-linejoin="round"/>
</g>
<g clip-path="url(#clip3_3855_3516)">
<path d="M685.044 48.7187C685.044 42.6436 689.969 37.7188 696.044 37.7188H782.044C788.12 37.7188 793.044 42.6436 793.044 48.7188V192.719C793.044 207.63 780.956 219.719 766.044 219.719H696.044C689.969 219.719 685.044 214.794 685.044 208.719V48.7187Z" fill="white" stroke="#A7A7A7" stroke-width="2"/>
<path d="M766.092 192.926L769.549 193.741H773.192L776.934 193.502L780.709 193.135L784.032 192.443L787.437 191.344L790.186 189.96L792.229 188.266V192.832C792.229 207.266 780.527 218.968 766.092 218.968L766.092 192.926Z" fill="#D7D7D7"/>
<circle cx="739.36" cy="48.5459" r="5.58497" fill="#80060B"/>
<circle cx="739.36" cy="48.5469" r="2.5" fill="#A70B11"/>
<path d="M699.046 66.737C699.046 80.2145 701.923 93.1998 701.923 106.735C701.923 112.721 703.075 118.587 703.075 124.544C703.075 130.406 703.075 136.268 703.075 142.13C703.075 145.376 702.327 149.801 703.65 152.777C704.576 154.86 713.302 153.64 714.585 153.64C718.315 153.64 722.045 153.64 725.775 153.64C741.89 153.64 758.004 153.64 774.119 153.64C775.049 153.64 778.273 154.139 778.435 153.001C778.827 150.259 778.467 147.196 778.467 144.432C778.467 136.738 779.043 129.198 779.043 121.539C779.043 108.11 779.043 94.6815 779.043 81.2528C779.043 76.8943 777.553 72.7215 777.316 68.4635C777.133 65.1686 775.572 66.1615 772.744 66.1615C767.319 66.1615 761.894 66.1615 756.47 66.1615C737.634 66.1615 718.572 65.5859 699.621 65.5859" stroke="#D7D7D7" stroke-width="2" stroke-linecap="round" stroke-linejoin="round"/>
<path d="M703.266 164.438C706.448 165.384 710.5 166.877 713.831 165.362C715.842 164.449 718.946 165.493 721.026 165.547C723.477 165.612 725.207 164.894 727.624 166.102C729.672 167.127 731.47 166.287 733.626 166.287C742.492 166.287 751.446 165.547 760.244 165.547" stroke="#D7D7D7" stroke-width="2" stroke-linecap="round" stroke-linejoin="round"/>
<path d="M703.266 172.578C704.599 174.404 705.586 176.303 707.747 177.203C711.521 178.775 714.358 175.377 717.326 173.894C719.7 172.707 720.225 174.838 721.971 176.196C724.285 177.996 727.196 174.004 728.836 172.948C730.254 172.036 731.151 174.058 732.68 174.058C733.69 174.058 734.876 173.879 735.866 174.099C737.63 174.491 738.993 175.302 740.758 174.243C741.73 173.66 742.266 173.688 743.43 173.688C748.541 173.688 754.165 173.006 759.114 174.243C761.141 174.75 763.621 174.428 765.712 174.428C768.206 174.428 775.688 174.428 773.194 174.428" stroke="#D7D7D7" stroke-width="2" stroke-linecap="round" stroke-linejoin="round"/>
<path d="M705.116 185.162C707.298 185.162 709.659 185.443 711.776 184.792C712.692 184.51 713.59 184.139 714.53 183.97C716.981 183.529 719.463 183.682 721.951 183.682C723.333 183.682 731.109 184.975 731.755 183.682" stroke="#D7D7D7" stroke-width="2" stroke-linecap="round" stroke-linejoin="round"/>
<path d="M703.89 153.347C705.006 151.088 705.555 149.024 707.213 147.365C708.217 146.362 709.309 144.833 709.995 143.598C711.399 141.071 713.45 137.969 715.412 135.867C719.699 131.274 724.412 126.704 727.968 121.489C732.277 115.169 736.723 108.795 742.149 103.369C746.309 99.2088 751.656 95.9781 755.099 91.1578C758.159 86.873 761.838 82.9972 765.759 79.5372C768.765 76.885 772.168 74.8766 775.016 72.0282C776.02 71.0248 777.897 68.7878 777.897 67.375" stroke="#D7D7D7" stroke-width="2" stroke-linecap="round" stroke-linejoin="round"/>
<path d="M776.567 153.79C774.041 149.242 770.107 145.721 767.138 141.48C765.15 138.639 763.123 136.214 760.712 133.749C758.366 131.35 756.985 127.642 755.296 124.812C752.174 119.583 749.225 114.178 745.817 109.129C742.183 103.745 737.332 99.5314 733.237 94.5053C731.593 92.4886 729.799 90.3559 727.845 88.6457C726.805 87.7362 726.049 86.2262 724.94 85.5436C722.855 84.2606 721.271 81.9871 719.376 80.4473C716.096 77.7825 712.969 75.2486 709.651 72.5936C706.777 70.2949 704.474 66.8302 700.788 65.6016" stroke="#D7D7D7" stroke-width="2" stroke-linecap="round" stroke-linejoin="round"/>
</g>
<g clip-path="url(#clip4_3855_3516)">
<rect x="864.044" y="172.539" width="108" height="182" rx="11" fill="white" stroke="#A7A7A7" stroke-width="2"/>
<circle cx="918.36" cy="184.733" r="5.58497" fill="#80060B"/>
<circle cx="918.36" cy="184.734" r="2.5" fill="#A70B11"/>
<path d="M872.988 201.776C888.182 201.776 903.375 201.776 918.569 201.776C921.265 201.776 923.962 201.776 926.658 201.776C927.79 201.776 928.272 201.579 928.181 202.912C927.944 206.343 926.976 209.587 926.976 213.046C926.976 217.85 926.823 222.991 927.59 227.748C928.115 231.007 928.612 234.24 928.612 237.541C928.612 239.794 928.396 242.117 928.93 244.312C929.267 245.697 929.558 247.129 929.408 248.561C929.244 250.119 921.824 249.22 920.705 249.22C912.623 249.22 904.542 249.22 896.46 249.22C890.439 249.22 884.417 249.22 878.396 249.22C877.259 249.22 875.853 249.633 875.942 248.084C876.534 237.786 876.26 227.409 876.26 217.091C876.26 214.044 876.972 210.048 876.055 207.116C875.865 206.508 876.127 205.188 875.76 204.73C875.271 204.118 874.875 203.346 874.624 202.594" stroke="#D7D7D7" stroke-width="2" stroke-linecap="round" stroke-linejoin="round"/>
<path d="M936.792 202.592C936.792 213.721 937.602 224.77 938.451 235.813C938.509 236.57 938.637 249.6 939.337 249.628C947.052 249.936 954.699 249.219 962.378 249.219C964.741 249.219 967.154 249.358 969.513 249.219C969.977 249.192 970.108 244.308 970.422 243.402C971.196 241.165 970.74 238.25 970.74 235.904C970.74 233.465 970.74 231.026 970.74 228.587C970.74 221.85 969.761 215.352 969.513 208.637C969.446 206.831 968.765 204.167 968.263 202.411C967.994 201.468 960.843 201.542 959.969 201.456C957.924 201.257 955.82 201.365 953.766 201.365C948.183 201.365 942.788 202.183 937.201 202.183" stroke="#D7D7D7" stroke-width="2" stroke-linecap="round" stroke-linejoin="round"/>
<path d="M876.669 256.985C879.354 256.131 880.948 257.803 883.531 257.803C884.996 257.803 886.372 257.394 887.848 257.394C890.939 257.394 894.029 257.394 897.119 257.394C901.618 257.394 906.117 257.394 910.616 257.394" stroke="#D7D7D7" stroke-width="2" stroke-linecap="round" stroke-linejoin="round"/>
<path d="M875.851 265.578C878.977 266.216 881.773 267.096 884.849 266.305C886.763 265.813 888.204 266.329 890.075 266.396C892.321 266.476 894.177 265.987 896.301 265.987" stroke="#D7D7D7" stroke-width="2" stroke-linecap="round" stroke-linejoin="round"/>
<path d="M939.247 256.578C942.08 257.131 944.858 256.987 947.745 256.987C949.728 256.987 951.473 257.805 953.357 257.805C954.592 257.805 956.236 258.122 957.425 257.782C958.098 257.59 960.504 257.393 958.879 256.987" stroke="#D7D7D7" stroke-width="2" stroke-linecap="round" stroke-linejoin="round"/>
<path d="M940.064 264.764C942.831 264.198 945.204 262.719 947.926 262.719C949.359 262.719 950.382 263.537 951.926 263.537C953.016 263.537 954.107 263.537 955.198 263.537" stroke="#D7D7D7" stroke-width="2" stroke-linecap="round" stroke-linejoin="round"/>
<path d="M877.896 281.121C891.315 281.121 904.598 279.485 917.956 279.485C920.084 279.485 922.212 279.485 924.341 279.485C925.677 279.485 930.382 278.532 929.43 280.53C928.603 282.268 928.737 285.384 928.635 287.324C928.475 290.364 928.612 293.436 928.612 296.481C928.612 298.024 927.794 299.357 927.794 300.935C927.794 302.783 927.794 304.631 927.794 306.479C927.794 308.456 927.794 310.433 927.794 312.41C927.794 315.265 927.794 318.12 927.794 320.976C927.794 323.607 926.677 322.839 924 322.839C918.501 322.839 913.002 322.839 907.503 322.839C904.391 322.839 901.536 321.612 898.437 321.612C895.544 321.612 892.65 321.612 889.757 321.612C886.758 321.612 883.758 321.612 880.759 321.612C879.673 321.612 878.57 321.676 877.487 321.612C876.243 321.539 878.084 316.973 878.214 316.25C878.68 313.658 878.305 310.742 878.305 308.115C878.305 302.556 878.305 296.996 878.305 291.437C878.305 289.76 878.02 286.451 879.123 285.211C880.283 283.906 879.346 281.567 878.714 280.303" stroke="#D7D7D7" stroke-width="2" stroke-linecap="round" stroke-linejoin="round"/>
<path d="M937.61 279.891C937.61 293.951 937.201 308.054 937.201 322.018C937.201 322.498 936.948 324.354 937.474 324.449C938.8 324.69 940.348 324.472 941.7 324.472C946.741 324.472 951.771 324.063 956.833 324.063C961.332 324.063 965.831 324.063 970.33 324.063" stroke="#D7D7D7" stroke-width="2" stroke-linecap="round" stroke-linejoin="round"/>
<path d="M936.383 279.078C942.585 279.964 948.917 279.268 955.016 280.623C958.286 281.35 962.341 280.714 965.741 280.714C966.635 280.714 969.194 280.284 969.831 280.805C970.309 281.196 969.922 283.848 969.922 284.395C969.922 286.713 969.922 289.031 969.922 291.348C969.922 294.965 969.815 298.595 969.922 302.21C970.001 304.914 970.74 307.735 970.74 310.571C970.74 315.822 970.331 320.892 970.331 326.114" stroke="#D7D7D7" stroke-width="2" stroke-linecap="round" stroke-linejoin="round"/>
<path d="M878.305 329.383C880.299 330.365 881.956 331.346 884.213 330.928C886.515 330.502 887.864 328.722 889.757 327.566C892.195 326.076 895.322 326.873 897.528 328.134C899.684 329.365 901.515 330.201 903.981 330.201C906.374 330.201 908.629 329.383 911.025 329.383" stroke="#D7D7D7" stroke-width="2" stroke-linecap="round" stroke-linejoin="round"/>
<path d="M936.792 331.427C939.619 332.398 940.578 332.216 943.246 331.291C943.903 331.063 944.896 330.609 945.609 330.609C946.76 330.609 947.911 330.609 949.063 330.609C951.108 330.609 953.153 330.609 955.198 330.609" stroke="#D7D7D7" stroke-width="2" stroke-linecap="round" stroke-linejoin="round"/>
</g>
<path d="M236.877 125.844C265.926 124.899 294.817 126.018 323.969 125.07" stroke="#1F1F1F" stroke-width="2" stroke-linecap="round" stroke-linejoin="round"/>
<path d="M443.509 122.856C456.609 122.856 470.199 121.981 482.404 121.981C491.709 121.981 500.409 120.565 509.615 121.981C519.228 123.46 520.367 135.345 520.367 142.765C520.367 150.953 519.441 159.26 519.441 167.304" stroke="#1F1F1F" stroke-width="2" stroke-linecap="round" stroke-linejoin="round"/>
<path d="M582.41 170.083C582.41 166.393 581.278 151.563 583.962 151.563C588.403 151.563 593.831 151.563 598.273 151.563C607.235 151.563 612.226 151.562 625.106 151.563C644.784 151.563 657.702 151.563 677.163 151.563" stroke="#1F1F1F" stroke-width="2" stroke-linecap="round" stroke-linejoin="round"/>
<path d="M746.824 229.273C746.824 235.122 747.522 240.393 747.522 246.201C747.522 250.933 757.192 249.747 760.612 250.107C782.727 250.107 796.896 250.107 816.848 250.107C830.4 250.107 843.951 250.107 857.502 250.107" stroke="#1F1F1F" stroke-width="2" stroke-linecap="round" stroke-linejoin="round"/>
<path d="M324.066 125.155C323.323 124.552 322.646 122.831 321.636 122.647C320.976 122.527 320.065 121.665 319.457 121.328C318.55 120.824 317.001 119.948 316.411 119.062" stroke="#1F1F1F" stroke-width="2" stroke-linecap="round" stroke-linejoin="round"/>
<path d="M324.378 125.461C323.734 125.864 322.763 126.723 322.503 127.501C322.349 127.963 321.664 129.082 321.184 129.219C321.017 129.267 320.561 129.92 320.412 130.07C320.178 130.303 319.928 130.522 319.691 130.773C319.356 131.127 318.815 131.431 318.598 131.866" stroke="#1F1F1F" stroke-width="2" stroke-linecap="round" stroke-linejoin="round"/>
<path d="M519.562 168.016C518.087 166.679 517.138 165.029 515.855 163.542C515.381 162.993 515.173 162.406 514.576 162.008" stroke="#1F1F1F" stroke-width="2" stroke-linecap="round" stroke-linejoin="round"/>
<path d="M519.69 168.402C520.954 166.19 522.1 164.075 523.909 162.266" stroke="#1F1F1F" stroke-width="2" stroke-linecap="round" stroke-linejoin="round"/>
<path d="M677.767 151.598C675.346 149.708 672.954 147.71 670.436 146.031" stroke="#1F1F1F" stroke-width="2" stroke-linecap="round" stroke-linejoin="round"/>
<path d="M677.767 151.734C677.313 152.078 676.85 152.404 676.349 152.677C676.032 152.85 675.91 153.227 675.595 153.394C674.97 153.725 674.346 154.285 673.694 154.518C672.36 154.994 671.278 156.269 670.028 156.894" stroke="#1F1F1F" stroke-width="2" stroke-linecap="round" stroke-linejoin="round"/>
<path d="M857.798 250.169C856.428 249.288 855.289 247.795 854.133 246.639C853.746 246.252 853.255 246.032 852.843 245.62C852.319 245.097 851.654 244.514 851.282 243.863C850.99 243.353 850.322 242.955 850.06 242.43" stroke="#1F1F1F" stroke-width="2" stroke-linecap="round" stroke-linejoin="round"/>
<path d="M858.07 250.977C857.267 252.037 856.31 253.024 855.566 254.107C855.091 254.798 854.445 255.246 853.861 255.864C853.121 256.648 852.167 257.76 851.689 258.715" stroke="#1F1F1F" stroke-width="2" stroke-linecap="round" stroke-linejoin="round"/>
<path d="M419.016 166.973L465.284 205.121V210.3L463.597 217.82L459.903 228.573L456.67 240.921H440.847V230.967C437.734 229.791 432.671 223.945 426.05 215.76C418.744 206.727 420.556 200.97 421.52 196.508L405.403 183.971C400.232 179.95 399.757 172.307 404.388 167.675C408.355 163.708 414.688 163.404 419.016 166.973Z" fill="#FFA262"/>
<rect x="379.674" y="240.914" width="81.0956" height="19.0853" fill="#A70B11"/>
<rect x="385.569" y="260" width="69.3035" height="82.6539" fill="#CD2026"/>
<rect x="444.076" y="260" width="10.7973" height="82.6539" fill="#DD3B41"/>
<circle cx="448.023" cy="250.47" r="3.94684" fill="white"/>
<rect width="74.9291" height="23.8459" transform="matrix(0 1 1 0 1029.56 165.336)" fill="#A70B11"/>
<rect width="64.2487" height="76.6254" transform="matrix(0 1 1 0 1053.4 170.852)" fill="#CD2026"/>
<rect width="10.0098" height="76.6254" transform="matrix(0 1 1 0 1053.4 225.094)" fill="#DD3B41"/>
<circle r="4.99775" transform="matrix(0 1 1 0 1041.48 229.584)" fill="white"/>
<path fill-rule="evenodd" clip-rule="evenodd" d="M920.86 177.385C920.86 170.642 926.393 165.212 933.135 165.338L976.433 166.15C977.369 166.061 978.324 166.036 979.292 166.081L983.704 166.286L992.346 166.449V166.689L1024.79 168.198C1027.46 168.322 1029.56 170.521 1029.56 173.19V233.487C1029.56 236.156 1027.46 238.355 1024.79 238.479L991.859 240.011C973.622 240.86 958.372 226.303 958.372 208.046V189.433H932.909C926.255 189.433 920.86 184.039 920.86 177.385Z" fill="#FFB27D"/>
</g>
<defs>
<clipPath id="clip0_3855_3516">
<rect width="1056" height="342" fill="white" transform="translate(0.360352 0.65625)"/>
</clipPath>
<clipPath id="clip1_3855_3516">
<rect width="110" height="184" fill="white" transform="translate(329.86 36.6562)"/>
</clipPath>
<clipPath id="clip2_3855_3516">
<rect width="110" height="184" fill="white" transform="translate(505.36 175.836)"/>
</clipPath>
<clipPath id="clip3_3855_3516">
<rect width="110" height="184" fill="white" transform="translate(684.36 36.6562)"/>
</clipPath>
<clipPath id="clip4_3855_3516">
<rect width="110" height="184" fill="white" transform="translate(863.36 171.477)"/>
</clipPath>
</defs>
</svg>
