<svg width="75" height="69" viewBox="0 0 75 69" fill="none" xmlns="http://www.w3.org/2000/svg">
<rect x="0.339844" y="10.3906" width="58.3958" height="58.2652" fill="#FFB1B4"/>
<path d="M14.5195 25.7701C14.5195 42.5594 20.8472 50.9541 33.5026 50.9541C40.2053 50.9541 45.033 48.7093 47.986 44.2197C50.9389 39.73 52.4153 33.5802 52.4153 25.7701C52.4153 18.0068 50.9389 11.8803 47.986 7.39069C45.033 2.90106 40.2053 0.65625 33.5026 0.65625C20.8472 0.65625 14.5195 9.02753 14.5195 25.7701ZM42.6426 25.7701C42.6426 30.8677 42.0098 34.7961 40.7443 37.5554C39.5256 40.2679 37.1117 41.6241 33.5026 41.6241C29.8466 41.6241 27.3858 40.2679 26.1203 37.5554C24.9016 34.7961 24.2923 30.8677 24.2923 25.7701C24.2923 20.7193 24.9016 16.8376 26.1203 14.1251C27.3858 11.3659 29.8466 9.98626 33.5026 9.98626C37.1117 9.98626 39.5256 11.3659 40.7443 14.1251C42.0098 16.8376 42.6426 20.7193 42.6426 25.7701Z" fill="black"/>
<path d="M56.4817 10.6878V1.4279H74.3398V50.9541H63.9343V10.6878H56.4817Z" fill="black"/>
</svg>
