<svg width="93" height="69" viewBox="0 0 93 69" fill="none" xmlns="http://www.w3.org/2000/svg">
<rect x="0.360352" y="10.4844" width="58.0335" height="58.1726" fill="#FFB1B4"/>
<path d="M14.4521 25.9239C14.4521 42.6294 20.7191 50.9821 33.2531 50.9821C39.8915 50.9821 44.673 48.7485 47.5976 44.2813C50.5222 39.8141 51.9845 33.695 51.9845 25.9239C51.9845 18.1993 50.5222 12.1035 47.5976 7.63626C44.673 3.16905 39.8915 0.935452 33.2531 0.935452C20.7191 0.935452 14.4521 9.26493 14.4521 25.9239ZM42.3054 25.9239C42.3054 30.996 41.6787 34.9048 40.4253 37.6503C39.2184 40.3492 36.8276 41.6987 33.2531 41.6987C29.6322 41.6987 27.195 40.3492 25.9416 37.6503C24.7347 34.9048 24.1312 30.996 24.1312 25.9239C24.1312 20.8983 24.7347 17.036 25.9416 14.3371C27.195 11.5916 29.6322 10.2189 33.2531 10.2189C36.8276 10.2189 39.2184 11.5916 40.4253 14.3371C41.6787 17.036 42.3054 20.8983 42.3054 25.9239Z" fill="black"/>
<path d="M57.7526 43.2343C73.4897 32.299 81.3583 23.225 81.3583 16.0123C81.3583 13.8252 80.8244 12.1035 79.7567 10.8471C78.7354 9.59066 77.1106 8.96246 74.8824 8.96246C70.2866 8.96246 67.8494 12.1035 67.5709 18.3855H58.0311C58.3097 12.5688 60.0737 8.1714 63.3233 5.19326C66.5728 2.16859 70.6812 0.65625 75.6483 0.65625C80.7084 0.65625 84.5846 1.98245 87.2771 4.63486C90.016 7.24073 91.3855 10.7307 91.3855 15.1049C91.3855 18.5483 90.3642 22.0151 88.3216 25.5051C86.3254 28.9486 83.7722 32.1361 80.6619 35.0677C77.5516 37.9528 74.2789 40.4423 70.8436 42.5363H92.3603V50.5633H57.7526V43.2343Z" fill="black"/>
</svg>
