<svg width="93" height="69" viewBox="0 0 93 69" fill="none" xmlns="http://www.w3.org/2000/svg">
<rect x="0.360352" y="10.6797" width="58.0335" height="57.9741" fill="#FFB1B4"/>
<path d="M14.4521 26.4877C14.4521 43.0181 20.6746 51.2832 33.1196 51.2832C39.7109 51.2832 44.4584 49.073 47.3623 44.6527C50.2661 40.2323 51.718 34.1773 51.718 26.4877C51.718 18.8442 50.2661 12.8122 47.3623 8.39188C44.4584 3.97152 39.7109 1.76134 33.1196 1.76134C20.6746 1.76134 14.4521 10.0035 14.4521 26.4877ZM42.1077 26.4877C42.1077 31.5067 41.4855 35.3745 40.2409 38.0912C39.0425 40.7618 36.6688 42.0972 33.1196 42.0972C29.5244 42.0972 27.1046 40.7618 25.8601 38.0912C24.6617 35.3745 24.0625 31.5067 24.0625 26.4877C24.0625 21.5148 24.6617 17.6931 25.8601 15.0224C27.1046 12.3057 29.5244 10.9474 33.1196 10.9474C36.6688 10.9474 39.0425 12.3057 40.2409 15.0224C41.4855 17.6931 42.1077 21.5148 42.1077 26.4877Z" fill="black"/>
<path d="M75.6979 0.65625C79.0165 0.65625 81.8512 1.23182 84.2019 2.38296C86.5987 3.53409 88.3964 5.12266 89.5948 7.14866C90.8393 9.17466 91.4615 11.4309 91.4615 13.9173C91.4615 17.0484 90.6088 19.627 88.9034 21.653C87.198 23.6329 84.9394 24.8531 82.1278 25.3136V25.6589C88.9495 27.6849 92.3603 31.6909 92.3603 37.6768C92.3603 41.8669 90.9545 45.2743 88.1429 47.8989C85.3312 50.4774 81.3672 51.7667 76.251 51.7667C70.812 51.7667 66.4793 50.4314 63.2529 47.7607C60.0264 45.0441 58.2288 40.969 57.86 35.5357H67.4012C67.6316 38.0221 68.4383 40.0021 69.821 41.4755C71.2499 42.9029 73.2549 43.6167 75.8361 43.6167C78.0486 43.6167 79.777 43.0181 81.0215 41.8209C82.266 40.5777 82.8883 38.9661 82.8883 36.9861C82.8883 34.6378 81.9895 32.842 80.1919 31.5988C78.3943 30.3556 75.7439 29.7339 72.2409 29.7339H70.2359V21.7911H72.2409C78.6939 21.8832 81.9204 19.65 81.9204 15.0915C81.9204 13.1115 81.3442 11.569 80.1919 10.4639C79.0396 9.31279 77.4724 8.73722 75.4904 8.73722C73.4163 8.73722 71.7108 9.40488 70.3742 10.7402C69.0375 12.0295 68.2769 13.8483 68.0926 16.1966H58.5514C58.828 11.2237 60.4412 7.40191 63.3911 4.73127C66.3411 2.01459 70.4433 0.65625 75.6979 0.65625Z" fill="black"/>
</svg>
