<svg width="367" height="476" viewBox="0 0 367 476" fill="none" xmlns="http://www.w3.org/2000/svg">
<path d="M116.126 297.345H114.605V298.866V342.465L3.12365 269.221L114.605 195.439V239.026V240.547H116.126H135.699C137.75 240.547 139.974 240.61 142.2 240.672C143.29 240.703 144.382 240.733 145.453 240.757C148.616 240.825 151.65 240.832 153.749 240.541C162.922 239.957 172.038 237.094 180.523 233.134L180.542 233.126L180.56 233.116C194.264 226.264 205.703 214.842 212.011 201.095C215.431 194.248 217.729 186.799 218.306 179.313C218.871 173.089 218.871 160.757 218.871 150.199V150.106V20.9188V1.7475H275.669V20.9188V149.546C275.669 152.364 275.703 155.066 275.738 157.768C275.843 165.853 275.948 173.945 275.116 185.191C273.456 198.993 269.59 212.244 263.514 224.948L263.508 224.96L263.503 224.973C251.912 250.362 231.478 270.809 206.597 283.527C191.125 291.263 174.548 295.683 157.414 296.789C147.956 297.345 142.4 297.345 135.699 297.345H116.126Z" stroke="#CD2026" stroke-width="3.04187"/>
<path d="M180.766 435.561L161.439 416.234L158.678 418.995L178.005 438.322C178.655 437.185 179.629 436.211 180.766 435.561Z" fill="#FFB800"/>
<path d="M177.193 441.402C177.193 440.752 177.355 440.103 177.518 439.453H150.07V443.513H177.518C177.355 442.701 177.193 442.052 177.193 441.402Z" fill="#FFB800"/>
<path d="M183.85 434.748C184.5 434.748 185.149 434.91 185.799 435.073V407.625H181.739V435.073C182.388 434.91 183.038 434.748 183.85 434.748Z" fill="#FFB800"/>
<path d="M189.699 438.322L209.025 418.995L206.264 416.234L186.938 435.561C188.074 436.211 189.049 437.185 189.699 438.322Z" fill="#FFB800"/>
<path d="M190.026 439.459C190.188 440.109 190.351 440.759 190.351 441.408C190.351 442.058 190.188 442.708 190.026 443.357H217.473V439.297H190.026V439.459Z" fill="#FFB800"/>
<path d="M186.777 447.253L206.104 466.58L208.865 463.819L189.701 444.492C189.051 445.629 188.077 446.604 186.777 447.253Z" fill="#FFB800"/>
<path d="M178.005 444.492L158.678 463.819L161.439 466.58L180.766 447.253C179.629 446.604 178.655 445.629 178.005 444.492Z" fill="#FFB800"/>
<path d="M183.854 448.067C183.205 448.067 182.555 447.905 181.905 447.742V475.19H185.966V447.742C185.154 447.905 184.504 448.067 183.854 448.067Z" fill="#FFB800"/>
<path d="M277.33 358.69L230.116 311.477L223.372 318.221L270.585 365.435C272.172 362.657 274.552 360.277 277.33 358.69Z" fill="#806EEE"/>
<path d="M268.6 372.964C268.6 371.377 268.997 369.79 269.394 368.203H202.343V378.122H269.394C268.997 376.138 268.6 374.551 268.6 372.964Z" fill="#806EEE"/>
<path d="M284.863 356.703C286.45 356.703 288.037 357.099 289.624 357.496V290.445H279.705V357.496C281.292 357.099 282.879 356.703 284.863 356.703Z" fill="#806EEE"/>
<path d="M299.15 365.435L346.363 318.221L339.618 311.477L292.405 358.69C295.182 360.277 297.563 362.657 299.15 365.435Z" fill="#806EEE"/>
<path d="M299.949 368.209C300.346 369.796 300.743 371.383 300.743 372.97C300.743 374.557 300.346 376.144 299.949 377.731H367V367.812H299.949V368.209Z" fill="#806EEE"/>
<path d="M292.013 387.253L339.226 434.466L345.971 427.721L299.154 380.508C297.567 383.285 295.187 385.666 292.013 387.253Z" fill="#806EEE"/>
<path d="M270.585 380.508L223.372 427.721L230.116 434.466L277.33 387.253C274.552 385.666 272.172 383.285 270.585 380.508Z" fill="#806EEE"/>
<path d="M284.872 389.239C283.285 389.239 281.698 388.842 280.111 388.445V455.496H290.03V388.445C288.046 388.842 286.459 389.239 284.872 389.239Z" fill="#806EEE"/>
</svg>
