<svg width="16" height="28" viewBox="0 0 16 28" fill="none" xmlns="http://www.w3.org/2000/svg">
<path d="M2.66667 0.671875C1.2 0.671875 0 1.87188 0 3.33854V7.56521C0 8.27188 0.28 8.95188 0.786667 9.45854L5.33333 14.0052L0.773333 18.5652C0.28 19.0719 0 19.7519 0 20.4585V24.6719C0 26.1385 1.2 27.3385 2.66667 27.3385H13.3333C14.8 27.3385 16 26.1385 16 24.6719V20.4585C16 19.7519 15.72 19.0719 15.2267 18.5785L10.6667 14.0052L15.2133 9.47188C15.72 8.96521 16 8.28521 16 7.57854V3.33854C16 1.87188 14.8 0.671875 13.3333 0.671875H2.66667ZM13.3333 20.0052V23.3385C13.3333 24.0719 12.7333 24.6719 12 24.6719H4C3.26667 24.6719 2.66667 24.0719 2.66667 23.3385V20.0052L8 14.6719L13.3333 20.0052ZM8 13.3385L2.66667 8.00521V4.67188C2.66667 3.93854 3.26667 3.33854 4 3.33854H12C12.7333 3.33854 13.3333 3.93854 13.3333 4.67188V8.00521L8 13.3385Z" fill="#6B3401"/>
</svg>
