<svg width="40" height="24" viewBox="0 0 40 24" fill="none" xmlns="http://www.w3.org/2000/svg">
<path d="M16.1433 10.7296C16.1433 10.7296 19.9281 10.4634 19.9281 6.2574C19.9281 2.05178 16.8313 0 12.9083 0H5.68755H5.47545H0V23.5019H5.47545H5.68755H12.9083C12.9083 23.5019 20.7882 23.7381 20.7882 16.5654C20.7887 16.5654 21.1323 10.7296 16.1433 10.7296ZM5.68755 4.17753H11.9793H12.9087C12.9087 4.17753 14.6635 4.17753 14.6635 6.62251C14.6635 9.06748 13.631 9.4219 12.4611 9.4219H5.68755V4.17753ZM12.5755 19.3256H5.68755V13.0445H12.9083C12.9083 13.0445 15.5236 13.0128 15.5236 16.2722C15.5236 18.9902 13.611 19.2983 12.5755 19.3256Z" fill="#CD2026"/>
<path d="M36.1962 1.38281H25.9609V4.27714H36.1962V1.38281Z" fill="#CD2026"/>
<path d="M31.2976 5.97656C21.7579 5.97656 21.7663 15.0057 21.7663 15.0057C21.7663 15.0057 21.1124 23.9901 31.298 23.9901C31.298 23.9901 39.7867 24.4497 39.7867 17.7398H35.4211C35.4211 17.7398 35.5668 20.2678 31.4437 20.2678C31.4437 20.2678 27.0785 20.5443 27.0785 16.1777H39.932C39.932 16.1777 41.3383 5.97656 31.2976 5.97656ZM35.1781 13.0409H27.0292C27.0292 13.0409 27.5624 9.41835 31.3944 9.41835C35.2269 9.41796 35.1781 13.0409 35.1781 13.0409Z" fill="#CD2026"/>
</svg>
