<svg width="30" height="30" viewBox="0 0 30 30" fill="none" xmlns="http://www.w3.org/2000/svg">
<path d="M15 0C6.72 0 0 6.72 0 15C0 23.28 6.72 30 15 30C23.28 30 30 23.28 30 15C30 6.72 23.28 0 15 0ZM15 27C8.385 27 3 21.615 3 15C3 8.385 8.385 3 15 3C21.615 3 27 8.385 27 15C27 21.615 21.615 27 15 27ZM20.82 9.435L12 18.255L9.18 15.435C8.595 14.85 7.65 14.85 7.065 15.435C6.48 16.02 6.48 16.965 7.065 17.55L10.95 21.435C11.535 22.02 12.48 22.02 13.065 21.435L22.95 11.55C23.535 10.965 23.535 10.02 22.95 9.435C22.365 8.85 21.405 8.85 20.82 9.435Z" fill="#169F32"/>
</svg>
