<svg width="28" height="24" viewBox="0 0 28 24" fill="none" xmlns="http://www.w3.org/2000/svg">
<path d="M24.668 0.332031H3.33464C1.85464 0.332031 0.681302 1.5187 0.681302 2.9987L0.667969 18.9987C0.667969 20.4787 1.85464 21.6654 3.33464 21.6654H8.66797C9.4013 21.6654 10.0013 21.0654 10.0013 20.332C10.0013 19.5987 9.4013 18.9987 8.66797 18.9987H3.33464V10.9987H27.3346V2.9987C27.3346 1.53203 26.1346 0.332031 24.668 0.332031ZM24.668 5.66536H3.33464V2.9987H24.668V5.66536ZM17.908 20.5587L15.0813 17.732C14.5613 17.212 13.7213 17.212 13.2013 17.732C12.6813 18.252 12.6813 19.092 13.2013 19.612L16.9746 23.3854C17.4946 23.9054 18.3346 23.9054 18.8546 23.3854L26.4013 15.8387C26.9213 15.3187 26.9213 14.4787 26.4013 13.9587C25.8813 13.4387 25.0413 13.4387 24.5213 13.9587L17.908 20.5587Z" fill="#007618"/>
</svg>
