<svg width="19" height="26" viewBox="0 0 19 26" fill="none" xmlns="http://www.w3.org/2000/svg">
<path d="M7.58978 22.189L7.58977 22.189C6.64735 20.1046 5.23103 18.0953 3.2557 16.0447C1.33415 14.0508 0.454425 11.305 0.838235 8.51256L0.838237 8.51254C1.38215 4.55954 4.60327 1.3708 8.50351 0.929799L8.50354 0.929796C10.9928 0.64894 13.4836 1.4566 15.3349 3.14824C17.188 4.84108 18.25 7.26522 18.25 9.79924C18.25 12.0412 17.4295 14.1848 15.94 15.8345C13.7061 18.3085 12.107 20.6483 11.0472 22.989L7.58978 22.189ZM7.58978 22.189L8.67413 24.5866C8.82175 24.9137 9.14412 25.125 9.50002 25.125C9.85597 25.125 10.1784 24.9137 10.326 24.5857L11.0472 22.9891L7.58978 22.189ZM8.70496 2.76949L8.70486 2.7695C5.62357 3.11734 3.07067 5.64089 2.63997 8.76984M8.70496 2.76949L14.6018 14.5829C12.3133 17.1172 10.6413 19.5419 9.50082 21.9888L9.24148 21.4155C9.24147 21.4155 9.24147 21.4155 9.24146 21.4155C8.20806 19.1294 6.67316 16.9489 4.55462 14.7496L4.55461 14.7496C3.03249 13.1697 2.33455 10.9914 2.63997 8.76984M8.70496 2.76949C8.97467 2.73882 9.24282 2.72388 9.50864 2.72388M8.70496 2.76949L9.50864 2.72388M2.63997 8.76984L2.51618 8.7528L2.63997 8.76984ZM9.50864 2.72388C11.2194 2.72388 12.8329 3.34808 14.121 4.52485C15.5893 5.86656 16.4318 7.78904 16.4318 9.79924C16.4318 11.5767 15.7813 13.2756 14.6018 14.5829L9.50864 2.72388Z" fill="#CD2026" stroke="#CD2026" stroke-width="0.25"/>
<path d="M4.66992 9.80024C4.66992 12.5142 6.83351 14.7255 9.49946 14.7255C12.1654 14.7255 14.329 12.5142 14.329 9.80024C14.329 7.08626 12.1654 4.875 9.49946 4.875C6.83351 4.875 4.66992 7.08626 4.66992 9.80024ZM6.4881 9.80024C6.4881 8.102 7.84115 6.72508 9.49946 6.72508C11.1578 6.72508 12.5108 8.102 12.5108 9.80024C12.5108 11.4985 11.1578 12.8754 9.49946 12.8754C7.84115 12.8754 6.4881 11.4985 6.4881 9.80024Z" fill="#CD2026" stroke="#CD2026" stroke-width="0.25"/>
</svg>


