<svg width="117" height="112" viewBox="0 0 117 112" fill="none" xmlns="http://www.w3.org/2000/svg">
<path d="M48 23.9762C48 10.7376 37.2517 0 24 0C10.7483 0 0 10.7376 0 23.9762C0 37.2148 10.7483 47.9524 24 47.9524V56C24 56 40.5118 42.0611 41.9138 39.9381C45.6968 35.6919 48 30.1008 48 23.9762Z" fill="#CD2026"/>
<path d="M11.482 26.9922C10.692 26.9922 10.0689 27.6702 10.1579 28.4594C10.8923 35.3511 16.7226 40.7199 23.8213 40.7199C30.9201 40.7199 36.7393 35.3622 37.4736 28.4594C37.5515 27.6702 36.9395 26.9922 36.1496 26.9922H11.482Z" fill="white"/>
<path d="M10.0801 13.6973V18.4548C10.0801 21.8339 12.8283 24.5794 16.2108 24.5794C19.7713 24.5794 22.6642 21.6894 22.6642 18.1324V13.6529C22.6642 12.5858 21.7964 11.7188 20.7282 11.7188C19.6601 11.7188 18.7922 12.5858 18.7922 13.6529V18.4992C18.7922 19.8109 17.724 20.8779 16.4111 20.8779C15.0982 20.8779 14.03 19.8109 14.03 18.4992V13.6973C14.03 12.608 13.1399 11.7188 12.0495 11.7188C10.9702 11.7188 10.0801 12.608 10.0801 13.6973Z" fill="#FFB800"/>
<path d="M36.8176 23.908C35.9274 24.7972 34.4921 24.7972 33.6131 23.908L25.2682 15.5713C24.3781 14.6821 24.3781 13.2482 25.2682 12.3701C26.1583 11.4808 27.5936 11.4808 28.4726 12.3701L36.8176 20.7067C37.7077 21.5959 37.7077 23.0298 36.8176 23.908Z" fill="#FFB800"/>
<path d="M25.2676 23.908C26.1578 24.7972 27.5931 24.7972 28.4721 23.908L36.817 15.5713C37.7072 14.6821 37.7072 13.2482 36.817 12.3701C35.9269 11.4808 34.4916 11.4808 33.6126 12.3701L25.2676 20.7067C24.3886 21.5959 24.3886 23.0298 25.2676 23.908Z" fill="#FFB800"/>
<path d="M9.184 76.632C11.6587 76.632 13.7813 77.08 15.552 77.976C17.3227 78.872 18.6773 80.1627 19.616 81.848C20.5547 83.5333 21.024 85.5387 21.024 87.864C21.024 90.168 20.5547 92.1627 19.616 93.848C18.6773 95.512 17.3227 96.792 15.552 97.688C13.7813 98.5627 11.6587 99 9.184 99H2.56V76.632H9.184ZM9.184 97.144C12.2987 97.144 14.6667 96.3333 16.288 94.712C17.9307 93.0693 18.752 90.7867 18.752 87.864C18.752 84.92 17.9307 82.6267 16.288 80.984C14.6667 79.32 12.2987 78.488 9.184 78.488H4.8V97.144H9.184ZM27.3938 78.456V86.808H35.8738V88.664H27.3938V97.144H36.8338V99H25.1538V76.6H36.8338V78.456H27.3938ZM54.3355 76.632V78.488H48.1275V99H45.8875V78.488H39.6475V76.632H54.3355ZM70.8325 93.688H60.6565L58.7045 99H56.3365L64.4965 76.92H67.0245L75.1525 99H72.7845L70.8325 93.688ZM70.1605 91.832L65.7445 79.736L61.3285 91.832H70.1605ZM80.8915 76.632V90.712C80.8915 92.9307 81.4142 94.5733 82.4595 95.64C83.5262 96.7067 84.9768 97.24 86.8115 97.24C88.6462 97.24 90.0755 96.7173 91.0995 95.672C92.1448 94.6053 92.6675 92.952 92.6675 90.712V76.632H94.9075V90.68C94.9075 93.5173 94.1502 95.6507 92.6355 97.08C91.1422 98.5093 89.1902 99.224 86.7795 99.224C84.3688 99.224 82.4062 98.5093 80.8915 97.08C79.3982 95.6507 78.6515 93.5173 78.6515 90.68V76.632H80.8915ZM107.968 87.832L114.752 99H112.256L106.56 89.656L101.152 99H98.6558L105.408 87.736L98.6558 76.632H101.152L106.816 85.944L112.288 76.632H114.784L107.968 87.832Z" fill="#1F1F1F"/>
</svg>
