<svg width="736" height="464" viewBox="0 0 736 464" fill="none" xmlns="http://www.w3.org/2000/svg">
<mask id="mask0_12916_157666" style="mask-type:alpha" maskUnits="userSpaceOnUse" x="0" y="0" width="736" height="464">
<rect width="736" height="464" fill="#C4C4C4"/>
</mask>
<g mask="url(#mask0_12916_157666)">
<rect width="48.3489" height="110.624" rx="24.1744" transform="matrix(-0.928551 -0.371205 -0.372657 0.927969 260.724 295.461)" fill="#F0D7C0"/>
<path d="M273.521 279.549C278.901 263.885 270.559 246.844 254.888 241.485C239.217 236.127 222.152 244.481 216.772 260.144L196.514 319.124L253.263 338.528L273.521 279.549Z" fill="#FFB800"/>
<ellipse cx="298.414" cy="186.785" rx="44.0346" ry="44.2534" fill="#F0D7C0"/>
<path fill-rule="evenodd" clip-rule="evenodd" d="M264.733 157.776C272.811 148.148 284.902 142.031 298.414 142.031C311.927 142.031 324.017 148.148 332.095 157.776C324.017 167.404 311.927 173.52 298.414 173.52C284.902 173.52 272.811 167.404 264.733 157.776Z" fill="#1F1F1F"/>
<path d="M241.516 239.953L216.082 420.15H392.859L361.381 239.953H241.516Z" fill="#FFB800"/>
<rect width="48.287" height="110.766" rx="24.1435" transform="matrix(0.544348 -0.838859 0.839982 0.542615 361.662 301.125)" fill="#F0D7C0"/>
<path d="M344.986 294.189C331.566 284.519 328.55 265.818 338.25 252.419C347.949 239.02 366.69 235.998 380.11 245.668L430.828 282.217L395.704 330.738L344.986 294.189Z" fill="#FFB800"/>
<rect width="50.1724" height="143.174" rx="25.0862" transform="matrix(0.825321 -0.564664 -0.566404 -0.824127 194.861 392.062)" fill="#F0D7C0"/>
<rect width="50.1444" height="109.182" rx="25.0722" transform="matrix(-0.659337 -0.751847 0.753326 -0.657647 399.759 401.031)" fill="#F0D7C0"/>
<ellipse rx="28.7057" ry="28.3876" transform="matrix(0.931813 0.362938 -0.364367 0.931256 289.048 345.378)" fill="#E0A773"/>
<path d="M229.453 415.587C235.32 390.412 259.946 374.253 285.438 378.851C312.836 383.793 331.977 408.707 329.643 436.387L326.84 469.635L216.858 469.635L229.453 415.587Z" fill="#7128CE"/>
<path fill-rule="evenodd" clip-rule="evenodd" d="M312.298 363.12C313.883 361.016 315.213 358.66 316.221 356.082C322.061 341.155 314.938 324.436 300.31 318.738C291.782 315.417 282.586 316.574 275.242 321.075C272.458 337.584 281.534 354.336 297.782 360.664C302.555 362.524 307.485 363.303 312.298 363.12Z" fill="#1F1F1F"/>
<path d="M358.051 349.124C367.214 349.608 374.699 341.903 373.95 332.759C373.13 322.759 362.994 316.298 353.585 319.777L323.835 330.776C320.212 332.115 317.926 335.703 318.241 339.553C318.594 343.849 322.068 347.224 326.373 347.451L358.051 349.124Z" fill="#1F1F1F"/>
<rect width="36.7815" height="91.4027" rx="18.3908" transform="matrix(-0.536097 0.844156 -0.845252 -0.534368 244.464 377.969)" fill="#C28A57"/>
<rect width="36.5695" height="116.94" rx="18.2847" transform="matrix(0.494649 0.869093 -0.870053 0.492958 249.328 290.047)" fill="#E0A773"/>
<rect width="36.5506" height="107.959" rx="18.2753" transform="matrix(-0.124489 0.992221 -0.99229 -0.123937 434.066 408.961)" fill="#C28A57"/>
<path d="M257.409 377.837C269.277 385.34 272.796 401.03 265.269 412.882C257.742 424.735 242.019 428.261 230.151 420.758L185.281 392.391L212.539 349.47L257.409 377.837Z" fill="#7128CE"/>
<path d="M316.551 393.366C302.672 391.304 289.741 400.883 287.67 414.762C285.6 428.64 295.173 441.562 309.052 443.624L361.622 451.432L369.121 401.174L316.551 393.366Z" fill="#7128CE"/>
<path d="M296.564 422.429L299.086 419.914L301.607 417.398L319.886 435.636L314.843 440.667L296.564 422.429Z" fill="#7CE391"/>
<ellipse cx="283.177" cy="403.38" rx="17.7721" ry="17.7319" fill="white"/>
<rect width="36.5513" height="126.979" rx="18.2756" transform="matrix(0.154949 0.987923 -0.988029 0.154265 428.89 404.227)" fill="#E0A773"/>
<rect width="43.3495" height="86.7782" rx="21.6748" transform="matrix(0.723356 0.690476 -0.69211 0.721792 58.8438 394.047)" fill="#C28A57"/>
<path d="M63.7298 381.513C75.3044 369.442 94.4942 369.017 106.591 380.564C118.689 392.112 119.112 411.258 107.538 423.329L64.9666 467.726L21.1588 425.909L63.7298 381.513Z" fill="#A70B11"/>
<path d="M55.5846 472.359H185.136L165.794 412.076C157.355 385.774 132.895 367.934 105.273 367.934C56.0836 367.934 25.5377 421.411 50.5255 463.781L55.5846 472.359Z" fill="#CD2026"/>
<path fill-rule="evenodd" clip-rule="evenodd" d="M136.784 322.943C136.792 322.756 136.799 322.569 136.805 322.382C138.218 321.109 139.105 319.267 139.105 317.218C139.105 314.621 137.68 312.357 135.566 311.161C135.509 310.938 135.45 310.715 135.389 310.492C135.915 309.514 136.213 308.395 136.213 307.207C136.213 304.117 134.194 301.497 131.399 300.59C131.868 299.655 132.132 298.599 132.132 297.482C132.132 293.64 129.01 290.525 125.159 290.525C124.416 290.525 123.701 290.641 123.029 290.856C122.705 290.573 122.376 290.294 122.042 290.021C121.258 287.036 118.535 284.834 115.297 284.834C114.885 284.834 114.482 284.869 114.09 284.937C113.51 284.656 112.923 284.388 112.328 284.134C111.091 282.194 108.916 280.906 106.44 280.906C105.413 280.906 104.438 281.128 103.56 281.526C102.34 281.31 101.101 281.149 99.8459 281.045C99.3956 280.954 98.9297 280.906 98.4525 280.906C98.2567 280.906 98.0629 280.914 97.8712 280.93C97.4059 280.914 96.9387 280.906 96.4696 280.906C94.7947 280.906 93.1437 281.008 91.5224 281.206C90.8799 281.011 90.1982 280.906 89.492 280.906C87.7689 280.906 86.1919 281.53 84.9751 282.563C83.962 282.863 82.9655 283.201 81.9874 283.577C81.8632 283.57 81.7382 283.567 81.6124 283.567C79.2579 283.567 77.176 284.731 75.9136 286.514C74.8286 287.156 73.7765 287.848 72.7601 288.585C72.6903 288.583 72.6201 288.582 72.5498 288.582C68.7937 288.582 65.7313 291.545 65.5828 295.257C65.2392 295.664 64.9036 296.078 64.5761 296.499C63.0944 297.37 61.964 298.773 61.4478 300.444C58.3889 301.181 56.1164 303.929 56.1164 307.207C56.1164 308.686 56.5787 310.057 57.3669 311.184C57.3209 311.364 57.276 311.544 57.2324 311.725C54.0366 312.36 51.6279 315.173 51.6279 318.548C51.6279 321.589 53.5835 324.175 56.3084 325.121C58.2987 345.501 75.5198 361.43 96.4696 361.43C104.808 361.43 112.557 358.906 118.988 354.583C119.562 354.735 120.166 354.817 120.788 354.817C124.639 354.817 127.76 351.702 127.76 347.86C127.76 347.468 127.728 347.083 127.665 346.709C128.058 346.232 128.44 345.746 128.81 345.252C132.163 344.746 134.732 341.859 134.732 338.373C134.732 337.386 134.526 336.447 134.154 335.596C134.272 335.29 134.386 334.982 134.497 334.672C137.184 333.706 139.105 331.14 139.105 328.125C139.105 326.066 138.209 324.216 136.784 322.943Z" fill="#1F1F1F"/>
<ellipse cx="93.2414" cy="328.773" rx="32.8664" ry="32.1553" fill="#E1B48B"/>
<path d="M124.624 339.162C123.637 299.596 86.7447 301.182 68.4219 306.921C68.4219 297.634 92.7555 288.418 104.242 292.834C132.899 303.853 130.648 328.057 124.624 339.162Z" fill="#1F1F1F"/>
<rect x="70.2617" y="437.977" width="38.8411" height="62.5419" rx="19.4205" transform="rotate(90 70.2617 437.977)" fill="#E1B48B"/>
<rect width="46.4933" height="76.2558" rx="23.2467" transform="matrix(0.930231 -0.366974 0.368413 0.929662 117.699 434.578)" fill="#E1B48B"/>
<path d="M103.114 416.72C96.9478 401.16 104.57 383.568 120.139 377.426C135.708 371.284 153.328 378.918 159.494 394.478L175.549 434.993L119.169 457.234L103.114 416.72Z" fill="#CD2026"/>
<ellipse cx="574.934" cy="264.249" rx="38.6179" ry="38.5305" fill="#E1B48B"/>
<path d="M541.285 350.874C543.846 328.891 562.468 312.312 584.6 312.312C610.684 312.312 630.934 335.059 627.915 360.968L614.814 473.407H527.008L541.285 350.874Z" fill="#CD2026"/>
<rect width="35.0769" height="90.9747" rx="17.5384" transform="matrix(0.841987 -0.539497 0.54123 0.840875 583.411 378.352)" fill="#E1B48B"/>
<rect width="35.0714" height="136.379" rx="17.5357" transform="matrix(-0.799995 -0.600007 -0.601745 0.798688 728 347.5)" fill="#E1B48B"/>
<path d="M565.409 365.698C557.593 353.555 561.114 337.395 573.273 329.604C585.433 321.813 601.626 325.341 609.442 337.485L645.293 393.184L601.26 421.398L565.409 365.698Z" fill="#A70B11"/>
<rect width="41.2437" height="88.0342" rx="20.6218" transform="matrix(-0.835311 0.549778 -0.551515 -0.834165 553.247 455.188)" fill="#FF842B"/>
<path d="M470.741 407.447C463.728 396.965 466.552 382.802 477.048 375.812C487.993 368.522 502.836 371.948 509.478 383.295L534.145 425.443L498.394 448.78L470.741 407.447Z" fill="#FF810D"/>
<rect width="36.6444" height="113.122" rx="18.3222" transform="matrix(-0.843996 -0.536349 0.538082 -0.842892 532.954 477.336)" fill="#A6672E"/>
<ellipse cx="445.015" cy="448.351" rx="82.702" ry="82.5149" fill="#FF842B"/>
<rect width="34.0068" height="100.207" rx="17.0034" transform="matrix(0.0955622 0.995423 -0.995464 0.0951343 522.208 451.359)" fill="#A6672E"/>
<rect width="34.0316" height="41.6263" rx="17.0158" transform="matrix(0.575196 -0.818015 0.819238 0.573453 406.603 469.383)" fill="#A6672E"/>
<ellipse cx="417.949" cy="331.084" rx="34.5844" ry="34.7563" fill="#A6672E"/>
<path d="M402.597 338.434C392.067 338.434 389.332 346.22 390.627 351.506C389.7 351.506 386.31 346.22 383.565 338.434C378.682 310.034 403.306 294.464 421.822 296.147C440.236 297.821 448.907 310.575 451.988 324.034C452.188 324.681 452.299 325.216 452.323 325.609C452.22 325.084 452.108 324.558 451.988 324.034C450.42 318.959 443.409 307.046 430.799 303.615C421.816 315.757 411.685 320.348 402.597 323.512L409.672 344.829C409.247 344.627 407.788 338.434 402.597 338.434Z" fill="#1F1F1F"/>
<path d="M378.971 440.706C369.771 431.527 369.771 416.645 378.971 407.466C388.171 398.287 403.087 398.287 412.287 407.466L447.02 442.12L413.704 475.36L378.971 440.706Z" fill="#FF6B00"/>
<path d="M401.41 463.094L434.726 429.854L453.183 448.269L419.868 481.509L401.41 463.094Z" fill="#FF6B00"/>
<ellipse cx="518.186" cy="254.264" rx="22.3774" ry="22.3268" fill="#1F1F1F"/>
<path d="M624.348 236.992C624.348 220.7 637.555 207.492 653.848 207.492H687.936C701.436 207.492 712.38 218.436 712.38 231.936C712.38 245.436 701.436 256.38 687.936 256.38H624.348V236.992Z" fill="white"/>
<path d="M160.938 148.286C160.938 131.559 174.497 118 191.223 118H197.624C217.81 118 234.174 134.364 234.174 154.55V178.572H191.223C174.497 178.572 160.938 165.012 160.938 148.286Z" fill="white"/>
<ellipse rx="3.85454" ry="3.84582" transform="matrix(-1 0 0 1 210.079 148.768)" fill="#CD2026"/>
<ellipse rx="3.85454" ry="3.84582" transform="matrix(-1 0 0 1 197.556 148.768)" fill="#CD2026"/>
<ellipse rx="3.85454" ry="3.84582" transform="matrix(-1 0 0 1 185.025 148.768)" fill="#CD2026"/>
<path fill-rule="evenodd" clip-rule="evenodd" d="M568.812 226.382C572.943 229.966 576.358 234.691 578.553 240.301C585.103 257.044 578.314 275.33 563.387 281.144C555.289 284.298 546.459 283.133 539.029 278.733C531.535 258.168 540.346 235.885 559.041 228.603C562.24 227.358 565.523 226.63 568.812 226.382Z" fill="#1F1F1F"/>
<path d="M462.396 172.688L464.748 179.967L472.361 179.967L466.202 184.466L468.555 191.746L462.396 187.247L456.236 191.746L458.589 184.466L452.43 179.967L460.043 179.967L462.396 172.688Z" fill="#FFB800"/>
</g>
<rect x="434.5" y="99.5" width="55" height="55" stroke="#616161"/>
<path d="M444 126.733L456.176 139L480 115" stroke="#616161"/>
<path d="M490 85.5V67" stroke="#616161"/>
<path d="M502.5 99L521 99" stroke="#616161"/>
<path d="M497.582 91L521.582 67" stroke="#616161"/>
<path d="M636 27C636 32.8348 638.318 38.4306 642.444 42.5564C646.569 46.6822 652.165 49 658 49C663.835 49 669.431 46.6822 673.556 42.5564C677.682 38.4305 680 32.8348 680 27L658 27L636 27Z" fill="#FFB800"/>
<path d="M63.75 66.7725L45.0019 46.9982V86.5469L63.75 66.7725Z" stroke="#1F1F1F" stroke-width="0.845654" stroke-linejoin="round"/>
<path d="M73.2578 66.7725L92.0059 46.9982V86.5469L73.2578 66.7725Z" stroke="#1F1F1F" stroke-width="0.845654" stroke-linejoin="round"/>
<line x1="68.9267" y1="47" x2="68.9267" y2="85.9881" stroke="#1F1F1F" stroke-width="0.845654" stroke-linejoin="round"/>
</svg>
