<svg width="736" height="464" viewBox="0 0 736 464" fill="none" xmlns="http://www.w3.org/2000/svg">
<ellipse cx="474" cy="129.311" rx="11" ry="10.5691" fill="#1F1F1F"/>
<ellipse cx="470" cy="150.955" rx="11" ry="11.0724" fill="#1F1F1F"/>
<ellipse cx="462" cy="169.072" rx="11" ry="11.0724" fill="#1F1F1F"/>
<ellipse cx="449.5" cy="184.174" rx="11.5" ry="11.0724" fill="#1F1F1F"/>
<rect width="20.8691" height="71.8716" rx="10.4345" transform="matrix(-0.706972 -0.707241 -0.702588 0.711596 93.3633 45.8203)" fill="#DDA97A"/>
<path d="M148.767 44.0621C155.652 50.4532 155.112 61.5619 147.64 67.2716V67.2716C139.284 73.6556 127.178 69.7246 124.13 59.6382L118.408 40.6982C117.225 36.7805 118.594 32.5316 121.84 30.0519V30.0519C125.595 27.1823 130.851 27.4317 134.311 30.6438L148.767 44.0621Z" fill="#1F1F1F"/>
<ellipse rx="27.4452" ry="27.6198" transform="matrix(0.991516 0.129985 -0.128318 0.991733 121.321 33.0605)" fill="#E9C19C"/>
<path fill-rule="evenodd" clip-rule="evenodd" d="M140.787 13.372C135.02 21.108 125.39 25.5785 115.182 24.2402C109.15 23.4494 103.829 20.7499 99.7409 16.8237C105.508 9.08766 115.138 4.61718 125.346 5.95543C131.378 6.74625 136.699 9.44575 140.787 13.372Z" fill="#1F1F1F"/>
<path fill-rule="evenodd" clip-rule="evenodd" d="M145.405 46.694C136.489 43.0882 129.708 34.883 128.35 24.612C127.547 18.5428 128.76 12.6713 131.469 7.68071C140.385 11.2865 147.167 19.4917 148.524 29.7627C149.327 35.832 148.114 41.7035 145.405 46.694Z" fill="#1F1F1F"/>
<path fill-rule="evenodd" clip-rule="evenodd" d="M94.0511 33.8972C99.6641 32.8417 104.222 28.2675 105.016 22.2599C105.441 19.0465 104.72 15.9456 103.17 13.3742C98.4695 17.6086 95.1908 23.4891 94.2935 30.2767C94.1327 31.4934 94.0533 32.7021 94.0511 33.8972Z" fill="#1F1F1F"/>
<rect width="20.9375" height="64.0751" rx="10.4688" transform="matrix(-0.0473171 -0.99888 0.99885 -0.0479406 161.832 83.5703)" fill="#E1B48B"/>
<path d="M253.011 231.477C246.013 231.477 240.503 225.51 241.059 218.535L242.852 196.035C243.258 190.932 242.313 185.812 240.112 181.19L234 168.359L245.678 166.73C255.888 165.306 265 173.236 265 183.544L265 219.487C265 226.109 259.632 231.477 253.011 231.477V231.477Z" fill="#1F1F1F"/>
<rect width="20.9354" height="84.4192" rx="10.4677" transform="matrix(0.131483 -0.991318 0.991091 0.133189 204.414 79.5312)" fill="#E1B48B"/>
<path d="M131.461 164.682L160.651 147.719L195.111 187.501L247.945 162.794L242.953 202.576L172.231 237.751L131.461 164.682Z" fill="#EDAB00"/>
<path d="M253.026 336.164C246.026 336.164 240.519 330.186 241.092 323.21L242.838 301.942C243.253 296.89 242.293 291.821 240.059 287.271L234 274.93L245.747 273.341C255.935 271.963 265 279.884 265 290.165L265 324.19C265 330.803 259.639 336.164 253.026 336.164V336.164Z" fill="#1F1F1F"/>
<rect width="23.0529" height="74.4524" rx="11.5264" transform="matrix(0.128385 -0.991724 -0.991507 -0.130052 105.578 102)" fill="#DDA97A"/>
<rect width="33.7612" height="142.711" transform="matrix(0.864599 -0.502462 0.497542 0.86744 160.914 168.031)" fill="#FFB800"/>
<path d="M104.372 102.874C112.919 103.285 120.176 96.6882 120.581 88.1408V88.1408C120.986 79.5934 114.385 72.3318 105.838 71.9216L75.9434 70.4868L74.4771 101.44L104.372 102.874Z" fill="#A70B11"/>
<path d="M97.0537 204.592L106.498 72.3443L145.602 58.944L200.638 163.967C200.638 163.967 206.912 163.181 187.619 172.427C168.327 181.673 163.809 183.392 135.154 194.306C106.498 205.22 97.0537 204.592 97.0537 204.592Z" fill="#CD2026"/>
<path d="M150.12 89.1635C141.573 89.5737 134.316 82.9772 133.911 74.4299V74.4299C133.507 65.8825 140.107 58.6209 148.654 58.2107L187.199 56.3607L188.666 87.3135L150.12 89.1635Z" fill="#CD2026"/>
<rect x="265" y="19.0938" width="38" height="344.251" fill="#CD2026"/>
<rect x="412.5" y="80.9922" width="101" height="382.508" stroke="#1F1F1F"/>
<rect x="541" y="319.055" width="54.3554" height="47" transform="rotate(-90 541 319.055)" fill="#570DB4"/>
<path d="M480.086 428.749L427.668 428.749L475.53 264.966L526.616 280.092L480.086 428.749Z" fill="#48039F"/>
<path d="M555.799 313.613L586.167 264.554L636.375 339.592L591.835 368.97L555.799 313.613Z" fill="#570DB4"/>
<rect width="27.4549" height="86.7363" rx="13.7275" transform="matrix(0.0808326 0.996728 0.996641 -0.081893 540.605 157.062)" fill="#E1B48B"/>
<rect width="31.4976" height="87.2207" rx="15.7488" transform="matrix(-0.892724 0.451426 0.446392 0.894426 593.516 91.75)" fill="#E1B48B"/>
<path d="M539.366 153.363C530.308 154.108 523.56 162.055 524.295 171.113V171.113C525.03 180.172 532.968 186.912 542.026 186.168L570.003 183.869L567.343 151.064L539.366 153.363Z" fill="#169F32"/>
<rect width="27.456" height="45.3343" rx="13.728" transform="matrix(-0.0248963 0.99969 -0.999682 -0.0252249 481.273 157.766)" fill="#E1B48B"/>
<rect width="31.4816" height="111.498" rx="15.7408" transform="matrix(0.9713 -0.237509 0.234623 0.972171 412.586 79.5391)" fill="#E1B48B"/>
<path d="M496.736 154.616C505.822 154.845 513.004 162.397 512.778 171.483V171.483C512.552 180.569 505.002 187.749 495.916 187.52L467.856 186.812L468.676 153.908L496.736 154.616Z" fill="#43BE5C"/>
<ellipse cx="510" cy="120.758" rx="26" ry="25.1645" fill="#E1B48B"/>
<path d="M481.71 183.477C483.19 163.992 499.432 148.938 518.973 148.938V148.938C541.343 148.938 558.702 168.46 556.086 190.677L548.083 258.655H476L481.71 183.477Z" fill="#43BE5C"/>
<path d="M474 264.695H541V319.051H522C495.49 319.051 474 297.56 474 271.051V264.695Z" fill="#570DB4"/>
<path d="M663.852 339.922C659.621 333.217 650.776 331.243 644.097 335.514L591.579 369.091L597.841 379.015C602.845 386.944 613.305 389.278 621.204 384.227L659.418 359.795C666.098 355.524 668.083 346.626 663.852 339.922V339.922Z" fill="#1F1F1F"/>
<path d="M501 449.905C501 442.122 494.691 435.812 486.908 435.812L425 435.812L425 447.02C425 456.396 432.601 463.997 441.977 463.997L486.908 463.997C494.691 463.997 501 457.688 501 449.905V449.905Z" fill="#1F1F1F"/>
<ellipse cx="641" cy="54.8212" rx="22" ry="21.6415" fill="#EAD9FF"/>
<ellipse cx="727" cy="369.38" rx="9" ry="9.05923" fill="#43BE5C"/>
<ellipse cx="358" cy="399.583" rx="9" ry="9.05923" fill="#FF842B"/>
<ellipse cx="229" cy="259.157" rx="3" ry="2.51645" fill="#FF842B"/>
<ellipse cx="10" cy="28.1518" rx="10" ry="10.0658" fill="#FFB800"/>
<path d="M221.608 369.923C230.716 391.935 235.434 415.516 235.499 439.339H53.5L53.5 257.141C77.2962 257.207 100.852 261.93 122.84 271.048C144.981 280.229 165.1 293.686 182.047 310.651C198.994 327.616 212.436 347.757 221.608 369.923Z" stroke="#1F1F1F"/>
<ellipse cx="31.5" cy="440.484" rx="3.5" ry="3.52304" fill="#FF842B"/>
<mask id="path-44-inside-1_12916_157228" fill="white">
<path d="M678.452 275.722C686.164 271.24 691.792 263.858 694.096 255.199C696.401 246.541 695.195 237.315 690.742 229.552C686.289 221.789 678.955 216.124 670.353 213.804C661.751 211.484 652.586 212.699 644.874 217.181L661.663 246.451L678.452 275.722Z"/>
</mask>
<path d="M678.452 275.722C686.164 271.24 691.792 263.858 694.096 255.199C696.401 246.541 695.195 237.315 690.742 229.552C686.289 221.789 678.955 216.124 670.353 213.804C661.751 211.484 652.586 212.699 644.874 217.181L661.663 246.451L678.452 275.722Z" stroke="#1F1F1F" stroke-width="2" mask="url(#path-44-inside-1_12916_157228)"/>
<path d="M671.35 263.284C675.767 260.717 678.99 256.489 680.31 251.531C681.63 246.572 680.939 241.288 678.389 236.842C675.839 232.396 671.638 229.152 666.712 227.823C661.785 226.494 656.536 227.19 652.119 229.757L661.735 246.521L671.35 263.284Z" fill="#8A49DD"/>
<path d="M652.213 229.856C647.796 232.423 644.573 236.651 643.253 241.61C641.933 246.569 642.624 251.853 645.174 256.299C647.724 260.745 651.924 263.989 656.851 265.318C661.777 266.646 667.026 265.951 671.443 263.384L661.828 246.62L652.213 229.856Z" fill="#FFB800"/>
<ellipse cx="523.5" cy="3.49922" rx="3.5" ry="3.49922" fill="#DD3B41"/>
<ellipse cx="362.5" cy="37.206" rx="3.5" ry="4.02633" fill="#FF842B"/>
<rect x="563.5" y="416.188" width="16" height="16.1119" stroke="#1F1F1F"/>
<path d="M85.5 333.146C85.5 351.774 70.4985 366.869 52 366.869C33.5015 366.869 18.5 351.774 18.5 333.146C18.5 314.517 33.5015 299.422 52 299.422C70.4985 299.422 85.5 314.517 85.5 333.146Z" fill="#FAFAFA" stroke="#1F1F1F"/>
<path d="M536.66 110.967L588.022 71.2969L601.559 95.9895L540.244 119.873L536.66 110.967Z" fill="white" stroke="#1F1F1F"/>
<ellipse rx="10.5424" ry="15.3231" transform="matrix(0.934704 -0.355426 0.351368 0.936237 597.308 81.849)" fill="#FF842B"/>
<path fill-rule="evenodd" clip-rule="evenodd" d="M490.039 129.266C504.789 129.266 516.746 117.556 516.746 103.112C516.746 100.548 516.369 98.07 515.667 95.7287C514.051 95.4298 512.384 95.2734 510.679 95.2734C495.93 95.2734 483.973 106.983 483.973 121.428C483.973 123.991 484.349 126.469 485.052 128.811C486.667 129.109 488.334 129.266 490.039 129.266Z" fill="#1F1F1F"/>
<path d="M442.108 192.326L429.021 193.067L437.265 204.587L442.108 192.326Z" fill="#1F1F1F"/>
<path d="M508.5 138.877C508.5 144.719 503.796 149.449 498 149.449C492.204 149.449 487.5 144.719 487.5 138.877C487.5 133.035 492.204 128.305 498 128.305C503.796 128.305 508.5 133.035 508.5 138.877Z" stroke="#1F1F1F"/>
</svg>
