<svg width="736" height="464" viewBox="0 0 736 464" fill="none" xmlns="http://www.w3.org/2000/svg">
<g clip-path="url(#clip0_12916_157478)">
<path d="M230 817.51L441.425 103.312" stroke="#1F1F1F"/>
<path d="M370.96 817.51L582.385 103.312" stroke="#1F1F1F"/>
<path d="M562.98 164.609H422.898" stroke="#1F1F1F"/>
<path d="M549.342 213.07H409.261" stroke="#1F1F1F"/>
<path d="M533.87 265.758H393.789" stroke="#1F1F1F"/>
<path d="M518.39 319.43H378.309" stroke="#1F1F1F"/>
<path d="M502.695 372.656H362.613" stroke="#1F1F1F"/>
<path d="M487.437 423.672H347.355" stroke="#1F1F1F"/>
<path d="M378.479 353.506C380.887 362.376 389.979 367.663 398.879 365.369C407.881 363.05 413.287 353.861 410.942 344.866L389.45 262.434L358.862 260.728L357.82 272.034C357.574 274.701 357.808 277.391 358.51 279.976L378.479 353.506Z" fill="#570DB4"/>
<path d="M358.773 258.07L357.942 269.589C357.05 281.951 366.349 292.697 378.711 293.589L450.959 298.803C460.321 299.478 468.458 292.437 469.134 283.074C469.809 273.712 462.768 265.575 453.406 264.9L358.773 258.07Z" fill="#7128CE"/>
<path d="M344.711 415.242L372.98 429.563L410.131 356.231C414.085 348.425 410.963 338.891 403.157 334.936C395.351 330.981 385.816 334.103 381.862 341.91L344.711 415.242Z" fill="#570DB4"/>
<path d="M428.98 356.398L461.279 356.513L468.739 283.017C469.657 273.978 463.035 265.922 453.989 265.073C444.992 264.228 437.013 270.838 436.168 279.835L428.98 356.398Z" fill="#7128CE"/>
<circle r="20.8885" transform="matrix(0.930284 -0.366841 -0.366841 -0.930284 405.207 105.639)" fill="#E1B48B"/>
<path d="M436.28 165.891C439.245 149.847 429.272 134.25 413.464 130.209C396.147 125.783 378.684 136.873 375.326 154.429L356.412 253.307L418.891 259.973L436.28 165.891Z" fill="#CD2026"/>
<path d="M385.95 445.89C388.146 441.532 386.393 436.22 382.036 434.024L347.847 416.797L341.789 428.82C340.743 430.895 341.578 433.424 343.653 434.47L374.085 449.804C378.442 452 383.755 450.247 385.95 445.89Z" fill="#1F1F1F"/>
<path d="M478.176 365.343C478.176 360.463 474.22 356.508 469.341 356.508H431.057V369.97C431.057 372.294 432.94 374.177 435.264 374.177H469.341C474.22 374.177 478.176 370.222 478.176 365.343Z" fill="#1F1F1F"/>
<rect width="24.783" height="65.5431" rx="12.3915" transform="matrix(-0.847883 0.530183 0.530183 0.847883 422.898 155.945)" fill="#E1B48B"/>
<rect width="24.783" height="89.4939" rx="12.3915" transform="matrix(0.635125 0.772409 0.772409 -0.635125 424.465 206.242)" fill="#E1B48B"/>
<path d="M420.491 140.758C415.101 132.137 403.742 129.518 395.121 134.909C386.5 140.3 383.881 151.659 389.272 160.28L413.862 199.604L445.081 180.083L420.491 140.758Z" fill="#CD2026"/>
<path d="M406.523 187.859L413.504 199.442L430.643 189.286" stroke="#1F1F1F" stroke-width="1.40266"/>
<path d="M203.551 156L205.239 163.475L211.719 159.383L207.627 165.862L215.102 167.551L207.627 169.239L211.719 175.719L205.239 171.627L203.551 179.102L201.862 171.627L195.383 175.719L199.475 169.239L192 167.551L199.475 165.862L195.383 159.383L201.862 163.475L203.551 156Z" fill="#7CE391"/>
<path d="M484.642 401.867L485.811 407.044L490.298 404.21L487.465 408.698L492.642 409.867L487.465 411.037L490.298 415.524L485.811 412.69L484.642 417.867L483.472 412.69L478.985 415.524L481.818 411.037L476.642 409.867L481.818 408.698L478.985 404.21L483.472 407.044L484.642 401.867Z" fill="#7CE391"/>
<rect x="-0.5" y="0.5" width="68" height="420" transform="matrix(-1 0 0 1 141 58)" fill="#FAFAFA" stroke="#1F1F1F"/>
<ellipse cx="432.655" cy="32.8405" rx="9" ry="9.05923" fill="#43BE5C"/>
<rect x="215.5" y="382.5" width="16" height="16.1119" stroke="#1F1F1F"/>
<rect x="568" y="64.8906" width="68.1566" height="47.0608" rx="6.69782" fill="#8A49DD"/>
<path d="M591.922 64.8736C591.922 61.0774 594.999 58 598.796 58H604.982C608.778 58 611.855 61.0774 611.855 64.8736H591.922Z" fill="#570DB4"/>
<circle r="40.3766" transform="matrix(0.999615 -0.0277315 -0.0277315 -0.999615 131.989 317.701)" fill="#FAFAFA" stroke="#CD2026"/>
<path d="M91.4041 318.901C91.1034 308.064 95.1201 297.552 102.57 289.676C110.021 281.801 120.294 277.208 131.131 276.907C141.968 276.606 152.481 280.623 160.356 288.073C168.232 295.524 172.825 305.797 173.126 316.634L132.265 317.768L91.4041 318.901Z" fill="#CD2026"/>
<mask id="path-30-inside-1_12916_157478" fill="white">
<path d="M695.432 275.17C703.116 270.704 708.724 263.348 711.02 254.721C713.317 246.093 712.115 236.901 707.678 229.166C703.241 221.43 695.933 215.786 687.362 213.474C678.791 211.163 669.659 212.373 661.974 216.839L678.703 246.004L695.432 275.17Z"/>
</mask>
<path d="M695.432 275.17C703.116 270.704 708.724 263.348 711.02 254.721C713.317 246.093 712.115 236.901 707.678 229.166C703.241 221.43 695.933 215.786 687.362 213.474C678.791 211.163 669.659 212.373 661.974 216.839L678.703 246.004L695.432 275.17Z" stroke="#1F1F1F" stroke-width="2" mask="url(#path-30-inside-1_12916_157478)"/>
<path d="M688.356 262.785C692.757 260.228 695.969 256.015 697.284 251.074C698.599 246.133 697.911 240.868 695.37 236.438C692.829 232.008 688.644 228.775 683.735 227.451C678.826 226.127 673.596 226.821 669.195 229.378L678.775 246.082L688.356 262.785Z" fill="#FF842B"/>
<path d="M669.287 229.465C664.886 232.022 661.675 236.235 660.359 241.176C659.044 246.117 659.733 251.382 662.274 255.812C664.815 260.242 669 263.475 673.909 264.799C678.818 266.123 684.048 265.429 688.449 262.872L678.868 246.168L669.287 229.465Z" fill="#FFB800"/>
<path d="M626.461 121.121H645.676V101.641" stroke="#1F1F1F"/>
<path d="M208.07 79.1338C201.951 79.0757 197 74.3729 197 68.5669C197 62.7609 201.951 58.0581 208.07 58L208.07 79.1338Z" fill="#FF842B"/>
<path d="M230.14 79.1338C224.021 79.0757 219.07 74.3729 219.07 68.5669C219.07 62.7609 224.021 58.0581 230.14 58L230.14 79.1338Z" fill="#F5F5F5"/>
<path d="M252.211 79.1338C246.091 79.0757 241.141 74.3729 241.141 68.5669C241.141 62.7609 246.091 58.0581 252.211 58L252.211 79.1338Z" fill="#F5F5F5"/>
<path d="M274.281 79.1338C268.162 79.0757 263.211 74.3729 263.211 68.5669C263.211 62.7609 268.162 58.0581 274.281 58L274.281 79.1338Z" fill="#F5F5F5"/>
<path d="M296.351 79.1338C290.232 79.0757 285.281 74.3729 285.281 68.5669C285.281 62.7609 290.232 58.0581 296.351 58L296.351 79.1338Z" fill="#F5F5F5"/>
<path d="M318.422 79.1338C312.302 79.0757 307.352 74.3729 307.352 68.5669C307.352 62.7609 312.302 58.0581 318.422 58L318.422 79.1338Z" fill="#F5F5F5"/>
<path d="M654.028 364.234L671.984 382.191L654.028 400.148L636.071 382.191L654.028 364.234Z" stroke="#43BE5C"/>
<path d="M635.496 364.234L653.453 382.191L635.496 400.148L617.54 382.191L635.496 364.234Z" fill="#F5F5F5" stroke="#43BE5C"/>
<path d="M616.956 364.234L634.913 382.191L616.956 400.148L599 382.191L616.956 364.234Z" fill="#43BE5C" stroke="#43BE5C"/>
<rect x="617.301" y="266.5" width="16" height="16.1119" stroke="#1F1F1F"/>
<path d="M295.752 297.086L283.904 303.964L283.705 290.257L295.752 297.086Z" fill="#FFB800"/>
<path d="M249 262.32L262.979 254.206L277.117 245.999L276.996 278.355L249 262.32Z" stroke="#1F1F1F"/>
<path d="M278.07 311.656L291.742 303.72L305.571 295.693L278.032 280.102L278.07 311.656Z" stroke="#1F1F1F"/>
<path d="M273.435 263.001L273.56 272.384L265.711 267.484L273.435 263.001Z" fill="#FFB800"/>
<path fill-rule="evenodd" clip-rule="evenodd" d="M406.923 84.1624C407.904 85.4945 408.732 86.9826 409.366 88.6074C413.039 98.0146 408.832 108.445 399.97 111.905C394.805 113.921 389.199 113.124 384.693 110.246C382.868 99.8699 388.263 89.4326 398.107 85.5897C400.998 84.4613 403.992 84.0109 406.923 84.1624Z" fill="#1F1F1F"/>
<path d="M374.639 90.4609H391.975L388.12 97.0092H381.185L362.826 149.235L348.941 133.57L374.639 90.4609Z" fill="#1F1F1F"/>
<rect x="386.148" y="88.7656" width="4.95769" height="10.2725" rx="2.47885" fill="#CD2026"/>
</g>
<defs>
<clipPath id="clip0_12916_157478">
<rect width="736" height="464" fill="white"/>
</clipPath>
</defs>
</svg>
