<svg width="736" height="464" viewBox="0 0 736 464" fill="none" xmlns="http://www.w3.org/2000/svg">
<rect width="126.432" height="38.5217" transform="matrix(-1 0 0 1 333.39 364.734)" fill="#F5F5F5"/>
<rect width="423.32" height="238.952" transform="matrix(-1 0 0 1 613.614 0)" fill="white"/>
<ellipse rx="5.3415" ry="5.33971" transform="matrix(-1 0 0 1 239.355 21.3553)" fill="#DD3B41"/>
<ellipse rx="5.3415" ry="5.33971" transform="matrix(-1 0 0 1 223.33 21.3553)" fill="#FFB800"/>
<ellipse rx="5.3415" ry="5.33971" transform="matrix(-1 0 0 1 207.3 21.3553)" fill="#169F32"/>
<rect width="68.986" height="12.9971" transform="matrix(-1 0 0 1 340.503 109.047)" fill="#EBEBEB"/>
<rect width="17.9961" height="17.9961" transform="matrix(-1 0 0 1 276.521 201.031)" fill="#43BE5C"/>
<path d="M320.013 147.039L309.515 165.035H330.511L320.013 147.039Z" fill="#D7D7D7"/>
<circle r="8.99803" transform="matrix(-1 0 0 1 280.521 156.037)" fill="#D7D7D7"/>
<circle r="8.99803" transform="matrix(-1 0 0 1 280.521 54.0605)" fill="#CD2026"/>
<rect width="22.0225" height="62.3501" rx="11.0113" transform="matrix(-0.346009 -0.938231 -0.938235 0.345999 151.246 232.664)" fill="#A6672E"/>
<path d="M75.844 233.783C68.8777 236.263 65.2411 243.921 67.7213 250.887V250.887C70.2016 257.853 77.8594 261.49 84.8257 259.01L112.795 249.052L103.813 223.825L75.844 233.783Z" fill="#EDAB00"/>
<rect width="22.4058" height="74.8896" rx="11.2029" transform="matrix(-0.680757 -0.732509 -0.73252 0.680745 194.087 190.164)" fill="#A6672E"/>
<path d="M105.941 344.086H24.4413V346.729C24.4413 351.699 28.4707 355.729 33.4413 355.729H96.9414C101.912 355.729 105.941 351.699 105.941 346.729V344.086Z" fill="#A6672E"/>
<path d="M1.52588e-05 256.766C0.503723 264.603 2.49337 283.259 6.42229 295.186H57.4227C58.682 289.833 61.0494 274.654 60.445 256.766C51.0004 256.767 21.9113 256.768 1.52588e-05 256.766Z" fill="#E1B48B"/>
<path d="M111.766 461.675H105.944L73.3448 355.727H86.1517L111.766 461.675Z" fill="#E1B48B"/>
<path d="M19.793 461.675H25.6143L58.2138 355.727H45.4069L19.793 461.675Z" fill="#E1B48B"/>
<path d="M138.898 319.191C138.096 307.432 127.912 298.549 116.153 299.351L28.4417 305.335V305.335C30.0462 328.854 50.4131 346.619 73.9325 345.015L119.058 341.937C130.817 341.134 139.7 330.951 138.898 319.191V319.191Z" fill="#414141"/>
<path d="M160.498 445.416L131.974 445.416L102.007 323.871C99.8988 315.319 104.126 306.468 112.104 302.732C122.875 297.689 135.536 303.997 137.995 315.634L142.04 334.772L160.498 445.416Z" fill="#414141"/>
<path d="M73.3235 428.195L101.11 444.436L137.64 324.785C141.089 313.488 133.175 301.905 121.396 301.013C112.463 300.336 104.336 306.177 102.13 314.859L73.3235 428.195Z" fill="#414141"/>
<path d="M181.625 455.853C181.625 451.352 177.976 447.703 173.475 447.703H132.726V450.667C132.726 458.032 138.697 464.003 146.062 464.003H173.475C177.976 464.003 181.625 460.354 181.625 455.853V455.853Z" fill="#1F1F1F"/>
<path d="M114.836 455.527C114.836 451.804 112.208 448.598 108.557 447.868L102.798 446.718C101.13 446.384 99.5304 445.769 98.0689 444.898L72.9168 429.914C69.4233 433.257 68.999 438.69 71.9311 442.535L83.0985 457.177C86.2222 461.273 91.0781 463.676 96.229 463.676H106.687C111.187 463.676 114.836 460.028 114.836 455.527Z" fill="#1F1F1F"/>
<path d="M86.0528 247.484C85.7345 231.075 72.1746 218.031 55.7657 218.35V218.35C39.3569 218.668 26.3129 232.228 26.6311 248.637L27.3896 287.743L86.8112 286.591L86.0528 247.484Z" fill="#FFB800"/>
<rect width="19.3796" height="89.6485" rx="9.68982" transform="matrix(0.760211 -0.649676 -0.649688 -0.760201 93.9102 359.523)" fill="#A6672E"/>
<rect width="22.2041" height="50.4751" rx="11.102" transform="matrix(0.996823 0.0796437 0.0796462 -0.996823 38.918 300.898)" fill="#A6672E"/>
<path d="M70.7554 241.322C72.1892 234.068 67.4708 227.025 60.2166 225.591V225.591C52.9623 224.158 45.9193 228.876 44.4854 236.13L38.7287 265.256L64.9987 270.448L70.7554 241.322Z" fill="#EDAB00"/>
<path d="M62.1562 159.094L31.495 170.167L41.2585 197.201C44.3164 205.668 53.659 210.053 62.1259 206.995V206.995C70.5928 203.937 74.9777 194.595 71.9198 186.128L62.1562 159.094Z" fill="#A6672E"/>
<path d="M41.7278 178.08L37.7237 178.836L41.6128 199.429C33.1239 188.986 21.8993 173.156 29.6586 164.364C34.0506 159.388 53.64 153.318 62.7163 148.05C64.3307 153.935 69.6213 162.03 63.9924 167.359C58.3636 172.687 47.448 177 41.7278 178.08Z" fill="#1F1F1F"/>
<path d="M74.0292 217.208L70.6439 223.691L43.1222 221.446L41.8197 210.918L74.0292 217.208Z" fill="#EDAB00"/>
<path d="M359.929 69.7891L357.317 82.6079L347.076 74.4672L353.314 85.9661L340.237 86.3128L352.407 91.1113L342.612 99.783L355.019 95.6359L353.09 108.575L359.929 97.4228L366.768 108.575L364.838 95.6359L377.246 99.783L367.451 91.1113L379.621 86.3128L366.543 85.9661L372.782 74.4672L362.541 82.6079L359.929 69.7891Z" fill="#FFB800"/>
<circle r="28.4071" transform="matrix(-1 0 0 1 485.007 144.782)" fill="#1F1F1F"/>
<path d="M550.004 452.926C550.004 446.81 545.046 441.852 538.93 441.852H489.338V447.764C489.338 456.731 496.607 463.999 505.573 463.999H538.93C545.046 463.999 550.004 459.042 550.004 452.926V452.926Z" fill="white"/>
<path d="M420.969 452.926C420.969 446.81 425.927 441.852 432.043 441.852H481.635V447.764C481.635 456.731 474.366 463.999 465.399 463.999H432.043C425.927 463.999 420.969 459.042 420.969 452.926V452.926Z" fill="white"/>
<rect x="457.055" y="192.383" width="24.3803" height="73.392" rx="12.1902" transform="rotate(112.376 457.055 192.383)" fill="#E1B48B"/>
<rect x="409.832" y="185.625" width="24.3803" height="76.4769" rx="12.1902" transform="rotate(156.421 409.832 185.625)" fill="#E1B48B"/>
<path d="M474.733 184.975C484.52 187.042 490.777 196.652 488.709 206.439V206.439C486.641 216.225 477.031 222.482 467.245 220.414L422.605 210.982L430.093 175.542L474.733 184.975Z" fill="#CD2026"/>
<rect width="24.3803" height="114.982" rx="12.1902" transform="matrix(-0.774193 0.63295 0.63295 0.774193 515.91 207.109)" fill="#E1B48B"/>
<path d="M511.72 192.365C505.389 184.621 493.979 183.476 486.235 189.807V189.807C478.492 196.138 477.346 207.548 483.677 215.292L512.556 250.615L540.599 227.689L511.72 192.365Z" fill="#CD2026"/>
<path d="M535.461 235.891L485.466 185.897L435.471 235.891L448.524 248.943C468.927 269.345 502.006 269.345 522.408 248.943L535.461 235.891Z" fill="#CD2026"/>
<mask id="mask0_12916_157298" style="mask-type:alpha" maskUnits="userSpaceOnUse" x="456" y="116" width="58" height="58">
<circle r="28.4071" transform="matrix(-1 0 0 1 485.003 144.782)" fill="#1F1F1F"/>
</mask>
<g mask="url(#mask0_12916_157298)">
<path d="M481.284 135.178L458.731 123.753L439.689 161.341L456.529 165.363C476.542 156.409 479.176 143.768 481.284 135.178Z" fill="#E1B48B"/>
</g>
<rect width="35" height="169" transform="matrix(-1 0 0 1 521.934 271)" fill="#570DB4"/>
<rect width="36" height="169" transform="matrix(-1 0 0 1 482.934 271)" fill="#570DB4"/>
<path d="M522.359 271.227H446.512V280.707C446.512 301.651 463.491 318.63 484.436 318.63V318.63C505.38 318.63 522.359 301.651 522.359 280.707V271.227Z" fill="#570DB4"/>
<path d="M601.543 368L635.828 392.787L622.733 432.892H580.353L567.258 392.787L601.543 368Z" fill="white"/>
<ellipse cx="660.972" cy="417.441" rx="24.3576" ry="24.2375" fill="white"/>
<rect width="33.1217" height="30.0588" transform="matrix(0.985965 0.166954 -0.168565 0.985691 570.563 422.289)" fill="white"/>
<rect x="596.669" y="412.594" width="46.7666" height="41.6886" fill="white"/>
<path d="M596.186 451.381C586.443 451.381 564.034 444.109 548.932 463.984L689.234 463.984V424.234C676.567 424.234 667.311 444.594 653.671 444.594C640.518 444.594 633.697 438.777 622.493 438.777C613.237 438.777 607.878 451.381 596.186 451.381Z" fill="#A26AE9"/>
<path d="M720.246 451.381C723.494 451.381 730.963 444.109 735.997 463.984H689.23V424.234C693.452 424.234 694.427 444.594 698.974 444.594C703.358 444.594 706.443 438.777 710.178 438.777C713.263 438.777 716.349 451.381 720.246 451.381Z" fill="#A26AE9"/>
<path d="M83.4837 40.3359L101.44 58.2926L83.4837 76.2493L65.527 58.2926L83.4837 40.3359Z" fill="#F5F5F5"/>
<path d="M64.9437 40.3359L82.9004 58.2926L64.9437 76.2493L46.987 58.2926L64.9437 40.3359Z" fill="#43BE5C"/>
<circle cx="643.378" cy="87.2884" r="3.4993" fill="#43BE5C"/>
<circle cx="630.378" cy="303.249" r="3.4993" fill="#43BE5C"/>
<circle cx="187.958" cy="327.74" r="8.99819" fill="#FF842B"/>
<circle cx="171.463" cy="109.484" r="3.4993" fill="#DD3B41"/>
<circle cx="91.9787" cy="131.78" r="3.9992" fill="#FF842B"/>
<path d="M383.927 288.742L386.394 293.263L390.922 295.737L386.394 298.212L383.927 302.739L381.453 298.212L376.925 295.737L381.453 293.263L383.927 288.742Z" fill="#FFB800"/>
<path d="M715.866 240.75L718.333 245.27L722.86 247.745L718.333 250.219L715.866 254.747L713.391 250.219L708.863 247.745L713.391 245.27L715.866 240.75Z" fill="#FFB800"/>
<path d="M540.395 30.7969L541.276 32.4113L542.894 33.2951L541.276 34.1788L540.395 35.7959L539.512 34.1788L537.895 33.2951L539.512 32.4113L540.395 30.7969Z" fill="#FF842B"/>
<path d="M635.877 117.776L686.227 117.776L635.877 168.125L635.877 117.776Z" fill="#F5F5F5"/>
<path d="M651.309 152.687L670.792 152.688L670.792 133.205L651.309 133.205L651.309 152.687Z" fill="#FFB800"/>
<path d="M670.792 133.205L670.792 152.688L651.309 152.687L670.792 133.205Z" fill="#7128CE"/>
</svg>
