<svg width="64" height="64" viewBox="0 0 64 64" fill="none" xmlns="http://www.w3.org/2000/svg">
<rect width="64" height="64" rx="32" fill="#FAFAFA"/>
<path d="M43.6667 17.0001H42V15.3334C42 14.4167 41.25 13.6667 40.3333 13.6667C39.4167 13.6667 38.6667 14.4167 38.6667 15.3334V17.0001H25.3333V15.3334C25.3333 14.4167 24.5833 13.6667 23.6667 13.6667C22.75 13.6667 22 14.4167 22 15.3334V17.0001H20.3333C18.4833 17.0001 17.0167 18.5001 17.0167 20.3334L17 43.6667C17 45.5001 18.4833 47.0001 20.3333 47.0001H43.6667C45.5 47.0001 47 45.5001 47 43.6667V20.3334C47 18.5001 45.5 17.0001 43.6667 17.0001ZM42 43.6667H22C21.0833 43.6667 20.3333 42.9167 20.3333 42.0001V25.3334H43.6667V42.0001C43.6667 42.9167 42.9167 43.6667 42 43.6667Z" fill="#FF842B"/>
<rect x="30.5" y="27" width="3" height="9" rx="1.5" fill="#FF842B"/>
<rect x="30.5" y="38" width="3" height="4" rx="1.5" fill="#FF842B"/>
</svg>
