<svg width="64" height="64" viewBox="0 0 64 64" fill="none" xmlns="http://www.w3.org/2000/svg">
<rect width="64" height="64" rx="32" fill="#FAFAFA"/>
<path d="M28.4 39.45L31.5833 36.2666L34.7667 39.45C35.25 39.9333 36.05 39.9333 36.5333 39.45C37.0167 38.9666 37.0167 38.1666 36.5333 37.6833L33.35 34.5L36.5333 31.3166C37.0167 30.8333 37.0167 30.0333 36.5333 29.55C36.05 29.0666 35.25 29.0666 34.7667 29.55L31.5833 32.7333L28.4 29.55C27.9167 29.0666 27.1167 29.0666 26.6333 29.55C26.15 30.0333 26.15 30.8333 26.6333 31.3166L29.8167 34.5L26.6333 37.6833C26.15 38.1666 26.15 38.9666 26.6333 39.45C27.1167 39.9333 27.9167 39.9333 28.4 39.45ZM43.6667 17H42V15.3333C42 14.4166 41.25 13.6666 40.3333 13.6666C39.4167 13.6666 38.6667 14.4166 38.6667 15.3333V17H25.3333V15.3333C25.3333 14.4166 24.5833 13.6666 23.6667 13.6666C22.75 13.6666 22 14.4166 22 15.3333V17H20.3333C18.4833 17 17.0167 18.5 17.0167 20.3333L17 43.6666C17 45.5 18.4833 47 20.3333 47H43.6667C45.5 47 47 45.5 47 43.6666V20.3333C47 18.5 45.5 17 43.6667 17ZM42 43.6666H22C21.0833 43.6666 20.3333 42.9166 20.3333 42V25.3333H43.6667V42C43.6667 42.9166 42.9167 43.6666 42 43.6666Z" fill="#A70B11"/>
</svg>
