<svg width="408" height="176" viewBox="0 0 408 176" fill="none" xmlns="http://www.w3.org/2000/svg">
<rect x="0.5" y="0.5" width="407" height="175" fill="white"/>
<rect x="24" y="56" width="64" height="64" rx="32" fill="#FAFAFA"/>
<path d="M65.3335 86.0167L62.9835 83.6667L68.9168 77.75L71.2668 80.1C71.0835 80.15 65.3335 86.0167 65.3335 86.0167ZM57.6668 73H54.3335V81.3333H57.6668V73ZM46.6668 86.0167L49.0168 83.6667L43.1002 77.7333L40.7335 80.1C40.9168 80.15 46.6668 86.0167 46.6668 86.0167ZM69.3335 91.3333H63.6335C62.3502 94.2667 59.4002 96.3333 56.0002 96.3333C52.6002 96.3333 49.6502 94.2667 48.3668 91.3333H42.6668V99.6667H69.3335V91.3333ZM69.3335 88C71.1668 88 72.6668 89.5 72.6668 91.3333V99.6667C72.6668 101.5 71.1668 103 69.3335 103H42.6668C40.8335 103 39.3335 101.5 39.3335 99.6667V91.3333C39.3335 89.5 40.8335 88 42.6668 88H51.0002C51.0002 90.7667 53.2335 93 56.0002 93C58.7668 93 61.0002 90.7667 61.0002 88H69.3335Z" fill="#169F32"/>
<path d="M112.688 36.416C112.688 35.328 112.933 34.352 113.424 33.488C113.915 32.6133 114.581 31.9307 115.424 31.44C116.277 30.9493 117.221 30.704 118.256 30.704C119.472 30.704 120.533 30.9973 121.44 31.584C122.347 32.1707 123.008 33.0027 123.424 34.08H121.68C121.371 33.408 120.923 32.8907 120.336 32.528C119.76 32.1653 119.067 31.984 118.256 31.984C117.477 31.984 116.779 32.1653 116.16 32.528C115.541 32.8907 115.056 33.408 114.704 34.08C114.352 34.7413 114.176 35.52 114.176 36.416C114.176 37.3013 114.352 38.08 114.704 38.752C115.056 39.4133 115.541 39.9253 116.16 40.288C116.779 40.6507 117.477 40.832 118.256 40.832C119.067 40.832 119.76 40.656 120.336 40.304C120.923 39.9413 121.371 39.424 121.68 38.752H123.424C123.008 39.8187 122.347 40.6453 121.44 41.232C120.533 41.808 119.472 42.096 118.256 42.096C117.221 42.096 116.277 41.856 115.424 41.376C114.581 40.8853 113.915 40.208 113.424 39.344C112.933 38.48 112.688 37.504 112.688 36.416ZM129.415 42.144C128.594 42.144 127.847 41.9573 127.175 41.584C126.514 41.2107 125.991 40.6827 125.607 40C125.234 39.3067 125.047 38.5067 125.047 37.6C125.047 36.704 125.239 35.9147 125.623 35.232C126.018 34.5387 126.551 34.0107 127.223 33.648C127.895 33.2747 128.647 33.088 129.479 33.088C130.311 33.088 131.063 33.2747 131.735 33.648C132.407 34.0107 132.935 34.5333 133.319 35.216C133.714 35.8987 133.911 36.6933 133.911 37.6C133.911 38.5067 133.709 39.3067 133.303 40C132.909 40.6827 132.37 41.2107 131.687 41.584C131.005 41.9573 130.247 42.144 129.415 42.144ZM129.415 40.864C129.938 40.864 130.429 40.7413 130.887 40.496C131.346 40.2507 131.714 39.8827 131.991 39.392C132.279 38.9013 132.423 38.304 132.423 37.6C132.423 36.896 132.285 36.2987 132.007 35.808C131.73 35.3173 131.367 34.9547 130.919 34.72C130.471 34.4747 129.986 34.352 129.463 34.352C128.93 34.352 128.439 34.4747 127.991 34.72C127.554 34.9547 127.202 35.3173 126.935 35.808C126.669 36.2987 126.535 36.896 126.535 37.6C126.535 38.3147 126.663 38.9173 126.919 39.408C127.186 39.8987 127.538 40.2667 127.975 40.512C128.413 40.7467 128.893 40.864 129.415 40.864ZM143.602 33.232V42H142.146V40.704C141.868 41.152 141.479 41.504 140.978 41.76C140.487 42.0053 139.943 42.128 139.346 42.128C138.663 42.128 138.05 41.9893 137.506 41.712C136.962 41.424 136.53 40.9973 136.21 40.432C135.9 39.8667 135.746 39.1787 135.746 38.368V33.232H137.186V38.176C137.186 39.04 137.404 39.7067 137.842 40.176C138.279 40.6347 138.876 40.864 139.634 40.864C140.412 40.864 141.026 40.624 141.474 40.144C141.922 39.664 142.146 38.9653 142.146 38.048V33.232H143.602ZM147.516 34.656C147.772 34.1547 148.135 33.7653 148.604 33.488C149.084 33.2107 149.665 33.072 150.348 33.072V34.576H149.964C148.332 34.576 147.516 35.4613 147.516 37.232V42H146.06V33.232H147.516V34.656ZM155.133 42.144C154.461 42.144 153.858 42.032 153.325 41.808C152.792 41.5733 152.37 41.2533 152.061 40.848C151.752 40.432 151.581 39.9573 151.549 39.424H153.053C153.096 39.8613 153.298 40.2187 153.661 40.496C154.034 40.7733 154.52 40.912 155.117 40.912C155.672 40.912 156.109 40.7893 156.429 40.544C156.749 40.2987 156.909 39.9893 156.909 39.616C156.909 39.232 156.738 38.9493 156.397 38.768C156.056 38.576 155.528 38.3893 154.813 38.208C154.162 38.0373 153.629 37.8667 153.213 37.696C152.808 37.5147 152.456 37.2533 152.157 36.912C151.869 36.56 151.725 36.1013 151.725 35.536C151.725 35.088 151.858 34.6773 152.125 34.304C152.392 33.9307 152.77 33.6373 153.261 33.424C153.752 33.2 154.312 33.088 154.941 33.088C155.912 33.088 156.696 33.3333 157.293 33.824C157.89 34.3147 158.21 34.9867 158.253 35.84H156.797C156.765 35.3813 156.578 35.0133 156.237 34.736C155.906 34.4587 155.458 34.32 154.893 34.32C154.37 34.32 153.954 34.432 153.645 34.656C153.336 34.88 153.181 35.1733 153.181 35.536C153.181 35.824 153.272 36.064 153.453 36.256C153.645 36.4373 153.88 36.5867 154.157 36.704C154.445 36.8107 154.84 36.9333 155.341 37.072C155.97 37.2427 156.482 37.4133 156.877 37.584C157.272 37.744 157.608 37.9893 157.885 38.32C158.173 38.6507 158.322 39.0827 158.333 39.616C158.333 40.096 158.2 40.528 157.933 40.912C157.666 41.296 157.288 41.6 156.797 41.824C156.317 42.0373 155.762 42.144 155.133 42.144ZM168.388 37.28C168.388 37.5573 168.372 37.8507 168.34 38.16H161.332C161.386 39.024 161.679 39.7013 162.212 40.192C162.756 40.672 163.412 40.912 164.18 40.912C164.81 40.912 165.332 40.768 165.748 40.48C166.175 40.1813 166.474 39.7867 166.644 39.296H168.212C167.978 40.1387 167.508 40.8267 166.804 41.36C166.1 41.8827 165.226 42.144 164.18 42.144C163.348 42.144 162.602 41.9573 161.94 41.584C161.29 41.2107 160.778 40.6827 160.404 40C160.031 39.3067 159.844 38.5067 159.844 37.6C159.844 36.6933 160.026 35.8987 160.388 35.216C160.751 34.5333 161.258 34.0107 161.908 33.648C162.57 33.2747 163.327 33.088 164.18 33.088C165.012 33.088 165.748 33.2693 166.388 33.632C167.028 33.9947 167.519 34.496 167.86 35.136C168.212 35.7653 168.388 36.48 168.388 37.28ZM166.884 36.976C166.884 36.4213 166.762 35.9467 166.516 35.552C166.271 35.1467 165.935 34.8427 165.508 34.64C165.092 34.4267 164.628 34.32 164.116 34.32C163.38 34.32 162.751 34.5547 162.228 35.024C161.716 35.4933 161.423 36.144 161.348 36.976H166.884ZM176 30.848V37.904C176 38.896 176.24 39.632 176.72 40.112C177.21 40.592 177.888 40.832 178.752 40.832C179.605 40.832 180.272 40.592 180.752 40.112C181.242 39.632 181.488 38.896 181.488 37.904V30.848H182.944V37.888C182.944 38.816 182.757 39.6 182.384 40.24C182.01 40.8693 181.504 41.3387 180.864 41.648C180.234 41.9573 179.525 42.112 178.736 42.112C177.946 42.112 177.232 41.9573 176.592 41.648C175.962 41.3387 175.461 40.8693 175.088 40.24C174.725 39.6 174.544 38.816 174.544 37.888V30.848H176ZM186.829 34.848C187.117 34.3467 187.543 33.9307 188.109 33.6C188.685 33.2587 189.351 33.088 190.109 33.088C190.887 33.088 191.591 33.2747 192.221 33.648C192.861 34.0213 193.362 34.5493 193.725 35.232C194.087 35.904 194.269 36.688 194.269 37.584C194.269 38.4693 194.087 39.2587 193.725 39.952C193.362 40.6453 192.861 41.184 192.221 41.568C191.591 41.952 190.887 42.144 190.109 42.144C189.362 42.144 188.701 41.9787 188.125 41.648C187.559 41.3067 187.127 40.8853 186.829 40.384V46.16H185.373V33.232H186.829V34.848ZM192.781 37.584C192.781 36.9227 192.647 36.3467 192.381 35.856C192.114 35.3653 191.751 34.992 191.293 34.736C190.845 34.48 190.349 34.352 189.805 34.352C189.271 34.352 188.775 34.4853 188.317 34.752C187.869 35.008 187.506 35.3867 187.229 35.888C186.962 36.3787 186.829 36.9493 186.829 37.6C186.829 38.2613 186.962 38.8427 187.229 39.344C187.506 39.8347 187.869 40.2133 188.317 40.48C188.775 40.736 189.271 40.864 189.805 40.864C190.349 40.864 190.845 40.736 191.293 40.48C191.751 40.2133 192.114 39.8347 192.381 39.344C192.647 38.8427 192.781 38.256 192.781 37.584ZM195.641 37.584C195.641 36.688 195.822 35.904 196.185 35.232C196.548 34.5493 197.044 34.0213 197.673 33.648C198.313 33.2747 199.028 33.088 199.817 33.088C200.5 33.088 201.134 33.248 201.721 33.568C202.308 33.8773 202.756 34.288 203.065 34.8V30.16H204.537V42H203.065V40.352C202.777 40.8747 202.35 41.3067 201.785 41.648C201.22 41.9787 200.558 42.144 199.801 42.144C199.022 42.144 198.313 41.952 197.673 41.568C197.044 41.184 196.548 40.6453 196.185 39.952C195.822 39.2587 195.641 38.4693 195.641 37.584ZM203.065 37.6C203.065 36.9387 202.932 36.3627 202.665 35.872C202.398 35.3813 202.036 35.008 201.577 34.752C201.129 34.4853 200.633 34.352 200.089 34.352C199.545 34.352 199.049 34.48 198.601 34.736C198.153 34.992 197.796 35.3653 197.529 35.856C197.262 36.3467 197.129 36.9227 197.129 37.584C197.129 38.256 197.262 38.8427 197.529 39.344C197.796 39.8347 198.153 40.2133 198.601 40.48C199.049 40.736 199.545 40.864 200.089 40.864C200.633 40.864 201.129 40.736 201.577 40.48C202.036 40.2133 202.398 39.8347 202.665 39.344C202.932 38.8427 203.065 38.2613 203.065 37.6ZM206.454 37.584C206.454 36.688 206.635 35.904 206.998 35.232C207.36 34.5493 207.856 34.0213 208.486 33.648C209.126 33.2747 209.835 33.088 210.614 33.088C211.382 33.088 212.048 33.2533 212.614 33.584C213.179 33.9147 213.6 34.3307 213.878 34.832V33.232H215.35V42H213.878V40.368C213.59 40.88 213.158 41.3067 212.582 41.648C212.016 41.9787 211.355 42.144 210.598 42.144C209.819 42.144 209.115 41.952 208.486 41.568C207.856 41.184 207.36 40.6453 206.998 39.952C206.635 39.2587 206.454 38.4693 206.454 37.584ZM213.878 37.6C213.878 36.9387 213.744 36.3627 213.478 35.872C213.211 35.3813 212.848 35.008 212.39 34.752C211.942 34.4853 211.446 34.352 210.902 34.352C210.358 34.352 209.862 34.48 209.414 34.736C208.966 34.992 208.608 35.3653 208.342 35.856C208.075 36.3467 207.942 36.9227 207.942 37.584C207.942 38.256 208.075 38.8427 208.342 39.344C208.608 39.8347 208.966 40.2133 209.414 40.48C209.862 40.736 210.358 40.864 210.902 40.864C211.446 40.864 211.942 40.736 212.39 40.48C212.848 40.2133 213.211 39.8347 213.478 39.344C213.744 38.8427 213.878 38.2613 213.878 37.6ZM219.586 34.432V39.6C219.586 40.0267 219.677 40.3307 219.858 40.512C220.039 40.6827 220.354 40.768 220.802 40.768H221.874V42H220.562C219.751 42 219.143 41.8133 218.738 41.44C218.333 41.0667 218.13 40.4533 218.13 39.6V34.432H216.994V33.232H218.13V31.024H219.586V33.232H221.874V34.432H219.586ZM231.638 37.28C231.638 37.5573 231.622 37.8507 231.59 38.16H224.582C224.636 39.024 224.929 39.7013 225.462 40.192C226.006 40.672 226.662 40.912 227.43 40.912C228.06 40.912 228.582 40.768 228.998 40.48C229.425 40.1813 229.724 39.7867 229.894 39.296H231.462C231.228 40.1387 230.758 40.8267 230.054 41.36C229.35 41.8827 228.476 42.144 227.43 42.144C226.598 42.144 225.852 41.9573 225.19 41.584C224.54 41.2107 224.028 40.6827 223.654 40C223.281 39.3067 223.094 38.5067 223.094 37.6C223.094 36.6933 223.276 35.8987 223.638 35.216C224.001 34.5333 224.508 34.0107 225.158 33.648C225.82 33.2747 226.577 33.088 227.43 33.088C228.262 33.088 228.998 33.2693 229.638 33.632C230.278 33.9947 230.769 34.496 231.11 35.136C231.462 35.7653 231.638 36.48 231.638 37.28ZM230.134 36.976C230.134 36.4213 230.012 35.9467 229.766 35.552C229.521 35.1467 229.185 34.8427 228.758 34.64C228.342 34.4267 227.878 34.32 227.366 34.32C226.63 34.32 226.001 34.5547 225.478 35.024C224.966 35.4933 224.673 36.144 224.598 36.976H230.134ZM236.664 42.144C235.992 42.144 235.389 42.032 234.856 41.808C234.323 41.5733 233.901 41.2533 233.592 40.848C233.283 40.432 233.112 39.9573 233.08 39.424H234.584C234.627 39.8613 234.829 40.2187 235.192 40.496C235.565 40.7733 236.051 40.912 236.648 40.912C237.203 40.912 237.64 40.7893 237.96 40.544C238.28 40.2987 238.44 39.9893 238.44 39.616C238.44 39.232 238.269 38.9493 237.928 38.768C237.587 38.576 237.059 38.3893 236.344 38.208C235.693 38.0373 235.16 37.8667 234.744 37.696C234.339 37.5147 233.987 37.2533 233.688 36.912C233.4 36.56 233.256 36.1013 233.256 35.536C233.256 35.088 233.389 34.6773 233.656 34.304C233.923 33.9307 234.301 33.6373 234.792 33.424C235.283 33.2 235.843 33.088 236.472 33.088C237.443 33.088 238.227 33.3333 238.824 33.824C239.421 34.3147 239.741 34.9867 239.784 35.84H238.328C238.296 35.3813 238.109 35.0133 237.768 34.736C237.437 34.4587 236.989 34.32 236.424 34.32C235.901 34.32 235.485 34.432 235.176 34.656C234.867 34.88 234.712 35.1733 234.712 35.536C234.712 35.824 234.803 36.064 234.984 36.256C235.176 36.4373 235.411 36.5867 235.688 36.704C235.976 36.8107 236.371 36.9333 236.872 37.072C237.501 37.2427 238.013 37.4133 238.408 37.584C238.803 37.744 239.139 37.9893 239.416 38.32C239.704 38.6507 239.853 39.0827 239.864 39.616C239.864 40.096 239.731 40.528 239.464 40.912C239.197 41.296 238.819 41.6 238.328 41.824C237.848 42.0373 237.293 42.144 236.664 42.144Z" fill="#7D7D7D"/>
<path d="M129.64 65.49L125.932 78H123.61L120.982 68.532L118.192 78L115.888 78.018L112.342 65.49H114.52L117.112 75.678L119.92 65.49H122.224L124.834 75.624L127.444 65.49H129.64ZM140.422 72.798C140.422 73.17 140.398 73.506 140.35 73.806H132.772C132.832 74.598 133.126 75.234 133.654 75.714C134.182 76.194 134.83 76.434 135.598 76.434C136.702 76.434 137.482 75.972 137.938 75.048H140.152C139.852 75.96 139.306 76.71 138.514 77.298C137.734 77.874 136.762 78.162 135.598 78.162C134.65 78.162 133.798 77.952 133.042 77.532C132.298 77.1 131.71 76.5 131.278 75.732C130.858 74.952 130.648 74.052 130.648 73.032C130.648 72.012 130.852 71.118 131.26 70.35C131.68 69.57 132.262 68.97 133.006 68.55C133.762 68.13 134.626 67.92 135.598 67.92C136.534 67.92 137.368 68.124 138.1 68.532C138.832 68.94 139.402 69.516 139.81 70.26C140.218 70.992 140.422 71.838 140.422 72.798ZM138.28 72.15C138.268 71.394 137.998 70.788 137.47 70.332C136.942 69.876 136.288 69.648 135.508 69.648C134.8 69.648 134.194 69.876 133.69 70.332C133.186 70.776 132.886 71.382 132.79 72.15H138.28ZM152.248 67.92C153.004 67.92 153.676 68.082 154.264 68.406C154.864 68.73 155.332 69.21 155.668 69.846C156.016 70.482 156.19 71.25 156.19 72.15V78H154.156V72.456C154.156 71.568 153.934 70.89 153.49 70.422C153.046 69.942 152.44 69.702 151.672 69.702C150.904 69.702 150.292 69.942 149.836 70.422C149.392 70.89 149.17 71.568 149.17 72.456V78H147.118V64.68H149.17V69.234C149.518 68.814 149.956 68.49 150.484 68.262C151.024 68.034 151.612 67.92 152.248 67.92ZM163.109 78.162C162.173 78.162 161.327 77.952 160.571 77.532C159.815 77.1 159.221 76.5 158.789 75.732C158.357 74.952 158.141 74.052 158.141 73.032C158.141 72.024 158.363 71.13 158.807 70.35C159.251 69.57 159.857 68.97 160.625 68.55C161.393 68.13 162.251 67.92 163.199 67.92C164.147 67.92 165.005 68.13 165.773 68.55C166.541 68.97 167.147 69.57 167.591 70.35C168.035 71.13 168.257 72.024 168.257 73.032C168.257 74.04 168.029 74.934 167.573 75.714C167.117 76.494 166.493 77.1 165.701 77.532C164.921 77.952 164.057 78.162 163.109 78.162ZM163.109 76.38C163.637 76.38 164.129 76.254 164.585 76.002C165.053 75.75 165.431 75.372 165.719 74.868C166.007 74.364 166.151 73.752 166.151 73.032C166.151 72.312 166.013 71.706 165.737 71.214C165.461 70.71 165.095 70.332 164.639 70.08C164.183 69.828 163.691 69.702 163.163 69.702C162.635 69.702 162.143 69.828 161.687 70.08C161.243 70.332 160.889 70.71 160.625 71.214C160.361 71.706 160.229 72.312 160.229 73.032C160.229 74.1 160.499 74.928 161.039 75.516C161.591 76.092 162.281 76.38 163.109 76.38ZM172.338 69.54C172.686 69.084 173.16 68.7 173.76 68.388C174.36 68.076 175.038 67.92 175.794 67.92C176.658 67.92 177.444 68.136 178.152 68.568C178.872 68.988 179.436 69.582 179.844 70.35C180.252 71.118 180.456 72 180.456 72.996C180.456 73.992 180.252 74.886 179.844 75.678C179.436 76.458 178.872 77.07 178.152 77.514C177.444 77.946 176.658 78.162 175.794 78.162C175.038 78.162 174.366 78.012 173.778 77.712C173.19 77.4 172.71 77.016 172.338 76.56V82.716H170.286V68.082H172.338V69.54ZM178.368 72.996C178.368 72.312 178.224 71.724 177.936 71.232C177.66 70.728 177.288 70.35 176.82 70.098C176.364 69.834 175.872 69.702 175.344 69.702C174.828 69.702 174.336 69.834 173.868 70.098C173.412 70.362 173.04 70.746 172.752 71.25C172.476 71.754 172.338 72.348 172.338 73.032C172.338 73.716 172.476 74.316 172.752 74.832C173.04 75.336 173.412 75.72 173.868 75.984C174.336 76.248 174.828 76.38 175.344 76.38C175.872 76.38 176.364 76.248 176.82 75.984C177.288 75.708 177.66 75.312 177.936 74.796C178.224 74.28 178.368 73.68 178.368 72.996ZM191.575 72.798C191.575 73.17 191.551 73.506 191.503 73.806H183.925C183.985 74.598 184.279 75.234 184.807 75.714C185.335 76.194 185.983 76.434 186.751 76.434C187.855 76.434 188.635 75.972 189.091 75.048H191.305C191.005 75.96 190.459 76.71 189.667 77.298C188.887 77.874 187.915 78.162 186.751 78.162C185.803 78.162 184.951 77.952 184.195 77.532C183.451 77.1 182.863 76.5 182.431 75.732C182.011 74.952 181.801 74.052 181.801 73.032C181.801 72.012 182.005 71.118 182.413 70.35C182.833 69.57 183.415 68.97 184.159 68.55C184.915 68.13 185.779 67.92 186.751 67.92C187.687 67.92 188.521 68.124 189.253 68.532C189.985 68.94 190.555 69.516 190.963 70.26C191.371 70.992 191.575 71.838 191.575 72.798ZM189.433 72.15C189.421 71.394 189.151 70.788 188.623 70.332C188.095 69.876 187.441 69.648 186.661 69.648C185.953 69.648 185.347 69.876 184.843 70.332C184.339 70.776 184.039 71.382 183.943 72.15H189.433ZM207.198 68.082L201.114 82.662H198.99L201.006 77.838L197.1 68.082H199.386L202.176 75.642L205.074 68.082H207.198ZM213.048 78.162C212.112 78.162 211.266 77.952 210.51 77.532C209.754 77.1 209.16 76.5 208.728 75.732C208.296 74.952 208.08 74.052 208.08 73.032C208.08 72.024 208.302 71.13 208.746 70.35C209.19 69.57 209.796 68.97 210.564 68.55C211.332 68.13 212.19 67.92 213.138 67.92C214.086 67.92 214.944 68.13 215.712 68.55C216.48 68.97 217.086 69.57 217.53 70.35C217.974 71.13 218.196 72.024 218.196 73.032C218.196 74.04 217.968 74.934 217.512 75.714C217.056 76.494 216.432 77.1 215.64 77.532C214.86 77.952 213.996 78.162 213.048 78.162ZM213.048 76.38C213.576 76.38 214.068 76.254 214.524 76.002C214.992 75.75 215.37 75.372 215.658 74.868C215.946 74.364 216.09 73.752 216.09 73.032C216.09 72.312 215.952 71.706 215.676 71.214C215.4 70.71 215.034 70.332 214.578 70.08C214.122 69.828 213.63 69.702 213.102 69.702C212.574 69.702 212.082 69.828 211.626 70.08C211.182 70.332 210.828 70.71 210.564 71.214C210.3 71.706 210.168 72.312 210.168 73.032C210.168 74.1 210.438 74.928 210.978 75.516C211.53 76.092 212.22 76.38 213.048 76.38ZM229.207 68.082V78H227.155V76.83C226.831 77.238 226.405 77.562 225.877 77.802C225.361 78.03 224.809 78.144 224.221 78.144C223.441 78.144 222.739 77.982 222.115 77.658C221.503 77.334 221.017 76.854 220.657 76.218C220.309 75.582 220.135 74.814 220.135 73.914V68.082H222.169V73.608C222.169 74.496 222.391 75.18 222.835 75.66C223.279 76.128 223.885 76.362 224.653 76.362C225.421 76.362 226.027 76.128 226.471 75.66C226.927 75.18 227.155 74.496 227.155 73.608V68.082H229.207ZM232.238 65.49H234.47L232.58 69.774H231.14L232.238 65.49ZM238.326 69.522C238.626 69.018 239.022 68.628 239.514 68.352C240.018 68.064 240.612 67.92 241.296 67.92V70.044H240.774C239.97 70.044 239.358 70.248 238.938 70.656C238.53 71.064 238.326 71.772 238.326 72.78V78H236.274V68.082H238.326V69.522ZM252.272 72.798C252.272 73.17 252.248 73.506 252.2 73.806H244.622C244.682 74.598 244.976 75.234 245.504 75.714C246.032 76.194 246.68 76.434 247.448 76.434C248.552 76.434 249.332 75.972 249.788 75.048H252.002C251.702 75.96 251.156 76.71 250.364 77.298C249.584 77.874 248.612 78.162 247.448 78.162C246.5 78.162 245.648 77.952 244.892 77.532C244.148 77.1 243.56 76.5 243.128 75.732C242.708 74.952 242.498 74.052 242.498 73.032C242.498 72.012 242.702 71.118 243.11 70.35C243.53 69.57 244.112 68.97 244.856 68.55C245.612 68.13 246.476 67.92 247.448 67.92C248.384 67.92 249.218 68.124 249.95 68.532C250.682 68.94 251.252 69.516 251.66 70.26C252.068 70.992 252.272 71.838 252.272 72.798ZM250.13 72.15C250.118 71.394 249.848 70.788 249.32 70.332C248.792 69.876 248.138 69.648 247.358 69.648C246.65 69.648 246.044 69.876 245.54 70.332C245.036 70.776 244.736 71.382 244.64 72.15H250.13ZM258.283 72.996C258.283 72 258.487 71.118 258.895 70.35C259.315 69.582 259.879 68.988 260.587 68.568C261.307 68.136 262.099 67.92 262.963 67.92C263.743 67.92 264.421 68.076 264.997 68.388C265.585 68.688 266.053 69.066 266.401 69.522V68.082H268.471V78H266.401V76.524C266.053 76.992 265.579 77.382 264.979 77.694C264.379 78.006 263.695 78.162 262.927 78.162C262.075 78.162 261.295 77.946 260.587 77.514C259.879 77.07 259.315 76.458 258.895 75.678C258.487 74.886 258.283 73.992 258.283 72.996ZM266.401 73.032C266.401 72.348 266.257 71.754 265.969 71.25C265.693 70.746 265.327 70.362 264.871 70.098C264.415 69.834 263.923 69.702 263.395 69.702C262.867 69.702 262.375 69.834 261.919 70.098C261.463 70.35 261.091 70.728 260.803 71.232C260.527 71.724 260.389 72.312 260.389 72.996C260.389 73.68 260.527 74.28 260.803 74.796C261.091 75.312 261.463 75.708 261.919 75.984C262.387 76.248 262.879 76.38 263.395 76.38C263.923 76.38 264.415 76.248 264.871 75.984C265.327 75.72 265.693 75.336 265.969 74.832C266.257 74.316 266.401 73.716 266.401 73.032ZM273.218 64.68V78H271.166V64.68H273.218ZM277.965 64.68V78H275.913V64.68H277.965ZM288.934 78.162C288.154 78.162 287.452 78.024 286.828 77.748C286.216 77.46 285.73 77.076 285.37 76.596C285.01 76.104 284.818 75.558 284.794 74.958H286.918C286.954 75.378 287.152 75.732 287.512 76.02C287.884 76.296 288.346 76.434 288.898 76.434C289.474 76.434 289.918 76.326 290.23 76.11C290.554 75.882 290.716 75.594 290.716 75.246C290.716 74.874 290.536 74.598 290.176 74.418C289.828 74.238 289.27 74.04 288.502 73.824C287.758 73.62 287.152 73.422 286.684 73.23C286.216 73.038 285.808 72.744 285.46 72.348C285.124 71.952 284.956 71.43 284.956 70.782C284.956 70.254 285.112 69.774 285.424 69.342C285.736 68.898 286.18 68.55 286.756 68.298C287.344 68.046 288.016 67.92 288.772 67.92C289.9 67.92 290.806 68.208 291.49 68.784C292.186 69.348 292.558 70.122 292.606 71.106H290.554C290.518 70.662 290.338 70.308 290.014 70.044C289.69 69.78 289.252 69.648 288.7 69.648C288.16 69.648 287.746 69.75 287.458 69.954C287.17 70.158 287.026 70.428 287.026 70.764C287.026 71.028 287.122 71.25 287.314 71.43C287.506 71.61 287.74 71.754 288.016 71.862C288.292 71.958 288.7 72.084 289.24 72.24C289.96 72.432 290.548 72.63 291.004 72.834C291.472 73.026 291.874 73.314 292.21 73.698C292.546 74.082 292.72 74.592 292.732 75.228C292.732 75.792 292.576 76.296 292.264 76.74C291.952 77.184 291.508 77.532 290.932 77.784C290.368 78.036 289.702 78.162 288.934 78.162ZM304.04 72.798C304.04 73.17 304.016 73.506 303.968 73.806H296.39C296.45 74.598 296.744 75.234 297.272 75.714C297.8 76.194 298.448 76.434 299.216 76.434C300.32 76.434 301.1 75.972 301.556 75.048H303.77C303.47 75.96 302.924 76.71 302.132 77.298C301.352 77.874 300.38 78.162 299.216 78.162C298.268 78.162 297.416 77.952 296.66 77.532C295.916 77.1 295.328 76.5 294.896 75.732C294.476 74.952 294.266 74.052 294.266 73.032C294.266 72.012 294.47 71.118 294.878 70.35C295.298 69.57 295.88 68.97 296.624 68.55C297.38 68.13 298.244 67.92 299.216 67.92C300.152 67.92 300.986 68.124 301.718 68.532C302.45 68.94 303.02 69.516 303.428 70.26C303.836 70.992 304.04 71.838 304.04 72.798ZM301.898 72.15C301.886 71.394 301.616 70.788 301.088 70.332C300.56 69.876 299.906 69.648 299.126 69.648C298.418 69.648 297.812 69.876 297.308 70.332C296.804 70.776 296.504 71.382 296.408 72.15H301.898ZM308.453 69.756V75.246C308.453 75.618 308.537 75.888 308.705 76.056C308.885 76.212 309.185 76.29 309.605 76.29H310.865V78H309.245C308.321 78 307.613 77.784 307.121 77.352C306.629 76.92 306.383 76.218 306.383 75.246V69.756H305.213V68.082H306.383V65.616H308.453V68.082H310.865V69.756H308.453ZM321.59 69.756H319.754V78H317.684V69.756H316.514V68.082H317.684V67.38C317.684 66.24 317.984 65.412 318.584 64.896C319.196 64.368 320.15 64.104 321.446 64.104V65.814C320.822 65.814 320.384 65.934 320.132 66.174C319.88 66.402 319.754 66.804 319.754 67.38V68.082H321.59V69.756ZM327.711 78.162C326.775 78.162 325.929 77.952 325.173 77.532C324.417 77.1 323.823 76.5 323.391 75.732C322.959 74.952 322.743 74.052 322.743 73.032C322.743 72.024 322.965 71.13 323.409 70.35C323.853 69.57 324.459 68.97 325.227 68.55C325.995 68.13 326.853 67.92 327.801 67.92C328.749 67.92 329.607 68.13 330.375 68.55C331.143 68.97 331.749 69.57 332.193 70.35C332.637 71.13 332.859 72.024 332.859 73.032C332.859 74.04 332.631 74.934 332.175 75.714C331.719 76.494 331.095 77.1 330.303 77.532C329.523 77.952 328.659 78.162 327.711 78.162ZM327.711 76.38C328.239 76.38 328.731 76.254 329.187 76.002C329.655 75.75 330.033 75.372 330.321 74.868C330.609 74.364 330.753 73.752 330.753 73.032C330.753 72.312 330.615 71.706 330.339 71.214C330.063 70.71 329.697 70.332 329.241 70.08C328.785 69.828 328.293 69.702 327.765 69.702C327.237 69.702 326.745 69.828 326.289 70.08C325.845 70.332 325.491 70.71 325.227 71.214C324.963 71.706 324.831 72.312 324.831 73.032C324.831 74.1 325.101 74.928 325.641 75.516C326.193 76.092 326.883 76.38 327.711 76.38ZM336.939 69.522C337.239 69.018 337.635 68.628 338.127 68.352C338.631 68.064 339.225 67.92 339.909 67.92V70.044H339.387C338.583 70.044 337.971 70.248 337.551 70.656C337.143 71.064 336.939 71.772 336.939 72.78V78H334.887V68.082H336.939V69.522ZM115.744 101.756V107.246C115.744 107.618 115.828 107.888 115.996 108.056C116.176 108.212 116.476 108.29 116.896 108.29H118.156V110H116.536C115.612 110 114.904 109.784 114.412 109.352C113.92 108.92 113.674 108.218 113.674 107.246V101.756H112.504V100.082H113.674V97.616H115.744V100.082H118.156V101.756H115.744ZM124.349 110.162C123.413 110.162 122.567 109.952 121.811 109.532C121.055 109.1 120.461 108.5 120.029 107.732C119.597 106.952 119.381 106.052 119.381 105.032C119.381 104.024 119.603 103.13 120.047 102.35C120.491 101.57 121.097 100.97 121.865 100.55C122.633 100.13 123.491 99.92 124.439 99.92C125.387 99.92 126.245 100.13 127.013 100.55C127.781 100.97 128.387 101.57 128.831 102.35C129.275 103.13 129.497 104.024 129.497 105.032C129.497 106.04 129.269 106.934 128.813 107.714C128.357 108.494 127.733 109.1 126.941 109.532C126.161 109.952 125.297 110.162 124.349 110.162ZM124.349 108.38C124.877 108.38 125.369 108.254 125.825 108.002C126.293 107.75 126.671 107.372 126.959 106.868C127.247 106.364 127.391 105.752 127.391 105.032C127.391 104.312 127.253 103.706 126.977 103.214C126.701 102.71 126.335 102.332 125.879 102.08C125.423 101.828 124.931 101.702 124.403 101.702C123.875 101.702 123.383 101.828 122.927 102.08C122.483 102.332 122.129 102.71 121.865 103.214C121.601 103.706 121.469 104.312 121.469 105.032C121.469 106.1 121.739 106.928 122.279 107.516C122.831 108.092 123.521 108.38 124.349 108.38ZM130.842 104.996C130.842 104 131.046 103.118 131.454 102.35C131.874 101.582 132.438 100.988 133.146 100.568C133.866 100.136 134.664 99.92 135.54 99.92C136.188 99.92 136.824 100.064 137.448 100.352C138.084 100.628 138.588 101 138.96 101.468V96.68H141.03V110H138.96V108.506C138.624 108.986 138.156 109.382 137.556 109.694C136.968 110.006 136.29 110.162 135.522 110.162C134.658 110.162 133.866 109.946 133.146 109.514C132.438 109.07 131.874 108.458 131.454 107.678C131.046 106.886 130.842 105.992 130.842 104.996ZM138.96 105.032C138.96 104.348 138.816 103.754 138.528 103.25C138.252 102.746 137.886 102.362 137.43 102.098C136.974 101.834 136.482 101.702 135.954 101.702C135.426 101.702 134.934 101.834 134.478 102.098C134.022 102.35 133.65 102.728 133.362 103.232C133.086 103.724 132.948 104.312 132.948 104.996C132.948 105.68 133.086 106.28 133.362 106.796C133.65 107.312 134.022 107.708 134.478 107.984C134.946 108.248 135.438 108.38 135.954 108.38C136.482 108.38 136.974 108.248 137.43 107.984C137.886 107.72 138.252 107.336 138.528 106.832C138.816 106.316 138.96 105.716 138.96 105.032ZM143.041 104.996C143.041 104 143.245 103.118 143.653 102.35C144.073 101.582 144.637 100.988 145.345 100.568C146.065 100.136 146.857 99.92 147.721 99.92C148.501 99.92 149.179 100.076 149.755 100.388C150.343 100.688 150.811 101.066 151.159 101.522V100.082H153.229V110H151.159V108.524C150.811 108.992 150.337 109.382 149.737 109.694C149.137 110.006 148.453 110.162 147.685 110.162C146.833 110.162 146.053 109.946 145.345 109.514C144.637 109.07 144.073 108.458 143.653 107.678C143.245 106.886 143.041 105.992 143.041 104.996ZM151.159 105.032C151.159 104.348 151.015 103.754 150.727 103.25C150.451 102.746 150.085 102.362 149.629 102.098C149.173 101.834 148.681 101.702 148.153 101.702C147.625 101.702 147.133 101.834 146.677 102.098C146.221 102.35 145.849 102.728 145.561 103.232C145.285 103.724 145.147 104.312 145.147 104.996C145.147 105.68 145.285 106.28 145.561 106.796C145.849 107.312 146.221 107.708 146.677 107.984C147.145 108.248 147.637 108.38 148.153 108.38C148.681 108.38 149.173 108.248 149.629 107.984C150.085 107.72 150.451 107.336 150.727 106.832C151.015 106.316 151.159 105.716 151.159 105.032ZM164.852 100.082L158.768 114.662H156.644L158.66 109.838L154.754 100.082H157.04L159.83 107.642L162.728 100.082H164.852ZM166.725 97.49H168.957L167.067 101.774H165.627L166.725 97.49ZM174.36 110.162C173.58 110.162 172.878 110.024 172.254 109.748C171.642 109.46 171.156 109.076 170.796 108.596C170.436 108.104 170.244 107.558 170.22 106.958H172.344C172.38 107.378 172.578 107.732 172.938 108.02C173.31 108.296 173.772 108.434 174.324 108.434C174.9 108.434 175.344 108.326 175.656 108.11C175.98 107.882 176.142 107.594 176.142 107.246C176.142 106.874 175.962 106.598 175.602 106.418C175.254 106.238 174.696 106.04 173.928 105.824C173.184 105.62 172.578 105.422 172.11 105.23C171.642 105.038 171.234 104.744 170.886 104.348C170.55 103.952 170.382 103.43 170.382 102.782C170.382 102.254 170.538 101.774 170.85 101.342C171.162 100.898 171.606 100.55 172.182 100.298C172.77 100.046 173.442 99.92 174.198 99.92C175.326 99.92 176.232 100.208 176.916 100.784C177.612 101.348 177.984 102.122 178.032 103.106H175.98C175.944 102.662 175.764 102.308 175.44 102.044C175.116 101.78 174.678 101.648 174.126 101.648C173.586 101.648 173.172 101.75 172.884 101.954C172.596 102.158 172.452 102.428 172.452 102.764C172.452 103.028 172.548 103.25 172.74 103.43C172.932 103.61 173.166 103.754 173.442 103.862C173.718 103.958 174.126 104.084 174.666 104.24C175.386 104.432 175.974 104.63 176.43 104.834C176.898 105.026 177.3 105.314 177.636 105.698C177.972 106.082 178.146 106.592 178.158 107.228C178.158 107.792 178.002 108.296 177.69 108.74C177.378 109.184 176.934 109.532 176.358 109.784C175.794 110.036 175.128 110.162 174.36 110.162ZM188.651 110.162C187.871 110.162 187.169 110.024 186.545 109.748C185.933 109.46 185.447 109.076 185.087 108.596C184.727 108.104 184.535 107.558 184.511 106.958H186.635C186.671 107.378 186.869 107.732 187.229 108.02C187.601 108.296 188.063 108.434 188.615 108.434C189.191 108.434 189.635 108.326 189.947 108.11C190.271 107.882 190.433 107.594 190.433 107.246C190.433 106.874 190.253 106.598 189.893 106.418C189.545 106.238 188.987 106.04 188.219 105.824C187.475 105.62 186.869 105.422 186.401 105.23C185.933 105.038 185.525 104.744 185.177 104.348C184.841 103.952 184.673 103.43 184.673 102.782C184.673 102.254 184.829 101.774 185.141 101.342C185.453 100.898 185.897 100.55 186.473 100.298C187.061 100.046 187.733 99.92 188.489 99.92C189.617 99.92 190.523 100.208 191.207 100.784C191.903 101.348 192.275 102.122 192.323 103.106H190.271C190.235 102.662 190.055 102.308 189.731 102.044C189.407 101.78 188.969 101.648 188.417 101.648C187.877 101.648 187.463 101.75 187.175 101.954C186.887 102.158 186.743 102.428 186.743 102.764C186.743 103.028 186.839 103.25 187.031 103.43C187.223 103.61 187.457 103.754 187.733 103.862C188.009 103.958 188.417 104.084 188.957 104.24C189.677 104.432 190.265 104.63 190.721 104.834C191.189 105.026 191.591 105.314 191.927 105.698C192.263 106.082 192.437 106.592 192.449 107.228C192.449 107.792 192.293 108.296 191.981 108.74C191.669 109.184 191.225 109.532 190.649 109.784C190.085 110.036 189.419 110.162 188.651 110.162ZM203.756 104.798C203.756 105.17 203.732 105.506 203.684 105.806H196.106C196.166 106.598 196.46 107.234 196.988 107.714C197.516 108.194 198.164 108.434 198.932 108.434C200.036 108.434 200.816 107.972 201.272 107.048H203.486C203.186 107.96 202.64 108.71 201.848 109.298C201.068 109.874 200.096 110.162 198.932 110.162C197.984 110.162 197.132 109.952 196.376 109.532C195.632 109.1 195.044 108.5 194.612 107.732C194.192 106.952 193.982 106.052 193.982 105.032C193.982 104.012 194.186 103.118 194.594 102.35C195.014 101.57 195.596 100.97 196.34 100.55C197.096 100.13 197.96 99.92 198.932 99.92C199.868 99.92 200.702 100.124 201.434 100.532C202.166 100.94 202.736 101.516 203.144 102.26C203.552 102.992 203.756 103.838 203.756 104.798ZM201.614 104.15C201.602 103.394 201.332 102.788 200.804 102.332C200.276 101.876 199.622 101.648 198.842 101.648C198.134 101.648 197.528 101.876 197.024 102.332C196.52 102.776 196.22 103.382 196.124 104.15H201.614ZM209.376 110.162C208.596 110.162 207.894 110.024 207.27 109.748C206.658 109.46 206.172 109.076 205.812 108.596C205.452 108.104 205.26 107.558 205.236 106.958H207.36C207.396 107.378 207.594 107.732 207.954 108.02C208.326 108.296 208.788 108.434 209.34 108.434C209.916 108.434 210.36 108.326 210.672 108.11C210.996 107.882 211.158 107.594 211.158 107.246C211.158 106.874 210.978 106.598 210.618 106.418C210.27 106.238 209.712 106.04 208.944 105.824C208.2 105.62 207.594 105.422 207.126 105.23C206.658 105.038 206.25 104.744 205.902 104.348C205.566 103.952 205.398 103.43 205.398 102.782C205.398 102.254 205.554 101.774 205.866 101.342C206.178 100.898 206.622 100.55 207.198 100.298C207.786 100.046 208.458 99.92 209.214 99.92C210.342 99.92 211.248 100.208 211.932 100.784C212.628 101.348 213 102.122 213.048 103.106H210.996C210.96 102.662 210.78 102.308 210.456 102.044C210.132 101.78 209.694 101.648 209.142 101.648C208.602 101.648 208.188 101.75 207.9 101.954C207.612 102.158 207.468 102.428 207.468 102.764C207.468 103.028 207.564 103.25 207.756 103.43C207.948 103.61 208.182 103.754 208.458 103.862C208.734 103.958 209.142 104.084 209.682 104.24C210.402 104.432 210.99 104.63 211.446 104.834C211.914 105.026 212.316 105.314 212.652 105.698C212.988 106.082 213.162 106.592 213.174 107.228C213.174 107.792 213.018 108.296 212.706 108.74C212.394 109.184 211.95 109.532 211.374 109.784C210.81 110.036 210.144 110.162 209.376 110.162ZM218.991 110.162C218.211 110.162 217.509 110.024 216.885 109.748C216.273 109.46 215.787 109.076 215.427 108.596C215.067 108.104 214.875 107.558 214.851 106.958H216.975C217.011 107.378 217.209 107.732 217.569 108.02C217.941 108.296 218.403 108.434 218.955 108.434C219.531 108.434 219.975 108.326 220.287 108.11C220.611 107.882 220.773 107.594 220.773 107.246C220.773 106.874 220.593 106.598 220.233 106.418C219.885 106.238 219.327 106.04 218.559 105.824C217.815 105.62 217.209 105.422 216.741 105.23C216.273 105.038 215.865 104.744 215.517 104.348C215.181 103.952 215.013 103.43 215.013 102.782C215.013 102.254 215.169 101.774 215.481 101.342C215.793 100.898 216.237 100.55 216.813 100.298C217.401 100.046 218.073 99.92 218.829 99.92C219.957 99.92 220.863 100.208 221.547 100.784C222.243 101.348 222.615 102.122 222.663 103.106H220.611C220.575 102.662 220.395 102.308 220.071 102.044C219.747 101.78 219.309 101.648 218.757 101.648C218.217 101.648 217.803 101.75 217.515 101.954C217.227 102.158 217.083 102.428 217.083 102.764C217.083 103.028 217.179 103.25 217.371 103.43C217.563 103.61 217.797 103.754 218.073 103.862C218.349 103.958 218.757 104.084 219.297 104.24C220.017 104.432 220.605 104.63 221.061 104.834C221.529 105.026 221.931 105.314 222.267 105.698C222.603 106.082 222.777 106.592 222.789 107.228C222.789 107.792 222.633 108.296 222.321 108.74C222.009 109.184 221.565 109.532 220.989 109.784C220.425 110.036 219.759 110.162 218.991 110.162ZM226.05 98.768C225.678 98.768 225.366 98.642 225.114 98.39C224.862 98.138 224.736 97.826 224.736 97.454C224.736 97.082 224.862 96.77 225.114 96.518C225.366 96.266 225.678 96.14 226.05 96.14C226.41 96.14 226.716 96.266 226.968 96.518C227.22 96.77 227.346 97.082 227.346 97.454C227.346 97.826 227.22 98.138 226.968 98.39C226.716 98.642 226.41 98.768 226.05 98.768ZM227.058 100.082V110H225.006V100.082H227.058ZM234.054 110.162C233.118 110.162 232.272 109.952 231.516 109.532C230.76 109.1 230.166 108.5 229.734 107.732C229.302 106.952 229.086 106.052 229.086 105.032C229.086 104.024 229.308 103.13 229.752 102.35C230.196 101.57 230.802 100.97 231.57 100.55C232.338 100.13 233.196 99.92 234.144 99.92C235.092 99.92 235.95 100.13 236.718 100.55C237.486 100.97 238.092 101.57 238.536 102.35C238.98 103.13 239.202 104.024 239.202 105.032C239.202 106.04 238.974 106.934 238.518 107.714C238.062 108.494 237.438 109.1 236.646 109.532C235.866 109.952 235.002 110.162 234.054 110.162ZM234.054 108.38C234.582 108.38 235.074 108.254 235.53 108.002C235.998 107.75 236.376 107.372 236.664 106.868C236.952 106.364 237.096 105.752 237.096 105.032C237.096 104.312 236.958 103.706 236.682 103.214C236.406 102.71 236.04 102.332 235.584 102.08C235.128 101.828 234.636 101.702 234.108 101.702C233.58 101.702 233.088 101.828 232.632 102.08C232.188 102.332 231.834 102.71 231.57 103.214C231.306 103.706 231.174 104.312 231.174 105.032C231.174 106.1 231.444 106.928 231.984 107.516C232.536 108.092 233.226 108.38 234.054 108.38ZM246.235 99.92C247.015 99.92 247.711 100.082 248.323 100.406C248.947 100.73 249.433 101.21 249.781 101.846C250.129 102.482 250.303 103.25 250.303 104.15V110H248.269V104.456C248.269 103.568 248.047 102.89 247.603 102.422C247.159 101.942 246.553 101.702 245.785 101.702C245.017 101.702 244.405 101.942 243.949 102.422C243.505 102.89 243.283 103.568 243.283 104.456V110H241.231V100.082H243.283V101.216C243.619 100.808 244.045 100.49 244.561 100.262C245.089 100.034 245.647 99.92 246.235 99.92ZM253.748 110.126C253.376 110.126 253.064 110 252.812 109.748C252.56 109.496 252.434 109.184 252.434 108.812C252.434 108.44 252.56 108.128 252.812 107.876C253.064 107.624 253.376 107.498 253.748 107.498C254.108 107.498 254.414 107.624 254.666 107.876C254.918 108.128 255.044 108.44 255.044 108.812C255.044 109.184 254.918 109.496 254.666 109.748C254.414 110 254.108 110.126 253.748 110.126Z" fill="#1F1F1F"/>
<path d="M120.384 134.88V136.368H117.424V146H115.6V136.368H112.624V134.88H120.384ZM126.055 146.144C125.223 146.144 124.471 145.957 123.799 145.584C123.127 145.2 122.599 144.667 122.215 143.984C121.831 143.291 121.639 142.491 121.639 141.584C121.639 140.688 121.837 139.893 122.231 139.2C122.626 138.507 123.165 137.973 123.847 137.6C124.53 137.227 125.293 137.04 126.135 137.04C126.978 137.04 127.741 137.227 128.423 137.6C129.106 137.973 129.645 138.507 130.039 139.2C130.434 139.893 130.631 140.688 130.631 141.584C130.631 142.48 130.429 143.275 130.023 143.968C129.618 144.661 129.063 145.2 128.359 145.584C127.666 145.957 126.898 146.144 126.055 146.144ZM126.055 144.56C126.525 144.56 126.962 144.448 127.367 144.224C127.783 144 128.119 143.664 128.375 143.216C128.631 142.768 128.759 142.224 128.759 141.584C128.759 140.944 128.637 140.405 128.391 139.968C128.146 139.52 127.821 139.184 127.415 138.96C127.01 138.736 126.573 138.624 126.103 138.624C125.634 138.624 125.197 138.736 124.791 138.96C124.397 139.184 124.082 139.52 123.847 139.968C123.613 140.405 123.495 140.944 123.495 141.584C123.495 142.533 123.735 143.269 124.215 143.792C124.706 144.304 125.319 144.56 126.055 144.56ZM131.826 141.552C131.826 140.667 132.008 139.883 132.37 139.2C132.744 138.517 133.245 137.989 133.874 137.616C134.514 137.232 135.224 137.04 136.002 137.04C136.578 137.04 137.144 137.168 137.698 137.424C138.264 137.669 138.712 138 139.042 138.416V134.16H140.882V146H139.042V144.672C138.744 145.099 138.328 145.451 137.794 145.728C137.272 146.005 136.669 146.144 135.986 146.144C135.218 146.144 134.514 145.952 133.874 145.568C133.245 145.173 132.744 144.629 132.37 143.936C132.008 143.232 131.826 142.437 131.826 141.552ZM139.042 141.584C139.042 140.976 138.914 140.448 138.658 140C138.413 139.552 138.088 139.211 137.682 138.976C137.277 138.741 136.84 138.624 136.37 138.624C135.901 138.624 135.464 138.741 135.058 138.976C134.653 139.2 134.322 139.536 134.066 139.984C133.821 140.421 133.698 140.944 133.698 141.552C133.698 142.16 133.821 142.693 134.066 143.152C134.322 143.611 134.653 143.963 135.058 144.208C135.474 144.443 135.912 144.56 136.37 144.56C136.84 144.56 137.277 144.443 137.682 144.208C138.088 143.973 138.413 143.632 138.658 143.184C138.914 142.725 139.042 142.192 139.042 141.584ZM142.67 141.552C142.67 140.667 142.851 139.883 143.214 139.2C143.587 138.517 144.089 137.989 144.718 137.616C145.358 137.232 146.062 137.04 146.83 137.04C147.523 137.04 148.126 137.179 148.638 137.456C149.161 137.723 149.577 138.059 149.886 138.464V137.184H151.726V146H149.886V144.688C149.577 145.104 149.155 145.451 148.622 145.728C148.089 146.005 147.481 146.144 146.798 146.144C146.041 146.144 145.347 145.952 144.718 145.568C144.089 145.173 143.587 144.629 143.214 143.936C142.851 143.232 142.67 142.437 142.67 141.552ZM149.886 141.584C149.886 140.976 149.758 140.448 149.502 140C149.257 139.552 148.931 139.211 148.526 138.976C148.121 138.741 147.683 138.624 147.214 138.624C146.745 138.624 146.307 138.741 145.902 138.976C145.497 139.2 145.166 139.536 144.91 139.984C144.665 140.421 144.542 140.944 144.542 141.552C144.542 142.16 144.665 142.693 144.91 143.152C145.166 143.611 145.497 143.963 145.902 144.208C146.318 144.443 146.755 144.56 147.214 144.56C147.683 144.56 148.121 144.443 148.526 144.208C148.931 143.973 149.257 143.632 149.502 143.184C149.758 142.725 149.886 142.192 149.886 141.584ZM162.058 137.184L156.65 150.144H154.762L156.554 145.856L153.082 137.184H155.114L157.594 143.904L160.17 137.184H162.058ZM165.434 143.808L163.498 148.224H162.314L163.45 143.808H165.434ZM170.704 136V134.336H174.032V146H172.192V136H170.704ZM176.538 140.016C176.538 138.171 176.847 136.731 177.466 135.696C178.095 134.651 179.173 134.128 180.698 134.128C182.223 134.128 183.295 134.651 183.914 135.696C184.543 136.731 184.858 138.171 184.858 140.016C184.858 141.883 184.543 143.344 183.914 144.4C183.295 145.445 182.223 145.968 180.698 145.968C179.173 145.968 178.095 145.445 177.466 144.4C176.847 143.344 176.538 141.883 176.538 140.016ZM183.066 140.016C183.066 139.152 183.007 138.421 182.89 137.824C182.783 137.227 182.559 136.741 182.218 136.368C181.877 135.984 181.37 135.792 180.698 135.792C180.026 135.792 179.519 135.984 179.178 136.368C178.837 136.741 178.607 137.227 178.49 137.824C178.383 138.421 178.33 139.152 178.33 140.016C178.33 140.912 178.383 141.664 178.49 142.272C178.597 142.88 178.821 143.371 179.162 143.744C179.514 144.117 180.026 144.304 180.698 144.304C181.37 144.304 181.877 144.117 182.218 143.744C182.57 143.371 182.799 142.88 182.906 142.272C183.013 141.664 183.066 140.912 183.066 140.016ZM197.888 143.728H193.232L192.432 146H190.528L194.512 134.864H196.624L200.608 146H198.688L197.888 143.728ZM197.376 142.24L195.568 137.072L193.744 142.24H197.376ZM214.053 134.88V146H212.229V138.384L208.837 146H207.573L204.165 138.384V146H202.341V134.88H204.309L208.213 143.6L212.101 134.88H214.053Z" fill="#7D7D7D"/>
<rect x="0.5" y="0.5" width="407" height="175" stroke="#F5F5F5"/>
</svg>
