<svg width="64" height="64" viewBox="0 0 64 64" fill="none" xmlns="http://www.w3.org/2000/svg">
<rect width="64" height="64" rx="32" fill="#FAFAFA"/>
<path d="M37.0002 18.6667V30.3334H20.6168L19.6335 31.3167L18.6668 32.2834V18.6667H37.0002ZM38.6668 15.3334H17.0002C16.0835 15.3334 15.3335 16.0834 15.3335 17V40.3334L22.0002 33.6667H38.6668C39.5835 33.6667 40.3335 32.9167 40.3335 32V17C40.3335 16.0834 39.5835 15.3334 38.6668 15.3334ZM47.0002 22H43.6668V37H22.0002V40.3334C22.0002 41.25 22.7502 42 23.6668 42H42.0002L48.6668 48.6667V23.6667C48.6668 22.75 47.9168 22 47.0002 22Z" fill="#CD2026"/>
</svg>
