<svg width="32" height="32" viewBox="0 0 32 32" fill="none" xmlns="http://www.w3.org/2000/svg">
<path d="M30.6087 22.0348L28.9325 20.3519C26.5224 17.9315 26.5224 13.9879 28.9325 11.5678L30.5496 9.94511C31.0093 9.4851 31.3741 8.93848 31.623 8.33661C31.8719 7.73473 32 7.08945 32 6.43775C32 6.12977 31.9714 5.82321 31.9149 5.522C31.789 4.85015 31.5232 4.36634 31.1184 3.81561C30.7302 3.28766 30.1982 2.68797 29.7187 2.24137L28.5977 1.19737C27.2687 0.153204 24.1769 -0.618852 22.4278 1.13752L20.5433 2.91249C17.7395 5.63899 14.2012 5.58819 11.6346 3.13192L10.1277 1.45618C9.66953 0.994618 9.12515 0.628395 8.52576 0.378512C7.92638 0.128629 7.28377 0 6.63477 0C5.98578 0 5.34317 0.128629 4.74378 0.378512C4.14439 0.628395 3.52994 1.00571 3.10788 1.35125L1.28646 3.16976C-0.487231 5.3565 -0.391847 7.85686 1.35661 9.61346L3.18576 11.5384C5.59569 13.9588 5.67084 17.919 3.26091 20.3391L1.29394 22.3546C-0.454738 24.1107 -0.359104 27.0827 1.16587 28.7852L3.3011 30.9291C4.84137 32.1473 7.99875 32.5889 9.74765 30.8325L11.6748 28.7852C14.1067 26.4295 17.5059 26.1773 20.5207 29.0047L22.5094 30.8325C24.2583 32.5889 27.5501 31.9481 28.7585 30.7551L30.5322 28.9416C31.7004 27.8016 32.5659 23.9661 30.6087 22.0348ZM28.201 26.0552C28.0247 26.4636 27.7678 26.8313 27.469 27.1609L27.4566 27.1747C27.2914 27.3569 27.1117 27.5253 26.9191 27.6784C26.5597 27.964 26.1591 28.1967 25.7278 28.354C24.5624 28.7789 23.9225 28.902 22.9813 28.6957C21.8633 28.4505 20.8832 27.8007 19.9981 27.0751C17.7044 25.0171 14.6067 24.8708 12.0818 26.8179L11.7601 27.0723C10.8377 27.8018 9.84131 28.529 8.67045 28.6387C7.91412 28.7096 7.32644 28.5665 6.87663 28.4161C6.4062 28.2588 5.96025 28.024 5.55555 27.7372C5.21709 27.4973 4.91734 27.2071 4.66673 26.8765L4.52518 26.6898C4.243 26.3176 3.99938 25.9145 3.8483 25.4725C3.54648 24.5896 3.43599 23.7807 3.60345 22.9268C3.83184 21.7622 4.63364 20.8152 5.3991 19.9082C7.3386 17.5513 7.28835 14.4667 5.21928 11.9868C4.40933 11.1532 3.62003 10.2359 3.36243 9.10259C3.12281 8.04831 3.30714 7.16969 3.7275 6.18233C3.89747 5.78308 4.13736 5.41809 4.40993 5.08045L4.4257 5.06091C4.68508 4.73962 4.98296 4.45141 5.31264 4.20277C5.66048 3.94043 6.03555 3.71313 6.44305 3.559C7.39853 3.19761 8.17223 3.0906 9.3255 3.44069C10.4098 3.76985 11.3395 4.45939 12.1949 5.20265C14.1444 6.89252 17.1919 7.17501 20.0468 5.01931L20.32 4.77805C21.0684 4.11691 21.9236 3.55398 22.9002 3.34518C24.029 3.10383 24.821 3.2163 25.741 3.5398C26.1723 3.69148 26.5669 3.93186 26.9257 4.21532C27.1537 4.39546 27.3656 4.59578 27.5581 4.81342C27.8429 5.13538 28.0909 5.49088 28.2605 5.88588C28.8733 7.31292 29.0004 8.56843 28.2921 10.1869C27.9929 10.8706 27.5106 11.4535 26.9856 11.9839C24.769 13.937 24.8074 17.7206 26.9856 19.9082C27.6681 20.5934 28.324 21.3439 28.6013 22.2703C28.9805 23.537 28.7857 24.7002 28.201 26.0552Z" fill="white"/>
</svg>
