<svg width="350" height="270" viewBox="0 0 576 328" fill="none" xmlns="http://www.w3.org/2000/svg">
<g clip-path="url(#clip0_5106_65378)">
<path d="M543 53V275" stroke="#D7D7D7"/>
<path d="M643 203C636.244 203 513.519 203 453 203" stroke="#D7D7D7"/>
<path d="M596 79H505" stroke="#D7D7D7"/>
<path d="M-78 123H157.412C177.216 123 193.27 139.054 193.27 158.858V158.858C193.27 178.661 177.216 194.715 157.412 194.715H92.2536C79.1963 194.715 68.6112 205.3 68.6112 218.358V218.358C68.6112 231.415 79.1963 242 92.2536 242H285" stroke="#D7D7D7" stroke-linecap="round" stroke-dasharray="15 15"/>
<circle cx="284.75" cy="198.085" r="113.61" transform="rotate(8.95821 284.75 198.085)" fill="#F5F5F5"/>
<circle r="25.3105" transform="matrix(-0.987802 -0.155714 -0.155714 0.987802 286.845 77.5312)" fill="#E1B48B"/>
<path fill-rule="evenodd" clip-rule="evenodd" d="M261.136 80.7866C260.865 78.4627 260.903 76.0597 261.286 73.6297C263.503 59.5643 276.45 49.9196 290.202 52.0875C298.221 53.3516 304.744 58.3524 308.349 65.0907C303.083 79.0038 288.628 87.8011 273.352 85.393C268.863 84.6855 264.74 83.0793 261.136 80.7866Z" fill="#1F1F1F"/>
<path d="M242.222 55.7624C235.099 52.4651 232.688 43.5308 237.185 37.0981C242.214 29.9046 252.872 29.9234 257.876 37.1347L267.236 50.6248C269.18 53.4259 269.173 57.1412 267.22 59.9355C264.958 63.17 260.703 64.3181 257.122 62.6602L242.222 55.7624Z" fill="#1F1F1F"/>
<mask id="mask0_5106_65378" style="mask-type:alpha" maskUnits="userSpaceOnUse" x="171" y="84" width="228" height="228">
<circle cx="284.75" cy="198.085" r="113.61" transform="rotate(8.95821 284.75 198.085)" fill="#C4C4C4"/>
</mask>
<g mask="url(#mask0_5106_65378)">
<rect width="67.622" height="310.231" transform="matrix(-0.987802 -0.155714 -0.155714 0.987802 311.647 241.404)" fill="#1F1F1F"/>
<rect width="56.9448" height="310.231" transform="matrix(-0.987802 -0.155714 -0.155714 0.987802 267.702 234.477)" fill="#414141"/>
<path d="M321.962 164.139C326.447 135.687 307.019 108.987 278.567 104.502C250.116 100.017 223.416 119.446 218.931 147.897L208.235 215.747L311.267 231.989L321.962 164.139Z" fill="#169F32"/>
<rect width="41.5223" height="83.0252" rx="20.7611" transform="matrix(-0.627795 0.778379 0.778379 0.627795 294.336 134.031)" fill="#E1B48B"/>
<path d="M282.198 111.286C268.938 100.592 249.519 102.671 238.824 115.931C228.129 129.191 230.209 148.61 243.469 159.305L295.762 201.481L334.49 153.463L282.198 111.286Z" fill="#007618"/>
<path d="M268.002 235.25L255.169 312.25" stroke="#1F1F1F" stroke-width="1.08451" stroke-linecap="round"/>
</g>
<path d="M210.866 80.7324L216.344 97.6324L231.955 89.6265L224.092 105.521L240.69 111.099L224.092 116.677L231.955 132.571L216.344 124.565L210.866 141.465L205.388 124.565L189.777 132.571L197.64 116.677L181.042 111.099L197.64 105.521L189.777 89.6265L205.388 97.6324L210.866 80.7324Z" fill="#FFB800"/>
<rect width="41.5223" height="125.819" rx="20.7611" transform="matrix(0.453403 0.891306 0.891306 -0.453403 303.601 180.512)" fill="#E1B48B"/>
<path fill-rule="evenodd" clip-rule="evenodd" d="M466.133 47.1133H351.31V105.953L351.31 116.522L360.735 105.953L466.133 105.953V47.1133Z" fill="#FAFAFA"/>
<path d="M351.31 47.1133V46.571H350.767V47.1133H351.31ZM466.133 47.1133H466.676V46.571H466.133V47.1133ZM351.31 105.953H350.767H351.31ZM351.31 116.522H350.767L350.767 117.944L351.714 116.883L351.31 116.522ZM360.735 105.953V105.411H360.492L360.331 105.592L360.735 105.953ZM466.133 105.953V106.496H466.676V105.953H466.133ZM351.31 47.6555H466.133V46.571H351.31V47.6555ZM351.852 105.953V47.1133H350.767V105.953H351.852ZM351.852 116.522L351.852 105.953H350.767L350.767 116.522H351.852ZM360.331 105.592L350.905 116.161L351.714 116.883L361.14 106.314L360.331 105.592ZM466.133 105.411L360.735 105.411V106.496L466.133 106.496V105.411ZM465.591 47.1133V105.953H466.676V47.1133H465.591Z" fill="#FF842B"/>
<circle cx="392.44" cy="76.8192" r="3.99884" fill="#FF842B"/>
<circle cx="409.007" cy="76.8192" r="3.99884" fill="#FF842B"/>
<circle cx="425.573" cy="76.8192" r="3.99884" fill="#FF842B"/>
<path d="M315.5 318.189C339.142 311.059 390.14 282.839 405 227" stroke="#CD2026" stroke-linecap="round"/>
<path d="M409 192C409.167 195.167 409.2 203.4 408 211" stroke="#CD2026" stroke-linecap="round"/>
<ellipse cx="505" cy="170.5" rx="7" ry="6.5" fill="#FFE2C8"/>
<path d="M73.4004 49.3711L61.7146 37.6853L73.4004 25.9995" stroke="#570DB4"/>
<path d="M61.1631 49.3711L49.4773 37.6853L61.1631 25.9995" stroke="#570DB4"/>
<path d="M48.9258 49.3711L37.24 37.6853L48.9258 25.9995" stroke="#570DB4"/>
<path d="M36.6865 49.3711L25.0007 37.6853L36.6865 25.9995" stroke="#570DB4"/>
<path d="M31 275L38.8058 285.088L47.0194 275.292L54.8252 285.088L62.2233 276.023L70.1456 285.38L77.1941 276.17L83.9514 285.234L91.5825 275.877" stroke="#A7A7A7" stroke-miterlimit="10" stroke-linecap="round" stroke-linejoin="round"/>
<rect x="82.5" y="111.5" width="28.0047" height="11.6895" rx="5.84477" fill="#FAFAFA" stroke="#A7A7A7"/>
<circle cx="104.628" cy="117.312" r="4.5" fill="#FF842B"/>
<rect x="82.5" y="129.629" width="28.0047" height="11.6895" rx="5.84477" fill="#FAFAFA" stroke="#A7A7A7"/>
<circle cx="88.3135" cy="135.441" r="4.5" fill="#FF842B"/>
<rect x="455.054" y="255.855" width="40.4226" height="40.4226" stroke="#1F1F1F"/>
<rect x="452" y="252" width="6" height="6" fill="#1F1F1F"/>
<rect x="452" y="294" width="6" height="6" fill="#1F1F1F"/>
<rect x="493" y="252" width="6" height="6" fill="#1F1F1F"/>
<rect x="493" y="294" width="6" height="6" fill="#1F1F1F"/>
<mask id="path-40-inside-1_5106_65378" fill="white">
<path fill-rule="evenodd" clip-rule="evenodd" d="M487.934 263.373H462.596V270.195H471.854V289.279H478.675V270.195H487.934V263.373Z"/>
</mask>
<path d="M462.596 263.373V262.373H461.596V263.373H462.596ZM487.934 263.373H488.934V262.373H487.934V263.373ZM462.596 270.195H461.596V271.195H462.596V270.195ZM471.854 270.195H472.854V269.195H471.854V270.195ZM471.854 289.279H470.854V290.279H471.854V289.279ZM478.675 289.279V290.279H479.675V289.279H478.675ZM478.675 270.195V269.195H477.675V270.195H478.675ZM487.934 270.195V271.195H488.934V270.195H487.934ZM462.596 264.373H487.934V262.373H462.596V264.373ZM463.596 270.195V263.373H461.596V270.195H463.596ZM471.854 269.195H462.596V271.195H471.854V269.195ZM472.854 289.279V270.195H470.854V289.279H472.854ZM478.675 288.279H471.854V290.279H478.675V288.279ZM477.675 270.195V289.279H479.675V270.195H477.675ZM487.934 269.195H478.675V271.195H487.934V269.195ZM486.934 263.373V270.195H488.934V263.373H486.934Z" fill="#1F1F1F" mask="url(#path-40-inside-1_5106_65378)"/>
</g>
<defs>
<clipPath id="clip0_5106_65378">
<rect width="576" height="328" fill="white"/>
</clipPath>
</defs>
</svg>
