<svg width="400" height="328" viewBox="0 0 576 328" fill="none" xmlns="http://www.w3.org/2000/svg">
<g clip-path="url(#clip0_5106_65308)">
<rect width="576" height="328" fill="#FAFAFA"/>
<path d="M481 77H390" stroke="#D7D7D7"/>
<path d="M133 214H42" stroke="#D7D7D7"/>
<circle cx="282.867" cy="174.062" r="127.867" fill="#F5F5F5"/>
<mask id="mask0_5106_65308" style="mask-type:alpha" maskUnits="userSpaceOnUse" x="155" y="46" width="256" height="256">
<circle cx="282.867" cy="174.062" r="127.867" fill="#F5F5F5"/>
</mask>
<g mask="url(#mask0_5106_65308)">
<path d="M290.8 252.379L312.788 386.875" stroke="#1F1F1F" stroke-width="1.12549"/>
<path d="M222.79 252.379L200.802 386.875" stroke="#1F1F1F" stroke-width="1.12549"/>
<path d="M178.976 141.518H219.935L238.019 207.43H317.853V252.941H205.686C201.666 252.941 198.134 250.277 197.029 246.412L170.319 152.997C168.675 147.244 172.994 141.518 178.976 141.518Z" fill="#FF842B"/>
<path d="M307.81 362.874L351.692 362.874L329.135 221.39C327.137 208.861 314.61 200.918 302.426 204.456C292.276 207.402 285.874 217.405 287.45 227.856L307.81 362.874Z" fill="#570DB4"/>
<path d="M277.353 362.874L321.235 362.874L295.692 220.883C293.472 208.541 281.052 200.838 269.01 204.334C258.677 207.334 252.249 217.619 254.082 228.221L277.353 362.874Z" fill="#7128CE"/>
<path d="M276.055 242.812C287.329 242.812 296.468 233.673 296.468 222.4V220.457C296.468 209.183 287.329 200.044 276.055 200.044H214.307V222.4C214.307 233.673 223.446 242.812 234.72 242.812H276.055Z" fill="#7128CE"/>
<path d="M296.68 123.511C296.68 101.756 279.043 84.1191 257.288 84.1191H253.911C232.155 84.1191 214.519 101.756 214.519 123.511V197.794H296.68V123.511Z" fill="#CD2026"/>
<path d="M302.889 120.942C298.368 115.36 290.177 114.499 284.595 119.02C279.012 123.541 278.151 131.731 282.672 137.314L306.099 166.244C312.557 174.219 324.258 175.449 332.233 168.991L338.01 164.313L302.889 120.942Z" fill="#E1B48B"/>
<path d="M289.77 95.7507C283.053 87.4564 270.884 86.1774 262.59 92.894C254.296 99.6107 253.017 111.78 259.733 120.074L290.371 157.909L320.408 133.585L289.77 95.7507Z" fill="#CD2026"/>
<path d="M259.327 162.734V174.412H400.736L414.645 95.0012L352.667 89.7461L339.884 162.734H259.327Z" fill="#EBEBEB"/>
<ellipse rx="8.11517" ry="9.92443" transform="matrix(0.986945 0.161056 -0.158722 0.987323 377.285 131.215)" fill="white"/>
<path d="M314.819 174.156H414.988V182.035H314.819V174.156Z" fill="#A7A7A7"/>
<rect x="227.3" y="131.773" width="26.0144" height="65.5494" rx="13.0072" transform="rotate(-14.0231 227.3 131.773)" fill="#E1B48B"/>
<rect x="241.319" y="194.416" width="25.8863" height="84.4118" rx="12.9431" transform="rotate(-90 241.319 194.416)" fill="#E1B48B"/>
<path d="M217.289 118.948C214.703 108.593 221.001 98.1027 231.355 95.5165C241.71 92.9303 252.201 99.228 254.787 109.583L266.584 156.816L229.086 166.181L217.289 118.948Z" fill="#A70B11"/>
<path d="M298.156 225.93L319.541 344.669" stroke="#1F1F1F" stroke-width="1.12549"/>
</g>
<path d="M340.692 162.515L338.455 174.158H401.166L414.988 94.9854L353.396 89.7461L340.692 162.515Z" fill="#EBEBEB"/>
<ellipse rx="8.11517" ry="9.92443" transform="matrix(0.986945 0.161056 -0.158722 0.987323 377.764 131.215)" fill="white"/>
<circle r="21.9264" transform="matrix(-1 0 0 1 254.567 57.6491)" fill="#E1B48B"/>
<path d="M267.207 40.0174C262.295 48.3617 248.44 63.6807 232.316 58.2017C233.617 46.7086 242.415 26.9813 267.207 40.0174Z" fill="#1F1F1F"/>
<circle cx="223.875" cy="38.5369" r="12.9431" fill="#1F1F1F"/>
<path fill-rule="evenodd" clip-rule="evenodd" d="M137.952 94.0007L89.9521 29.0488L41.9521 94.0007H62.7368V113.919L118.162 113.919L118.162 94.0007H137.952Z" fill="#FFDB7C"/>
<rect x="62.7363" y="120.848" width="55.4256" height="15.5885" fill="#FFDB7C"/>
<rect x="62.7363" y="143.363" width="55.4256" height="15.5885" fill="#FFDB7C"/>
<path d="M433 288.371L444.686 276.685L433 264.999" stroke="#570DB4"/>
<path d="M445.237 288.371L456.923 276.685L445.237 264.999" stroke="#570DB4"/>
<path d="M457.475 288.371L469.16 276.685L457.475 264.999" stroke="#570DB4"/>
<path d="M469.714 288.371L481.4 276.685L469.714 264.999" stroke="#570DB4"/>
<path d="M482.012 142.217C476.263 142.217 471.603 137.556 471.603 131.807V123.999H492.422V131.807C492.422 137.556 487.762 142.217 482.012 142.217Z" fill="#7CE391"/>
<path d="M487.202 167.57C487.707 168.162 488.446 168.503 489.224 168.503C491.494 168.503 492.72 165.84 491.243 164.115L485.338 157.218L491.497 150.205C492.861 148.652 491.758 146.217 489.692 146.217C488.964 146.217 488.275 146.547 487.819 147.114L482.461 153.78L476.8 147.151C476.294 146.558 475.553 146.217 474.774 146.217C472.501 146.217 471.272 148.88 472.748 150.609L478.662 157.542L472.511 164.519C471.146 166.068 472.246 168.503 474.31 168.503C475.037 168.503 475.724 168.173 476.179 167.607L481.539 160.939L487.202 167.57Z" fill="#7CE391"/>
<path d="M125 260L132.806 270.088L141.019 260.292L148.825 270.088L156.223 261.023L164.146 270.38L171.194 261.17L177.951 270.234L185.582 260.877" stroke="#A7A7A7" stroke-miterlimit="10" stroke-linecap="round" stroke-linejoin="round"/>
<rect x="52.5625" y="261.525" width="16.9199" height="16.9199" fill="#FFB800"/>
<path fill-rule="evenodd" clip-rule="evenodd" d="M42.5601 269.997C42.5601 259.815 50.8147 251.56 60.9972 251.56C70.513 251.56 78.3451 258.769 79.3299 268.024H79.8931C78.9059 258.459 70.8226 251 60.9972 251C50.5053 251 42 259.505 42 269.997C42 280.489 50.5053 288.994 60.9972 288.994C70.2785 288.994 78.0053 282.338 79.6647 273.539H79.0943C77.4426 282.027 69.9681 288.434 60.9972 288.434C50.8147 288.434 42.5601 280.18 42.5601 269.997Z" fill="#1F1F1F"/>
<path d="M79.5963 270.487L78.1701 268.013L81.0263 268.015L79.5963 270.487Z" fill="#1F1F1F"/>
<path d="M557.233 200.847V200.847C557.233 199.991 556.893 199.17 556.289 198.565L555.935 198.918L556.289 198.565C555.684 197.959 554.864 197.618 554.009 197.617H554.009L514.827 197.617L514.827 197.617C513.971 197.618 513.151 197.959 512.546 198.564C511.942 199.17 511.602 199.991 511.601 200.847V200.847V202.866C511.601 202.882 511.595 202.897 511.584 202.908C511.573 202.919 511.558 202.925 511.543 202.925C511.528 202.925 511.513 202.919 511.503 202.908C511.492 202.897 511.485 202.882 511.485 202.866V200.848C511.487 199.96 511.839 199.109 512.466 198.482C513.093 197.854 513.942 197.501 514.827 197.5H554.007C554.893 197.501 555.742 197.854 556.368 198.482C556.994 199.109 557.347 199.96 557.348 200.848V202.866V202.867C557.348 202.875 557.347 202.883 557.344 202.89C557.341 202.897 557.336 202.903 557.331 202.908C557.326 202.914 557.32 202.918 557.313 202.921C557.306 202.924 557.299 202.925 557.291 202.925C557.276 202.925 557.261 202.919 557.251 202.908C557.24 202.897 557.233 202.882 557.233 202.866V200.847ZM537.207 228.905H531.628C531.613 228.905 531.598 228.899 531.587 228.888C531.576 228.877 531.57 228.862 531.57 228.846C531.57 228.831 531.576 228.816 531.587 228.805C531.598 228.794 531.613 228.788 531.628 228.788H537.207C537.222 228.788 537.237 228.794 537.247 228.805C537.258 228.816 537.265 228.831 537.265 228.846C537.265 228.862 537.258 228.877 537.247 228.888C537.237 228.899 537.222 228.905 537.207 228.905ZM521.201 222.616C518.195 222.616 515.724 220.095 515.724 216.967C515.724 213.999 518.238 211.483 521.201 211.483C524.322 211.483 526.841 213.956 526.841 216.967C526.841 220.14 524.367 222.616 521.201 222.616ZM521.201 211.601C518.289 211.601 515.84 214.053 515.84 216.967C515.84 220.001 518.228 222.499 521.201 222.499C524.295 222.499 526.725 220.064 526.725 216.967C526.725 213.993 524.233 211.601 521.201 211.601ZM547.47 222.616C544.465 222.616 541.995 220.095 541.995 216.967C541.995 213.999 544.508 211.483 547.47 211.483C550.591 211.483 553.11 213.956 553.11 216.967C553.11 220.14 550.636 222.616 547.47 222.616ZM547.47 211.601C544.559 211.601 542.111 214.053 542.111 216.967C542.111 220.001 544.498 222.499 547.47 222.499C550.564 222.499 552.994 220.064 552.994 216.967C552.994 213.993 550.503 211.601 547.47 211.601Z" fill="#1F1F1F" stroke="#7D7D7D"/>
<path d="M536.58 225.519L536.58 225.519C536.316 224.219 535.223 223.767 534.418 223.767C533.613 223.767 532.518 224.219 532.255 225.519L532.255 225.519L531.44 229.542C531.44 229.542 531.44 229.542 531.44 229.542C531.333 230.062 531.047 230.532 530.628 230.871C530.21 231.209 529.685 231.395 529.142 231.397C529.142 231.397 529.142 231.397 529.141 231.397L508.842 231.397C508.219 231.396 507.623 231.152 507.184 230.719C506.746 230.286 506.501 229.701 506.5 229.092V205.537C506.5 204.272 507.544 203.232 508.842 203.232H559.992C561.289 203.232 562.333 204.272 562.333 205.537V229.093C562.333 230.357 561.289 231.397 559.992 231.397L539.692 231.397C539.692 231.397 539.692 231.397 539.691 231.397C539.149 231.395 538.624 231.209 538.206 230.871C537.788 230.533 537.502 230.064 537.395 229.543C537.395 229.543 537.395 229.543 537.395 229.543L536.58 225.519ZM536.714 225.499L536.714 225.499L537.529 229.523L537.529 229.525C537.631 230.02 537.903 230.463 538.297 230.782C538.691 231.1 539.182 231.274 539.689 231.275H539.691H559.992C561.202 231.275 562.197 230.303 562.197 229.093V205.537C562.197 204.327 561.202 203.354 559.992 203.354H508.842C507.632 203.354 506.637 204.327 506.637 205.537V229.093C506.637 230.303 507.632 231.275 508.842 231.275H529.143C530.187 231.275 531.097 230.543 531.306 229.523L531.306 229.522L532.121 225.499L532.121 225.499C532.378 224.224 533.44 223.645 534.418 223.645C535.394 223.645 536.456 224.224 536.714 225.499Z" fill="#1F1F1F" stroke="#7D7D7D"/>
<path d="M276.82 8.79465C276.394 9.58846 276.409 10.6492 276.937 11.9647C277.465 13.2769 278.477 14.7728 279.92 16.3578C282.803 19.5243 287.324 22.9627 292.805 25.9033C298.286 28.8439 303.651 30.7095 307.883 31.36C310.002 31.6856 311.808 31.7023 313.193 31.4159C314.581 31.1288 315.473 30.555 315.899 29.7612C316.325 28.9674 316.31 27.9067 315.781 26.5912C315.254 25.279 314.241 23.7831 312.799 22.1981C309.916 19.0316 305.395 15.5932 299.914 12.6526C294.433 9.71198 289.068 7.84631 284.836 7.19581C282.717 6.8702 280.911 6.85352 279.526 7.13993C278.138 7.42706 277.245 8.00084 276.82 8.79465Z" fill="#FAFAFA" stroke="#A7A7A7"/>
<path d="M277.311 29.1258C277.145 29.4366 277.13 29.8886 277.383 30.517C277.634 31.1422 278.124 31.8725 278.842 32.6607C280.274 34.2337 282.532 35.9537 285.281 37.4287C288.031 38.9037 290.712 39.8341 292.815 40.1572C293.868 40.3192 294.748 40.3242 295.408 40.1877C296.071 40.0506 296.44 39.7884 296.606 39.4776C296.773 39.1669 296.788 38.7148 296.535 38.0864C296.284 37.4613 295.793 36.731 295.076 35.9427C293.644 34.3698 291.386 32.6498 288.637 31.1748C285.887 29.6998 283.205 28.7694 281.103 28.4462C280.05 28.2843 279.17 28.2793 278.51 28.4158C277.847 28.5529 277.478 28.8151 277.311 29.1258Z" fill="#FAFAFA" stroke="#A7A7A7"/>
<path d="M534 101L535.431 90L544 96.875L534 101Z" stroke="#FFB800"/>
<path d="M482.875 53L476 44.4782L485.062 39L491 46.9131L482.875 53Z" fill="#E2CBFF"/>
</g>
<defs>
<clipPath id="clip0_5106_65308">
<rect width="576" height="328" fill="white"/>
</clipPath>
</defs>
</svg>
