<svg width="400" height="328" viewBox="0 0 576 328" fill="none" xmlns="http://www.w3.org/2000/svg">
<rect width="300" height="328" fill="#FAFAFA"/>
<path d="M100 186V291" stroke="#D7D7D7"/>
<path d="M43 232H217" stroke="#D7D7D7"/>
<circle cx="280.867" cy="183.969" r="127.867" fill="#F5F5F5"/>
<rect width="31.9006" height="123.045" rx="15.9503" transform="matrix(-0.21462 -0.976698 -0.976698 0.21462 366.024 189.258)" fill="#CE9B6D"/>
<path fill-rule="evenodd" clip-rule="evenodd" d="M402.346 155.374L307.889 157.572L310.086 252.028L404.543 249.831L403.9 222.203C404.546 222.2 405.198 222.162 405.853 222.089C416.018 220.963 423.346 211.81 422.22 201.645C421.14 191.903 412.688 184.768 403.039 185.182L402.346 155.374Z" fill="#FF842B"/>
<mask id="path-6-inside-1_5106_65261" fill="white">
<path fill-rule="evenodd" clip-rule="evenodd" d="M517.613 137.632L515.632 43.1702L421.17 45.152L423.152 139.614L450.781 139.034C450.783 139.68 450.819 140.331 450.891 140.987C451.994 151.155 461.13 158.503 471.298 157.4C481.042 156.343 488.197 147.907 487.805 138.257L517.613 137.632Z"/>
</mask>
<path d="M515.632 43.1702L516.631 43.1492L516.61 42.1494L515.611 42.1704L515.632 43.1702ZM517.613 137.632L517.634 138.632L518.634 138.611L518.613 137.611L517.613 137.632ZM421.17 45.152L421.149 44.1523L420.149 44.1732L420.17 45.173L421.17 45.152ZM423.152 139.614L422.152 139.635L422.173 140.634L423.173 140.613L423.152 139.614ZM450.781 139.034L451.781 139.03L451.777 138.013L450.76 138.034L450.781 139.034ZM487.805 138.257L487.784 137.257L486.764 137.279L486.806 138.298L487.805 138.257ZM514.632 43.1911L516.614 137.653L518.613 137.611L516.631 43.1492L514.632 43.1911ZM421.191 46.1518L515.652 44.17L515.611 42.1704L421.149 44.1523L421.191 46.1518ZM424.152 139.593L422.17 45.1311L420.17 45.173L422.152 139.635L424.152 139.593ZM450.76 138.034L423.131 138.614L423.173 140.613L450.802 140.034L450.76 138.034ZM451.885 140.88C451.817 140.258 451.783 139.641 451.781 139.03L449.781 139.037C449.783 139.718 449.821 140.405 449.896 141.095L451.885 140.88ZM471.19 156.406C461.571 157.449 452.928 150.498 451.885 140.88L449.896 141.095C451.059 151.812 460.689 159.557 471.406 158.394L471.19 156.406ZM486.806 138.298C487.176 147.426 480.407 155.406 471.19 156.406L471.406 158.394C481.676 157.28 489.217 148.389 488.804 138.217L486.806 138.298ZM517.592 136.632L487.784 137.257L487.826 139.257L517.634 138.632L517.592 136.632Z" fill="#A7A7A7" mask="url(#path-6-inside-1_5106_65261)"/>
<mask id="mask0_5106_65261" style="mask-type:alpha" maskUnits="userSpaceOnUse" x="153" y="56" width="256" height="256">
<circle cx="280.867" cy="183.969" r="127.867" fill="#F5F5F5"/>
</mask>
<g mask="url(#mask0_5106_65261)">
<rect width="51.5933" height="236.696" transform="matrix(-0.99731 -0.0732949 -0.0732949 0.99731 285.701 197.881)" fill="#1F1F1F"/>
<rect width="50.1554" height="236.696" transform="matrix(-0.99731 -0.0732949 -0.0732949 0.99731 251.847 195.393)" fill="#414141"/>
<path d="M252.102 196.846L235.085 428.391" stroke="#616161"/>
<path fill-rule="evenodd" clip-rule="evenodd" d="M284.673 99.7468C305.092 109.18 313.998 133.381 304.564 153.801L286.525 192.848L287.113 193.088L286.44 193.032L284.39 197.468L272.369 191.86L202 185.999L206.5 173.499L210.592 163.042L210.5 162.999L230.647 119.578C240.103 99.1975 264.277 90.3241 284.673 99.7468Z" fill="#169F32"/>
<rect width="31.9006" height="123.045" rx="15.9503" transform="matrix(0.0732949 -0.99731 -0.99731 -0.0732949 360.268 223.598)" fill="#E1B48B"/>
<rect width="31.6801" height="67.7948" rx="15.8401" transform="matrix(-0.992521 -0.122078 -0.122078 0.992521 274.979 145.545)" fill="#E1B48B"/>
<path d="M284.633 131.114C286.22 118.214 277.048 106.47 264.148 104.883C251.248 103.296 239.504 112.468 237.917 125.368L230.68 184.211L277.395 189.957L284.633 131.114Z" fill="#007618"/>
</g>
<path d="M130 141L137.806 151.088L146.019 141.292L153.825 151.088L161.223 142.023L169.146 151.38L176.194 142.17L182.951 151.234L190.582 141.877" stroke="#FFB800" stroke-miterlimit="10" stroke-linecap="round" stroke-linejoin="round"/>
<circle r="26.7018" transform="matrix(-0.99731 -0.0732949 -0.0732949 0.99731 292.955 70.669)" fill="#E1B48B"/>
<path fill-rule="evenodd" clip-rule="evenodd" d="M422.924 155.115L422.936 156.115L423.289 184.064C425.616 184.122 427.916 184.599 430.078 185.475C432.435 186.43 434.582 187.84 436.394 189.625C438.207 191.409 439.65 193.534 440.642 195.876C441.634 198.218 442.154 200.733 442.174 203.277C442.194 205.821 441.713 208.343 440.757 210.701C439.802 213.058 438.392 215.205 436.608 217.017C434.823 218.83 432.699 220.273 430.356 221.265C428.266 222.15 426.039 222.66 423.777 222.774L424.102 248.59L424.115 249.59L425.115 249.577L517.59 248.411L518.59 248.399L518.577 247.399L517.411 154.924L517.399 153.924L516.399 153.936L489.999 154.269C489.995 154.603 489.984 154.937 489.967 155.27L516.411 154.936L517.577 247.411L425.102 248.577L424.789 223.701C426.836 223.501 428.845 222.991 430.746 222.186C433.21 221.143 435.444 219.625 437.32 217.719C439.197 215.813 440.68 213.556 441.684 211.076C442.689 208.597 443.195 205.944 443.174 203.269C443.153 200.594 442.606 197.949 441.563 195.486C440.52 193.023 439.002 190.789 437.096 188.912C435.19 187.035 432.932 185.552 430.453 184.548C428.479 183.748 426.395 183.264 424.277 183.111L423.936 156.102L450.065 155.773C450.041 155.44 450.023 155.107 450.012 154.773L423.924 155.102L422.924 155.115Z" fill="#A7A7A7"/>
<path d="M450 155.477V155.477C450 164.465 456.028 172.377 464.705 174.719V174.719C467.821 175.56 471.105 175.628 474.254 174.922V174.922C483.204 172.913 489.689 165.085 489.958 155.916L490 154.5" stroke="#A7A7A7" stroke-linecap="round"/>
<path d="M34.8747 41L28 32.4782L37.0622 27L43 34.9131L34.8747 41Z" fill="#FF842B"/>
<path d="M553.646 271.4L545.823 263.578L538 271.4" stroke="#570DB4"/>
<path d="M553.646 263.209L545.823 255.386L538 263.209" stroke="#570DB4"/>
<path d="M553.646 255.018L545.823 247.195L538 255.018" stroke="#570DB4"/>
<path d="M553.646 246.822L545.823 239L538 246.822" stroke="#570DB4"/>
<path d="M66.8711 129.574C66.8711 132.704 66.1919 135.514 65.1184 137.522C64.0336 139.552 62.6196 140.648 61.1855 140.648C59.7515 140.648 58.3375 139.552 57.2527 137.522C56.1792 135.514 55.5 132.704 55.5 129.574C55.5 126.443 56.1792 123.634 57.2527 121.626C58.3375 119.596 59.7515 118.5 61.1855 118.5C62.6196 118.5 64.0336 119.596 65.1184 121.626C66.1919 123.634 66.8711 126.443 66.8711 129.574Z" stroke="#169F32"/>
<path d="M73.2934 128.043C73.2934 130.751 72.7058 133.177 71.7803 134.909C70.8436 136.662 69.6341 137.586 68.426 137.586C67.2178 137.586 66.0084 136.662 65.0716 134.909C64.1462 133.177 63.5586 130.751 63.5586 128.043C63.5586 125.335 64.1462 122.909 65.0716 121.177C66.0084 119.424 67.2178 118.5 68.426 118.5C69.6341 118.5 70.8436 119.424 71.7803 121.177C72.7058 122.909 73.2934 125.335 73.2934 128.043Z" stroke="#7128CE"/>
<rect x="191.253" y="68.7071" width="20.7277" height="20.7277" transform="rotate(44.5693 191.253 68.7071)" stroke="#CD2026"/>
<ellipse cx="557" cy="47.5" rx="7" ry="6.5" fill="#FFE2C8"/>
<path d="M333 51C350.408 58.5 389.378 83.4 406 123" stroke="#FFB800" stroke-linecap="round"/>
<path d="M49.8864 292.857L40.1082 294.413L42.3945 282.844L29.7404 284.859L31.4515 273.381" stroke="#A7A7A7"/>
<path d="M122.824 27L128.302 43.8999L143.913 35.8941L136.05 51.7883L152.648 57.3662L136.05 62.9441L143.913 78.8383L128.302 70.8325L122.824 87.7324L117.346 70.8325L101.735 78.8383L109.598 62.9441L93 57.3662L109.598 51.7883L101.735 35.8941L117.346 43.8999L122.824 27Z" fill="#FFB800"/>
</svg>
