<svg width="350" height="220" viewBox="0 0 576 328" fill="none" xmlns="http://www.w3.org/2000/svg">
<rect x="344.421" y="11" width="197.034" height="103.284" fill="#EEF9F0"/>
<rect x="333.299" y="17.3555" width="219.28" height="115.996" fill="#DAF4DF"/>
<rect x="25.0527" y="222.316" width="103.737" height="61.4737" fill="#FFE2C8"/>
<path d="M95.4912 174.93H223.561V238.965C223.561 274.33 194.892 303 159.526 303C124.161 303 95.4912 274.33 95.4912 238.965V174.93Z" fill="#FFB178"/>
<circle cx="267.371" cy="184.105" r="100.16" fill="#F5F5F5"/>
<mask id="mask0_5106_65437" style="mask-type:alpha" maskUnits="userSpaceOnUse" x="167" y="86" width="201" height="201">
<circle cx="267.371" cy="186.191" r="100.16" fill="#FAFAFA"/>
</mask>
<g mask="url(#mask0_5106_65437)">
<circle cx="237.958" cy="106.41" r="28.4023" fill="#E1B48B"/>
<rect x="183.904" y="175.758" width="33.6977" height="145.381" rx="16.8488" fill="#E1B48B"/>
<path d="M183.655 176.954C183.462 161.173 194.345 147.412 209.747 143.965L230.853 139.24L269.457 149.879L222.776 218.759L184.141 216.673L183.655 176.954Z" fill="#CD2026"/>
<path d="M185.388 192.808C185.388 163.164 209.419 139.133 239.063 139.133C268.707 139.133 292.739 163.164 292.739 192.808V287.16H185.388L185.388 192.808Z" fill="#CD2026"/>
<rect width="33.6977" height="108.963" rx="16.8488" transform="matrix(-0.259325 0.96579 0.96579 0.259325 253.815 147.588)" fill="#E1B48B"/>
<path d="M269.888 149.156C259.273 146.074 248.234 152.477 245.637 163.221C243.166 173.445 249.297 183.775 259.456 186.502L305.192 198.779L314.998 162.249L269.888 149.156Z" fill="#A70B11"/>
</g>
<circle cx="237.347" cy="106.088" r="28.4023" fill="#E1B48B"/>
<rect x="322.176" y="28.4785" width="240.772" height="126.858" fill="#B2E7BC"/>
<path d="M349.812 128.421L334.803 169.497L322.283 200.797C330.407 203.363 337.235 204.942 342.711 205.593C350.31 206.495 356.183 200.871 358.9 193.717L379.496 139.48C382.9 130.518 377.624 120.61 368.288 118.432C360.49 116.612 352.56 120.899 349.812 128.421Z" fill="#E1B48B"/>
<path d="M357.133 65.0254H527.154" stroke="#43BE5C"/>
<path d="M357.133 80.916H527.154" stroke="#43BE5C"/>
<path d="M357.133 96.8047H527.154" stroke="#43BE5C"/>
<path d="M357.133 112.695H474.718" stroke="#43BE5C"/>
<path d="M46.8242 183.895L56.8212 196.814L67.3403 184.269L77.3372 196.814L86.8119 185.205L96.9581 197.189L105.985 185.392L114.639 197.001L124.412 185.018" stroke="#A7A7A7" stroke-miterlimit="10" stroke-linecap="round" stroke-linejoin="round"/>
<path d="M182.615 24.5082L186.442 42.4844L198.655 31.8496L187.59 28.6924" stroke="#FF842B"/>
<path d="M42.8747 258L36 249.478L45.0622 244L51 251.913L42.8747 258Z" fill="#FFB800"/>
<path d="M256.859 82.9498C256.859 96.8079 231.245 112.817 208.833 105.132C209.473 91.0447 223.189 66.7032 256.859 82.9498Z" fill="black"/>
<path d="M383.009 183.895C382.029 200.833 376.953 229.653 359.956 253.693C346.163 273.202 323.991 289.125 294 296.487" stroke="#8A49DD" stroke-linecap="round"/>
<path d="M463.948 311.33C472.266 311.806 480.593 310.546 488.398 307.63C496.203 304.714 503.316 300.205 509.284 294.39C515.252 288.575 519.945 281.582 523.063 273.856C526.182 266.129 527.658 257.838 527.398 249.51C527.139 241.182 525.148 232.999 521.554 225.482C517.96 217.964 512.841 211.277 506.522 205.846C500.204 200.415 492.824 196.358 484.852 193.933C476.88 191.509 468.491 190.77 460.218 191.764L464.129 224.309C467.885 223.858 471.695 224.193 475.315 225.294C478.935 226.395 482.286 228.237 485.155 230.704C488.025 233.17 490.349 236.207 491.981 239.62C493.614 243.034 494.517 246.75 494.635 250.532C494.753 254.314 494.083 258.079 492.667 261.587C491.25 265.096 489.12 268.272 486.409 270.912C483.699 273.553 480.469 275.6 476.925 276.924C473.381 278.249 469.6 278.821 465.822 278.605L463.948 311.33Z" fill="#FFB800"/>
<circle cx="487.5" cy="264.5" r="13" stroke="#1F1F1F"/>
<rect x="16.5" y="24.3203" width="114.18" height="81.5963" stroke="#8A49DD"/>
<rect x="22.8203" y="17" width="115.18" height="82.5963" fill="#EAD9FF"/>
<path d="M72.2273 51.9141L91.3237 72.6958H53.1309L72.2273 51.9141Z" fill="#C29FEF"/>
<path d="M96.764 58.416L107.792 72.6964H85.7363L96.764 58.416Z" fill="#C29FEF"/>
<circle cx="87.7389" cy="49.4889" r="5.20963" fill="#C29FEF"/>
<path d="M425 245L429.776 259.47L443.385 252.615L436.53 266.224L451 271L436.53 275.776L443.385 289.385L429.776 282.53L425 297L420.224 282.53L406.615 289.385L413.47 275.776L399 271L413.47 266.224L406.615 252.615L420.224 259.47L425 245Z" fill="#C29FEF"/>
</svg>
