<svg width="488" height="275" viewBox="0 0 488 275" fill="none" xmlns="http://www.w3.org/2000/svg">
<g clip-path="url(#clip0_6633_36516)">
<rect width="488" height="274.5" transform="translate(0 0.5)" fill="#570DB4"/>
<path d="M40.5 211L107 49.5C280.5 122.5 350 39.5 456 -14.5C441.5 29 378 220 355.5 294C323.5 239 181.5 175.5 40.5 211Z" fill="#6B19D1"/>
<path d="M232.291 186.423C248.939 192.449 270.261 184.544 279.894 165.412C289.527 146.279 290.229 120.216 289.141 111.831" stroke="#FF842B" stroke-width="3" stroke-linecap="round"/>
<path d="M309.333 108.908L336.702 144.595C336.158 145.406 335.615 146.216 335.226 147.012C334.432 148.453 333.653 150.045 333.18 151.608L314.467 135.453C313.038 131.792 311.512 128.747 309.835 127.386C309.332 126.978 308.829 126.57 308.34 126.312L309.333 108.908Z" fill="#FFB800"/>
<path d="M308.126 95.2587C309.522 97.258 310.213 99.7803 310.141 102.222L309.868 108.945L308.943 126.382C302.951 122.076 297.455 123.051 297.455 123.051L299.84 133.937L265.565 137.165C259.916 126.891 241.962 130.256 241.962 130.256L245.957 139.012L228.595 140.647L210.953 126.481C211.908 126.999 213.133 127.188 214.331 127.076L290.515 119.9C293.508 119.618 295.853 117.266 296.168 114.192L299.248 84.3757C299.42 82.9897 299.157 81.7969 298.608 80.7832L308.126 95.2587Z" fill="#FFB800"/>
<path d="M299.224 84.1999L296.134 114.114C295.818 117.197 293.465 119.557 290.462 119.839L214.031 127.039C212.829 127.152 211.6 126.963 210.642 126.442C208.411 125.278 206.817 122.832 207.161 120.051L210.252 90.1375C210.567 87.0539 212.92 84.6945 215.924 84.4116L292.355 77.2122C293.706 77.0849 294.95 77.4258 295.908 77.9464C296.702 78.3297 297.21 78.8927 297.881 79.5928L298.417 80.4585L298.432 80.6099C299.132 81.6127 299.396 82.8094 299.224 84.1999Z" fill="#FFF4EA"/>
<path d="M286.821 83.5591C287.727 83.4738 288.553 84.1528 288.637 85.053C288.722 85.9532 288.038 86.7744 287.132 86.8598L221.14 93.0758C220.234 93.1612 219.408 92.4822 219.323 91.582C219.239 90.6818 219.923 89.8605 220.829 89.7752L286.821 83.5591Z" fill="#CD2026"/>
<path d="M255.598 156.159C257.429 159.981 256.504 164.21 253.831 165.497C251.012 166.798 247.293 164.781 245.609 160.946C243.778 157.125 244.703 152.896 247.376 151.609C250.194 150.308 253.768 152.338 255.598 156.159Z" fill="white"/>
<path d="M166.698 66.2324L189.31 93.6681L154.604 109.879C164.371 105.035 171.009 94.296 171.009 83.1733C171.009 76.984 170.017 70.8071 166.698 66.2324Z" fill="#A26AE9"/>
<path d="M167.194 66.2634C170.499 71.089 172.482 76.8425 172.482 83.1529C172.482 94.66 165.873 104.682 156.147 109.693L153.408 110.9C149.914 112.292 146.043 113.034 141.982 113.034C125.08 113.034 111.482 99.5783 111.482 83.0601C111.482 66.449 125.174 53.0859 141.982 53.0859C152.464 53.0859 161.623 58.2827 167.194 66.2634Z" fill="#A26AE9"/>
<path d="M151.448 82.0078C151.448 90.4697 144.33 97.2578 135.672 97.2578C126.919 97.2578 119.896 90.3767 119.896 82.0078C119.896 73.5459 127.015 66.7578 135.672 66.7578C144.33 66.7578 151.448 73.6389 151.448 82.0078Z" fill="#570DB4"/>
<path d="M118.776 117.241C118.651 117.241 118.402 117.241 118.277 117.115L91.9982 102.594C91.6245 102.468 91.5 102.089 91.5 101.711L91.6245 45.6504C91.6245 45.2716 91.7491 45.0191 92.1227 44.7666C92.3718 44.6403 92.7455 44.6403 93.1191 44.7666L119.398 59.2867C119.772 59.4129 119.897 59.7917 119.897 60.1705L119.772 116.231C119.772 116.61 119.647 116.862 119.274 117.115C119.149 117.115 118.9 117.241 118.776 117.241ZM93.4927 101.206L117.779 114.589L117.904 60.8018L93.6173 47.4181L93.4927 101.206Z" fill="#B2E7BC"/>
<path d="M119.308 61.4992C119.182 61.4992 118.928 61.4992 118.801 61.3649L92.0403 45.9247C91.6598 45.6562 91.4062 45.2534 91.533 44.8506C91.6598 44.4478 91.9135 44.045 92.4208 44.045L144.547 36.2578C144.801 36.2578 144.928 36.2578 145.182 36.3921L171.942 51.8323C172.323 52.1008 172.577 52.5036 172.45 52.9064C172.323 53.3092 172.069 53.712 171.562 53.712L119.435 61.4992C119.308 61.4992 119.308 61.4992 119.308 61.4992ZM95.7183 45.6562L119.435 59.351L168.264 52.1008L144.547 38.2718L95.7183 45.6562Z" fill="#B2E7BC"/>
<path d="M119.847 117.24C119.597 117.24 119.346 117.114 119.221 116.988C118.97 116.862 118.845 116.485 118.845 116.233L118.97 60.3414C118.97 59.8379 119.346 59.4602 119.847 59.3344L171.355 52.0332C171.605 52.0332 171.981 52.0332 172.107 52.285C172.357 52.4109 172.483 52.7885 172.483 53.0403L172.357 108.932C172.357 109.435 171.981 109.813 171.48 109.939L119.973 117.24H119.847ZM120.85 61.2226L120.725 115.1L170.352 108.051L170.478 54.1732L120.85 61.2226Z" fill="#B2E7BC"/>
<circle cx="216.998" cy="-39.5017" r="54.9983" fill="#CD2026"/>
<path d="M-140 243.271C132.998 114.778 -19.499 253.007 -48.9996 265.5L320.5 273" stroke="#FF842B" stroke-width="3" stroke-linecap="round"/>
<path d="M561.601 178.097C378.819 157.507 299.213 260.625 334.568 289.865L210.533 407.032" stroke="#169F32" stroke-width="3" stroke-linecap="round"/>
</g>
<defs>
<clipPath id="clip0_6633_36516">
<rect width="488" height="274.5" fill="white" transform="translate(0 0.5)"/>
</clipPath>
</defs>
</svg>
