<svg width="488" height="275" viewBox="0 0 488 275" fill="none" xmlns="http://www.w3.org/2000/svg">
<rect width="488" height="274.5" transform="translate(0 0.5)" fill="#169F32"/>
<path d="M137.195 172.456C126.887 186.429 113.638 233.52 146.128 237.739C181.891 242.383 235.183 136.025 343.136 144.593" stroke="#B2E7BC" stroke-width="0.95082" stroke-dasharray="7.61 7.61"/>
<rect x="155.541" y="54.9336" width="152.131" height="152.131" rx="30.4262" fill="white"/>
<path d="M228.048 184.36C236.625 184.36 243.587 177.399 243.587 168.822V153.283H228.048C219.471 153.283 212.51 160.244 212.51 168.822C212.51 177.399 219.471 184.36 228.048 184.36Z" fill="#0ACF83"/>
<path d="M212.51 137.751C212.51 129.174 219.471 122.213 228.048 122.213H243.587V153.29H228.048C219.471 153.29 212.51 146.328 212.51 137.751Z" fill="#A259FF"/>
<path d="M212.51 106.671C212.51 98.094 219.471 91.1328 228.048 91.1328H243.587V122.21H228.048C219.471 122.21 212.51 115.248 212.51 106.671Z" fill="#F24E1E"/>
<path d="M243.587 91.1328H259.125C267.703 91.1328 274.664 98.094 274.664 106.671C274.664 115.248 267.703 122.21 259.125 122.21H243.587V91.1328Z" fill="#FF7262"/>
<path d="M274.664 137.751C274.664 146.328 267.703 153.29 259.125 153.29C250.548 153.29 243.587 146.328 243.587 137.751C243.587 129.174 250.548 122.213 259.125 122.213C267.703 122.213 274.664 129.174 274.664 137.751Z" fill="#1ABCFE"/>
<path d="M155.541 54.9336L307.672 54.9336" stroke="black" stroke-width="0.95082"/>
<path d="M155.541 54.9336L307.672 54.9336" stroke="#007618" stroke-width="0.95082"/>
<path d="M155.541 207.066L307.672 207.066" stroke="#007618" stroke-width="0.95082"/>
<path d="M307.672 207.066L307.672 54.9353" stroke="#007618" stroke-width="0.95082"/>
<path d="M155.541 207.066L155.541 54.9353" stroke="#007618" stroke-width="0.95082"/>
<rect x="150.858" y="50.2645" width="9.4486" height="9.4486" fill="#B2E7BC" stroke="#007618" stroke-width="0.95082"/>
<rect x="302.948" y="50.2645" width="9.4486" height="9.4486" fill="#B2E7BC" stroke="#007618" stroke-width="0.95082"/>
<rect x="302.948" y="202.343" width="9.4486" height="9.4486" fill="#B2E7BC" stroke="#007618" stroke-width="0.95082"/>
<rect x="150.817" y="202.343" width="9.4486" height="9.4486" fill="#B2E7BC" stroke="#007618" stroke-width="0.95082"/>
<path d="M130.992 166.267L142.278 178.995L149.812 172.109L148.267 170.366L156.819 166.167L163.984 148.096L145.558 152.954L140.332 161.417L138.526 159.381L130.992 166.267Z" fill="#B2E7BC"/>
<path d="M148.267 170.366L149.812 172.109L142.278 178.995L130.992 166.267L138.526 159.381L140.332 161.417M148.267 170.366L156.819 166.167L163.984 148.096M148.267 170.366L140.332 161.417M163.984 148.096L145.558 152.954L140.332 161.417M163.984 148.096L153.436 157.737" stroke="#007618" stroke-width="0.95082"/>
<path d="M304.184 98.5489L311.008 91.7246L315.268 95.985L308.444 102.809C306.828 104.426 305.087 104.121 304.576 103.61L303.767 104.418C303.408 104.778 302.973 104.702 302.717 104.446C302.462 104.19 302.386 103.755 302.745 103.396L303.553 102.588C302.957 101.991 302.388 100.345 304.184 98.5489Z" fill="white" stroke="#007618" stroke-width="0.95082"/>
<path d="M319.587 95.2428L316.519 98.3103L308.51 90.3008L311.577 87.2333L313.026 88.6818L315.838 85.87C317.542 84.1658 319.757 84.1658 321.035 85.4439C322.654 87.0629 323.251 88.8523 321.035 91.0676L318.223 93.8795L319.587 95.2428Z" fill="#FFB800"/>
<rect x="354.678" y="57.9731" width="87.3031" height="57.407" stroke="#007618" stroke-width="2.85246"/>
<circle cx="362.255" cy="66.6179" r="2.44988" fill="#DD3B41"/>
<circle cx="369.604" cy="66.6179" r="2.44988" fill="#FFB800"/>
<circle cx="376.954" cy="66.6179" r="2.44988" fill="#FF842B"/>
<path d="M155.583 75.7227L159.828 86.0163L170.108 81.7392L165.831 92.0195L176.125 96.2645L165.831 100.509L170.108 110.79L159.828 106.513L155.583 116.806L151.338 106.513L141.058 110.79L145.335 100.509L135.041 96.2645L145.335 92.0195L141.058 81.7392L151.338 86.0163L155.583 75.7227Z" fill="#FF842B"/>
<rect x="41.2379" y="172.025" width="36.868" height="15.0601" rx="7.53005" stroke="#007618" stroke-width="1.90164"/>
<circle cx="70.5753" cy="179.554" r="6.05776" fill="#FFB800"/>
<rect x="41.2379" y="196.252" width="36.868" height="15.0601" rx="7.53005" stroke="#007618" stroke-width="1.90164"/>
<circle cx="48.7687" cy="203.78" r="6.05776" fill="#FFB800"/>
<path d="M46.498 36.9008C46.8912 35.9177 47.9283 34.2466 48.931 35.4262C50.1843 36.9008 49.6645 39.5549 51.8673 39.5549C53.9526 39.5549 54.0634 34.9102 55.4189 34.9102C57.0617 34.9102 57.2979 39.5549 59.1051 39.5549C60.4343 39.5549 61.1312 34.9102 62.7284 34.9102C64.5716 34.9101 65.0161 39.5549 66.6989 39.5549C68.3614 39.5549 69.1993 34.9102 70.4527 34.9102C71.706 34.9102 71.8554 38.1764 72.8442 38.7203" stroke="#D7D7D7" stroke-width="1.90164"/>
<circle cx="36.483" cy="108.467" r="3.80328" fill="#FF842B"/>
<path d="M427.338 232.357L433.183 225.809L435.931 234.145L427.338 232.357Z" stroke="#43BE5C" stroke-width="0.95082"/>
<g opacity="0.4">
<rect x="344.561" y="176.75" width="107.311" height="33.1415" rx="16.5707" stroke="#007618" stroke-width="2.85246"/>
<rect x="344.771" y="186.89" width="106.888" height="1.09344" fill="#1F1F1F" stroke="#007618" stroke-width="1.09344"/>
<rect x="345.863" y="199.867" width="104.707" height="1.09344" fill="#1F1F1F" stroke="#007618" stroke-width="1.09344"/>
<rect x="355.676" y="178.049" width="30.5413" height="1.08976" transform="rotate(90 355.676 178.049)" fill="#1F1F1F" stroke="#007618" stroke-width="1.08976"/>
<rect x="368.766" y="175.871" width="34.9005" height="1.09344" transform="rotate(90 368.766 175.871)" fill="#1F1F1F" stroke="#007618" stroke-width="1.09344"/>
<rect x="382.945" y="175.871" width="22.9025" height="1.09344" transform="rotate(90 382.945 175.871)" fill="#1F1F1F" stroke="#007618" stroke-width="1.09344"/>
<rect x="397.125" y="175.871" width="22.9025" height="1.09344" transform="rotate(90 397.125 175.871)" fill="#1F1F1F" stroke="#007618" stroke-width="1.09344"/>
<rect x="411.303" y="175.871" width="22.9025" height="1.09344" transform="rotate(90 411.303 175.871)" fill="#1F1F1F" stroke="#007618" stroke-width="1.09344"/>
<rect x="425.483" y="175.871" width="34.9005" height="1.09344" transform="rotate(90 425.483 175.871)" fill="#1F1F1F" stroke="#007618" stroke-width="1.09344"/>
<rect x="439.66" y="176.965" width="32.7191" height="1.09344" transform="rotate(90 439.66 176.965)" fill="#1F1F1F" stroke="#007618" stroke-width="1.09344"/>
</g>
<rect x="91.8465" y="90.9168" width="3.17424" height="3.17424" stroke="#007618" stroke-width="0.95082"/>
<rect x="98.4461" y="90.9168" width="3.17424" height="3.17424" stroke="#007618" stroke-width="0.95082"/>
<rect x="105.46" y="90.9168" width="3.17424" height="3.17424" stroke="#007618" stroke-width="0.95082"/>
<rect x="91.8465" y="97.5184" width="3.17424" height="3.17424" stroke="#007618" stroke-width="0.95082"/>
<rect x="91.8465" y="104.116" width="3.17424" height="3.17424" stroke="#007618" stroke-width="0.95082"/>
<rect x="98.4461" y="97.5184" width="3.17424" height="3.17424" stroke="#007618" stroke-width="0.95082"/>
<rect x="98.4461" y="104.116" width="3.17424" height="3.17424" stroke="#007618" stroke-width="0.95082"/>
<rect x="105.46" y="97.5184" width="3.17424" height="3.17424" stroke="#007618" stroke-width="0.95082"/>
<rect x="105.46" y="104.116" width="3.17424" height="3.17424" stroke="#007618" stroke-width="0.95082"/>
</svg>
