<svg width="488" height="275" viewBox="0 0 488 275" fill="none" xmlns="http://www.w3.org/2000/svg">
<g clip-path="url(#clip0_6633_36255)">
<rect width="488" height="274.5" fill="#CD2026"/>
<path d="M500.367 250.528L392.8 141.14L541.316 102.678L500.367 250.528Z" fill="#FFB800"/>
<path d="M73.784 40.8482L-33.7831 -68.5395L114.733 -107.001L73.784 40.8482Z" fill="#A26AE9"/>
<path d="M214.441 3.56573L415.393 207.919L137.942 279.772L214.441 3.56573Z" fill="#DD3B41"/>
<rect x="397.951" y="50.9615" width="53.7209" height="53.7209" transform="rotate(-60 397.951 50.9615)" stroke="white" stroke-miterlimit="3.3292" stroke-dasharray="3.92 3.92"/>
<rect x="409.382" y="69.0409" width="52.461" height="52.461" transform="rotate(-92.5379 409.382 69.0409)" stroke="#1F1F1F"/>
<rect x="407.468" y="71.1268" width="4.3461" height="4.3461" transform="rotate(-92.5379 407.468 71.1268)" fill="white" stroke="#1F1F1F"/>
<rect x="405.158" y="19.0526" width="4.3461" height="4.3461" transform="rotate(-92.5379 405.158 19.0526)" fill="white" stroke="#1F1F1F"/>
<rect x="460.208" y="68.7948" width="4.3461" height="4.3461" transform="rotate(-92.5379 460.208 68.7948)" fill="white" stroke="#1F1F1F"/>
<rect x="457.901" y="16.7205" width="4.3461" height="4.3461" transform="rotate(-92.5379 457.901 16.7205)" fill="white" stroke="#1F1F1F"/>
<path d="M433.504 40.1889C441.933 1.79783 483.619 -10.6693 505.188 -3.47779" stroke="white"/>
<circle cx="434.163" cy="41.7391" r="5.56865" transform="rotate(-60 434.163 41.7391)" fill="#FFB800"/>
<path d="M-129.89 254.224C157.229 119.084 -3.1559 264.463 -34.1825 277.603L354.429 285.491" stroke="#FAFAFA" stroke-width="2" stroke-linecap="round"/>
<path d="M162.874 94.9805H121.587V216.378H193.07V191.113" stroke="#1F1F1F"/>
<rect x="118.276" y="91.4336" width="6.47988" height="6.47988" fill="white" stroke="#1F1F1F"/>
<rect x="118.276" y="213.137" width="6.47988" height="6.47988" fill="white" stroke="#1F1F1F"/>
<rect x="189.83" y="213.137" width="6.47988" height="6.47988" fill="white" stroke="#1F1F1F"/>
<rect x="163.643" y="58.8867" width="191.889" height="135.415" rx="7.5" fill="white" stroke="#1F1F1F"/>
<path d="M171.143 58.8867H348.031C352.173 58.8867 355.531 62.2446 355.531 66.3867V80.0055H163.643V66.3867C163.643 62.2446 167 58.8867 171.143 58.8867Z" fill="white" stroke="#1F1F1F"/>
<circle cx="176.03" cy="69.4412" r="3.2537" fill="#CD2026"/>
<circle cx="185.792" cy="69.4412" r="3.2537" fill="#FFB800"/>
<circle cx="195.551" cy="69.4412" r="3.2537" fill="#43BE5C"/>
<path d="M304.41 130.005L301.373 133.041L293.445 125.113L296.482 122.077L297.915 123.511L300.699 120.728C302.386 119.041 304.578 119.041 305.844 120.306C307.446 121.908 308.036 123.679 305.844 125.872L303.06 128.656L304.41 130.005Z" fill="#FFB800"/>
<path d="M295.386 127.054C293.053 129.388 290.259 132.182 288.977 133.464C287.29 135.151 287.88 136.753 288.47 137.344C288.189 137.625 288.454 137.36 287.711 138.103C287.374 138.44 287.458 138.862 287.711 139.115C287.964 139.368 288.386 139.452 288.724 139.115C289.196 138.642 289.089 138.749 289.483 138.356C289.989 138.862 291.675 139.199 293.194 137.681C294.408 136.466 297.242 133.633 299.603 131.271" stroke="#1F1F1F"/>
<path d="M182.918 149.271V98.543H239.778V149.271H182.918Z" stroke="#1F1F1F"/>
<path d="M239.633 98.9023L183.131 149.203" stroke="#1F1F1F"/>
<path d="M183.132 98.9023L239.634 149.203" stroke="#1F1F1F"/>
<rect x="327.136" y="112" width="43.6766" height="43.6766" fill="#FFB800"/>
<path d="M338.391 126.594L341.672 129.711L344.625 126.594L347.743 129.711L351.188 126.594L354.306 129.711L356.439 126.594L359.556 129.711" stroke="#1F1F1F"/>
<path d="M331.965 182.902L341.884 206.712L345.406 196.344L355.775 192.822L331.965 182.902Z" fill="white" stroke="#1F1F1F" stroke-linecap="round" stroke-linejoin="round"/>
<path d="M345.997 196.934L354.415 205.352" stroke="#1F1F1F" stroke-linecap="round" stroke-linejoin="round"/>
</g>
<defs>
<clipPath id="clip0_6633_36255">
<rect width="488" height="274.5" fill="white"/>
</clipPath>
</defs>
</svg>
