<svg width="36" height="44" viewBox="0 0 36 44" fill="none" xmlns="http://www.w3.org/2000/svg">
<path d="M26.137 0.916667V5.04167H20.2192C17.5068 5.04167 15.2877 7.10417 15.2877 9.625V21.0833H9.86301V16.9583C9.86301 16.4542 9.41918 16.0417 8.87671 16.0417H0.986301C0.443836 16.0417 0 16.4542 0 16.9583V27.0417C0 27.5458 0.443836 27.9583 0.986301 27.9583H8.87671C9.41918 27.9583 9.86301 27.5458 9.86301 27.0417V22.9167H15.2877V34.375C15.2877 36.8958 17.5068 38.9583 20.2192 38.9583H26.137V43.0833C26.137 43.5875 26.5808 44 27.1233 44H35.0137C35.5562 44 36 43.5875 36 43.0833V33C36 32.4958 35.5562 32.0833 35.0137 32.0833H27.1233C26.5808 32.0833 26.137 32.4958 26.137 33V37.125H20.2192C18.5918 37.125 17.2603 35.8875 17.2603 34.375V22.9167H26.137V27.0417C26.137 27.5458 26.5808 27.9583 27.1233 27.9583H35.0137C35.5562 27.9583 36 27.5458 36 27.0417V16.9583C36 16.4542 35.5562 16.0417 35.0137 16.0417H27.1233C26.5808 16.0417 26.137 16.4542 26.137 16.9583V21.0833H17.2603V9.625C17.2603 8.1125 18.5918 6.875 20.2192 6.875H26.137V11C26.137 11.5042 26.5808 11.9167 27.1233 11.9167H35.0137C35.5562 11.9167 36 11.5042 36 11V0.916667C36 0.4125 35.5562 0 35.0137 0H27.1233C26.5808 0 26.137 0.4125 26.137 0.916667ZM34.0274 33.9167V42.1667H28.1096V33.9167H34.0274ZM28.1096 17.875H34.0274V26.125H28.1096V17.875ZM7.89041 26.125H1.9726V17.875H7.89041V26.125ZM34.0274 1.83333V10.0833H28.1096V1.83333H34.0274Z" fill="#CD2026"/>
</svg>
