<svg width="25" height="34" viewBox="0 0 25 34" fill="none" xmlns="http://www.w3.org/2000/svg">
<path d="M21.8833 22.2173L24.7 3.91732C24.8667 2.91732 24.0833 2.00065 23.05 2.00065H18.3333C18.3333 1.08398 17.5833 0.333984 16.6667 0.333984H13.3333C12.4167 0.333984 11.6667 1.08398 11.6667 2.00065H3.33333C1.5 2.00065 0 3.50065 0 5.33398V12.0007C0 13.834 1.5 15.334 3.33333 15.334H7.05L8.11667 22.2173C6.23333 23.7507 5 26.0507 5 28.6673V30.334C5 32.1673 6.5 33.6673 8.33333 33.6673H21.6667C23.5 33.6673 25 32.1673 25 30.334V28.6673C25 26.0507 23.7667 23.7507 21.8833 22.2173ZM3.33333 12.0007V5.33398H5.51667L6.55 12.0007H3.33333ZM15 28.6673C14.0833 28.6673 13.3333 27.9173 13.3333 27.0007C13.3333 26.084 14.0833 25.334 15 25.334C15.9167 25.334 16.6667 26.084 16.6667 27.0007C16.6667 27.9173 15.9167 28.6673 15 28.6673ZM18.8167 20.334H11.2L8.88333 5.33398H21.1167L18.8167 20.334Z" fill="#CD2026"/>
</svg>
