<svg width="20" height="18" viewBox="0 0 20 18" fill="none" xmlns="http://www.w3.org/2000/svg">
<path d="M16.9808 2.06635H14.3441V1.3076C14.3441 0.96617 14.0596 0.681641 13.7182 0.681641C13.3767 0.681641 13.0922 0.96617 13.0922 1.3076V2.06635H6.92741V1.3076C6.92741 0.96617 6.64288 0.681641 6.30144 0.681641C5.96001 0.681641 5.67548 0.96617 5.67548 1.3076V2.06635H3.01988C1.90073 2.06635 0.990234 2.97684 0.990234 4.09599V15.9703C0.990234 17.0895 1.90073 18 3.01988 18H16.9808C18.0999 18 19.0104 17.0895 19.0104 15.9703V4.07702C19.0104 2.97684 18.0999 2.06635 16.9808 2.06635ZM17.7585 15.9514C17.7585 16.3687 17.417 16.7101 16.9808 16.7101H3.01988C2.60257 16.7101 2.24216 16.3687 2.24216 15.9514V7.90868H17.7395V15.9514H17.7585ZM17.7585 6.63778H2.24216V4.07702C2.24216 3.65971 2.5836 3.31828 3.01988 3.31828H5.65651V4.07702C5.65651 4.41846 5.94104 4.70298 6.28247 4.70298C6.62391 4.70298 6.90844 4.41846 6.90844 4.07702V3.31828H13.0732V4.07702C13.0732 4.41846 13.3578 4.70298 13.6992 4.70298C14.0406 4.70298 14.3252 4.41846 14.3252 4.07702V3.31828H16.9618C17.3791 3.31828 17.7395 3.65971 17.7395 4.07702V6.63778H17.7585Z" fill="white"/>
<path d="M8.2922 12.8968C8.36808 12.9537 8.38705 13.0675 8.36808 13.1434L8.14045 14.4333C8.08355 14.7368 8.40601 14.9834 8.69054 14.8316L9.82866 14.2436C9.90453 14.2056 10.0183 14.2056 10.0942 14.2436L11.2513 14.8506C11.5358 15.0023 11.8583 14.7557 11.8014 14.4522L11.5927 13.1813C11.5738 13.0865 11.6117 12.9917 11.6686 12.9347L12.617 12.0243C12.8447 11.7966 12.7119 11.4173 12.4084 11.3793L11.1375 11.1896C11.0427 11.1707 10.9668 11.1138 10.9288 11.0379L10.3408 9.86183C10.208 9.57731 9.80969 9.57731 9.65794 9.86183L9.08888 11.0189C9.05095 11.0948 8.97507 11.1707 8.88023 11.1707L7.5714 11.3604C7.2679 11.3983 7.13512 11.7777 7.36274 12.0053L8.2922 12.8968Z" fill="white"/>
</svg>
