<svg width="40" height="40" viewBox="0 0 40 40" fill="none" xmlns="http://www.w3.org/2000/svg">
<path d="M7.5 40H2.5C1.12167 40 0 38.8783 0 37.5V15.8333C0 14.455 1.12167 13.3333 2.5 13.3333H7.5C8.87833 13.3333 10 14.455 10 15.8333V37.5C10 38.8783 8.87833 40 7.5 40ZM2.5 15C2.04167 15 1.66667 15.375 1.66667 15.8333V37.5C1.66667 37.9583 2.04167 38.3333 2.5 38.3333H7.5C7.95833 38.3333 8.33333 37.9583 8.33333 37.5V15.8333C8.33333 15.375 7.95833 15 7.5 15H2.5Z" fill="#CD2026"/>
<path d="M37.5 40H15.8333C14.455 40 13.3333 38.8783 13.3333 37.5V15.8333C13.3333 14.455 14.455 13.3333 15.8333 13.3333H37.5C38.8783 13.3333 40 14.455 40 15.8333V37.5C40 38.8783 38.8783 40 37.5 40ZM15.8333 15C15.375 15 15 15.375 15 15.8333V37.5C15 37.9583 15.375 38.3333 15.8333 38.3333H37.5C37.9583 38.3333 38.3333 37.9583 38.3333 37.5V15.8333C38.3333 15.375 37.9583 15 37.5 15H15.8333Z" fill="#CD2026"/>
<path d="M38.6832 39.5168C38.4699 39.5168 38.2566 39.4352 38.0932 39.2735L14.0616 15.2402C13.7366 14.9152 13.7366 14.3868 14.0616 14.0618C14.3866 13.7368 14.9149 13.7368 15.2399 14.0618L39.2732 38.0952C39.5982 38.4202 39.5982 38.9485 39.2732 39.2735C39.1099 39.4352 38.8966 39.5168 38.6832 39.5168Z" fill="#CD2026"/>
<path d="M14.65 39.5168C14.4366 39.5168 14.2233 39.4352 14.06 39.2735C13.735 38.9485 13.735 38.4202 14.06 38.0952L38.0933 14.0618C38.4183 13.7368 38.9466 13.7368 39.2716 14.0618C39.5966 14.3868 39.5966 14.9152 39.2716 15.2402L15.2383 39.2735C15.0766 39.4352 14.8633 39.5168 14.65 39.5168Z" fill="#CD2026"/>
<path d="M37.5 10H15.8333C14.455 10 13.3333 8.87833 13.3333 7.5V2.5C13.3333 1.12167 14.455 0 15.8333 0H37.5C38.8783 0 40 1.12167 40 2.5V7.5C40 8.87833 38.8783 10 37.5 10ZM15.8333 1.66667C15.375 1.66667 15 2.04167 15 2.5V7.5C15 7.95833 15.375 8.33333 15.8333 8.33333H37.5C37.9583 8.33333 38.3333 7.95833 38.3333 7.5V2.5C38.3333 2.04167 37.9583 1.66667 37.5 1.66667H15.8333Z" fill="#CD2026"/>
<path d="M5.00001 10C2.24334 10 5.44957e-06 7.75667 5.44957e-06 5.00001C5.44957e-06 2.24334 2.24334 5.44957e-06 5.00001 5.44957e-06C7.75667 5.44957e-06 10 2.24334 10 5.00001C10 7.75667 7.75667 10 5.00001 10ZM5.00001 1.66667C3.16167 1.66667 1.66667 3.16167 1.66667 5.00001C1.66667 6.83834 3.16167 8.33334 5.00001 8.33334C6.83834 8.33334 8.33334 6.83834 8.33334 5.00001C8.33334 3.16167 6.83834 1.66667 5.00001 1.66667Z" fill="#CD2026"/>
</svg>
