<svg width="48" height="48" viewBox="0 0 48 48" fill="none" xmlns="http://www.w3.org/2000/svg">
<path d="M10.205 24.2351C10.7574 25.6023 12.1677 26.1319 13.4117 26.5989C14.1033 26.8587 14.8187 27.1274 15.1428 27.4599C15.3305 27.6527 15.497 27.9819 15.6533 28.3613L11.6409 40.5369C11.4963 40.975 11.6235 41.4593 11.9633 41.7637C12.3031 42.0684 12.7881 42.1326 13.1909 41.9264L16.0399 40.4736L17.4959 43.3798C17.6872 43.7626 18.0711 44 18.4854 44C18.5131 44 18.5408 43.9989 18.5691 43.9969C19.0149 43.9626 19.3977 43.6576 19.5407 43.2227L23.4545 31.3255C23.6514 31.268 23.8389 31.2255 24 31.2255C24.1611 31.2255 24.3486 31.268 24.5455 31.3255L28.4593 43.2227C28.6023 43.6576 28.9851 43.9626 29.4309 43.9969C29.4592 43.9989 29.4869 44 29.5146 44C29.9289 44 30.3128 43.7626 30.5041 43.3798L31.9601 40.4736L34.8091 41.9264C35.2119 42.1326 35.6969 42.0684 36.0367 41.7637C36.3765 41.4593 36.5037 40.975 36.3591 40.5369L32.3467 28.3613C32.503 27.9819 32.6695 27.6527 32.8572 27.4599C33.1818 27.1271 33.8967 26.8587 34.5883 26.5989C35.8323 26.1316 37.2426 25.6023 37.795 24.2351C38.3278 22.9151 37.7151 21.5446 37.1741 20.3354C36.8555 19.6236 36.526 18.8873 36.526 18.3695C36.526 17.8514 36.8555 17.1153 37.1741 16.403C37.7151 15.1941 38.3278 13.8236 37.795 12.5036C37.2426 11.1364 35.8323 10.6071 34.5883 10.1398C33.8967 9.88002 33.1818 9.61161 32.8572 9.27875C32.5332 8.94589 32.2711 8.21181 32.0183 7.50173C31.5632 6.22498 31.0473 4.77747 29.7152 4.21108C28.43 3.66282 27.0936 4.29283 25.916 4.84806C25.2222 5.17506 24.5045 5.51322 24 5.51322C23.4955 5.51322 22.7778 5.17506 22.084 4.84806C20.9064 4.29283 19.5689 3.66366 18.2853 4.2108C16.9527 4.77775 16.4368 6.22526 15.9817 7.50201C15.7289 8.21209 15.4668 8.94617 15.1428 9.27875C14.8187 9.61161 14.1033 9.8803 13.4117 10.1401C12.1677 10.6071 10.7574 11.1367 10.205 12.5038C9.6722 13.8238 10.2849 15.1941 10.8259 16.4033C11.1445 17.1153 11.474 17.8514 11.474 18.3695C11.474 18.8873 11.1445 19.6236 10.8259 20.3354C10.2849 21.5446 9.6722 22.9151 10.205 24.2351ZM18.2728 39.9323L17.5182 38.4259C17.2403 37.8704 16.5776 37.6466 16.0328 37.9251L14.6138 38.6486L16.9931 31.4291C17.3198 31.8965 17.7287 32.2914 18.2853 32.5282C18.6349 32.6769 18.9877 32.7386 19.3401 32.7386C19.8067 32.7386 20.2722 32.6299 20.7274 32.4717L18.2728 39.9323ZM31.9672 37.9251C31.4224 37.6466 30.7597 37.8704 30.4818 38.4259L29.7272 39.9323L27.2723 32.471C28.0724 32.7489 28.9043 32.8734 29.7147 32.5282C30.2713 32.2914 30.6802 31.8965 31.0069 31.4291L33.3862 38.6486L31.9672 37.9251ZM12.8501 15.4494C12.5162 14.7044 12.1014 13.777 12.2623 13.3794C12.4401 12.9385 13.3628 12.592 14.1772 12.2865C15.0955 11.9414 16.0453 11.5848 16.7173 10.8951C17.3893 10.2053 17.7367 9.2302 18.0733 8.28743C18.3707 7.45207 18.7083 6.5051 19.1383 6.32207C19.1976 6.29696 19.2688 6.28552 19.3498 6.28552C19.7978 6.28552 20.54 6.6354 21.1549 6.92529C22.0661 7.35469 23.0083 7.79888 24 7.79888C24.9917 7.79888 25.9339 7.35469 26.8451 6.92529C27.5715 6.58323 28.4756 6.15773 28.8622 6.32235C29.2917 6.5051 29.6293 7.45179 29.9267 8.28715C30.2633 9.2302 30.6107 10.2051 31.2827 10.8948C31.9547 11.5845 32.9045 11.9414 33.8233 12.2865C34.6372 12.592 35.5599 12.9385 35.7377 13.3791C35.8986 13.7767 35.4838 14.7041 35.1499 15.4494C34.7318 16.3846 34.2991 17.3519 34.2991 18.3695C34.2991 19.387 34.7318 20.3541 35.1499 21.2893C35.4838 22.0346 35.8986 22.962 35.7377 23.3596C35.5599 23.8002 34.6372 24.1467 33.8233 24.4522C32.9045 24.7973 31.9547 25.1542 31.2827 25.8439C30.6107 26.5336 30.2633 27.5085 29.9267 28.4516C29.6288 29.2869 29.2917 30.2339 28.8622 30.4166C28.4756 30.5835 27.5715 30.156 26.8451 29.8134C25.9339 29.384 24.9917 28.9398 24 28.9398C23.0083 28.9398 22.0661 29.384 21.1549 29.8134C20.4291 30.156 19.5255 30.5835 19.1378 30.4166C18.7083 30.2339 18.3712 29.2869 18.0733 28.4516C17.7367 27.5085 17.3893 26.5336 16.7173 25.8436C16.0453 25.1542 15.0955 24.7976 14.1772 24.4525C13.3628 24.147 12.4401 23.8004 12.2623 23.3596C12.1014 22.962 12.5162 22.0346 12.8501 21.2893C13.2682 20.3541 13.7009 19.387 13.7009 18.3695C13.7009 17.3517 13.2682 16.3846 12.8501 15.4494Z" fill="#CD2026"/>
<path d="M24 26C28.411 26 32 22.4111 32 18C32 13.5889 28.411 10 24 10C19.589 10 16 13.5889 16 18C16 22.4111 19.589 26 24 26ZM24 12.3075C27.1389 12.3075 29.6926 14.8612 29.6926 18C29.6926 21.1388 27.1389 23.6925 24 23.6925C20.8611 23.6925 18.3074 21.1388 18.3074 18C18.3074 14.8612 20.8611 12.3075 24 12.3075Z" fill="#CD2026"/>
</svg>
