<svg width="18" height="17" viewBox="0 0 18 17" fill="none" xmlns="http://www.w3.org/2000/svg">
<path d="M17.3332 8.62117L15.4847 6.50753L15.7423 3.71208L13.0074 3.09087L11.5756 0.666626L8.99984 1.77269L6.42408 0.666626L4.99226 3.08329L2.25741 3.69693L2.51499 6.49996L0.666504 8.62117L2.51499 10.7348L2.25741 13.5378L4.99226 14.159L6.42408 16.5757L8.99984 15.4621L11.5756 16.5681L13.0074 14.1515L15.7423 13.5303L15.4847 10.7348L17.3332 8.62117ZM7.01499 11.659L5.21196 9.84087C4.9165 9.54541 4.9165 9.06814 5.21196 8.77269L5.26499 8.71966C5.56044 8.4242 6.04529 8.4242 6.34075 8.71966L7.56044 9.94693L11.462 6.03784C11.7574 5.74238 12.2423 5.74238 12.5377 6.03784L12.5907 6.09087C12.8862 6.38632 12.8862 6.8636 12.5907 7.15905L8.1059 11.659C7.79529 11.9545 7.31802 11.9545 7.01499 11.659Z" fill="#007618"/>
</svg>
