<svg width="16" height="18" viewBox="0 0 16 18" fill="none" xmlns="http://www.w3.org/2000/svg">
<path d="M13 7.50004L11.825 6.31671L6.33333 11.8084L4.175 9.65837L3 10.8334L6.33333 14.1667L13 7.50004ZM13.8333 2.50004H10.35C10 1.53337 9.08333 0.833374 8 0.833374C6.91667 0.833374 6 1.53337 5.65 2.50004H2.16667C2.05 2.50004 1.94167 2.50837 1.83333 2.53337C1.50833 2.60004 1.21667 2.76671 0.991667 2.99171C0.841667 3.14171 0.716667 3.32504 0.633333 3.52504C0.55 3.71671 0.5 3.93337 0.5 4.16671V15.8334C0.5 16.0584 0.55 16.2834 0.633333 16.4834C0.716667 16.6834 0.841667 16.8584 0.991667 17.0167C1.21667 17.2417 1.50833 17.4084 1.83333 17.475C1.94167 17.4917 2.05 17.5 2.16667 17.5H13.8333C14.75 17.5 15.5 16.75 15.5 15.8334V4.16671C15.5 3.25004 14.75 2.50004 13.8333 2.50004ZM8 2.29171C8.34167 2.29171 8.625 2.57504 8.625 2.91671C8.625 3.25837 8.34167 3.54171 8 3.54171C7.65833 3.54171 7.375 3.25837 7.375 2.91671C7.375 2.57504 7.65833 2.29171 8 2.29171ZM13.8333 15.8334H2.16667V4.16671H13.8333V15.8334Z" fill="#169F32"/>
</svg>
