<svg width="15" height="30" viewBox="0 0 15 30" fill="none" xmlns="http://www.w3.org/2000/svg">
<path d="M0.38425 23.4196L5.90439 29.0594C6.09242 29.2521 6.31582 29.405 6.56179 29.5093C6.80776 29.6136 7.07147 29.6673 7.33779 29.6673C7.60411 29.6673 7.86781 29.6136 8.11378 29.5093C8.35975 29.405 8.58315 29.2521 8.77118 29.0594L14.2913 23.4196C14.4471 23.2598 14.5601 23.0617 14.6194 22.8444C14.6786 22.6272 14.6823 22.398 14.6299 22.1789L11.3178 8.31248L12.9665 4.22174C13.1386 3.79207 13.2041 3.32564 13.1574 2.86385C13.1107 2.40206 12.9531 1.95921 12.6986 1.5746C12.4441 1.18999 12.1006 0.875517 11.6986 0.659106C11.2966 0.442696 10.8485 0.331037 10.3941 0.334044H4.24835C3.7949 0.334246 3.34848 0.448589 2.94856 0.666964C2.54864 0.885339 2.20754 1.20102 1.95543 1.58609C1.70331 1.97116 1.54794 2.41377 1.50304 2.87478C1.45815 3.33578 1.52513 3.80099 1.69804 4.22926L3.34673 8.31248L0.0346416 22.1789C-0.0163511 22.3989 -0.0109692 22.6287 0.0502685 22.8461C0.111506 23.0634 0.226532 23.2609 0.38425 23.4196ZM4.09747 3.04115C4.11374 3.0146 4.13663 2.99295 4.16379 2.97842C4.19095 2.96388 4.2214 2.95698 4.25203 2.95843H10.3978C10.4279 2.95858 10.4576 2.9663 10.4841 2.98089C10.5106 2.99549 10.5333 3.01652 10.55 3.04214C10.5667 3.06776 10.577 3.09718 10.58 3.12782C10.583 3.15846 10.5785 3.18938 10.5671 3.21786L9.09503 6.88749H5.55846L4.08642 3.21786C4.07289 3.19002 4.06678 3.15901 4.06872 3.12799C4.07066 3.09696 4.08057 3.06701 4.09747 3.04115ZM5.70935 9.51939H8.93679L11.9287 22.0811L7.32123 26.7997L2.71743 22.0811L5.70935 9.51939Z" fill="white"/>
</svg>
