<svg width="40" height="40" viewBox="0 0 40 40" fill="none" xmlns="http://www.w3.org/2000/svg">
<path d="M32.5007 10C30.3173 10 28.5507 11.6833 28.3673 13.8333C25.234 13 23.634 10.8333 20.0007 10.8333C16.3507 10.8333 14.7673 13 11.634 13.8333C11.4507 11.7 9.68398 10 7.50065 10C5.20065 10 3.33398 11.8667 3.33398 14.1667V15C3.33398 25 9.33399 28.0167 14.2007 28.3C15.884 29.3667 17.8673 30 20.0007 30C22.134 30 24.1173 29.3667 25.8007 28.3C30.6673 28.0167 36.6673 25 36.6673 15V14.1667C36.6673 11.8667 34.8007 10 32.5007 10ZM5.83398 15V14.1667C5.83398 13.25 6.58398 12.5 7.50065 12.5C8.41732 12.5 9.16732 13.25 9.16732 14.1667V19.1667C9.16732 21.3 9.80065 23.2833 10.8507 24.9667C8.31732 23.7833 5.83398 21.0833 5.83398 15ZM11.6673 19.1667V16.4167C13.534 16.0333 14.9173 15.2667 16.1007 14.6167C17.4673 13.8833 18.4507 13.3333 20.0007 13.3333C21.5507 13.3333 22.534 13.8833 23.9007 14.6333C25.084 15.2833 26.4673 16.0333 28.334 16.4333V19.1833C28.334 23.7833 24.6007 27.5167 20.0007 27.5167C15.4007 27.5167 11.6673 23.7667 11.6673 19.1667ZM34.1673 15C34.1673 21.0833 31.684 23.7833 29.1507 24.9667C30.2173 23.2833 30.834 21.3 30.834 19.1667V14.1667C30.834 13.25 31.584 12.5 32.5007 12.5C33.4173 12.5 34.1673 13.25 34.1673 14.1667V15V15ZM17.8173 17.4667C17.084 17.9 16.2173 18.4 15.0007 18.7333V17C15.8007 16.7167 16.4007 16.3667 16.9673 16.0333C17.8673 15.5 18.7173 15 20.0007 15C21.284 15 22.1173 15.5 23.0007 16.0333C23.5673 16.3667 24.184 16.7333 25.0007 17.0167V18.75C23.7507 18.4 22.9007 17.9 22.1507 17.45C21.384 17 20.8173 16.6667 20.0007 16.6667C19.184 16.6667 18.6007 17 17.8173 17.4667Z" fill="#CD2026"/>
</svg>
