<svg width="40" height="40" viewBox="0 0 40 40" fill="none" xmlns="http://www.w3.org/2000/svg">
<path d="M25.8327 10.834C25.8327 9.43398 28.3327 6.66732 28.3327 6.66732C28.3327 6.66732 30.8327 9.43398 30.8327 10.834C30.8327 12.2173 29.716 13.334 28.3327 13.334C26.9493 13.334 25.8327 12.2173 25.8327 10.834ZM32.4993 25.0007C34.7993 25.0007 36.666 23.134 36.666 20.834C36.666 18.0507 32.4993 13.334 32.4993 13.334C32.4993 13.334 28.3327 18.0507 28.3327 20.834C28.3327 23.134 30.1993 25.0007 32.4993 25.0007ZM21.666 23.334H18.3327V20.0007H14.9993V23.334H11.666V26.6673H14.9993V30.0007H18.3327V26.6673H21.666V23.334ZM26.666 20.0007V33.334C26.666 35.1673 25.166 36.6673 23.3327 36.6673H9.99935C8.16602 36.6673 6.66602 35.1673 6.66602 33.334V20.0007C6.66602 15.0507 10.266 10.9507 14.9993 10.1507V6.66732H11.666V3.33398H21.666C23.5493 3.33398 25.2493 3.98398 26.6493 5.01732L24.266 7.40065C23.4993 6.95065 22.616 6.66732 21.666 6.66732H18.3327V10.1507C23.066 10.9507 26.666 15.0507 26.666 20.0007ZM23.3327 20.0007C23.3327 16.3173 20.3493 13.334 16.666 13.334C12.9827 13.334 9.99935 16.3173 9.99935 20.0007V33.334H23.3327V20.0007Z" fill="#CD2026"/>
</svg>
