<svg width="30" height="44" viewBox="0 0 30 44" fill="none" xmlns="http://www.w3.org/2000/svg">
<path d="M15 1H8C6.14348 1 4.36301 1.7375 3.05025 3.05025C1.7375 4.36301 1 6.14348 1 8C1 9.85652 1.7375 11.637 3.05025 12.9497C4.36301 14.2625 6.14348 15 8 15M15 1V15M15 1H22C22.9193 1 23.8295 1.18106 24.6788 1.53284C25.5281 1.88463 26.2997 2.40024 26.9497 3.05025C27.5998 3.70026 28.1154 4.47194 28.4672 5.32122C28.8189 6.17049 29 7.08075 29 8C29 8.91925 28.8189 9.82951 28.4672 10.6788C28.1154 11.5281 27.5998 12.2997 26.9497 12.9497C26.2997 13.5998 25.5281 14.1154 24.6788 14.4672C23.8295 14.8189 22.9193 15 22 15M15 15H8M15 15H22M15 15V29M8 15C6.14348 15 4.36301 15.7375 3.05025 17.0503C1.7375 18.363 1 20.1435 1 22C1 23.8565 1.7375 25.637 3.05025 26.9497C4.36301 28.2625 6.14348 29 8 29M22 15C21.0807 15 20.1705 15.1811 19.3212 15.5328C18.4719 15.8846 17.7003 16.4002 17.0503 17.0503C16.4002 17.7003 15.8846 18.4719 15.5328 19.3212C15.1811 20.1705 15 21.0807 15 22C15 22.9193 15.1811 23.8295 15.5328 24.6788C15.8846 25.5281 16.4002 26.2997 17.0503 26.9497C17.7003 27.5998 18.4719 28.1154 19.3212 28.4672C20.1705 28.8189 21.0807 29 22 29C22.9193 29 23.8295 28.8189 24.6788 28.4672C25.5281 28.1154 26.2997 27.5998 26.9497 26.9497C27.5998 26.2997 28.1154 25.5281 28.4672 24.6788C28.8189 23.8295 29 22.9193 29 22C29 21.0807 28.8189 20.1705 28.4672 19.3212C28.1154 18.4719 27.5998 17.7003 26.9497 17.0503C26.2997 16.4002 25.5281 15.8846 24.6788 15.5328C23.8295 15.1811 22.9193 15 22 15ZM8 29C6.14348 29 4.36301 29.7375 3.05025 31.0503C1.7375 32.363 1 34.1435 1 36C1 37.8565 1.7375 39.637 3.05025 40.9497C4.36301 42.2625 6.14348 43 8 43C9.85652 43 11.637 42.2625 12.9497 40.9497C14.2625 39.637 15 37.8565 15 36V29M8 29H15" stroke="#7128CE" stroke-width="2" stroke-linecap="round" stroke-linejoin="round"/>
</svg>
