<svg width="48" height="48" viewBox="0 0 48 48" fill="none" xmlns="http://www.w3.org/2000/svg">
<path d="M16.7898 14.0134C16.3416 12.598 16.2273 10.9928 16.4502 9.2094C16.5087 8.74214 16.2699 8.28794 15.8518 8.07111C15.4338 7.85428 14.925 7.92081 14.5767 8.23784M16.7898 14.0134L23.4874 43.0757C23.0031 42.8279 11.6248 36.9174 11.6248 29.2169C11.6248 27.8864 11.971 26.6354 12.5774 25.5484C9.78312 20.2737 10.3844 15.9332 11.4131 13.1835C12.572 10.0859 14.4954 8.31186 14.5767 8.23784M16.7898 14.0134C16.7241 14.2443 16.6636 14.4809 16.6086 14.7232L17.0962 14.8339L17.555 14.635C17.4662 14.4302 17.3855 14.2201 17.313 14.0049C18.3374 10.5607 20.56 8.44039 22.4989 7.18805M16.7898 14.0134L30.0666 6.27561C28.1334 9.11627 28.1529 11.911 28.5098 13.7473C28.8272 15.3808 29.499 16.744 30.2127 17.6638L30.6435 18.2191L31.0268 17.63C32.3131 15.6535 32.6782 13.3127 32.1541 10.6925L31.6694 10.7895L32.1541 10.6925C32.1026 10.4348 32.2178 10.1724 32.4423 10.036L32.4423 10.0359C32.6668 9.89947 32.9527 9.91791 33.1578 10.0822C33.2052 10.1201 35.0178 11.5886 36.1182 14.3116L36.5818 14.1243L36.1182 14.3116C37.0812 16.6942 37.6886 20.5657 35.1078 25.5606L34.9898 25.7889L35.1068 26.0177C35.5977 26.9782 35.875 28.0652 35.875 29.2169C35.875 32.8302 33.1896 36.1034 30.3014 38.5602C27.4392 40.9948 24.5128 42.5138 24.2846 42.6306C24.1952 42.6763 24.0976 42.6991 23.9999 42.6991C23.902 42.6991 23.8045 42.6763 23.7152 42.6306L23.7151 42.6306C23.487 42.5138 20.5606 40.9948 17.6984 38.5602C14.8102 36.1034 12.1248 32.8302 12.1248 29.2169C12.1248 27.9742 12.448 26.8068 13.0141 25.792L13.1465 25.5546L13.0193 25.3143C10.3021 20.1852 10.8946 15.9964 11.8814 13.3587C13.001 10.3661 14.8605 8.65569 14.9133 8.60757L14.5767 8.23784M14.5767 8.23784L14.9133 8.60755C15.1068 8.43147 15.3894 8.39451 15.6216 8.51496C15.8539 8.63546 15.9866 8.88782 15.9541 9.14736L15.9541 9.14739C15.6784 11.3535 15.8987 13.3284 16.6375 15.0327L17.2455 16.4356L17.5838 14.9445C18.4403 11.1693 20.7557 8.90924 22.7702 7.60806M22.4989 7.18805L22.7702 7.60807C22.7702 7.60806 22.7702 7.60806 22.7702 7.60806M22.4989 7.18805L22.7702 7.60806M22.4989 7.18805C25.5185 5.23781 28.6804 4.79883 29.55 4.79883C29.9668 4.79883 30.3495 5.02938 30.5444 5.39778C30.7393 5.76619 30.7145 6.21222 30.48 6.55685C28.6423 9.25717 28.6612 11.9057 29.0006 13.6519C29.2554 14.9632 29.7487 16.0846 30.2944 16.9173C30.26 16.9735 30.2247 17.0292 30.1887 17.0846L30.6078 17.3573L31.0028 17.0508C30.964 17.0008 30.9252 16.9491 30.8865 16.8957C31.8638 15.1447 32.1255 13.0987 31.6639 10.7906L30.0667 6.27553C30.197 6.08397 30.2107 5.83618 30.1024 5.63162C29.9941 5.4269 29.7815 5.29883 29.55 5.29883C28.7648 5.29883 25.6995 5.71611 22.7702 7.60806M23.9999 41.3668L24.245 41.2289C25.3212 40.6237 27.8896 39.0868 30.1955 36.9948C32.4764 34.9255 34.625 32.2019 34.625 29.2169C34.625 26.0163 32.022 23.4133 28.8214 23.4133C27.1652 23.4133 25.5807 24.1468 24.4705 25.4167L24.4704 25.4168C24.3518 25.5525 24.1803 25.6304 23.9999 25.6304C23.8195 25.6304 23.648 25.5525 23.5294 25.4168L23.5293 25.4167C22.4191 24.1467 20.8346 23.4133 19.1784 23.4133C15.9778 23.4133 13.3748 26.0163 13.3748 29.2169C13.3748 32.2019 15.5233 34.9255 17.8042 36.9948C20.1101 39.0868 22.6785 40.6236 23.7548 41.2289L23.9999 41.3668ZM23.6783 23.8172L23.9998 24.0873L24.3214 23.8172C25.5863 22.7549 27.177 22.1634 28.8213 22.1634C30.7065 22.1634 32.4209 22.9063 33.6885 24.1165L34.0338 23.7549L34.4911 23.957C35.9259 20.7098 36.106 17.6175 34.9592 14.7801L34.4957 14.9674L34.9592 14.7801C34.8221 14.4409 34.6726 14.1235 34.5166 13.8286L33.7462 12.3719L33.5772 14.0111C33.3217 16.4905 32.2327 18.2878 31.1901 19.4766C30.9738 19.7231 30.6038 19.7606 30.3426 19.5625C29.2583 18.7404 28.102 17.0458 27.4952 14.8834C26.8922 12.7345 26.8454 10.1692 27.9176 7.61683L28.3163 6.66775L27.3238 6.94114C26.2104 7.24783 24.8139 7.77613 23.4483 8.65814C20.1928 10.7609 18.5264 13.931 18.4918 18.0141C18.4896 18.2693 18.3327 18.4975 18.0953 18.5907C17.8578 18.6838 17.5875 18.6234 17.4124 18.438C15.8611 16.795 14.9452 14.801 14.6734 12.4667L14.4891 10.8838L13.7361 12.2882C13.4797 12.7664 13.2319 13.3026 13.0168 13.8923C11.8589 17.0682 12.0939 20.4101 13.6705 23.8181L13.9554 24.4339L14.4592 23.9795C15.7108 22.8506 17.3655 22.1634 19.1783 22.1634C20.8226 22.1634 22.4133 22.7549 23.6783 23.8172Z" fill="#CD2026" stroke="#CD2026"/>
<path d="M39.5776 26.5808L42.5777 25.0807C43.1334 24.8029 43.3587 24.1271 43.0808 23.5714C42.8029 23.0156 42.1271 22.7904 41.5714 23.0682L38.5714 24.5683C38.0156 24.8461 37.7904 25.5219 38.0682 26.0777C38.3461 26.6333 39.022 26.8586 39.5776 26.5808Z" fill="#CD2026"/>
<path d="M42.5777 33.5683L39.5776 32.0682C39.0219 31.7904 38.3461 32.0156 38.0682 32.5714C37.7904 33.1271 38.0156 33.8029 38.5714 34.0807L41.5714 35.5808C42.1271 35.8586 42.8029 35.6334 43.0808 35.0777C43.3587 34.5219 43.1334 33.8461 42.5777 33.5683Z" fill="#CD2026"/>
<path d="M9.42777 24.5683L6.42774 23.0682C5.87198 22.7904 5.19622 23.0156 4.91835 23.5714C4.64047 24.1271 4.8657 24.8029 5.42145 25.0807L8.42148 26.5808C8.97724 26.8586 9.653 26.6334 9.93087 26.0777C10.2088 25.5219 9.98352 24.8461 9.42777 24.5683Z" fill="#CD2026"/>
<path d="M8.42148 32.0682L5.42145 33.5683C4.8657 33.8461 4.64047 34.5219 4.91835 35.0776C5.19622 35.6334 5.87198 35.8586 6.42774 35.5807L9.42777 34.0807C9.98352 33.8029 10.2088 33.1271 9.93087 32.5713C9.653 32.0157 8.97716 31.7904 8.42148 32.0682Z" fill="#CD2026"/>
</svg>
