<svg width="32" height="36" viewBox="0 0 32 36" fill="none" xmlns="http://www.w3.org/2000/svg">
<path d="M31.5723 4.18547C31.4279 4.07986 31.2587 4.01116 31.0801 3.98564C30.9015 3.96011 30.7191 3.97856 30.5497 4.03932C25.9163 5.72131 19.868 3.08054 17.4823 1.8677C13.6075 -0.101762 9.08268 -0.550422 5.67431 0.697239C4.35889 1.16064 3.18316 1.93728 2.25404 2.95655L2.1126 2.49663C2.07434 2.36214 2.00892 2.23644 1.92019 2.1269C1.83147 2.01737 1.72121 1.9262 1.59588 1.85874C1.47055 1.79128 1.33267 1.74888 1.19032 1.73403C1.04797 1.71918 0.904018 1.73218 0.766888 1.77227C0.629758 1.81235 0.502212 1.87872 0.391725 1.96748C0.281237 2.05623 0.19003 2.16559 0.123446 2.28915C0.0568623 2.41271 0.0162415 2.54799 0.00396387 2.68705C-0.00831377 2.82611 0.00799866 2.96616 0.0519453 3.099L0.818828 5.59292C0.829007 5.75303 0.876865 5.9087 0.958691 6.04787L4.84023 18.6706C4.85494 18.7895 4.89046 18.905 4.94523 19.0121L9.93298 35.2325C9.97136 35.3669 10.0369 35.4924 10.1256 35.6018C10.2144 35.7112 10.3246 35.8022 10.4499 35.8696C10.5752 35.937 10.7129 35.9793 10.8552 35.9941C10.9975 36.0089 11.1413 35.9959 11.2783 35.9558C11.4154 35.9158 11.5428 35.8495 11.6533 35.7608C11.7637 35.6722 11.8549 35.5629 11.9215 35.4395C11.9881 35.316 12.0288 35.1809 12.0412 35.0419C12.0536 34.903 12.0375 34.763 11.9937 34.6302L7.04598 18.54C8.74586 13.5471 12.1689 11.5018 17.2442 12.4819C23.0606 13.6032 26.8738 11.5938 28.6269 10.2966C30.5945 8.84144 31.8545 6.89995 31.9967 5.10391C32.0108 4.92838 31.9794 4.75221 31.9052 4.59168C31.831 4.43115 31.7165 4.29144 31.5723 4.18547ZM27.3262 8.62592C25.8602 9.71037 22.6522 11.3868 17.6616 10.424C12.4472 9.41772 8.42955 11.1868 6.08551 15.4169L3.05578 5.56397C3.74166 4.19846 4.95557 3.15432 6.43072 2.66104C9.28294 1.61687 13.136 2.02469 16.4876 3.72772C18.8115 4.90909 24.3045 7.304 29.3001 6.51527C28.7891 7.33715 28.1187 8.05399 27.3263 8.62564L27.3262 8.62592Z" fill="#CD2026"/>
</svg>
