<svg width="16" height="16" viewBox="0 0 16 16" fill="none" xmlns="http://www.w3.org/2000/svg">
<path d="M8 0.5C6.51664 0.5 5.0666 0.939867 3.83323 1.76398C2.59986 2.58809 1.63856 3.75943 1.07091 5.12987C0.50325 6.50032 0.354725 8.00832 0.644114 9.46318C0.933503 10.918 1.64781 12.2544 2.6967 13.3033C3.7456 14.3522 5.08197 15.0665 6.53683 15.3559C7.99168 15.6453 9.49968 15.4968 10.8701 14.9291C12.2406 14.3614 13.4119 13.4001 14.236 12.1668C15.0601 10.9334 15.5 9.48336 15.5 8C15.5 6.01088 14.7098 4.10322 13.3033 2.6967C11.8968 1.29018 9.98913 0.5 8 0.5V0.5ZM8 14.25C6.76387 14.25 5.5555 13.8834 4.52769 13.1967C3.49988 12.5099 2.6988 11.5338 2.22576 10.3918C1.75271 9.24973 1.62894 7.99307 1.8701 6.78069C2.11125 5.5683 2.70651 4.45466 3.58059 3.58058C4.45466 2.7065 5.56831 2.11125 6.78069 1.87009C7.99307 1.62893 9.24974 1.75271 10.3918 2.22575C11.5338 2.6988 12.5099 3.49988 13.1967 4.52769C13.8834 5.55549 14.25 6.76387 14.25 8C14.25 9.6576 13.5915 11.2473 12.4194 12.4194C11.2473 13.5915 9.65761 14.25 8 14.25Z" fill="#FF842B"/>
<path d="M8.0003 6.56257C7.83454 6.56257 7.67557 6.62841 7.55836 6.74562C7.44115 6.86283 7.3753 7.02181 7.3753 7.18757V11.4376C7.3753 11.6033 7.44115 11.7623 7.55836 11.8795C7.67557 11.9967 7.83454 12.0626 8.0003 12.0626C8.16606 12.0626 8.32503 11.9967 8.44224 11.8795C8.55945 11.7623 8.6253 11.6033 8.6253 11.4376V7.18757C8.6253 7.02181 8.55945 6.86283 8.44224 6.74562C8.32503 6.62841 8.16606 6.56257 8.0003 6.56257ZM8.0003 4.00007C7.8311 4.00643 7.67076 4.07733 7.5522 4.19821C7.43365 4.31909 7.36587 4.48078 7.3628 4.65007V4.75007C7.3625 4.83161 7.37918 4.91233 7.41179 4.98707C7.44439 5.06182 7.49219 5.12896 7.55216 5.18422C7.61212 5.23948 7.68293 5.28166 7.76009 5.30806C7.83724 5.33446 7.91905 5.34451 8.0003 5.33757C8.16408 5.33138 8.31948 5.26354 8.43538 5.14765C8.55128 5.03175 8.61911 4.87635 8.6253 4.71257V4.56257C8.62579 4.48313 8.60945 4.40449 8.57736 4.33183C8.54527 4.25916 8.49815 4.19412 8.4391 4.14098C8.38006 4.08784 8.31043 4.04781 8.23479 4.02352C8.15916 3.99923 8.07924 3.99124 8.0003 4.00007Z" fill="#FF842B"/>
</svg>
