<svg width="36" height="44" viewBox="0 0 36 44" fill="none" xmlns="http://www.w3.org/2000/svg">
<path d="M34.1251 21.7778C33.1454 21.5544 32.1185 21.7008 31.2384 22.1891C30.5156 22.6759 29.8622 23.2603 29.2967 23.9261L26.0606 27.4196L24.3195 25.5586C24.0764 25.2482 23.7665 24.9975 23.4134 24.8256C23.0602 24.6537 22.6729 24.5649 22.2807 24.5661H12.1321C11.5949 24.565 11.0649 24.6922 10.5857 24.9373C10.1065 25.1825 9.6916 25.5386 9.37494 25.9765L0.0742188 38.1484L1.48518 39.2454L10.8053 27.0474C10.9533 26.8394 11.1474 26.6691 11.3721 26.5501C11.5969 26.4311 11.846 26.3666 12.0998 26.3618H22.2807C22.406 26.3637 22.5292 26.3941 22.6412 26.4506C22.7533 26.5071 22.8513 26.5884 22.928 26.6883C22.9454 26.7138 22.9649 26.7378 22.9862 26.7601L24.3778 28.2424H14.8246V30.0447H25.6852C25.8069 30.0445 25.9273 30.0189 26.0387 29.9695C26.1501 29.92 26.2501 29.8478 26.3324 29.7574L30.6106 25.1276C31.065 24.5837 31.5947 24.1087 32.1834 23.7172C32.6665 23.4754 33.218 23.4108 33.7432 23.5343C33.9127 23.6007 34.0513 23.7289 34.1316 23.8935L26.4101 33.4207C26.2398 33.6275 26.026 33.7934 25.7841 33.9064C25.5423 34.0194 25.2785 34.0765 25.0121 34.0737H14.2745C14.1494 34.0672 14.0241 34.0672 13.8991 34.0737C13.2101 34.1572 12.5579 34.4332 12.0159 34.8704C11.4739 35.3076 11.0636 35.8888 10.8312 36.5485L8.28759 43.3462L9.95745 43.9992L12.4946 37.2211C12.6116 36.8769 12.8214 36.5724 13.1003 36.3418C13.3793 36.1111 13.7164 35.9633 14.0738 35.9151H14.2745H25.038C25.569 35.9202 26.0944 35.8056 26.5759 35.5797C27.0574 35.3537 27.4828 35.0221 27.8211 34.6091L35.5425 24.9905C35.7318 24.7579 35.8567 24.4789 35.9044 24.1818C35.9522 23.8848 35.9211 23.5803 35.8144 23.2992C35.6756 22.9268 35.4495 22.5938 35.1553 22.3288C34.8611 22.0638 34.5076 21.8748 34.1251 21.7778Z" fill="#169F32"/>
<path d="M16.703 6.55097C16.579 4.9505 15.9214 3.43958 14.8374 2.26442C13.7533 1.08926 12.3068 0.319147 10.7334 0.0795717C9.16005 -0.160004 7.55265 0.145084 6.17314 0.945119C4.79364 1.74515 3.72335 2.99297 3.1367 4.48523C2.55006 5.97748 2.48163 7.6262 2.94257 9.16272C3.40352 10.6992 4.36666 12.033 5.67504 12.9465C6.98343 13.8601 8.55992 14.2997 10.1476 14.1937C11.7353 14.0877 13.2406 13.4422 14.4183 12.3626L25.0717 21.5046C25.235 21.6428 25.441 21.7191 25.6542 21.7201H25.7189C25.836 21.7117 25.9502 21.6797 26.0547 21.6258C26.1593 21.572 26.252 21.4974 26.3273 21.4066L31.0133 15.8757L29.6476 14.733L25.5442 19.5848L22.3792 16.8552L25.117 13.636L23.7578 12.4671L21.033 15.6929L15.5768 10.9913C16.4336 9.67983 16.8301 8.11648 16.703 6.55097ZM13.6869 10.5538C13.1262 11.2192 12.4115 11.7348 11.6061 12.0549C10.8007 12.3749 9.92942 12.4896 9.06958 12.3886C8.20974 12.2877 7.38786 11.9743 6.67679 11.4762C5.96572 10.9782 5.38743 10.3108 4.99317 9.53329C4.59892 8.75578 4.40087 7.89215 4.41659 7.01894C4.43232 6.14573 4.66132 5.28993 5.08331 4.52738C5.50529 3.76483 6.10723 3.11909 6.83576 2.6474C7.56429 2.17571 8.3969 1.89264 9.25981 1.82328C10.2967 1.73959 11.3349 1.96822 12.2429 2.48021C13.1509 2.99219 13.8879 3.76451 14.3605 4.69937C14.8332 5.63422 15.0202 6.68956 14.898 7.73174C14.7758 8.77393 14.3498 9.75608 13.6739 10.5538H13.6869Z" fill="#169F32"/>
</svg>
