<svg width="48" height="48" viewBox="0 0 48 48" fill="none" xmlns="http://www.w3.org/2000/svg">
<path d="M28.0189 17.0709L5.99902 39.0781L8.92278 42.0002L30.9427 19.993L28.0189 17.0709Z" stroke="#7128CE" stroke-width="2" stroke-miterlimit="10" stroke-linecap="round" stroke-linejoin="round"/>
<path d="M40.6547 7.34487L38.2376 12.0859L42.0023 15.8484L36.6649 15.0949L34.2083 19.8753L33.3557 14.6396L28.0874 13.8171L32.9052 11.3275L32.1463 5.99805L35.911 9.76053L40.6547 7.34487Z" stroke="#7128CE" stroke-width="2" stroke-miterlimit="10" stroke-linecap="round" stroke-linejoin="round"/>
<path d="M24.5098 20.5762L27.4335 23.4982" stroke="#7128CE" stroke-width="2" stroke-miterlimit="10" stroke-linecap="round" stroke-linejoin="round"/>
<path d="M33.9225 31.2539L35.0067 33.2351L36.9891 34.3187L35.0067 35.4023L33.9225 37.3835L32.8383 35.4023L30.856 34.3187L32.8383 33.2351L33.9225 31.2539Z" stroke="#7128CE" stroke-width="2" stroke-miterlimit="10" stroke-linecap="round" stroke-linejoin="round"/>
<path d="M14.0733 10.5918L16.0346 14.1759L19.6208 16.136L16.0346 18.0962L14.0733 21.6803L12.112 18.0962L8.52588 16.136L12.112 14.1759L14.0733 10.5918Z" stroke="#7128CE" stroke-width="2" stroke-miterlimit="10" stroke-linecap="round" stroke-linejoin="round"/>
</svg>
