<svg width="240" height="240" viewBox="0 0 240 240" fill="none" xmlns="http://www.w3.org/2000/svg">
<g clip-path="url(#clip0_6322_98269)">
<rect width="22.5029" height="49.2882" rx="11.2514" transform="matrix(-0.493166 -0.869935 -0.869935 0.493166 90.793 121.239)" fill="#E1B48B"/>
<rect x="66.0098" y="125.971" width="22.5029" height="49.2882" rx="11.2514" transform="rotate(119.549 66.0098 125.971)" fill="#E1B48B"/>
<path d="M98.395 122.043C105.938 117.767 108.586 108.186 104.31 100.643C100.034 93.1001 90.4529 90.4518 82.9099 94.7279L54.9117 110.6L70.3968 137.916L98.395 122.043Z" fill="#CD2026"/>
<rect width="22.5029" height="45.9881" rx="11.2514" transform="matrix(-0.45721 0.889359 0.889359 0.45721 151.992 94.0547)" fill="#E1B48B"/>
<rect width="22.5029" height="52.5937" rx="11.2514" transform="matrix(0.0550564 0.998483 0.998483 -0.0550564 167.307 109.96)" fill="#E1B48B"/>
<path d="M148.498 87.2572C140.786 83.2928 131.321 86.3304 127.357 94.0417C123.393 101.753 126.43 111.218 134.142 115.182L162.765 129.897L177.121 101.972L148.498 87.2572Z" fill="#CD2026"/>
<path d="M87.3196 93.0102L139.738 85.5846L160.814 155.61L86.5221 166.134L87.3196 93.0102Z" fill="#CD2026"/>
<path d="M86.9062 168.852L121.976 163.884L130.855 226.565C132.227 236.249 125.489 245.212 115.805 246.584C106.12 247.956 97.1577 241.217 95.7858 231.533L86.9062 168.852Z" fill="#7128CE"/>
<path d="M86.6582 290.34L121.728 295.308L130.607 232.626C131.979 222.942 125.241 213.979 115.557 212.607C105.872 211.235 96.9097 217.974 95.5378 227.658L86.6582 290.34Z" fill="#7128CE"/>
<path d="M128.178 174.114L161.02 158.147L188.99 210.962C193.554 219.581 190.347 230.267 181.792 234.949C173.153 239.676 162.318 236.505 157.59 227.866L128.178 174.114Z" fill="#7128CE"/>
<path d="M177.572 297.276L211.65 287.617L192.195 218.981C189.528 209.57 179.737 204.104 170.327 206.771C160.917 209.439 155.45 219.229 158.118 228.639L177.572 297.276Z" fill="#7128CE"/>
<ellipse cx="110.563" cy="68.363" rx="16.6796" ry="16.6809" transform="rotate(-8.06295 110.563 68.363)" fill="#E1B48B"/>
<path fill-rule="evenodd" clip-rule="evenodd" d="M97.5763 77.7388C106.697 76.4467 113.043 68.0048 111.751 58.8833C111.376 56.234 110.398 53.8188 108.975 51.7568C108.725 51.7809 108.474 51.8107 108.223 51.8463C99.1021 53.1384 92.7557 61.5803 94.0479 70.7018C94.4232 73.3511 95.4015 75.7663 96.8245 77.8283C97.0745 77.8042 97.3251 77.7744 97.5763 77.7388Z" fill="#1F1F1F"/>
<rect x="87.8301" y="168.722" width="74.1018" height="28.196" transform="rotate(-8.06295 87.8301 168.722)" fill="#7128CE"/>
<path d="M9.8457 68.6641L30.947 106.826L50.2953 68.6641H9.8457Z" fill="#43BE5C"/>
<circle cx="13.9514" cy="59.0852" r="8.82839" stroke="#FF842B" stroke-width="1.5"/>
<rect x="191.236" y="89.7959" width="38.7595" height="17.8812" fill="#FFB800"/>
<rect x="199.43" y="78.6104" width="15.8189" height="15.8189" transform="rotate(-45 199.43 78.6104)" fill="#43BE5C"/>
<path d="M230.931 47.5772C230.931 50.1836 230.418 52.7644 229.42 55.1724C228.423 57.5805 226.961 59.7684 225.118 61.6114C223.275 63.4544 221.087 64.9164 218.679 65.9138C216.271 66.9113 213.69 67.4246 211.084 67.4246C208.477 67.4246 205.897 66.9113 203.488 65.9138C201.08 64.9164 198.893 63.4544 197.05 61.6114C195.207 59.7684 193.745 57.5805 192.747 55.1724C191.75 52.7644 191.236 50.1836 191.236 47.5771L201.359 47.5772C201.359 48.8543 201.61 50.1189 202.099 51.2988C202.588 52.4788 203.304 53.5509 204.207 54.4539C205.11 55.357 206.182 56.0734 207.362 56.5621C208.542 57.0509 209.807 57.3024 211.084 57.3024C212.361 57.3024 213.626 57.0509 214.805 56.5621C215.985 56.0734 217.058 55.357 217.961 54.4539C218.864 53.5509 219.58 52.4788 220.069 51.2988C220.558 50.1189 220.809 48.8543 220.809 47.5772H230.931Z" fill="#DD3B41"/>
<path d="M40.248 23.2715L43.8587 28.9873L47.6131 23.2715L51.5756 28.9873L55.1946 23.2715L58.5208 28.9873L62.8927 23.2715L66.5463 28.9873L70.0961 23.2715" stroke="#C5C5C5"/>
<path d="M38.9126 212.814C38.6111 203.92 38.9126 188.847 45.2435 188.847C52.9709 188.847 40.9607 224.571 50.67 224.571C60.3128 224.571 55.3393 192.492 62.3406 192.492C67.4065 192.492 68.4261 198.358 67.1642 211.924C65.3553 231.369 78.7877 227.752 76.5266 202.428" stroke="#FFB800" stroke-linecap="round" stroke-linejoin="round"/>
<circle cx="212.298" cy="173.505" r="3.03041" fill="#FF842B"/>
<path d="M206.801 169.671L211.034 172.634V166.944L206.801 169.671Z" fill="#8A49DD"/>
<circle cx="142.398" cy="31.3836" r="1.89627" stroke="#8A49DD"/>
<path d="M225.464 12.7579L220.65 8.15039L217.232 15.4964L225.464 12.7579Z" fill="#FF842B"/>
</g>
<defs>
<clipPath id="clip0_6322_98269">
<rect width="240" height="240" fill="white"/>
</clipPath>
</defs>
</svg>
