<svg width="192" height="232" viewBox="0 0 192 232" fill="none" xmlns="http://www.w3.org/2000/svg">
<path d="M28.8429 146.835L32.1113 45.0145C32.3813 36.6031 25.6359 29.6377 17.2202 29.6377C9.12869 29.6377 2.51634 36.0959 2.32556 44.1852L0.0825455 139.289C-1.07458 188.351 38.3811 228.748 87.4568 228.748C141.576 228.748 185.449 184.876 185.449 130.756V108.531H160.454V122.849C160.454 166.293 125.236 201.511 81.7922 201.511C51.868 201.511 27.8829 176.744 28.8429 146.835Z" fill="#EDAB00"/>
<rect x="98.0254" y="127.955" width="35.449" height="173.269" fill="#7128CE"/>
<path d="M59.594 127.955H95.043L86.658 301.749H51.209L59.594 127.955Z" fill="#7128CE"/>
<circle cx="97.363" cy="34.1931" r="19.5466" fill="#E1B48B"/>
<circle cx="106.508" cy="16.7224" r="19.5466" fill="#E1B48B"/>
<rect x="66.875" y="73.7686" width="23.1909" height="54.6245" rx="11.5955" transform="rotate(58.7659 66.875 73.7686)" fill="#E1B48B"/>
<path d="M75.5605 62.602C83.6959 57.6684 94.2905 60.264 99.2241 68.3995C104.158 76.5349 101.562 87.1294 93.4267 92.0631L56.3172 114.568L38.451 85.1066L75.5605 62.602Z" fill="#CD2026"/>
<path d="M130.206 76.2001C126.728 67.3442 116.729 62.9847 107.873 66.463C99.0172 69.9412 94.6577 79.9401 98.136 88.796L114.002 129.192L146.072 116.596L130.206 76.2001Z" fill="#CD2026"/>
<path d="M55.6617 136.28L78.9876 161.042H32.3359L55.6617 136.28Z" fill="#C4C4C4"/>
<path d="M90.0436 143.564L106.507 161.041H73.5801L90.0436 143.564Z" fill="#C4C4C4"/>
<circle cx="76.615" cy="135.081" r="5.85522" fill="#FF842B"/>
<rect x="73.127" y="163.896" width="23.1909" height="79.4466" rx="11.5955" transform="rotate(156.474 73.127 163.896)" fill="#E1B48B"/>
<circle cx="176.075" cy="32.4678" r="15.7451" fill="#7CE391"/>
<circle cx="150.07" cy="25.2754" r="4" fill="#7CE391"/>
<circle cx="170.042" cy="2.96137" r="2.1186" fill="#7CE391"/>
</svg>
