<svg width="40" height="34" viewBox="0 0 40 34" fill="none" xmlns="http://www.w3.org/2000/svg">
<path d="M5.59942 18.145C4.40511 18.4949 3.33288 19.1875 2.52035 20.1448C1.54129 21.2982 1.00263 22.7612 1 24.2742V24.2746V25.781C1.00001 25.959 1.05434 26.1328 1.15572 26.2792C1.25706 26.4254 1.4006 26.5374 1.56719 26.5999C5.08318 27.9236 8.94465 28.0083 12.514 26.8415C15.7908 27.9191 19.3247 27.9314 22.609 26.8768C23.4401 27.1494 24.294 27.3466 25.1606 27.466L25.1777 27.4684L25.195 27.4684C25.4156 27.4681 25.6279 27.3845 25.7895 27.2343C25.9511 27.0842 26.05 26.8786 26.0664 26.6586C26.0829 26.4387 26.0157 26.2207 25.8783 26.0481C25.741 25.8757 25.5437 25.7615 25.3258 25.7283C24.5179 25.6038 23.7217 25.4126 22.9456 25.1567C22.8608 23.5059 23.2529 21.8532 24.5317 20.7954L24.5318 20.7956L24.5399 20.7883C24.71 20.6347 24.8131 20.4205 24.8269 20.1917C24.8408 19.9629 24.7644 19.7378 24.614 19.5648L24.4253 19.7288L24.614 19.5648C24.4637 19.3918 24.2515 19.2847 24.023 19.2664C23.7945 19.2482 23.568 19.3203 23.3922 19.4673L23.3921 19.4673L23.3877 19.4711C23.1003 19.7231 22.8364 20.0004 22.5994 20.2996C21.7752 19.2685 20.6555 18.5187 19.3959 18.1475C21.1845 17.1918 22.0743 15.301 21.961 13.5684C21.8971 12.5917 21.514 11.655 20.7834 10.9637C20.0511 10.2708 18.9895 9.8431 17.604 9.84986C16.2188 9.84317 15.1575 10.2707 14.4253 10.9634C13.6948 11.6545 13.3117 12.591 13.2476 13.5674C13.134 15.2989 14.0223 17.1887 15.8081 18.1453C15.2193 18.3175 14.6569 18.5739 14.1389 18.9074C13.5054 19.3153 12.9497 19.8311 12.4965 20.4306C12.0458 19.8307 11.4922 19.3145 10.8604 18.9063C10.3436 18.5725 9.78224 18.316 9.1943 18.1438C10.9796 17.1858 11.8668 15.2961 11.7523 13.565C11.6878 12.589 11.3043 11.6531 10.5738 10.9625C9.84156 10.2704 8.78046 9.84316 7.39592 9.84986C6.01081 9.84314 4.94945 10.2706 4.21723 10.9632C3.48666 11.6541 3.10342 12.5905 3.03922 13.5668C2.92536 15.2983 3.81349 17.1882 5.59942 18.145ZM15.7442 15.882C15.262 15.2877 14.9712 14.519 14.966 13.8181L14.9659 13.7982C14.9639 13.06 15.2838 12.5161 15.767 12.1499C16.2573 11.7782 16.9244 11.5846 17.6042 11.5846C18.2839 11.5846 18.951 11.7783 19.4414 12.1499C19.9246 12.5162 20.2445 13.0601 20.2426 13.7981V13.7988C20.2426 14.5049 19.9508 15.2822 19.4642 15.882C18.978 16.4813 18.3213 16.8762 17.6041 16.8762C16.8869 16.8762 16.2303 16.4813 15.7442 15.882ZM5.53588 15.882C5.05391 15.2879 4.76304 14.5197 4.75752 13.8191L4.75747 13.7982C4.7555 13.0601 5.0754 12.5162 5.55863 12.1499C6.04895 11.7783 6.7161 11.5846 7.39582 11.5846C8.07555 11.5846 8.74269 11.7782 9.233 12.1499C9.71623 12.5161 10.0361 13.06 10.0341 13.7981V13.7988C10.0341 14.5049 9.7424 15.2822 9.25587 15.882C8.76976 16.4813 8.11312 16.8762 7.39596 16.8762C6.6788 16.8762 6.02207 16.4813 5.53588 15.882ZM9.58343 9.87617H9.58345L8.95845 9.00123L8.70845 9.00125C8.70845 9.00175 8.70845 9.00225 8.70845 9.00275C8.70887 9.23426 8.80102 9.45619 8.96475 9.61991C9.12884 9.78399 9.35138 9.87617 9.58343 9.87617ZM14.321 20.9914C15.1926 20.1209 16.3739 19.6316 17.6058 19.6308C18.4456 19.6346 19.2688 19.8652 19.9884 20.2981C20.6738 20.7104 21.241 21.2916 21.6362 21.9854C21.1845 23.0558 21.1872 24.3617 21.2033 25.4565C18.482 26.1409 15.622 26.0386 12.9563 25.1615V24.2751C12.9585 23.043 13.4493 21.8621 14.321 20.9914ZM2.75 25.1622V24.2758C2.797 19.3614 9.38991 17.8754 11.5568 22.2232C11.2532 23.2547 11.1301 24.3306 11.1927 25.4034C8.41579 26.1512 5.48007 26.0674 2.75 25.1622Z" fill="#CD2026" stroke="#CD2026" stroke-width="0.5"/>
<path d="M15.1116 4.47412L15.1116 4.47344L13.6116 4.47417L13.3616 4.47419C13.3616 4.47469 13.3616 4.47519 13.3616 4.4757C13.3621 4.7072 13.4542 4.92913 13.6179 5.09285C13.782 5.25693 14.0046 5.3491 14.2366 5.34911H14.2366C14.4687 5.34909 14.6913 5.25691 14.8553 5.09282C15.0194 4.92873 15.1116 4.70618 15.1116 4.47412Z" fill="#CD2026" stroke="#CD2026" stroke-width="0.5"/>
<path d="M17.8754 9.00591L17.8753 9.00419C17.8594 7.69475 18.4101 6.70001 19.2466 6.03874C20.0762 5.38291 21.1757 5.06259 22.2632 5.0625C23.3506 5.06241 24.4502 5.38255 25.28 6.03834C26.1163 6.69933 26.6669 7.69367 26.6517 9.00274C26.6513 9.23423 26.5591 9.45616 26.3954 9.61988C26.2313 9.78397 26.0088 9.87616 25.7767 9.87616C25.5446 9.87616 25.3221 9.78397 25.158 9.61988C24.9939 9.45578 24.9017 9.23322 24.9017 9.00116C24.9017 8.23703 24.5787 7.69838 24.0981 7.34324C23.6089 6.98167 22.9428 6.80212 22.2635 6.80212C21.5842 6.80212 20.9181 6.98166 20.4289 7.34323C19.9483 7.69836 19.6253 8.237 19.6253 9.00112V9.00586L19.6253 9.00586C19.6209 9.23503 19.5268 9.45336 19.3632 9.6139C19.1996 9.77445 18.9796 9.86439 18.7503 9.86439C18.5211 9.8644 18.3011 9.77447 18.1374 9.61394M17.8754 9.00591L18.1374 9.61394C18.1374 9.61394 18.1374 9.61394 18.1374 9.61394M17.8754 9.00591C17.8797 9.23509 17.9738 9.45341 18.1374 9.61394M17.8754 9.00591L18.1374 9.61394M18.1374 9.61394L18.3125 9.43549C18.4294 9.55016 18.5866 9.6144 18.7503 9.61439C18.9141 9.61439 19.0713 9.55014 19.1881 9.43546C19.305 9.32078 19.3722 9.16483 19.3753 9.00112C19.3753 7.30925 20.8258 6.55212 22.2635 6.55212C23.7012 6.55212 25.1517 7.30927 25.1517 9.00116C25.1517 9.16692 25.2175 9.32589 25.3347 9.4431C25.452 9.56031 25.6109 9.62616 25.7767 9.62616C25.9424 9.62616 26.1014 9.56031 26.2186 9.4431C26.3358 9.32589 26.4017 9.16692 26.4017 9.00116L18.1374 9.61394ZM23.219 13.8028L23.219 13.8041C23.2314 14.5169 23.3913 15.2193 23.6886 15.8672C23.986 16.5151 24.4143 17.0944 24.9466 17.5686L24.9477 17.5695C25.034 17.6455 25.1345 17.7038 25.2433 17.7409C25.3522 17.7781 25.4673 17.7934 25.5821 17.786C25.6968 17.7787 25.809 17.7487 25.9122 17.6979L25.8019 17.4736L25.9122 17.6979C26.0154 17.6472 26.1076 17.5765 26.1835 17.4901C26.2594 17.4037 26.3175 17.3031 26.3544 17.1942C26.3914 17.0853 26.4066 16.9702 26.399 16.8554C26.3915 16.7406 26.3614 16.6285 26.3104 16.5254C26.2596 16.4225 26.1891 16.3306 26.1028 16.255C25.7543 15.9455 25.4737 15.5673 25.2786 15.144C25.0836 14.7212 24.9782 14.2626 24.9689 13.7971C24.9683 13.0602 25.2877 12.5168 25.7695 12.1506C26.2588 11.7787 26.9244 11.5846 27.6027 11.5841C28.2811 11.5836 28.9473 11.7767 29.4379 12.1483C29.9187 12.5124 30.2392 13.0526 30.244 13.7854C30.2325 13.9032 30.2449 14.0223 30.2805 14.1353C30.3177 14.2536 30.3796 14.3626 30.4619 14.4552C30.5443 14.5479 30.6453 14.6221 30.7584 14.6729L30.8609 14.4449L30.7584 14.6729C30.8714 14.7238 30.994 14.7501 31.1179 14.7503C31.2419 14.7504 31.3645 14.7244 31.4777 14.6738C31.5908 14.6232 31.6921 14.5493 31.7746 14.4568C31.8572 14.3644 31.9193 14.2555 31.9569 14.1374C31.9927 14.0246 32.0054 13.9058 31.9942 13.7881C32.0057 12.4854 31.456 11.4954 30.6227 10.8364C29.7931 10.1805 28.6936 9.86019 27.6063 9.86022C26.519 9.86024 25.4196 10.1806 24.5901 10.8366C23.7537 11.498 23.2031 12.493 23.219 13.8028ZM27.2503 21.9745H27.2501L27.2505 21.9837C27.4673 28.0957 36.2843 28.0938 36.5002 21.9835L36.5003 21.9836L36.5003 21.9744C36.4989 20.7483 36.0112 19.5728 35.1442 18.7058C34.2772 17.8388 33.1017 17.3512 31.8756 17.3498H31.875C30.6489 17.3512 29.4734 17.8389 28.6064 18.7059C27.7394 19.5729 27.2517 20.7484 27.2503 21.9745ZM30.4129 19.5178C30.8548 19.2502 31.3602 19.1059 31.8767 19.0998C32.3359 19.1 32.7866 19.211 33.1913 19.4214L29.3254 23.2873C29.1419 22.9211 29.0377 22.5189 29.0212 22.1072C29.0005 21.5906 29.1187 21.0779 29.3635 20.6224C29.6083 20.167 29.9707 19.7856 30.4129 19.5178ZM31.8738 24.8498C31.4147 24.8495 30.964 24.7385 30.5593 24.5282L34.4252 20.6622C34.6088 21.0285 34.713 21.4307 34.7294 21.8424C34.7501 22.359 34.6319 22.8717 34.3871 23.3271C34.1424 23.7825 33.78 24.164 33.3377 24.4318C32.8958 24.6994 32.3904 24.8437 31.8738 24.8498Z" fill="#CD2026" stroke="#CD2026" stroke-width="0.5"/>
<path d="M31.88 14.8497L31.88 14.8494L31.869 14.8497C23.6485 15.0314 22.1148 26.2781 29.7495 28.7666V31.9746V31.9749C29.7499 32.3725 29.9081 32.7537 30.1893 33.0349C30.4704 33.3161 30.8517 33.4742 31.2493 33.4746H31.2495H32.4995H32.4998C32.8974 33.4742 33.2787 33.3161 33.5598 33.0349C33.841 32.7537 33.9992 32.3725 33.9995 31.9749V31.9746V28.7665C41.6396 26.2747 40.0943 15.0291 31.88 14.8497ZM31.4995 31.7246V29.0881C31.7493 29.1023 31.9998 29.1023 32.2495 29.0881V31.7246H31.4995ZM31.8746 27.3496C30.4495 27.3479 29.0834 26.781 28.0758 25.7734C27.0693 24.7669 26.5026 23.4027 26.4996 21.9794C26.7868 14.8497 36.9634 14.8513 37.2495 21.9794C37.2465 23.4027 36.6798 24.7669 35.6733 25.7734C34.6657 26.781 33.2995 27.3479 31.8746 27.3496Z" fill="#CD2026" stroke="#CD2026" stroke-width="0.5"/>
</svg>
