<svg width="242" height="241" viewBox="0 0 242 241" fill="none" xmlns="http://www.w3.org/2000/svg">
<g clip-path="url(#clip0_6322_98511)">
<rect width="240.151" height="240.151" transform="translate(0.923828)" fill="#FAFAFA"/>
<path d="M209.814 182.614V0H-8.81979V211.095L209.814 182.614Z" fill="#E1EBFF"/>
<circle r="20.3057" transform="matrix(-1 0 0 1 63.3193 46.8917)" fill="#E1B48B"/>
<path fill-rule="evenodd" clip-rule="evenodd" d="M66.8222 26.8871C65.6841 26.6891 64.5134 26.5859 63.3186 26.5859C52.1041 26.5859 43.0129 35.6771 43.0129 46.8917C43.0129 49.7254 43.5934 52.4236 44.6419 54.8738C45.78 55.0717 46.9507 55.1749 48.1454 55.1749C59.36 55.1749 68.4512 46.0837 68.4512 34.8691C68.4512 32.0354 67.8707 29.3372 66.8222 26.8871Z" fill="#1F1F1F"/>
<path d="M87.1953 99.2708C87.1953 83.0273 73.7612 69.8594 57.5177 69.8594V69.8594C41.2742 69.8594 27.84 83.0273 27.84 99.2708V194.818H87.1953V99.2708Z" fill="#CD2026"/>
<path d="M43.0742 198.365L69.2063 198.648L70.0688 118.821C70.1468 111.605 64.3601 105.692 57.144 105.614V105.614C49.9278 105.536 44.0147 111.323 43.9367 118.539L43.0742 198.365Z" fill="#E1B48B"/>
<path d="M73.4304 94.5261C73.3588 85.2447 65.7768 77.7788 56.4954 77.8504V77.8504C47.2141 77.922 39.7482 85.504 39.8198 94.7854L40.1176 133.39L73.7283 133.131L73.4304 94.5261Z" fill="#A70B11"/>
<path d="M149.455 133.94L133.032 142.798" stroke="white"/>
<path d="M150.746 128.589L134.323 137.446" stroke="white"/>
<path d="M209.814 182.614V172.909L-8.81979 200.527V211.095L209.814 182.614Z" fill="#98B0DF"/>
<rect x="141.889" y="206.764" width="38.2685" height="162.446" fill="#570DB4"/>
<rect x="166.881" y="206.764" width="32.8016" height="162.446" fill="#7128CE"/>
<circle cx="164.983" cy="50.2472" r="20.3057" fill="#E1B48B"/>
<path fill-rule="evenodd" clip-rule="evenodd" d="M155.169 32.4664C158.078 30.8573 161.424 29.9414 164.983 29.9414C176.198 29.9414 185.289 39.0326 185.289 50.2472C185.289 51.9364 185.083 53.5775 184.694 55.1467C181.785 56.7557 178.44 57.6716 174.88 57.6716C163.665 57.6716 154.574 48.5804 154.574 37.3659C154.574 35.6766 154.781 34.0355 155.169 32.4664Z" fill="#1F1F1F"/>
<path d="M141.107 102.626C141.107 86.3828 154.542 73.2148 170.785 73.2148V73.2148C187.029 73.2148 200.463 86.3828 200.463 102.626V198.173H141.107V102.626Z" fill="#CD2026"/>
<path d="M166.1 207.545V366.867" stroke="black"/>
<rect x="185.502" y="227.018" width="26.1336" height="118.196" rx="13.0668" transform="rotate(179.381 185.502 227.018)" fill="#E1B48B"/>
<path d="M154.872 97.8815C154.944 88.6002 162.526 81.1342 171.807 81.2058V81.2058C181.089 81.2775 188.555 88.8595 188.483 98.1408L188.185 136.745L154.574 136.486L154.872 97.8815Z" fill="#A70B11"/>
<path d="M143.559 29.3408L111.017 46.8916" stroke="white"/>
<path d="M146.117 18.7373L113.575 36.2881" stroke="white"/>
<path d="M53.1738 150.514L20.6318 168.064" stroke="white"/>
<path d="M55.7324 139.91L23.1904 157.461" stroke="white"/>
</g>
<defs>
<clipPath id="clip0_6322_98511">
<rect width="240.151" height="240.151" fill="white" transform="translate(0.923828)"/>
</clipPath>
</defs>
</svg>
