<svg width="48" height="48" viewBox="0 0 48 48" fill="none" xmlns="http://www.w3.org/2000/svg">
<path d="M23.4404 5.30843C26.1005 5.2322 28.7533 5.7271 31.2028 6.74775C31.7731 6.98541 32.3898 6.84886 32.8398 6.53179C33.4537 6.09912 34.2005 5.84498 35.0067 5.84498C37.0877 5.84498 38.7817 7.53914 38.7817 9.62071C38.7817 11.7023 37.0877 13.3964 35.0067 13.3964C32.9258 13.3964 31.2318 11.7023 31.2318 9.62071C31.2318 9.54222 31.2342 9.46433 31.239 9.38708C31.2783 8.75451 30.9942 7.99863 30.2665 7.71903C28.1089 6.89011 25.7963 6.49153 23.4765 6.55813L23.4764 6.55814C20.3794 6.64729 17.3487 7.57115 14.7113 9.22921C11.0396 11.5374 8.3718 15.107 7.20026 19.2795C6.13056 23.0891 6.38088 27.1167 7.89545 30.7311C8.01395 31.0139 7.89375 31.3212 7.65227 31.4397L7.87252 31.8886L7.65227 31.4397L7.42793 31.5498C7.17346 31.6747 6.89095 31.5623 6.79324 31.3337C5.12533 27.43 4.83854 23.0673 5.99702 18.9414L5.51564 18.8063L5.99703 18.9414C7.25265 14.4695 10.1109 10.6447 14.0462 8.17068C16.8732 6.39343 20.1218 5.40389 23.4404 5.30843ZM23.4404 5.30843L23.4261 4.80863M23.4404 5.30843L23.4261 4.80863M23.4261 4.80863C20.0178 4.90667 16.6822 5.92289 13.7801 7.74738L7.68165 19.4146C8.81963 15.3617 11.4106 11.8948 14.9774 9.65252C17.5398 8.04166 20.4836 7.14449 23.4908 7.05793C25.7442 6.99323 27.991 7.38041 30.0872 8.18577C30.5471 8.36248 30.7705 8.86429 30.74 9.35608C30.7345 9.4436 30.7318 9.53183 30.7318 9.62071C30.7318 11.9783 32.6495 13.8964 35.0067 13.8964C37.3639 13.8964 39.2817 11.9783 39.2817 9.62071C39.2817 7.26309 37.364 5.34498 35.0067 5.34498C34.0936 5.34498 33.2469 5.63322 32.5518 6.12308C32.2135 6.36142 31.777 6.44536 31.3951 6.28621C28.8806 5.23846 26.1574 4.73036 23.4261 4.80863ZM37.5319 9.62079C37.5319 8.22793 36.3997 7.09533 35.0068 7.09533C33.6139 7.09533 32.4816 8.22782 32.4816 9.62079C32.4816 11.0137 33.614 12.1463 35.0068 12.1463C36.3996 12.1463 37.5319 11.0136 37.5319 9.62079Z" fill="#CD2026" stroke="#CD2026"/>
<path d="M41.1772 15.4374C40.9302 14.9434 40.3174 14.7754 39.8368 15.0475L39.6193 15.1707C39.1388 15.4428 38.9728 16.0519 39.2163 16.5475C40.9805 20.138 41.4146 24.213 40.4316 28.1305C39.3637 32.3864 36.7293 36.0167 33.0136 38.3525C30.2552 40.0866 27.1357 40.9564 24.0111 40.9563C21.6328 40.9562 19.2515 40.4519 17.0247 39.4417C16.5748 39.2375 16.3815 38.7215 16.4423 38.2312C16.4636 38.0594 16.4747 37.8844 16.4747 37.7069C16.4747 35.3493 14.5569 33.4312 12.1997 33.4312C9.84256 33.4312 7.9248 35.3493 7.9248 37.7069C7.9248 40.0645 9.84256 41.9826 12.1997 41.9826C13.019 41.9826 13.7848 41.7504 14.4356 41.3487C14.7868 41.132 15.2263 41.0745 15.5973 41.2553C18.2174 42.5319 21.1018 43.2007 24.0281 43.2006C24.0642 43.2006 24.1005 43.2005 24.1366 43.2003C27.6971 43.1802 31.1807 42.1627 34.2109 40.2577C38.4198 37.6118 41.404 33.4994 42.6138 28.6783C43.738 24.1976 43.2255 19.5344 41.1772 15.4374ZM12.1997 39.7323C11.0831 39.7323 10.1746 38.8237 10.1746 37.7068C10.1746 36.5899 11.0831 35.6813 12.1997 35.6813C13.3164 35.6813 14.2249 36.5899 14.2249 37.7068C14.2249 38.8237 13.3164 39.7323 12.1997 39.7323Z" fill="#CD2026"/>
<path d="M23.9999 14.4004C18.7065 14.4004 14.3999 18.7069 14.3999 24.0004C14.3999 29.2938 18.7065 33.6004 23.9999 33.6004C29.2933 33.6004 33.5999 29.2939 33.5999 24.0004C33.5999 18.707 29.2933 14.4004 23.9999 14.4004ZM31.534 23.0004H27.8971C27.7531 20.6544 27.1276 18.474 26.1031 16.6967C28.9635 17.5216 31.1359 19.985 31.534 23.0004ZM22.1073 23.0004C22.2639 20.7301 22.9272 18.6674 24 17.1029C25.0729 18.6674 25.7361 20.7301 25.8928 23.0004H22.1073ZM25.8996 25.0004C25.7557 27.3102 25.0886 29.4105 24 30.9979C22.9114 29.4105 22.2443 27.3102 22.1005 25.0004H25.8996ZM21.897 16.6965C20.8725 18.4739 20.247 20.6544 20.1029 23.0004H16.4657C16.8638 19.985 19.0364 17.5214 21.897 16.6965ZM16.4657 25.0004H20.0974C20.2267 27.3318 20.8309 29.5034 21.8294 31.284C19.0023 30.4401 16.8607 27.992 16.4657 25.0004ZM26.1707 31.284C27.1691 29.5033 27.7733 27.3318 27.9027 25.0004H31.5341C31.1391 27.9919 28.9976 30.44 26.1707 31.284Z" fill="#CD2026"/>
</svg>
