<svg width="38" height="34" viewBox="0 0 38 34" fill="none" xmlns="http://www.w3.org/2000/svg">
<path d="M7.89869 8.87695L1.96289 8.87695" stroke="#CD2026" stroke-width="3"/>
<path d="M7.89869 26.0254L1.96289 26.0254" stroke="#CD2026" stroke-width="3"/>
<circle cx="21.0879" cy="17.4512" r="14.9883" stroke="#CD2026" stroke-width="3"/>
<path d="M1.96289 0.962891V33.9396" stroke="#CD2026" stroke-width="3"/>
<path d="M12.8203 20.0232C13.6645 19.2933 14.3285 18.6954 14.8121 18.2293C15.3046 17.7544 15.7135 17.262 16.0389 16.7519C16.3642 16.2419 16.5269 15.7318 16.5269 15.2218C16.5269 14.6942 16.3994 14.2809 16.1444 13.9819C15.8982 13.6829 15.5068 13.5334 14.9704 13.5334C14.4516 13.5334 14.0471 13.7005 13.7569 14.0346C13.4755 14.36 13.326 14.7997 13.3084 15.3537H11.8574C11.8838 14.3512 12.1828 13.5862 12.7544 13.0585C13.3348 12.5221 14.0691 12.2539 14.9572 12.2539C15.9158 12.2539 16.6632 12.5177 17.1996 13.0453C17.7449 13.573 18.0175 14.2765 18.0175 15.1559C18.0175 15.789 17.8548 16.4002 17.5294 16.9894C17.2128 17.5697 16.8303 18.093 16.3818 18.559C15.9421 19.0163 15.3793 19.5483 14.6934 20.1551L14.0998 20.6827H18.2813V21.9359H11.8706V20.841L12.8203 20.0232Z" fill="#CD2026"/>
<path d="M28.5983 14.681C29.1699 14.681 29.68 14.7997 30.1285 15.0371C30.5857 15.2746 30.9419 15.6263 31.1969 16.0924C31.4607 16.5585 31.5926 17.1213 31.5926 17.7808V22.0678H30.1021V18.005C30.1021 17.3543 29.9394 16.8575 29.614 16.5145C29.2887 16.1627 28.8446 15.9869 28.2818 15.9869C27.719 15.9869 27.2705 16.1627 26.9363 16.5145C26.6109 16.8575 26.4483 17.3543 26.4483 18.005V22.0678H24.9577V18.005C24.9577 17.3543 24.795 16.8575 24.4697 16.5145C24.1443 16.1627 23.7002 15.9869 23.1374 15.9869C22.5746 15.9869 22.1261 16.1627 21.792 16.5145C21.4666 16.8575 21.3039 17.3543 21.3039 18.005V22.0678H19.8002V14.7997H21.3039V15.6307C21.5501 15.3317 21.8623 15.0987 22.2404 14.9316C22.6186 14.7645 23.0231 14.681 23.454 14.681C24.0344 14.681 24.5532 14.8041 25.0105 15.0503C25.4678 15.2966 25.8195 15.6527 26.0657 16.1188C26.2856 15.6791 26.6285 15.3317 27.0946 15.0767C27.5607 14.8129 28.0619 14.681 28.5983 14.681Z" fill="#CD2026"/>
</svg>
