<svg width="30" height="34" viewBox="0 0 30 34" fill="none" xmlns="http://www.w3.org/2000/svg">
<path d="M24.6698 0C23.304 0 21.9428 0.52132 20.9066 1.55573L2.31864 20.1106C2.16509 20.2645 2.0557 20.4567 2.00187 20.6671L0.0379108 28.4331C-0.0141776 28.6365 -0.0125646 28.8499 0.0425927 29.0525C0.0977499 29.255 0.204568 29.4398 0.352624 29.5889C0.500679 29.738 0.684917 29.8462 0.88736 29.903C1.0898 29.9598 1.30354 29.9632 1.50771 29.913L9.28752 27.9525C9.50288 27.9009 9.70002 27.7915 9.85771 27.6363L28.4456 9.0814C30.5181 7.01258 30.5181 3.62454 28.4456 1.55573C27.4094 0.521316 26.0355 0 24.6698 0ZM24.6698 2.4158C25.4062 2.4158 26.1478 2.70228 26.7224 3.27588C27.8717 4.42308 27.8717 6.21404 26.7224 7.36125L25.4427 8.62607L21.3627 4.55335L22.6298 3.27588C23.2044 2.70228 23.9333 2.4158 24.6698 2.4158ZM19.6395 6.26086L23.7321 10.3462L8.37523 25.6758L2.88882 27.0671L4.26993 21.6031L19.6395 6.26086ZM1.49504 31.5699C1.33528 31.5782 1.17873 31.6178 1.0343 31.6865C0.889885 31.7551 0.760433 31.8515 0.653341 31.9702C0.54625 32.0888 0.463617 32.2273 0.410162 32.3778C0.356707 32.5283 0.333476 32.6879 0.341796 32.8474C0.350117 33.0068 0.389826 33.1631 0.458656 33.3073C0.527485 33.4514 0.624087 33.5806 0.742944 33.6875C0.861802 33.7944 1.00059 33.8768 1.15137 33.9302C1.30216 33.9835 1.46199 34.0067 1.62175 33.9983H28.3823C28.5435 34.0006 28.7035 33.9709 28.8531 33.9109C29.0026 33.8509 29.1388 33.7618 29.2536 33.6488C29.3684 33.5359 29.4595 33.4012 29.5217 33.2528C29.5839 33.1043 29.616 32.945 29.616 32.7841C29.616 32.6232 29.5839 32.4639 29.5217 32.3154C29.4595 32.167 29.3684 32.0324 29.2536 31.9194C29.1388 31.8064 29.0026 31.7173 28.8531 31.6573C28.7035 31.5973 28.5435 31.5676 28.3823 31.5699H1.62175C1.57954 31.5677 1.53725 31.5677 1.49504 31.5699Z" fill="#169F32"/>
</svg>
