<svg width="38" height="47" viewBox="0 0 38 47" fill="none" xmlns="http://www.w3.org/2000/svg">
<path d="M0.833008 19.8003C0.833008 8.47177 9.46026 1.16699 18.9997 1.16699C28.5391 1.16699 37.1663 8.47177 37.1663 19.8003C37.1663 23.381 35.7863 27.3229 32.9661 31.6398C30.1468 35.9551 25.9065 40.617 20.2337 45.6274C19.5355 46.2325 18.4869 46.2324 17.7888 45.6272C12.1042 40.6168 7.85816 35.9549 5.03605 31.6396C2.213 27.3228 0.833008 23.381 0.833008 19.8003ZM13.833 19.3337C13.833 22.1765 16.1569 24.5003 18.9997 24.5003C21.8425 24.5003 24.1663 22.1765 24.1663 19.3337C24.1663 16.4908 21.8425 14.167 18.9997 14.167C16.1569 14.167 13.833 16.4908 13.833 19.3337Z" fill="#CD2026" stroke="#80060B"/>
</svg>
