<svg width="48" height="48" viewBox="0 0 48 48" fill="none" xmlns="http://www.w3.org/2000/svg">
<path d="M33.9525 20.0856C33.7021 20.0869 33.4592 20.0004 33.266 19.8414C33.0727 19.6824 32.9412 19.4607 32.8943 19.215C32.5939 17.7054 31.8523 16.3187 30.7633 15.2303C29.6744 14.1419 28.2869 13.4006 26.7764 13.1003C26.5309 13.0524 26.3096 12.9207 26.1506 12.7277C25.9915 12.5346 25.9046 12.2923 25.9048 12.0423C25.9049 11.7922 25.9921 11.55 26.1514 11.3572C26.3107 11.1644 26.5321 11.0329 26.7778 10.9854C28.288 10.6849 29.6751 9.94358 30.7638 8.85528C31.8525 7.76697 32.594 6.3805 32.8943 4.87114C32.9422 4.62586 33.0738 4.40483 33.2668 4.24591C33.4597 4.08698 33.702 4.00005 33.952 4C34.2021 3.99995 34.4443 4.08678 34.6374 4.24562C34.8304 4.40447 34.9621 4.62544 35.0101 4.87069C35.3105 6.38014 36.052 7.76668 37.1408 8.85506C38.2296 9.94343 39.6168 10.6848 41.1271 10.9854C41.3727 11.0329 41.5941 11.1643 41.7534 11.3571C41.9127 11.5499 41.9999 11.7921 42.0001 12.0421C42.0003 12.2921 41.9135 12.5344 41.7546 12.7275C41.5956 12.9205 41.3744 13.0523 41.1289 13.1003C39.6183 13.4005 38.2308 14.1417 37.1417 15.23C36.0525 16.3183 35.3107 17.7049 35.0101 19.2145C34.9634 19.4603 34.832 19.682 34.6388 19.8411C34.4456 20.0003 34.2028 20.0868 33.9525 20.0856ZM29.3172 12.0428C31.359 12.9945 33 14.6346 33.9521 16.6753C34.9043 14.6345 36.5457 12.9943 38.5878 12.0428C36.5458 11.0913 34.9046 9.45113 33.9525 7.41039C33.0004 9.45115 31.3592 11.0913 29.3172 12.0428H29.3172ZM40.7711 12.7585L40.7737 12.7594L40.7711 12.7585ZM27.1348 12.7585L27.1326 12.759L27.1348 12.7585Z" fill="#CD2026"/>
<path d="M15.0479 32.6278C14.7665 32.6291 14.4936 32.5319 14.2764 32.3531C14.0592 32.1743 13.9115 31.9252 13.8588 31.6489C13.521 29.9516 12.6872 28.3924 11.4628 27.1687C10.2384 25.9449 8.6784 25.1115 6.98006 24.7738C6.70412 24.7201 6.45546 24.5721 6.27666 24.3553C6.09786 24.1385 6.00006 23.8663 6 23.5854C5.99994 23.3044 6.09763 23.0322 6.27634 22.8153C6.45505 22.5984 6.70365 22.4503 6.97957 22.3965C8.67794 22.0591 10.238 21.2259 11.4626 20.0023C12.6871 18.7787 13.521 17.2197 13.8588 15.5224C13.9126 15.2466 14.0606 14.9981 14.2775 14.8194C14.4945 14.6408 14.7668 14.543 15.0479 14.543C15.3291 14.5429 15.6015 14.6405 15.8185 14.8191C16.0355 14.9977 16.1836 15.2461 16.2375 15.5219C16.5752 17.2191 17.4089 18.7782 18.6332 20.0019C19.8576 21.2255 21.4175 22.0589 23.1157 22.3965H23.1162C23.3923 22.4504 23.6409 22.5986 23.8197 22.8157C23.9984 23.0327 24.096 23.3051 24.0957 23.5862C24.0955 23.8673 23.9974 24.1396 23.8183 24.3563C23.6393 24.5731 23.3903 24.7208 23.1142 24.7743C21.4163 25.1122 19.8568 25.9456 18.6328 27.1691C17.4088 28.3927 16.5752 29.9515 16.2375 31.6484C16.1849 31.9249 16.0372 32.1741 15.8199 32.3531C15.6026 32.532 15.3294 32.6292 15.0479 32.6278ZM9.83662 23.5854C12.1325 24.655 13.9776 26.4991 15.0479 28.7936C16.1183 26.4992 17.9634 24.6552 20.2592 23.5854C17.9636 22.5156 16.1186 20.6716 15.0483 18.3773C13.9777 20.6717 12.1324 22.5157 9.83656 23.5854H9.83662ZM22.7125 24.3896L22.7149 24.3901L22.7125 24.3896ZM22.7154 22.7803L22.7134 22.7808L22.7154 22.7803ZM7.37892 22.7798L7.3814 22.7803L7.37892 22.7798Z" fill="#CD2026"/>
<path d="M33.9524 45.9997C33.7022 46.0008 33.4594 45.9144 33.2662 45.7554C33.073 45.5963 32.9416 45.3747 32.8948 45.129C32.5944 43.6193 31.8527 42.2325 30.7637 41.1441C29.6746 40.0556 28.287 39.3143 26.7764 39.0139C26.531 38.9661 26.3099 38.8345 26.1508 38.6417C25.9918 38.4488 25.9048 38.2067 25.9048 37.9569C25.9047 37.707 25.9916 37.4648 26.1506 37.2719C26.3095 37.079 26.5306 36.9473 26.776 36.8994C28.2866 36.5992 29.6741 35.8581 30.7633 34.7698C31.8524 33.6814 32.5942 32.2948 32.8948 30.7852C32.9426 30.5399 33.0743 30.3189 33.2672 30.16C33.4602 30.001 33.7024 29.9141 33.9525 29.9141C34.2025 29.914 34.4448 30.0008 34.6378 30.1597C34.8308 30.3185 34.9626 30.5395 35.0105 30.7848C35.3111 32.2944 36.0527 33.6811 37.1418 34.7695C38.2308 35.8579 39.6183 36.5991 41.1288 36.8994H41.1293C41.3748 36.9474 41.596 37.0792 41.755 37.2723C41.9139 37.4653 42.0007 37.7076 42.0005 37.9576C42.0003 38.2077 41.9131 38.4498 41.7538 38.6426C41.5945 38.8354 41.3731 38.9668 41.1275 39.0144C39.6172 39.3148 38.2299 40.056 37.1411 41.1443C36.0523 42.2326 35.3109 43.6192 35.0105 45.1286C34.9637 45.3744 34.8323 45.5962 34.639 45.7553C34.4457 45.9144 34.2028 46.0009 33.9524 45.9997ZM29.3172 37.9569C31.3594 38.9082 33.0006 40.5484 33.9524 42.5893C34.9047 40.5486 36.5461 38.9084 38.5882 37.9569C36.5462 37.0054 34.905 35.3652 33.9529 33.3245C33.0007 35.3652 31.3593 37.0054 29.3172 37.9569H29.3172ZM40.7693 38.6717L40.7724 38.6726L40.7693 38.6717ZM40.7728 37.2407L40.7706 37.2412L40.7728 37.2407ZM27.1313 37.2403L27.1335 37.2407L27.1313 37.2403Z" fill="#CD2026"/>
</svg>
