<svg width="25" height="29" viewBox="0 0 25 29" fill="none" xmlns="http://www.w3.org/2000/svg">
<path d="M12.5553 4.22883V1.44407C12.5553 0.743992 11.7152 0.401731 11.233 0.899565L6.87691 5.24005C6.56577 5.5512 6.56577 6.03347 6.87691 6.34462L11.2174 10.6851C11.7152 11.1674 12.5553 10.8251 12.5553 10.125V7.34029C17.7048 7.34029 21.8897 11.5252 21.8897 16.6747C21.8897 20.9063 19.0427 24.4844 15.1845 25.6201C14.5311 25.8068 14.1111 26.4291 14.1111 27.0981C14.1111 28.1093 15.0756 28.9027 16.0557 28.6071C21.2207 27.0981 25.0012 22.3375 25.0012 16.6747C25.0012 9.79834 19.4317 4.22883 12.5553 4.22883Z" fill="#FFB800"/>
<path d="M3.22083 16.6748C3.22083 14.5902 3.90536 12.6611 5.07215 11.0898C5.53887 10.4675 5.47664 9.61183 4.93214 9.05177C4.27873 8.39836 3.15861 8.46059 2.59854 9.20734C1.04281 11.292 0.109375 13.8745 0.109375 16.6748C0.109375 22.3377 3.8898 27.0982 9.05482 28.6073C10.0349 28.9029 10.9995 28.1095 10.9995 27.0982C10.9995 26.4293 10.5794 25.807 9.92603 25.6203C6.06782 24.4846 3.22083 20.9064 3.22083 16.6748Z" fill="#FFB800"/>
</svg>
