<svg width="31" height="41" viewBox="0 0 31 41" fill="none" xmlns="http://www.w3.org/2000/svg">
<path d="M4.06192 22.7617C2.77758 20.7062 2.06717 18.3442 2.00453 15.9213C1.9419 13.4984 2.52931 11.1029 3.70574 8.98377C4.88216 6.86467 6.60466 5.09932 8.69421 3.87118C10.7838 2.64304 13.1641 1.99693 15.5878 2.00001C18.0116 2.00309 20.3903 2.65524 22.4767 3.88869C24.5631 5.12214 26.2811 6.89187 27.4522 9.01395C28.6232 11.136 29.2045 13.533 29.1357 15.9558C29.0669 18.3785 28.3505 20.7387 27.0609 22.7909" stroke="#CD2026" stroke-width="2.25" stroke-miterlimit="10" stroke-linecap="round" stroke-linejoin="round"/>
<path d="M12.4339 14.5253C12.4339 13.9716 12.6539 13.4405 13.0454 13.049C13.4369 12.6575 13.968 12.4375 14.5217 12.4375C15.0754 12.4375 15.6064 12.6575 15.998 13.049C16.3895 13.4405 16.6095 13.9716 16.6095 14.5253V24.4506L24.7936 26.8933C26.159 27.2879 26.9795 28.6784 26.6601 30.0667C26.6601 30.0667 25.1026 38.4221 24.8854 39.6204H12.1082L5.71959 30.0375C3.18294 26.1605 9.55276 24.8139 12.436 31.2693V14.5253H12.4339Z" stroke="#CD2026" stroke-width="2.25" stroke-miterlimit="10" stroke-linejoin="round"/>
</svg>
