<svg width="48" height="48" viewBox="0 0 48 48" fill="none" xmlns="http://www.w3.org/2000/svg">
<path d="M25.7 36.1457L31.12 39.7276C31.3777 39.908 31.6854 40.0031 32 39.9996L25.7 36.1457ZM25.7 36.1457V36.0796H25.6L25.5449 36.163L25.6 36.1995V38.3996C25.6 38.8239 25.4314 39.2309 25.1314 39.5309C24.8313 39.831 24.4243 39.9996 24 39.9996C23.5757 39.9996 23.1687 39.831 22.8686 39.5309C22.5686 39.2309 22.4 38.8239 22.4 38.3996V36.1995L22.4551 36.163L22.4 36.0796H22.3V36.1457L16.88 39.7276C16.6223 39.908 16.3146 40.0031 16 39.9996C15.6488 40.0079 15.3047 39.9004 15.0207 39.6937C14.7367 39.487 14.5286 39.1927 14.4285 38.856C14.3284 38.5193 14.3419 38.159 14.4668 37.8307C14.5918 37.5025 14.8213 37.2245 15.12 37.0396L22.4 32.2397V30.4997V30.3997H22.3H9.6C9.17565 30.3997 8.76869 30.2311 8.46863 29.9311C8.16857 29.631 8 29.224 8 28.7997C8 28.3754 8.16857 27.9684 8.46863 27.6684C8.76869 27.3683 9.17565 27.1997 9.6 27.1997L25.7 36.1457ZM36.7 27.1997V27.2997H36.8H38.4C38.7978 27.2997 39.1794 27.4578 39.4607 27.7391C39.742 28.0204 39.9 28.4019 39.9 28.7997C39.9 29.1975 39.742 29.5791 39.4607 29.8604C39.1794 30.1417 38.7978 30.2997 38.4 30.2997H25.6H25.5V30.3997V32.2717V32.3255L25.545 32.3551L32.8242 37.1546C32.8244 37.1547 32.8245 37.1548 32.8246 37.1548C33.0904 37.3336 33.2921 37.5927 33.4 37.8943C33.5079 38.1961 33.5164 38.5244 33.4242 38.8314C33.3319 39.1383 33.1438 39.4076 32.8874 39.5998C32.631 39.792 32.3197 39.8971 31.9992 39.8996L31.9989 39.8996C31.7052 39.9029 31.4179 39.8141 31.1774 39.6456L31.1774 39.6456L31.1751 39.6441L25.6551 35.9962L25.5 35.8937V36.0796V38.3996C25.5 38.7974 25.342 39.1789 25.0607 39.4602C24.7794 39.7415 24.3978 39.8996 24 39.8996C23.6022 39.8996 23.2206 39.7415 22.9393 39.4602C22.658 39.1789 22.5 38.7974 22.5 38.3996V36.0796V35.8937L22.3449 35.9962L16.8249 39.6441L16.8248 39.6441L16.8226 39.6456C16.5821 39.8141 16.2948 39.9029 16.0011 39.8996L16.0011 39.8995L15.9976 39.8996C15.6684 39.9074 15.3458 39.8066 15.0795 39.6129C14.8133 39.4191 14.6182 39.1431 14.5243 38.8275C14.4305 38.5118 14.4431 38.1741 14.5603 37.8663C14.6775 37.5586 14.8926 37.2979 15.1726 37.1246L15.1727 37.1247L15.175 37.1231L22.455 32.3231L22.5 32.2935V32.2397V30.3997V30.2997H22.4H9.6C9.20217 30.2997 8.82064 30.1417 8.53934 29.8604C8.25803 29.5791 8.1 29.1975 8.1 28.7997C8.1 28.4019 8.25803 28.0204 8.53934 27.7391C8.82064 27.4578 9.20217 27.2997 9.6 27.2997H11.2H11.3V27.1997V11.2V11.1H11.2H9.6C9.20217 11.1 8.82064 10.9419 8.53934 10.6606C8.25803 10.3793 8.1 9.9978 8.1 9.59998C8.1 9.20216 8.25803 8.82063 8.53934 8.53933C8.82064 8.25803 9.20217 8.1 9.6 8.1H38.4C38.7978 8.1 39.1794 8.25803 39.4607 8.53933C39.742 8.82063 39.9 9.20216 39.9 9.59998C39.9 9.9978 39.742 10.3793 39.4607 10.6606C39.1794 10.9419 38.7978 11.1 38.4 11.1H36.8H36.7V11.2V27.1997ZM33.6 27.2997H33.7V27.1997V11.2V11.1H33.6H14.4H14.3V11.2V27.1997V27.2997H14.4H33.6Z" fill="#169F32" stroke="#FAFAFA" stroke-width="0.2"/>
</svg>
