<svg width="30" height="30" viewBox="0 0 30 30" fill="none" xmlns="http://www.w3.org/2000/svg">
<path d="M22.7638 21.1898C22.6172 21.0431 22.6075 20.8091 22.7361 20.6465C24.6915 18.1743 25.6639 15.0607 25.4568 11.9069C25.2416 8.63095 23.7703 5.56451 21.3496 3.3468C18.9289 1.12909 15.7457 -0.0687273 12.4635 0.00304906C9.18131 0.0748254 6.05348 1.41066 3.73207 3.73207C1.41066 6.05348 0.0748254 9.18131 0.00304906 12.4635C-0.0687273 15.7457 1.12909 18.9289 3.3468 21.3496C5.56451 23.7703 8.63095 25.2416 11.9069 25.4568C15.0607 25.6639 18.1743 24.6915 20.6465 22.7361C20.8091 22.6075 21.0431 22.6172 21.1898 22.7638L28.1431 29.7172C28.2993 29.8734 28.5526 29.8734 28.7088 29.7172L29.7172 28.7088C29.8734 28.5526 29.8734 28.2993 29.7172 28.1431L22.7638 21.1898ZM2.26725 12.7607C2.26415 10.9753 2.71668 9.21852 3.58203 7.65676C4.44737 6.09501 5.69691 4.77988 7.21239 3.83583C8.72786 2.89178 10.4592 2.35003 12.2425 2.26185C14.0257 2.17367 15.802 2.54197 17.4033 3.33191C19.0045 4.12185 20.3777 5.30729 21.3929 6.77605C22.4081 8.24482 23.0317 9.94834 23.2048 11.7254C23.3778 13.5025 23.0946 15.2943 22.3819 16.9313C21.7591 18.3618 20.8263 19.6328 19.6543 20.654C19.446 20.8355 19.1318 20.6822 19.1318 20.406C19.1298 19.3501 18.8608 18.3119 18.3497 17.388C17.9254 16.6211 17.3459 15.9536 16.6502 15.4271C16.4367 15.2655 16.4116 14.9441 16.5936 14.7477C17.1725 14.1227 17.5875 13.3603 17.7969 12.5288C18.0502 11.523 17.9906 10.4638 17.6261 9.49277C17.2615 8.52173 16.6094 7.68502 15.7568 7.09439C14.9041 6.50376 13.8916 6.18731 12.8544 6.18731C11.8172 6.18731 10.8047 6.50376 9.95205 7.09439C9.09943 7.68502 8.44731 8.52173 8.08276 9.49277C7.71821 10.4638 7.6586 11.523 7.91188 12.5288C8.12129 13.3603 8.53634 14.1227 9.11521 14.7477C9.29718 14.9441 9.27215 15.2655 9.05863 15.4271C8.36296 15.9536 7.7834 16.6211 7.35917 17.388C6.84806 18.3119 6.57902 19.3501 6.57707 20.406V20.4436C6.57707 20.7708 6.20845 20.9554 5.95931 20.7434C4.9059 19.8468 4.03811 18.7489 3.40841 17.5114C2.65952 16.0397 2.26854 14.412 2.26725 12.7607ZM12.8731 14.1474C12.3114 14.1473 11.7623 13.9812 11.2947 13.6698C10.8272 13.3585 10.4621 12.9158 10.2455 12.3976C10.0289 11.8793 9.97032 11.3086 10.0772 10.7571C10.1841 10.2057 10.4517 9.69812 10.8463 9.29833C11.2409 8.89855 11.7449 8.62437 12.2949 8.51027C12.8449 8.39618 13.4163 8.44726 13.9374 8.6571C14.4585 8.86694 14.9058 9.22617 15.2233 9.6896C15.5407 10.153 15.714 10.7 15.7214 11.2617C15.7214 12.027 15.4173 12.761 14.8762 13.3022C14.335 13.8433 13.601 14.1474 12.8357 14.1474H12.8731ZM9.07699 22.5651C8.92434 22.5079 8.82567 22.3605 8.82567 22.1975V20.406C8.82567 19.3424 9.24815 18.3225 10.0002 17.5705C10.7522 16.8184 11.7722 16.396 12.8357 16.396C13.8992 16.396 14.9192 16.8184 15.6712 17.5705C16.4232 18.3225 16.8457 19.3424 16.8457 20.406V22.1279C16.8457 22.2882 16.7502 22.4337 16.6012 22.4928C15.4053 22.9673 14.1313 23.2172 12.8431 23.2293C11.5568 23.2413 10.2801 23.0158 9.07699 22.5651Z" fill="#CD2026"/>
</svg>
