<svg width="36" height="36" viewBox="0 0 36 36" fill="none" xmlns="http://www.w3.org/2000/svg">
<path d="M9.90142 34.304L22.215 21.9899L9.90142 34.304ZM9.90142 34.304C8.77041 35.4351 7.28432 36 5.7988 36C4.31271 36 2.82718 35.4351 1.69617 34.304C-0.565295 32.042 -0.565295 28.3608 1.6956 26.0988L9.90142 34.304ZM30.3623 16.6808L30.3622 16.6808C28.2599 18.7819 25.075 19.4975 22.2519 18.5005C21.6654 18.2972 21.0115 18.4429 20.5705 18.8827L30.3623 16.6808ZM30.3623 16.6808C31.9986 15.0445 32.7891 12.7849 32.6197 10.5535L32.5991 10.2822L32.4067 10.4746L30.5774 12.3032L30.5774 12.3033C28.6818 14.1988 25.5954 14.2 23.6975 12.3033C22.7794 11.3852 22.2741 10.1646 22.2741 8.8636C22.2741 7.56147 22.7795 6.34089 23.6975 5.42281L25.5262 3.59413L25.7187 3.40167L25.4473 3.3811C25.2498 3.36614 25.0521 3.35806 24.8542 3.35806C22.8199 3.35806 20.8116 4.14752 19.32 5.63853L19.32 5.63855C17.2176 7.74093 16.5033 10.9237 17.4987 13.7479C17.7056 14.3356 17.5571 14.9896 17.117 15.4297L4.07174 28.4744C3.11992 29.4262 3.11992 30.9767 4.07233 31.9285C5.02417 32.8803 6.5729 32.8802 7.52579 31.9285L7.52585 31.9285L20.5704 18.8828L30.3623 16.6808ZM34.862 6.52123L34.862 6.52126C36.7964 10.7086 35.9072 15.7107 32.6494 18.9679L32.7378 19.0563L32.6494 18.968C29.9361 21.6818 25.9537 22.7626 22.2443 21.8684L22.1761 21.852L22.1266 21.9016L9.81303 34.2157C8.70651 35.3222 7.25268 35.875 5.7988 35.875C4.34436 35.875 2.89109 35.3222 1.78457 34.2157C-0.428089 32.0025 -0.428097 28.4004 1.78399 26.1872C1.784 26.1872 1.784 26.1872 1.78401 26.1872L14.0987 13.8731L14.1483 13.8235L14.1318 13.7553C13.2354 10.0477 14.3189 6.06418 17.0328 3.35138L17.0329 3.35135C20.2901 0.0929656 25.2917 -0.796685 29.479 1.13823L29.4791 1.1383C29.9592 1.35939 30.3003 1.8016 30.393 2.32178L30.393 2.32185C30.4862 2.84306 30.3183 3.37587 29.9444 3.74974L30.0328 3.83812L29.9444 3.74974L25.9847 7.70999L25.9847 7.71003C25.3489 8.34647 25.3489 9.37959 25.9847 10.016L25.9848 10.0162C26.6202 10.6503 27.6549 10.6489 28.2901 10.0162L28.2902 10.0161L32.2499 6.05581L32.25 6.05569C32.6238 5.68084 33.1548 5.51348 33.6772 5.6072L33.6773 5.60722C34.1975 5.6999 34.6403 6.04111 34.862 6.52123Z" fill="#169F32" stroke="#FAFAFA" stroke-width="0.25"/>
</svg>
