<svg width="40" height="40" viewBox="0 0 40 40" fill="none" xmlns="http://www.w3.org/2000/svg">
<path d="M23.7948 10.3148H23.4732C24.205 9.49281 24.6508 8.41086 24.6508 7.22625V4.65117C24.6508 2.08648 22.5644 0 19.9998 0C17.4352 0 15.3488 2.08648 15.3488 4.65109V7.22625C15.3488 8.41078 15.7945 9.49273 16.5263 10.3148H16.2048C13.017 10.3148 10.4235 12.9083 10.4235 16.0961V20C10.4235 20.4315 10.7733 20.7812 11.2048 20.7812H28.7948C29.2262 20.7812 29.576 20.4315 29.576 20V16.0961C29.576 12.9083 26.9826 10.3148 23.7948 10.3148ZM19.9998 1.5625C21.5489 1.5625 22.8354 2.70898 23.0552 4.19805L21.6766 3.38812C21.3476 3.19477 20.9271 3.26758 20.682 3.55992C20.0209 4.34891 19.0515 4.80133 18.0221 4.80133H16.9113V4.65109C16.9113 2.94805 18.2967 1.5625 19.9998 1.5625ZM16.9113 6.36391H18.0221C19.2897 6.36391 20.4946 5.89078 21.4164 5.0475L23.0883 6.02977V7.22633C23.0883 8.92937 21.7028 10.3149 19.9998 10.3149C18.2967 10.3149 16.9113 8.9293 16.9113 7.22633V6.36391ZM28.0135 19.2187H11.986V16.0961C11.986 13.7698 13.8786 11.8773 16.2048 11.8773H19.2185V13.4375C19.2185 13.869 19.5684 14.2187 19.9998 14.2187C20.4312 14.2187 20.781 13.869 20.781 13.4375V11.8773H23.7948C26.1209 11.8773 28.0135 13.7698 28.0135 16.0961V19.2187Z" fill="#CD2026"/>
<path d="M12.0312 31.1611H10.9535C11.364 30.5723 11.6056 29.8574 11.6056 29.0868V28.3728C11.6056 26.3675 9.97414 24.736 7.96875 24.736C5.96336 24.736 4.33188 26.3675 4.33188 28.3728V29.0868C4.33188 29.8574 4.57352 30.5723 4.98398 31.1611H3.90625C1.75234 31.1611 0 32.9135 0 35.0674V39.2189C0 39.6504 0.349844 40.0001 0.78125 40.0001H15.1562C15.5877 40.0001 15.9375 39.6504 15.9375 39.2189V35.0674C15.9375 32.9135 14.1852 31.1611 12.0312 31.1611ZM5.89437 28.3728C5.89437 27.229 6.82492 26.2985 7.96875 26.2985C9.11258 26.2985 10.0431 27.229 10.0431 28.3728V29.0868C10.0431 30.2306 9.11258 31.1611 7.96875 31.1611C6.82492 31.1611 5.89437 30.2306 5.89437 29.0868V28.3728ZM14.375 38.4376H1.5625V35.0674C1.5625 33.775 2.61391 32.7236 3.90625 32.7236H7.1875V34.297C7.1875 34.7285 7.53734 35.0782 7.96875 35.0782C8.40016 35.0782 8.75 34.7285 8.75 34.297V32.7236H12.0312C13.3236 32.7236 14.375 33.775 14.375 35.0674V38.4376Z" fill="#CD2026"/>
<path d="M36.0938 31.1611H35.016C35.4265 30.5723 35.6681 29.8574 35.6681 29.0868V28.3728C35.6681 26.3675 34.0366 24.736 32.0312 24.736C30.0259 24.736 28.3944 26.3675 28.3944 28.3728V29.0868C28.3944 29.8574 28.636 30.5723 29.0465 31.1611H27.9688C25.8148 31.1611 24.0625 32.9135 24.0625 35.0674V39.2189C24.0625 39.6504 24.4123 40.0001 24.8438 40.0001H39.2188C39.6502 40.0001 40 39.6504 40 39.2189V35.0674C40 32.9135 38.2477 31.1611 36.0938 31.1611ZM29.9569 28.3728C29.9569 27.229 30.8874 26.2985 32.0312 26.2985C33.1751 26.2985 34.1056 27.229 34.1056 28.3728V29.0868C34.1056 30.2306 33.1751 31.1611 32.0312 31.1611C30.8874 31.1611 29.9569 30.2306 29.9569 29.0868V28.3728ZM38.4375 38.4376H25.625V35.0674C25.625 33.775 26.6764 32.7236 27.9688 32.7236H31.25V34.297C31.25 34.7285 31.5998 35.0782 32.0312 35.0782C32.4627 35.0782 32.8125 34.7285 32.8125 34.297V32.7236H36.0938C37.3861 32.7236 38.4375 33.775 38.4375 35.0674V38.4376Z" fill="#CD2026"/>
<path d="M24.8726 30.4631L20.781 26.3716V23.0859C20.781 22.6545 20.4312 22.3047 19.9998 22.3047C19.5684 22.3047 19.2185 22.6545 19.2185 23.0859V26.3716L15.127 30.4632C14.8219 30.7683 14.8219 31.263 15.127 31.5681C15.4321 31.8732 15.9267 31.8732 16.2319 31.5681L19.9998 27.8001L23.7677 31.568C23.9203 31.7206 24.1202 31.7969 24.3201 31.7969C24.52 31.7969 24.72 31.7206 24.8726 31.568C25.1777 31.263 25.1777 30.7683 24.8726 30.4631Z" fill="#CD2026"/>
<path d="M20.5523 15.893C20.407 15.7477 20.2055 15.6641 20 15.6641C19.7945 15.6641 19.593 15.7477 19.4477 15.893C19.3023 16.0383 19.2188 16.2398 19.2188 16.4453C19.2188 16.6508 19.3023 16.8523 19.4477 16.9977C19.593 17.143 19.7945 17.2266 20 17.2266C20.2055 17.2266 20.407 17.143 20.5523 16.9977C20.6976 16.8523 20.7812 16.6508 20.7812 16.4453C20.7812 16.2398 20.6977 16.0383 20.5523 15.893Z" fill="#CD2026"/>
</svg>
