<svg width="48" height="48" viewBox="0 0 48 48" fill="none" xmlns="http://www.w3.org/2000/svg">
<path d="M30.137 2.91667V7.04167H24.2192C21.5068 7.04167 19.2877 9.10417 19.2877 11.625V23.0833H13.863V18.9583C13.863 18.4542 13.4192 18.0417 12.8767 18.0417H4.9863C4.44384 18.0417 4 18.4542 4 18.9583V29.0417C4 29.5458 4.44384 29.9583 4.9863 29.9583H12.8767C13.4192 29.9583 13.863 29.5458 13.863 29.0417V24.9167H19.2877V36.375C19.2877 38.8958 21.5068 40.9583 24.2192 40.9583H30.137V45.0833C30.137 45.5875 30.5808 46 31.1233 46H39.0137C39.5562 46 40 45.5875 40 45.0833V35C40 34.4958 39.5562 34.0833 39.0137 34.0833H31.1233C30.5808 34.0833 30.137 34.4958 30.137 35V39.125H24.2192C22.5918 39.125 21.2603 37.8875 21.2603 36.375V24.9167H30.137V29.0417C30.137 29.5458 30.5808 29.9583 31.1233 29.9583H39.0137C39.5562 29.9583 40 29.5458 40 29.0417V18.9583C40 18.4542 39.5562 18.0417 39.0137 18.0417H31.1233C30.5808 18.0417 30.137 18.4542 30.137 18.9583V23.0833H21.2603V11.625C21.2603 10.1125 22.5918 8.875 24.2192 8.875H30.137V13C30.137 13.5042 30.5808 13.9167 31.1233 13.9167H39.0137C39.5562 13.9167 40 13.5042 40 13V2.91667C40 2.4125 39.5562 2 39.0137 2H31.1233C30.5808 2 30.137 2.4125 30.137 2.91667ZM38.0274 35.9167V44.1667H32.1096V35.9167H38.0274ZM32.1096 19.875H38.0274V28.125H32.1096V19.875ZM11.8904 28.125H5.9726V19.875H11.8904V28.125ZM38.0274 3.83333V12.0833H32.1096V3.83333H38.0274Z" fill="#FF842B"/>
</svg>
