<svg width="36" height="36" viewBox="0 0 36 36" fill="none" xmlns="http://www.w3.org/2000/svg">
<path d="M35.011 0H0.989011C0.726709 0 0.47515 0.104199 0.289675 0.289675C0.104199 0.47515 0 0.726709 0 0.989011V35.011C0 35.2733 0.104199 35.5249 0.289675 35.7103C0.47515 35.8958 0.726709 36 0.989011 36H35.011C35.2733 36 35.5249 35.8958 35.7103 35.7103C35.8958 35.5249 36 35.2733 36 35.011V0.989011C36 0.726709 35.8958 0.47515 35.7103 0.289675C35.5249 0.104199 35.2733 0 35.011 0ZM11.0769 34.022H1.97802V24.9231H11.0769V34.022ZM11.0769 22.9451H1.97802V13.0549H11.0769V22.9451ZM11.0769 11.0769H1.97802V1.97802H11.0769V11.0769ZM22.9451 34.022H13.0549V24.9231H22.9451V34.022ZM22.9451 22.9451H13.0549V13.0549H22.9451V22.9451ZM22.9451 11.0769H13.0549V1.97802H22.9451V11.0769ZM34.022 34.022H24.9231V24.9231H34.022V34.022ZM34.022 22.9451H24.9231V13.0549H34.022V22.9451ZM34.022 11.0769H24.9231V1.97802H34.022V11.0769Z" fill="#169F32"/>
</svg>
