<svg width="44" height="44" viewBox="0 0 44 44" fill="none" xmlns="http://www.w3.org/2000/svg">
<path d="M25.7065 32.9586V33.0611L25.807 33.0812L29.8729 33.8944C32.3928 34.3984 34.2221 36.6297 34.2221 39.1995V42.5214C34.2221 43.1578 33.7061 43.6737 33.0697 43.6737H10.9292C10.2928 43.6737 9.77686 43.1578 9.77686 42.5214V39.1995C9.77686 36.6297 11.6062 34.3984 14.126 33.8944L18.192 33.0812L18.2925 33.0611V32.9586V31.6267V31.5575L18.2338 31.5208C16.2249 30.2618 14.8862 28.0297 14.8862 25.4902V24.377V24.305L14.8239 24.2689C13.3351 23.4054 12.3315 21.7954 12.3315 19.9551C12.3315 17.2068 14.5676 14.9707 17.3159 14.9707H25.4057C27.4497 14.9707 29.1127 16.6338 29.1127 18.6777V25.4902C29.1127 28.0297 27.774 30.2617 25.7651 31.5208L25.7065 31.5575V31.6267V32.9586ZM16.4226 22.4816L16.5893 22.5407V22.3638V21.2324C16.5893 20.596 17.1053 20.0801 17.7417 20.0801H26.6831H26.8081V19.9551V18.6777C26.8081 17.9044 26.1791 17.2754 25.4057 17.2754H17.3159C15.8382 17.2754 14.6362 18.4774 14.6362 19.9551C14.6362 21.1199 15.3831 22.1131 16.4226 22.4816ZM17.3159 24.9394H17.1909V25.0644V25.4902C17.1909 28.1418 19.3479 30.2988 21.9995 30.2988C24.651 30.2988 26.8081 28.1418 26.8081 25.4902V22.5097V22.3847H26.6831H19.019H18.894V22.5097V23.7871C18.894 24.4235 18.3781 24.9394 17.7417 24.9394H17.3159ZM23.4018 32.6133V32.464L23.2548 32.4903C22.8466 32.5633 22.4276 32.6035 21.9995 32.6035C21.5713 32.6035 21.1523 32.5633 20.7442 32.4903L20.5971 32.464V32.6133V34.0058C20.5971 34.7792 21.2261 35.4081 21.9995 35.4081C22.7729 35.4081 23.4018 34.7792 23.4018 34.0058V32.6133ZM31.7924 41.3691H31.9174V41.2441V39.1995C31.9174 37.7241 30.8677 36.4436 29.421 36.1543L25.5512 35.3804L25.4516 35.3605L25.4117 35.454C24.8464 36.7808 23.5295 37.7128 21.9995 37.7128C20.4694 37.7128 19.1525 36.7808 18.5872 35.454L18.5474 35.3605L18.4477 35.3804L14.578 36.1543C13.1312 36.4435 12.0815 37.7241 12.0815 39.1995V41.2441V41.3691H12.2065H31.7924Z" fill="#CD2026" stroke="white" stroke-width="0.25"/>
<path d="M18.0638 8.46515L18.0749 8.40038L18.0279 8.35451L15.8227 6.20492L15.8227 6.20491C15.5086 5.89877 15.3955 5.44084 15.5311 5.02362L15.5311 5.02361C15.6666 4.60646 16.0272 4.30241 16.4612 4.23942L16.4612 4.23941L19.5089 3.7966L19.5739 3.78715L19.603 3.72822L20.9659 0.966531C21.16 0.573201 21.5606 0.324219 21.9993 0.324219C22.4379 0.324219 22.8385 0.573201 23.0326 0.966531L24.3955 3.72822L24.4246 3.78715L24.4896 3.7966L27.5373 4.23941L27.5373 4.23942C27.9713 4.3024 28.3319 4.60645 28.4675 5.02362C28.603 5.44084 28.49 5.89877 28.1758 6.20491L28.1758 6.20492L25.9706 8.35451L25.9236 8.40038L25.9347 8.46515L26.4552 11.5005C26.5294 11.9328 26.3516 12.3698 25.9968 12.6276C25.796 12.7734 25.5583 12.8476 25.3193 12.8476C25.1361 12.8476 24.952 12.8038 24.7833 12.7152C24.7833 12.7152 24.7832 12.7152 24.7832 12.7152L22.0574 11.2822L21.9993 11.2516L21.9411 11.2822L19.2153 12.7153C19.2153 12.7153 19.2153 12.7153 19.2153 12.7153C18.827 12.9194 18.3565 12.8853 18.0017 12.6276C17.6469 12.3697 17.4692 11.9328 17.5433 11.5005L18.0638 8.46515ZM20.5049 5.98074L20.5048 5.98074L19.3542 6.14799L19.1036 6.18442L19.2849 6.3612L20.1177 7.17299L20.1177 7.173C20.3893 7.43773 20.5132 7.81914 20.4491 8.19296L20.4491 8.19296L20.2525 9.33916L20.2097 9.5888L20.4338 9.47094L21.4632 8.92977L21.4632 8.92977C21.6311 8.84151 21.8153 8.79741 21.9994 8.79741C22.1835 8.79741 22.3677 8.84156 22.5357 8.92977C22.5357 8.92978 22.5357 8.92979 22.5357 8.9298L23.565 9.47094L23.7892 9.5888L23.7464 9.33916L23.5498 8.19296C23.4856 7.81914 23.6095 7.43773 23.8812 7.173L23.8812 7.17299L24.7139 6.3612L24.8953 6.18441L24.6446 6.14799L23.4937 5.98074C23.1183 5.9262 22.7939 5.69051 22.626 5.35042C22.626 5.35042 22.626 5.35042 22.626 5.35042L22.1114 4.30752L21.9993 4.08038L21.8872 4.30752L21.3725 5.35042C21.3725 5.35042 21.3725 5.35042 21.3725 5.35042C21.2046 5.69051 20.8802 5.9262 20.5049 5.98074Z" fill="#CD2026" stroke="white" stroke-width="0.25"/>
<path d="M42.6882 9.34879L42.6882 9.34879C43.1222 9.41178 43.4827 9.71582 43.6183 10.133C43.7539 10.5502 43.6409 11.0081 43.3269 11.3144C43.3269 11.3144 43.3269 11.3144 43.3269 11.3144L41.1217 13.464L41.0746 13.5098L41.0857 13.5746L41.6063 16.61C41.6804 17.0423 41.5027 17.4792 41.1478 17.7371C40.9471 17.8829 40.7094 17.9571 40.4704 17.9571C40.287 17.9571 40.1029 17.9133 39.9342 17.8247L37.2084 16.3916L37.1502 16.361L37.0921 16.3916L34.3662 17.8247C33.9779 18.0287 33.5074 17.9946 33.1526 17.737C32.7978 17.479 32.62 17.0422 32.6942 16.6099L33.2147 13.5745L33.2258 13.5098L33.1788 13.4639L30.9736 11.3143L30.9736 11.3143C30.6594 11.0081 30.5464 10.5502 30.6819 10.133L30.682 10.133C30.8175 9.71583 31.1781 9.41178 31.6121 9.34879L31.6121 9.34879L34.6598 8.90598L34.7248 8.89653L34.7539 8.83759L36.1168 6.07591C36.1168 6.0759 36.1168 6.0759 36.1168 6.0759C36.3109 5.68257 36.7115 5.43359 37.1501 5.43359C37.5888 5.43359 37.9894 5.68258 38.1835 6.07591L39.5464 8.83759L39.5755 8.89653L39.6405 8.90598L42.6882 9.34879ZM38.7158 14.5803L38.94 14.6982L38.8972 14.4485L38.7006 13.3023C38.6364 12.9285 38.7603 12.5471 39.032 12.2824L39.865 11.4706L40.0465 11.2938L39.7958 11.2574L38.6448 11.0901C38.2694 11.0356 37.945 10.7999 37.7772 10.4598C37.7772 10.4598 37.7772 10.4598 37.7772 10.4598L37.2625 9.41689L37.1504 9.18976L37.0383 9.41689L36.5236 10.4598C36.5236 10.4598 36.5236 10.4598 36.5236 10.4598C36.3558 10.7999 36.0314 11.0356 35.656 11.0901L34.505 11.2574L34.2544 11.2938L34.4357 11.4706L35.2685 12.2824L35.2685 12.2824C35.5401 12.5471 35.664 12.9285 35.5999 13.3023L35.5999 13.3023L35.4033 14.4485L35.3604 14.6982L35.5846 14.5803L36.614 14.0391L36.614 14.0391C36.7819 13.9509 36.9661 13.9068 37.1502 13.9068C37.3344 13.9068 37.5185 13.9509 37.6865 14.0392L38.7158 14.5803Z" fill="#CD2026" stroke="white" stroke-width="0.25"/>
<path d="M10.7737 13.5098L10.8208 13.4639L13.026 11.3143L13.026 11.3143C13.3401 11.0081 13.4532 10.5502 13.3176 10.133C13.182 9.71582 12.8215 9.41178 12.3875 9.34879L12.3875 9.34879L9.33982 8.90598L9.27479 8.89653L9.2457 8.8376L7.8827 6.0759C7.68857 5.68258 7.28802 5.43359 6.84935 5.43359C6.41069 5.43359 6.01015 5.68257 5.81602 6.0759C5.81602 6.0759 5.81601 6.0759 5.81601 6.07591L4.45309 8.83759L4.42401 8.89653L4.35897 8.90598L1.31133 9.34879L1.31131 9.34879C0.877288 9.41178 0.516685 9.71583 0.38117 10.133L0.381165 10.133C0.245574 10.5502 0.358655 11.0081 0.67278 11.3143L0.67279 11.3143L2.87799 13.4639L2.92505 13.5098L2.91394 13.5745L2.39338 16.6099C2.31925 17.0422 2.49699 17.479 2.85185 17.737C3.20662 17.9946 3.6771 18.0287 4.06546 17.8247L6.79127 16.3916L6.84944 16.361L6.90761 16.3916L9.63341 17.8247C9.80209 17.9133 9.9862 17.9571 10.1695 17.9571L10.7737 13.5098ZM10.7737 13.5098L10.7849 13.5745M10.7737 13.5098L10.7849 13.5745M10.7849 13.5745L11.3054 16.6099C11.3795 17.0422 11.2018 17.4791 10.847 17.737M10.7849 13.5745L10.847 17.737M10.847 17.737C10.6461 17.8828 10.4085 17.957 10.1696 17.9571L10.847 17.737ZM8.41503 14.5803L8.63922 14.6982L8.59639 14.4485L8.39977 13.3023C8.33562 12.9285 8.45953 12.5471 8.73117 12.2824L9.56417 11.4706L9.74558 11.2938L9.4949 11.2574L8.34394 11.0901C7.96857 11.0356 7.64416 10.7999 7.4763 10.4598C7.4763 10.4598 7.4763 10.4598 7.4763 10.4598L6.96162 9.41689L6.84952 9.18975L6.73743 9.41689L6.22275 10.4598C6.22275 10.4598 6.22275 10.4598 6.22275 10.4598C6.05489 10.7999 5.73048 11.0356 5.35512 11.0901L4.20415 11.2574L3.95352 11.2938L4.13487 11.4706L4.96761 12.2824L4.96762 12.2824C5.23926 12.5471 5.36317 12.9285 5.29903 13.3023L5.29903 13.3023L5.1024 14.4485L5.05958 14.6982L5.28376 14.5803L6.31322 14.0391L6.31323 14.0391C6.48107 13.9509 6.66527 13.9068 6.84944 13.9068C7.03356 13.9068 7.21771 13.9509 7.38571 14.0392L8.41503 14.5803Z" fill="#CD2026" stroke="white" stroke-width="0.25"/>
</svg>
