<svg width="128" height="168" viewBox="0 0 128 168" fill="none" xmlns="http://www.w3.org/2000/svg">
<path d="M111.5 56.3327H103.584V40.4993C103.584 18.6493 85.8503 0.916016 64.0003 0.916016C42.1503 0.916016 24.417 18.6493 24.417 40.4993V56.3327H16.5003C7.79199 56.3327 0.666992 63.4577 0.666992 72.166V151.333C0.666992 160.041 7.79199 167.166 16.5003 167.166H111.5C120.209 167.166 127.334 160.041 127.334 151.333V72.166C127.334 63.4577 120.209 56.3327 111.5 56.3327ZM40.2503 40.4993C40.2503 27.3577 50.8587 16.7493 64.0003 16.7493C77.142 16.7493 87.7503 27.3577 87.7503 40.4993V56.3327H40.2503V40.4993ZM111.5 151.333H16.5003V72.166H111.5V151.333ZM64.0003 127.583C72.7087 127.583 79.8336 120.458 79.8336 111.749C79.8336 103.041 72.7087 95.916 64.0003 95.916C55.292 95.916 48.167 103.041 48.167 111.749C48.167 120.458 55.292 127.583 64.0003 127.583Z" fill="#A7A7A7"/>
</svg>
