<svg width="28" height="24" viewBox="0 0 28 24" fill="none" xmlns="http://www.w3.org/2000/svg">
<path d="M24.667 0H3.33366C1.86699 0 0.666992 1.2 0.666992 2.66667V18.6667C0.666992 20.1333 1.86699 21.3333 3.33366 21.3333H8.66699V22.6667C8.66699 23.4 9.26699 24 10.0003 24H18.0003C18.7337 24 19.3337 23.4 19.3337 22.6667V21.3333H24.667C26.1337 21.3333 27.3203 20.1333 27.3203 18.6667L27.3337 2.66667C27.3337 1.2 26.1337 0 24.667 0ZM24.667 18.6667H3.33366V2.66667H24.667V18.6667ZM7.33366 17.2933C7.30699 15.8533 6.14699 14.6933 4.70699 14.6667H4.66699V17.3333H7.33366V17.2933ZM5.49366 12.7333C7.41366 13.08 8.93366 14.6 9.26699 16.52C9.34699 17 9.76033 17.3333 10.2403 17.3333C10.8537 17.3333 11.3337 16.7867 11.2403 16.1867C10.7603 13.4267 8.58699 11.2533 5.82699 10.7733C5.21366 10.6667 4.66699 11.1467 4.66699 11.76C4.66699 12.2533 5.01366 12.6533 5.49366 12.7333ZM5.52033 8.70667C9.61366 9.10667 12.8803 12.3733 13.2937 16.4667C13.347 16.96 13.787 17.3333 14.2803 17.3333C14.8803 17.3333 15.3337 16.8 15.2803 16.2C14.747 11.2133 10.787 7.25333 5.80033 6.73333C5.20033 6.66667 4.66699 7.12 4.66699 7.72C4.66699 8.21333 5.02699 8.66667 5.52033 8.70667Z" fill="#CD2026"/>
</svg>
