<svg width="28" height="24" viewBox="0 0 28 24" fill="none" xmlns="http://www.w3.org/2000/svg">
<path d="M9.16602 21.3333V20.8333H8.66602H3.33268C2.14216 20.8333 1.16602 19.8572 1.16602 18.6667V2.66667C1.16602 1.47614 2.14216 0.5 3.33268 0.5H24.666C25.8564 0.5 26.8325 1.47591 26.8327 2.66625C26.8327 2.66639 26.8327 2.66653 26.8327 2.66667L26.8193 18.6663V18.6667C26.8193 19.8605 25.8533 20.8333 24.666 20.8333H19.3327H18.8327V21.3333V22.6667C18.8327 23.1239 18.4565 23.5 17.9993 23.5H9.99935C9.54216 23.5 9.16602 23.1239 9.16602 22.6667V21.3333ZM24.666 19.1667H25.166V18.6667V2.66667V2.16667H24.666H3.33268H2.83268V2.66667V18.6667V19.1667H3.33268H24.666ZM5.58152 12.2413L5.58153 12.2412L5.57488 12.2401C5.33235 12.1997 5.16602 12.0053 5.16602 11.76C5.16602 11.446 5.44359 11.2143 5.74035 11.2659C8.2907 11.7095 10.3002 13.7176 10.7459 16.2672C10.7879 16.5527 10.5549 16.8333 10.2393 16.8333C9.99332 16.8333 9.79734 16.6665 9.75922 16.4378L9.75865 16.4345C9.38911 14.3059 7.70642 12.625 5.58152 12.2413ZM5.56798 8.20904L5.56798 8.20897L5.55976 8.2083C5.36552 8.19255 5.16602 7.99443 5.16602 7.72C5.16602 7.43537 5.42279 7.19457 5.74413 7.23029L5.74749 7.23064C10.4972 7.72592 14.2712 11.4977 14.7816 16.2481C14.8088 16.5776 14.5613 16.8333 14.2793 16.8333C14.0274 16.8333 13.815 16.639 13.7899 16.4143C13.3518 12.0858 9.89854 8.63222 5.56798 8.20904ZM5.16602 16.8333V15.2262C5.95939 15.4163 6.58301 16.04 6.77314 16.8333H5.16602Z" fill="#CD2026" stroke="#CD2026"/>
</svg>
