<svg width="928" height="240" viewBox="0 0 928 240" fill="none" xmlns="http://www.w3.org/2000/svg">
<g clip-path="url(#clip0_1939_0)">
<rect width="240" height="240" fill="#FAFAFA"/>
<path d="M34.1445 221.615L57.5678 201.415L94.5606 243.805C100.259 250.334 99.5557 260.253 92.9935 265.914V265.914C86.4579 271.551 76.5898 270.823 70.9525 264.288L34.1445 221.615Z" fill="#1F1F1F"/>
<path d="M66.771 254.496C67.0561 245.845 74.3003 239.063 82.9515 239.348C91.6028 239.633 98.3849 246.877 98.0999 255.529L95.6043 331.279L64.2754 330.247L66.771 254.496Z" fill="#570DB4"/>
<path d="M26.6309 216.823C26.6309 208.277 33.5584 201.35 42.1039 201.35H57.577L57.577 333.515H26.6309L26.6309 216.823Z" fill="#414141"/>
<ellipse cx="51.1297" cy="94.0046" rx="16.7625" ry="16.4401" fill="#E1B48B"/>
<path fill-rule="evenodd" clip-rule="evenodd" d="M37.003 102.858C46.0172 102.585 53.2394 95.3328 53.2394 86.4257C53.2394 83.166 52.2721 80.1278 50.6036 77.5723C41.5894 77.8448 34.3672 85.0975 34.3672 94.0045C34.3672 97.2642 35.3345 100.302 37.003 102.858Z" fill="#1F1F1F"/>
<path d="M6 156.22C6 133.076 24.7621 114.313 47.9062 114.313V114.313C71.0504 114.313 89.8125 133.076 89.8125 156.22V156.22C89.8125 179.364 71.0504 198.126 47.9062 198.126V198.126C24.7621 198.126 6 179.364 6 156.22V156.22Z" fill="#169F32"/>
<rect x="69.8262" y="124.629" width="40.6168" height="57.3793" fill="#EBEBEB"/>
<rect x="26.8555" y="145.548" width="21.8302" height="44.5183" rx="10.9151" transform="rotate(-15.7919 26.8555 145.548)" fill="#E1B48B"/>
<rect width="21.8302" height="64.8151" rx="10.9151" transform="matrix(-0.485641 -0.874158 -0.874158 0.485641 98.7285 158.219)" fill="#E1B48B"/>
<path d="M21.7461 141.246C19.5564 133.503 24.0578 125.451 31.8003 123.262V123.262C39.5428 121.072 47.5944 125.573 49.7842 133.316L55.1713 152.364L27.1332 160.294L21.7461 141.246Z" fill="#007618"/>
<rect x="114.904" y="113.65" width="19.1956" height="90.4502" rx="9.5978" transform="rotate(-47.9113 114.904 113.65)" fill="#C28A57"/>
<rect x="159.775" y="202.475" width="30.953" height="131.392" fill="#570DB4"/>
<rect x="179.99" y="202.475" width="26.5312" height="131.392" fill="#7128CE"/>
<circle cx="171.828" cy="77.0305" r="16.424" fill="#E1B48B"/>
<path fill-rule="evenodd" clip-rule="evenodd" d="M165.439 61.8956C167.403 61.0654 169.562 60.6064 171.828 60.6064C180.899 60.6064 188.252 67.9597 188.252 77.0305C188.252 77.0977 188.252 77.1648 188.251 77.2318C186.287 78.0619 184.128 78.521 181.862 78.521C172.791 78.521 165.438 71.1677 165.438 62.0969C165.438 62.0297 165.438 61.9626 165.439 61.8956Z" fill="#1F1F1F"/>
<rect x="199.623" y="165.377" width="19.1956" height="45.4494" rx="9.5978" transform="rotate(-119.001 199.623 165.377)" fill="#E1B48B"/>
<path d="M159.143 118.244C159.143 105.106 170.009 94.4551 183.147 94.4551V94.4551C196.285 94.4551 207.151 105.106 207.151 118.244V195.526H159.143V118.244Z" fill="#CD2026"/>
<rect x="240" y="138.741" width="19.1956" height="45.9145" rx="9.5978" transform="rotate(131.273 240 138.741)" fill="#E1B48B"/>
<path d="M184.522 120.852C179.241 116.541 178.454 108.765 182.764 103.484V103.484C187.075 98.202 194.851 97.415 200.133 101.726L219.528 117.556L203.918 136.682L184.522 120.852Z" fill="#A70B11"/>
<path d="M179.357 203.106V331.972" stroke="#1F1F1F"/>
<path d="M141.008 42.7077C141.52 43.1984 141.756 43.9974 141.625 45.137C141.494 46.2719 141.004 47.6681 140.175 49.2399C138.52 52.379 135.564 56.1194 131.69 59.7006C127.817 63.2817 123.791 65.9968 120.428 67.4986C118.743 68.2505 117.252 68.6863 116.044 68.7889C114.832 68.8919 113.987 68.6552 113.475 68.1645C112.964 67.6739 112.727 66.8748 112.859 65.7353C112.99 64.6003 113.479 63.2041 114.308 61.6324C115.964 58.4932 118.92 54.7529 122.793 51.1717C126.666 47.5905 130.692 44.8755 134.056 43.3737C135.74 42.6217 137.232 42.186 138.439 42.0834C139.652 41.9803 140.496 42.217 141.008 42.7077Z" stroke="#616161"/>
<path d="M145.352 58.6648C145.536 58.8403 145.654 59.1581 145.592 59.6971C145.531 60.2316 145.297 60.9081 144.885 61.6879C144.065 63.2431 142.592 65.1105 140.651 66.905C138.71 68.6996 136.7 70.0526 135.034 70.7967C134.198 71.1697 133.476 71.3776 132.907 71.426C132.333 71.4747 131.998 71.3572 131.815 71.1817C131.632 71.0062 131.513 70.6884 131.575 70.1494C131.637 69.6149 131.871 68.9384 132.282 68.1586C133.102 66.6034 134.576 64.736 136.516 62.9415C138.457 61.147 140.467 59.7939 142.134 59.0499C142.969 58.6768 143.692 58.4689 144.26 58.4205C144.834 58.3718 145.169 58.4893 145.352 58.6648Z" stroke="#616161"/>
<circle cx="190.315" cy="58.6061" r="9.20767" fill="#1F1F1F"/>
<path d="M14.3672 226.195C15.611 216.991 15.4061 203.105 20.9082 203.105C28.6009 203.105 23.6959 226.195 29.6663 226.195C35.6367 226.195 32.1406 214.255 36.7562 214.255C41.5545 214.255 39.3682 226.195 43.846 226.195C48.3238 226.195 43.846 214.255 49.4433 214.255C55.127 214.255 50.1896 226.195 53.9211 226.195" stroke="#FFB800"/>
<path d="M223.396 13.8997L229.262 20.7764L220.79 22.2833L223.396 13.8997Z" fill="#B2E7BC"/>
<path d="M40.248 23.2715L43.8587 28.9873L47.6131 23.2715L51.5756 28.9873L55.1946 23.2715L58.5208 28.9873L62.8927 23.2715L66.5463 28.9873L70.0961 23.2715" stroke="#D7D7D7"/>
<circle cx="20.7812" cy="87.2148" r="2.5" stroke="#FF842B"/>
<circle cx="224.344" cy="195.625" r="2" stroke="#43BE5C"/>
</g>
<path d="M711.43 16.5713C711.43 58.9717 727.936 130.746 845.694 113.585C947.617 98.7313 974.17 276.157 802.651 233.303" stroke="#EBEBEB" stroke-width="1.5" stroke-dasharray="10 10"/>
<ellipse rx="29.004" ry="29.5727" transform="matrix(-1 0 0 1 785.01 189.127)" fill="#E1B48B"/>
<circle cx="771.658" cy="163.16" r="37.1545" fill="#C4C4C4"/>
<path d="M730.703 172.035C721.961 169.548 717.592 159.762 721.577 151.593C726.032 142.458 738.227 140.557 745.251 147.904L758.391 161.647C761.119 164.501 761.782 168.752 760.051 172.301C758.048 176.409 753.387 178.489 748.992 177.239L730.703 172.035Z" fill="#1F1F1F"/>
<circle cx="893.17" cy="123.193" r="23.1423" fill="#E1B48B"/>
<circle cx="906.56" cy="105.338" r="23.1423" fill="#E1B48B"/>
<circle cx="764.936" cy="49.3293" r="20.6721" fill="#E1B48B"/>
<path d="M735.082 51.4804C746.729 57.1951 754.5 48.2599 756.929 43.078C766.356 35.1049 763.496 24.7193 760.887 20.5231C759.749 20.0787 757.058 24.4397 755.855 26.6758C755.48 24.6523 751.037 22.3634 748.862 21.4719C747.793 22.0185 747.375 27.635 747.3 30.3749C745.662 28.6192 741.111 28.6771 739.04 28.9255C738.79 30.35 740.532 34.2857 741.434 36.0756C735.354 37.4558 734.181 39.2893 734.354 40.0335C734.299 41.7368 738.438 43.9111 740.514 44.7854C738.501 45.1663 736.054 49.4074 735.082 51.4804Z" fill="#1F1F1F"/>
<circle cx="816.631" cy="43.2856" r="26.4461" transform="rotate(16.4325 816.631 43.2856)" fill="#FFB1B4"/>
<circle r="30.0496" transform="matrix(-0.888352 0.459163 0.459163 0.888352 837.037 117.441)" fill="#B2E7BC"/>
<rect x="834.354" y="184.144" width="34.9795" height="34.3688" transform="rotate(9.75255 834.354 184.144)" fill="#C29FEF"/>
<circle cx="716.934" cy="117.44" r="2.5" stroke="#FF842B"/>
<circle cx="918.811" cy="36.5127" r="2" stroke="#43BE5C"/>
<defs>
<clipPath id="clip0_1939_0">
<rect width="240" height="240" fill="white"/>
</clipPath>
</defs>
</svg>
