<svg width="34" height="30" viewBox="0 0 34 30" fill="none" xmlns="http://www.w3.org/2000/svg">
<path d="M3.66732 3.33333C3.66732 1.5 5.16732 0 7.00065 0C8.83398 0 10.334 1.5 10.334 3.33333C10.334 5.16667 8.83398 6.66667 7.00065 6.66667C5.16732 6.66667 3.66732 5.16667 3.66732 3.33333ZM11.634 9.3C10.2173 8.68333 8.65065 8.33333 7.00065 8.33333C5.35065 8.33333 3.78398 8.68333 2.36732 9.3C1.13398 9.83333 0.333984 11.0333 0.333984 12.3833V13.3333H13.6673V12.3833C13.6673 11.0333 12.8673 9.83333 11.634 9.3ZM27.0007 6.66667C28.834 6.66667 30.334 5.16667 30.334 3.33333C30.334 1.5 28.834 0 27.0007 0C25.1673 0 23.6673 1.5 23.6673 3.33333C23.6673 5.16667 25.1673 6.66667 27.0007 6.66667ZM31.634 9.3C30.2173 8.68333 28.6507 8.33333 27.0007 8.33333C25.3507 8.33333 23.784 8.68333 22.3673 9.3C21.134 9.83333 20.334 11.0333 20.334 12.3833V13.3333H33.6673V12.3833C33.6673 11.0333 32.8673 9.83333 31.634 9.3ZM33.6673 23.3333L27.0007 16.6667V21.6667H7.00065V16.6667L0.333984 23.3333L7.00065 30V25H27.0007V30L33.6673 23.3333Z" fill="#CD2026"/>
</svg>
