<svg width="16" height="16" viewBox="0 0 16 16" fill="none" xmlns="http://www.w3.org/2000/svg">
<path d="M15.2583 4.65L11.3583 0.75C11.2 0.591667 10.9833 0.5 10.7667 0.5H5.23333C5.01667 0.5 4.8 0.591667 4.65 0.741667L0.741667 4.65C0.591667 4.8 0.5 5.01667 0.5 5.23333V10.7583C0.5 10.9833 0.591667 11.1917 0.741667 11.35L4.64167 15.25C4.8 15.4083 5.01667 15.5 5.23333 15.5H10.7583C10.9833 15.5 11.1917 15.4083 11.35 15.2583L15.25 11.3583C15.4083 11.2 15.4917 10.9917 15.4917 10.7667V5.23333C15.5 5.01667 15.4083 4.8 15.2583 4.65V4.65ZM13.8333 10.4167L10.4167 13.8333H5.58333L2.16667 10.4167V5.58333L5.58333 2.16667H10.4167L13.8333 5.58333V10.4167V10.4167Z" fill="#FF842B"/>
<path d="M7.99984 12.1667C8.46007 12.1667 8.83317 11.7936 8.83317 11.3333C8.83317 10.8731 8.46007 10.5 7.99984 10.5C7.5396 10.5 7.1665 10.8731 7.1665 11.3333C7.1665 11.7936 7.5396 12.1667 7.99984 12.1667Z" fill="#FF842B"/>
<path d="M7.99984 3.83337C7.5415 3.83337 7.1665 4.20837 7.1665 4.66671V8.83337C7.1665 9.29171 7.5415 9.66671 7.99984 9.66671C8.45817 9.66671 8.83317 9.29171 8.83317 8.83337V4.66671C8.83317 4.20837 8.45817 3.83337 7.99984 3.83337Z" fill="#FF842B"/>
</svg>
