<svg width="256" height="148" viewBox="0 0 256 148" fill="none" xmlns="http://www.w3.org/2000/svg">
<rect x="9" width="14" height="3" fill="#EB2129"/>
<path d="M9 3H23V128H9V3Z" fill="#EBEBEB"/>
<path d="M21.3241 135.228V145H19.3641V138.644L16.7461 145H15.2621L12.6301 138.644V145H10.6701V135.228H12.8961L16.0041 142.494L19.1121 135.228H21.3241Z" fill="#414141"/>
<rect x="46.333" y="58" width="14" height="3" fill="#EB2129"/>
<path d="M46.333 61H60.333V128H46.333V61Z" fill="#EBEBEB"/>
<path d="M56.909 135.228V136.81H54.305V145H52.345V136.81H49.741V135.228H56.909Z" fill="#414141"/>
<rect x="83.667" y="22" width="14" height="3" fill="#EB2129"/>
<path d="M83.667 25H97.667V128H83.667V25Z" fill="#EBEBEB"/>
<path d="M97.5241 135.228L94.7941 145H92.4841L90.6501 138.042L88.7321 145L86.4361 145.014L83.8041 135.228H85.9041L87.6261 142.816L89.6141 135.228H91.7981L93.6741 142.774L95.4101 135.228H97.5241Z" fill="#414141"/>
<rect x="121" y="76" width="14" height="3" fill="#EB2129"/>
<path d="M121 79H135V128H121V79Z" fill="#EBEBEB"/>
<path d="M131.576 135.228V136.81H128.972V145H127.012V136.81H124.408V135.228H131.576Z" fill="#414141"/>
<rect x="158.333" y="38" width="14" height="3" fill="#EB2129"/>
<path d="M158.333 41H172.333V128H158.333V41Z" fill="#EBEBEB"/>
<path d="M168.621 135.228V136.81H164.547V139.316H167.669V140.87H164.547V145H162.587V135.228H168.621Z" fill="#414141"/>
<rect x="195.667" y="57" width="14" height="3" fill="#EB2129"/>
<path d="M195.667 60H209.667V128H195.667V60Z" fill="#EBEBEB"/>
<path d="M202.741 145.098C202.06 145.098 201.444 144.981 200.893 144.748C200.352 144.515 199.923 144.179 199.605 143.74C199.288 143.301 199.125 142.783 199.115 142.186H201.215C201.243 142.587 201.383 142.905 201.635 143.138C201.897 143.371 202.251 143.488 202.699 143.488C203.157 143.488 203.516 143.381 203.777 143.166C204.039 142.942 204.169 142.653 204.169 142.298C204.169 142.009 204.081 141.771 203.903 141.584C203.726 141.397 203.502 141.253 203.231 141.15C202.97 141.038 202.606 140.917 202.139 140.786C201.505 140.599 200.987 140.417 200.585 140.24C200.193 140.053 199.853 139.778 199.563 139.414C199.283 139.041 199.143 138.546 199.143 137.93C199.143 137.351 199.288 136.847 199.577 136.418C199.867 135.989 200.273 135.662 200.795 135.438C201.318 135.205 201.915 135.088 202.587 135.088C203.595 135.088 204.412 135.335 205.037 135.83C205.672 136.315 206.022 136.997 206.087 137.874H203.931C203.913 137.538 203.768 137.263 203.497 137.048C203.236 136.824 202.886 136.712 202.447 136.712C202.065 136.712 201.757 136.81 201.523 137.006C201.299 137.202 201.187 137.487 201.187 137.86C201.187 138.121 201.271 138.341 201.439 138.518C201.617 138.686 201.831 138.826 202.083 138.938C202.345 139.041 202.709 139.162 203.175 139.302C203.81 139.489 204.328 139.675 204.729 139.862C205.131 140.049 205.476 140.329 205.765 140.702C206.055 141.075 206.199 141.565 206.199 142.172C206.199 142.695 206.064 143.18 205.793 143.628C205.523 144.076 205.126 144.435 204.603 144.706C204.081 144.967 203.46 145.098 202.741 145.098Z" fill="#414141"/>
<rect x="233" y="10" width="14" height="3" fill="#EB2129"/>
<path d="M233 13H247V128H233V13Z" fill="#EBEBEB"/>
<path d="M240.074 145.098C239.393 145.098 238.777 144.981 238.226 144.748C237.685 144.515 237.256 144.179 236.938 143.74C236.621 143.301 236.458 142.783 236.448 142.186H238.548C238.576 142.587 238.716 142.905 238.968 143.138C239.23 143.371 239.584 143.488 240.032 143.488C240.49 143.488 240.849 143.381 241.11 143.166C241.372 142.942 241.502 142.653 241.502 142.298C241.502 142.009 241.414 141.771 241.236 141.584C241.059 141.397 240.835 141.253 240.564 141.15C240.303 141.038 239.939 140.917 239.472 140.786C238.838 140.599 238.32 140.417 237.918 140.24C237.526 140.053 237.186 139.778 236.896 139.414C236.616 139.041 236.476 138.546 236.476 137.93C236.476 137.351 236.621 136.847 236.91 136.418C237.2 135.989 237.606 135.662 238.128 135.438C238.651 135.205 239.248 135.088 239.92 135.088C240.928 135.088 241.745 135.335 242.37 135.83C243.005 136.315 243.355 136.997 243.42 137.874H241.264C241.246 137.538 241.101 137.263 240.83 137.048C240.569 136.824 240.219 136.712 239.78 136.712C239.398 136.712 239.09 136.81 238.856 137.006C238.632 137.202 238.52 137.487 238.52 137.86C238.52 138.121 238.604 138.341 238.772 138.518C238.95 138.686 239.164 138.826 239.416 138.938C239.678 139.041 240.042 139.162 240.508 139.302C241.143 139.489 241.661 139.675 242.062 139.862C242.464 140.049 242.809 140.329 243.098 140.702C243.388 141.075 243.532 141.565 243.532 142.172C243.532 142.695 243.397 143.18 243.126 143.628C242.856 144.076 242.459 144.435 241.936 144.706C241.414 144.967 240.793 145.098 240.074 145.098Z" fill="#414141"/>
</svg>
