<svg width="736" height="464" viewBox="0 0 736 464" fill="none" xmlns="http://www.w3.org/2000/svg">
<g clip-path="url(#clip0_12916_158715)">
<rect width="736" height="464" fill="#FAFAFA"/>
<path d="M106.191 30.6562C34.8564 131.883 -19.9951 324.275 331.275 284.026C373.407 278.676 663.304 185.625 689.682 563.913" stroke="#D7D7D7" stroke-dasharray="24 24"/>
<rect x="240.387" y="159.344" width="249.523" height="176.615" fill="#DD3B41"/>
<rect x="99.0146" y="92.0156" width="178.844" height="126.086" fill="#FFD057"/>
<ellipse rx="28.7234" ry="29.2866" transform="matrix(-1 0 0 1 197.048 161.873)" fill="#CA9566"/>
<path fill-rule="evenodd" clip-rule="evenodd" d="M169.163 169.91C168.442 167.327 168.056 164.599 168.056 161.778C168.056 145.449 180.999 132.211 196.966 132.211C206.276 132.211 214.558 136.711 219.845 143.701C216.363 160.402 201.559 172.948 183.825 172.948C178.614 172.948 173.655 171.864 169.163 169.91Z" fill="#1F1F1F"/>
<path d="M143.268 144.944C134.61 142.481 130.283 132.79 134.229 124.7C138.642 115.653 150.718 113.771 157.675 121.046L170.687 134.657C173.389 137.483 174.045 141.693 172.331 145.207C170.347 149.275 165.732 151.336 161.379 150.097L143.268 144.944Z" fill="#1F1F1F"/>
<rect x="445.467" y="237.656" width="191.518" height="134.324" fill="#7CE391"/>
<circle cx="365.147" cy="247.653" r="40.0126" fill="#FFB27D"/>
<path fill-rule="evenodd" clip-rule="evenodd" d="M346.945 212.011C352.405 209.217 358.592 207.641 365.147 207.641C387.245 207.641 405.16 225.555 405.16 247.653C405.16 249.106 405.082 250.54 404.931 251.953C399.471 254.747 393.284 256.323 386.729 256.323C364.631 256.323 346.717 238.409 346.717 216.311C346.717 214.858 346.794 213.423 346.945 212.011Z" fill="#1F1F1F"/>
<rect x="134.745" y="277.031" width="131.092" height="92.4411" fill="#A26AE9"/>
<circle cx="531.357" cy="313.179" r="26.5692" fill="#D38254"/>
<path d="M513.899 293.091C516.935 301.031 532.876 316.972 557.928 314.117C559.445 294.199 533.636 275.98 513.899 293.091Z" fill="#1F1F1F"/>
<circle cx="562.481" cy="285.089" r="15.1824" fill="#1F1F1F"/>
<path fill-rule="evenodd" clip-rule="evenodd" d="M418.792 104.844C395.124 104.844 375.938 124.03 375.938 147.697C375.938 167.182 388.943 183.63 406.746 188.834L398.63 205.268L434.514 190.55H497.167C520.834 190.55 540.02 171.364 540.02 147.697C540.02 124.03 520.834 104.844 497.167 104.844H418.792Z" fill="#FFB1B4"/>
<circle cx="440.563" cy="147.864" r="4.70779" fill="white"/>
<circle cx="457.979" cy="147.864" r="4.70779" fill="white"/>
<circle cx="475.395" cy="147.864" r="4.70779" fill="white"/>
<circle r="23.3338" transform="matrix(-1 0 0 1 202.438 327.693)" fill="#FFB27D"/>
<path d="M202.436 294.801C210.387 307.708 200.864 317.748 195.108 321.155C186.888 333.013 174.487 330.849 169.314 328.284C168.67 327.01 173.442 323.391 175.908 321.741C173.512 321.532 170.352 316.62 169.072 314.19C169.588 312.885 176.074 311.77 179.253 311.376C177.027 309.667 176.585 304.367 176.642 301.93C178.271 301.48 183.045 303.066 185.228 303.915C186.152 296.687 188.154 295.117 189.039 295.236C191.014 294.98 194.007 299.551 195.256 301.869C195.474 299.485 200.133 296.163 202.436 294.801Z" fill="#1F1F1F"/>
<rect x="651.285" y="67.3516" width="5.95532" height="5.95532" stroke="#1F1F1F"/>
<circle cx="62.5566" cy="399.891" r="7.5" stroke="#FF842B"/>
<path d="M247.567 121.828L255.373 131.916L263.587 122.121L271.393 131.916L278.791 122.852L286.713 132.208L293.762 122.998L300.519 132.062L308.15 122.705" stroke="#A7A7A7" stroke-miterlimit="10" stroke-linecap="round" stroke-linejoin="round"/>
<path d="M696.16 321.352L686.884 312.337L696.16 303.323" stroke="#570DB4"/>
<path d="M686.446 321.352L677.17 312.337L686.446 303.323" stroke="#570DB4"/>
<path d="M676.731 321.352L667.455 312.337L676.731 303.323" stroke="#570DB4"/>
<path d="M667.018 321.352L657.741 312.337L667.018 303.323" stroke="#570DB4"/>
<rect x="621.511" y="160.051" width="20.7277" height="20.7277" transform="rotate(44.5693 621.511 160.051)" stroke="#FFB800"/>
<path d="M303.149 51.8438L304.58 40.8438L313.149 47.7187L303.149 51.8438Z" stroke="#007618"/>
<path d="M392.689 404.375L400.495 414.463L408.709 404.667L416.515 414.463L423.913 405.398L431.835 414.755L438.884 405.545L445.641 414.609L453.272 405.252" stroke="#A7A7A7" stroke-miterlimit="10" stroke-linecap="round" stroke-linejoin="round"/>
</g>
<defs>
<clipPath id="clip0_12916_158715">
<rect width="736" height="464" fill="white"/>
</clipPath>
</defs>
</svg>
