<svg width="736" height="464" viewBox="0 0 736 464" fill="none" xmlns="http://www.w3.org/2000/svg">
<g clip-path="url(#clip0_12916_158643)">
<rect width="736" height="464" fill="#FAFAFA"/>
<path fill-rule="evenodd" clip-rule="evenodd" d="M224.086 296.212C224.306 295.705 224.895 295.472 225.402 295.692L233.659 299.273C234.165 299.492 234.398 300.081 234.178 300.588C233.958 301.095 233.37 301.327 232.863 301.108L226.871 298.509C235.541 318.631 261.673 358.815 304.923 375.239L304.213 377.109C260.197 360.394 233.732 319.564 224.981 299.176L222.341 305.265C222.121 305.771 221.532 306.004 221.025 305.784C220.519 305.564 220.286 304.976 220.506 304.469L224.086 296.212Z" fill="#D7D7D7"/>
<path fill-rule="evenodd" clip-rule="evenodd" d="M434.584 375.238C478.891 357.359 504.921 315.158 512.498 295.977L510.638 295.242C503.179 314.123 477.483 355.729 433.921 373.348L436.606 367.375C436.832 366.872 436.607 366.28 436.104 366.053C435.6 365.827 435.008 366.052 434.782 366.555L431.091 374.764C430.865 375.268 431.09 375.86 431.594 376.086L439.802 379.776C440.306 380.003 440.898 379.778 441.124 379.274C441.351 378.771 441.126 378.179 440.622 377.952L434.584 375.238Z" fill="#D7D7D7"/>
<circle cx="367.999" cy="231.997" r="52.3255" fill="#FFB27D"/>
<path fill-rule="evenodd" clip-rule="evenodd" d="M344.196 185.387C351.337 181.733 359.427 179.672 367.999 179.672C396.898 179.672 420.325 203.099 420.325 231.997C420.325 233.897 420.223 235.774 420.026 237.621C412.885 241.275 404.795 243.336 396.223 243.336C367.324 243.336 343.897 219.909 343.897 191.011C343.897 189.111 343.999 187.234 344.196 185.387Z" fill="#1F1F1F"/>
<circle cx="215.39" cy="230.001" r="49.532" fill="#DD3B41"/>
<circle cx="525.254" cy="231.999" r="52.3271" fill="#FFD057"/>
<circle cx="368" cy="73.9428" r="49.81" fill="#7CE391"/>
<circle cx="369.18" cy="392.97" r="54.6109" fill="#A26AE9"/>
<path fill-rule="evenodd" clip-rule="evenodd" d="M291.866 92.8066C292.389 92.9837 292.669 93.5514 292.492 94.0745L289.606 102.599C289.429 103.122 288.861 103.403 288.338 103.226C287.815 103.048 287.534 102.481 287.711 101.958L289.81 95.7595C257.335 112.794 235.794 146.334 229 161.26L227.18 160.431C234.079 145.273 255.904 111.244 288.975 93.9393L282.7 91.8146C282.176 91.6375 281.896 91.0699 282.073 90.5468C282.25 90.0236 282.818 89.7432 283.341 89.9203L291.866 92.8066Z" fill="#D7D7D7"/>
<path fill-rule="evenodd" clip-rule="evenodd" d="M507.437 158.284L509.764 152.068C509.958 151.551 510.534 151.289 511.052 151.483C511.569 151.676 511.831 152.253 511.637 152.77L508.482 161.198C508.288 161.716 507.712 161.978 507.194 161.784L498.766 158.628C498.249 158.435 497.986 157.858 498.18 157.341C498.374 156.824 498.95 156.562 499.467 156.755L505.583 159.045C497.618 142.862 475.792 110.536 443.647 94.6524L444.533 92.8594C477.29 109.045 499.401 141.9 507.437 158.284Z" fill="#D7D7D7"/>
<g clip-path="url(#clip1_12916_158643)">
<circle cx="404.196" cy="189.025" r="20.625" transform="rotate(8.9932 404.196 189.025)" fill="#FFB800"/>
<rect x="394.992" y="203.82" width="13.5544" height="11.4415" transform="rotate(8.9932 394.992 203.82)" fill="#FFB800"/>
<path fill-rule="evenodd" clip-rule="evenodd" d="M396.712 184.649C396.837 184.569 396.997 184.567 397.124 184.644L400.632 186.748L402.284 185.548C402.459 185.42 402.704 185.459 402.832 185.634L403.954 187.179L405.499 186.056C405.674 185.929 405.919 185.968 406.046 186.143L407.248 187.796L411.304 186.887C411.447 186.855 411.596 186.905 411.69 187.017C411.784 187.129 411.808 187.285 411.752 187.42L404.533 204.795L403.809 204.494L410.738 187.817L407.168 188.618C407.015 188.652 406.857 188.592 406.765 188.466L405.642 186.921L404.098 188.044C403.923 188.171 403.678 188.132 403.55 187.957L402.428 186.412L400.883 187.535C400.756 187.627 400.586 187.635 400.451 187.554L397.394 185.72L399.288 203.767L398.508 203.849L396.533 185.021C396.517 184.873 396.587 184.729 396.712 184.649Z" fill="#EDAB00"/>
<path d="M391.464 223.016L405.806 225.286L407.226 216.316L392.883 214.046L391.464 223.016Z" fill="#D19700"/>
</g>
<path d="M383.196 173.988L375.024 168.844" stroke="#FFB800" stroke-linecap="round"/>
<path d="M428.593 185.931L437.83 183.117" stroke="#FFB800" stroke-linecap="round"/>
<path d="M399.518 165.425L397.249 156.039" stroke="#FFB800" stroke-linecap="round"/>
<path d="M420.309 169.424L425.725 161.43" stroke="#FFB800" stroke-linecap="round"/>
<path d="M380.944 190.019L371.521 192.125" stroke="#FFB800" stroke-linecap="round"/>
<path d="M423.791 201.452L432.211 206.18" stroke="#FFB800" stroke-linecap="round"/>
<circle r="20.2374" transform="matrix(-0.716849 -0.697228 -0.697228 0.716849 214.994 234.413)" fill="#FFB27D"/>
<path d="M234.884 213.961C232.023 226.795 220.03 227.277 214.392 225.915C202.111 228.317 195.71 219.472 194.044 214.75C194.414 213.568 199.569 214.204 202.1 214.669C200.737 213.09 201.743 208.125 202.416 205.84C203.526 205.341 208.233 208.571 210.448 210.248C210.098 207.839 213.028 204.277 214.537 202.796C215.822 203.501 217.831 207.374 218.675 209.222C223.62 205.287 225.814 205.522 226.292 206.131C227.675 207.166 226.771 211.818 226.147 214.014C227.724 212.663 232.629 213.416 234.884 213.961Z" fill="#1F1F1F"/>
<circle cx="517.227" cy="238.796" r="21.6083" fill="#D38254"/>
<path d="M503.03 222.454C505.498 228.911 518.463 241.876 538.838 239.554C540.071 223.355 519.081 208.537 503.03 222.454Z" fill="#1F1F1F"/>
<circle cx="542.541" cy="215.949" r="12.3476" fill="#1F1F1F"/>
<rect x="164.834" y="285.035" width="20.7277" height="20.7277" transform="rotate(44.5693 164.834 285.035)" stroke="#FFB800"/>
<circle cx="551.258" cy="45.75" r="7.5" stroke="#FF842B"/>
<path d="M91.3486 120.469L92.7792 109.469L101.349 116.344L91.3486 120.469Z" stroke="#007618"/>
<rect x="270.205" y="42.7734" width="5.95532" height="5.95532" stroke="#1F1F1F"/>
<rect x="76.5781" y="392.422" width="5.95532" height="5.95532" stroke="#1F1F1F"/>
<path d="M670.406 416.906L661.13 407.892L670.406 398.878" stroke="#570DB4"/>
<path d="M660.692 416.906L651.416 407.892L660.692 398.878" stroke="#570DB4"/>
<path d="M650.978 416.906L641.701 407.892L650.978 398.878" stroke="#570DB4"/>
<path d="M641.264 416.906L631.987 407.892L641.264 398.878" stroke="#570DB4"/>
<path d="M38.4189 262.328L29.1427 253.314L38.4189 244.3" stroke="#FFB800"/>
<path d="M28.7051 262.328L19.4288 253.314L28.7051 244.3" stroke="#FFB800"/>
<path d="M18.9902 262.328L9.71397 253.314L18.9902 244.3" stroke="#FFB800"/>
<path d="M9.27637 262.328L0.000103893 253.314L9.27637 244.3" stroke="#FFB800"/>
<path d="M551.258 256.922L561.826 270.58L572.947 257.318L583.515 270.58L593.531 258.307L604.257 270.976L613.8 258.505L622.949 270.778L633.281 258.11" stroke="#A7A7A7" stroke-miterlimit="10" stroke-linecap="round" stroke-linejoin="round"/>
<path d="M254.501 237.923C254.948 236.715 256.657 236.715 257.104 237.923L260.686 247.605C260.827 247.985 261.126 248.284 261.506 248.425L271.188 252.008C272.396 252.455 272.396 254.163 271.188 254.61L261.506 258.193C261.126 258.334 260.827 258.633 260.686 259.013L257.104 268.695C256.657 269.903 254.948 269.903 254.501 268.695L250.918 259.013C250.778 258.633 250.478 258.334 250.098 258.193L240.416 254.61C239.208 254.163 239.208 252.455 240.416 252.008L250.098 248.425C250.478 248.284 250.778 247.985 250.918 247.605L254.501 237.923Z" fill="#FFD7D8"/>
<mask id="path-41-inside-1_12916_158643" fill="white">
<path d="M659.506 95.7518C654.996 98.8895 651.157 102.865 648.208 107.45C645.259 112.036 643.257 117.142 642.318 122.477C641.378 127.812 641.519 133.272 642.732 138.544C643.946 143.817 646.208 148.799 649.389 153.207C652.57 157.614 656.609 161.36 661.274 164.231C665.939 167.102 671.139 169.042 676.578 169.94C682.017 170.838 687.587 170.676 692.971 169.464C698.355 168.251 703.448 166.012 707.958 162.875L697.299 148.108C694.773 149.865 691.921 151.119 688.906 151.798C685.891 152.477 682.771 152.567 679.726 152.064C676.68 151.562 673.768 150.475 671.155 148.868C668.543 147.26 666.281 145.162 664.5 142.694C662.718 140.226 661.451 137.435 660.772 134.483C660.093 131.53 660.014 128.473 660.54 125.485C661.066 122.497 662.187 119.638 663.838 117.07C665.49 114.502 667.64 112.276 670.165 110.519L659.506 95.7518Z"/>
</mask>
<path d="M659.506 95.7518C654.996 98.8895 651.157 102.865 648.208 107.45C645.259 112.036 643.257 117.142 642.318 122.477C641.378 127.812 641.519 133.272 642.732 138.544C643.946 143.817 646.208 148.799 649.389 153.207C652.57 157.614 656.609 161.36 661.274 164.231C665.939 167.102 671.139 169.042 676.578 169.94C682.017 170.838 687.587 170.676 692.971 169.464C698.355 168.251 703.448 166.012 707.958 162.875L697.299 148.108C694.773 149.865 691.921 151.119 688.906 151.798C685.891 152.477 682.771 152.567 679.726 152.064C676.68 151.562 673.768 150.475 671.155 148.868C668.543 147.26 666.281 145.162 664.5 142.694C662.718 140.226 661.451 137.435 660.772 134.483C660.093 131.53 660.014 128.473 660.54 125.485C661.066 122.497 662.187 119.638 663.838 117.07C665.49 114.502 667.64 112.276 670.165 110.519L659.506 95.7518Z" stroke="#A26AE9" stroke-width="2" mask="url(#path-41-inside-1_12916_158643)"/>
<path fill-rule="evenodd" clip-rule="evenodd" d="M374.353 47.6016C372.475 47.6016 370.785 48.4075 369.611 49.6924C368.436 48.4075 366.747 47.6016 364.869 47.6016C361.785 47.6016 359.208 49.7753 358.588 52.6743L358.577 52.68C357.915 52.4493 357.204 52.324 356.463 52.324C352.916 52.324 350.04 55.1997 350.04 58.7471C350.04 59.3921 350.135 60.0148 350.312 60.6021C348.585 61.7534 347.447 63.719 347.447 65.9504C347.447 67.2409 347.828 68.4425 348.483 69.4491C348.479 69.7636 348.482 70.08 348.494 70.3978L348.833 80.036H386.91L387.275 70.7142C388.077 69.6426 388.551 68.3124 388.551 66.8714C388.551 64.9317 387.691 63.1928 386.332 62.015C386.698 61.207 386.903 60.3097 386.903 59.3647C386.903 55.8863 384.138 53.0538 380.686 52.9448C380.172 49.9116 377.532 47.6016 374.353 47.6016Z" fill="#1F1F1F"/>
<circle cx="367.93" cy="81.3084" r="18.9725" fill="#FFB27D"/>
<path d="M366.845 69.7332L353.003 66.1343C353.804 62.4301 358.409 55.4422 370.423 57.1241C382.436 58.806 383.838 63.8317 383.037 66.1343L369.195 69.7332C368.425 69.9335 367.615 69.9335 366.845 69.7332Z" fill="#1F1F1F"/>
<path d="M347.009 387.34C347.009 375.968 356.227 366.75 367.599 366.75H369.919C381.291 366.75 390.509 375.968 390.509 387.34V400.285H347.009V387.34Z" fill="#1F1F1F"/>
<circle cx="368.759" cy="400.301" r="21.3087" fill="#FFB27D"/>
<path d="M389.449 405.737C390.59 405.737 391.684 405.283 392.491 404.477C393.298 403.67 393.751 402.576 393.751 401.435C393.751 400.294 393.298 399.2 392.491 398.393C391.684 397.586 390.59 397.133 389.449 397.133V401.435V405.737Z" fill="#FFB27D"/>
<path d="M369.497 374.953L349.562 381.402V388.731L390.311 397.819L385.62 381.402L369.497 374.953Z" fill="#1F1F1F"/>
</g>
<defs>
<clipPath id="clip0_12916_158643">
<rect width="736" height="464" fill="white"/>
</clipPath>
<clipPath id="clip1_12916_158643">
<rect width="51.981" height="58.4786" fill="white" transform="translate(380.662 162.406) rotate(8.9932)"/>
</clipPath>
</defs>
</svg>
