<svg width="736" height="464" viewBox="0 0 736 464" fill="none" xmlns="http://www.w3.org/2000/svg">
<g clip-path="url(#clip0_12916_158820)">
<rect width="736" height="464" fill="#FAFAFA"/>
<rect x="23.7617" y="185.031" width="277.473" height="191.153" fill="#FFD4AE"/>
<rect x="400.233" y="118.547" width="335.767" height="257.631" fill="#FFE2C8"/>
<path d="M589.731 72.8458C502.7 53.2885 316.455 40.3775 267.723 145.192C206.808 276.209 439.862 299.55 468.585 195.673C486.169 132.083 483.972 -28.4167 47.4711 37.1012" stroke="#D7D7D7" stroke-dasharray="16 16"/>
<path d="M412.342 343.078H576.445V376.179H412.342V343.078Z" fill="#414141"/>
<path d="M412.708 296.042C412.708 251.271 449.002 214.977 493.773 214.977C538.544 214.977 574.838 251.271 574.838 296.042V337.135H412.708V296.042Z" fill="#007618"/>
<path fill-rule="evenodd" clip-rule="evenodd" d="M506.218 106.695C502.539 106.695 499.228 108.274 496.927 110.792C494.626 108.274 491.316 106.695 487.636 106.695C481.594 106.695 476.546 110.954 475.331 116.633L475.313 116.643C474.016 116.191 472.622 115.946 471.17 115.946C464.22 115.946 458.586 121.58 458.586 128.53C458.586 129.794 458.773 131.015 459.119 132.166C455.735 134.422 453.506 138.273 453.506 142.645C453.506 145.174 454.252 147.528 455.535 149.5C455.528 150.116 455.535 150.734 455.556 151.356L456.222 170.239H530.822L531.538 151.975C533.108 149.875 534.038 147.269 534.038 144.446C534.038 140.646 532.354 137.24 529.692 134.932C530.409 133.35 530.808 131.593 530.808 129.743C530.808 122.927 525.39 117.377 518.626 117.165C517.62 111.222 512.448 106.695 506.218 106.695Z" fill="#1F1F1F"/>
<circle cx="493.636" cy="172.726" r="37.1709" fill="#D38660"/>
<path d="M490.857 149.889L464.39 143.008C465.959 135.75 474.981 122.06 498.519 125.355C522.056 128.65 524.802 138.496 523.233 143.008L496.765 149.889C494.828 150.393 492.794 150.393 490.857 149.889Z" fill="#1F1F1F"/>
<path d="M499.229 309.106C499.229 263.791 535.965 227.055 581.281 227.055C626.597 227.055 663.333 263.791 663.333 309.106V350.7H499.229V309.106Z" fill="#169F32"/>
<path d="M499.229 346.789H663.333V376.181H499.229V346.789Z" fill="#1F1F1F"/>
<circle cx="580.155" cy="184.691" r="37.2222" fill="#EFA26F"/>
<path fill-rule="evenodd" clip-rule="evenodd" d="M565.424 150.5C562.653 161.945 554.593 171.324 543.977 175.904C546.747 164.459 554.808 155.08 565.424 150.5Z" fill="#1F1F1F"/>
<path d="M555.697 156.553C559.949 167.676 582.282 190.009 617.379 186.009C619.504 158.104 583.348 132.581 555.697 156.553Z" fill="#1F1F1F"/>
<circle cx="596.108" cy="125.754" r="21.2698" fill="#1F1F1F"/>
<path d="M41.6826 330.727C41.6826 280.939 82.0435 240.578 131.831 240.578C181.619 240.578 221.98 280.939 221.98 330.727V376.425H41.6826V330.727Z" fill="#CD2026"/>
<circle cx="137.307" cy="193.837" r="42.0444" transform="rotate(4.17378 137.307 193.837)" fill="#EFA26F"/>
<path d="M98.0678 146.086C102.124 173.1 126.906 175.852 138.79 173.852C163.89 180.624 178.448 163.229 182.59 153.686C181.996 151.182 171.22 151.746 165.907 152.342C168.962 149.269 167.603 138.833 166.541 133.999C164.314 132.802 154.087 138.807 149.252 141.959C150.33 137.019 144.778 129.208 141.867 125.92C139.101 127.193 134.372 134.924 132.354 138.631C122.68 129.755 118.099 129.92 117.018 131.112C114.002 133.056 115.195 142.828 116.169 147.471C113.098 144.442 102.822 145.285 98.0678 146.086Z" fill="#1F1F1F"/>
<path d="M202.257 276.531L162.49 376.422H277.627L312.356 276.531H202.257Z" fill="#EBEBEB"/>
<rect x="380.702" y="220.883" width="83.6877" height="83.6877" fill="#7CE391"/>
<path fill-rule="evenodd" clip-rule="evenodd" d="M426.745 269.931L415.85 256.398L399.638 276.534H432.062L432.061 276.533H445.455L433.442 261.614L426.745 269.931Z" fill="white"/>
<circle cx="428.697" cy="253.303" r="4.38087" fill="white"/>
<rect x="617.378" y="254.453" width="78.951" height="78.951" fill="#FBCD5D"/>
<path fill-rule="evenodd" clip-rule="evenodd" d="M660.815 300.727L650.537 287.961L635.242 306.956H665.831L665.83 306.956H678.466L667.133 292.881L660.815 300.727Z" fill="white"/>
<circle cx="662.656" cy="285.039" r="4.13291" fill="white"/>
<path d="M61.7442 87.4453C48.9402 87.4453 40.3349 95.9285 36.3076 101.863C56.6572 127.809 77.8543 112.674 85.9092 101.863C83.8601 98.0478 74.4628 87.4453 61.7442 87.4453Z" fill="#E2CBFF" stroke="#1F1F1F"/>
<circle cx="61.1079" cy="101.821" r="7.69575" fill="#1F1F1F"/>
<circle cx="60.7617" cy="101.469" r="36.5" stroke="#1F1F1F"/>
<path d="M627.296 220.883L636.582 232.884L646.354 221.231L655.64 232.884L664.442 222.1L673.867 233.232L682.252 222.274L690.291 233.058L699.37 221.926" stroke="#7D7D7D" stroke-miterlimit="10" stroke-linecap="round" stroke-linejoin="round"/>
<rect x="341.593" y="410.66" width="20.7277" height="20.7277" transform="rotate(44.5693 341.593 410.66)" stroke="#FFB800"/>
<circle cx="699.135" cy="427.664" r="7.5" stroke="#FF842B"/>
<path d="M43.5039 56.9922L44.9345 45.9922L53.5039 52.8672L43.5039 56.9922Z" stroke="#007618"/>
<rect x="704.157" y="39.5391" width="5.95532" height="5.95532" stroke="#1F1F1F"/>
<path d="M273.969 64.0234L264.692 55.0093L273.969 45.9952" stroke="#570DB4"/>
<path d="M264.255 64.0234L254.979 55.0093L264.255 45.9952" stroke="#570DB4"/>
<path d="M254.54 64.0234L245.264 55.0093L254.54 45.9952" stroke="#570DB4"/>
<path d="M244.826 64.0234L235.55 55.0093L244.826 45.9952" stroke="#570DB4"/>
<path d="M341.704 172.727L346.014 182.948L335.147 181.33L341.704 172.727Z" stroke="#007618"/>
<ellipse cx="242.477" cy="330.051" rx="9.0923" ry="10.7764" transform="rotate(14.7705 242.477 330.051)" fill="white"/>
<rect width="45.2173" height="115.285" rx="22.6086" transform="matrix(-0.965608 0.260002 0.260002 0.965608 131.239 304.172)" fill="#EFA26F"/>
<path d="M135.125 276.364C130.302 258.451 111.87 247.84 93.9568 252.663C76.0436 257.486 65.4322 275.918 70.2555 293.831L92.2571 375.542L157.127 358.075L135.125 276.364Z" fill="#A70B11"/>
<rect width="45.2173" height="115.285" rx="22.6086" transform="matrix(-0.366303 -0.930496 -0.930496 0.366303 230.938 388.102)" fill="#EFA26F"/>
<path d="M201.915 277.093L162.269 376.397L5.77148 330.779L107.306 159.812L311.415 277.093H201.915Z" fill="url(#paint0_linear_12916_158820)"/>
</g>
<defs>
<linearGradient id="paint0_linear_12916_158820" x1="145.961" y1="238.941" x2="308.444" y2="492.061" gradientUnits="userSpaceOnUse">
<stop stop-color="white" stop-opacity="0"/>
<stop offset="1" stop-color="white" stop-opacity="0.56"/>
</linearGradient>
<clipPath id="clip0_12916_158820">
<rect width="736" height="464" fill="white"/>
</clipPath>
</defs>
</svg>
