<svg width="736" height="464" viewBox="0 0 736 464" fill="none" xmlns="http://www.w3.org/2000/svg">
<rect width="736" height="464" fill="#FAFAFA"/>
<path d="M83.5205 171.791C118.423 105.794 248.697 -7.26214 490.573 68.4906C555.492 91.1188 607.497 133.668 625.385 152.114" stroke="#EBEBEB" stroke-dasharray="18 18"/>
<rect x="408.852" y="289.812" width="37.2252" height="108.756" rx="18.6126" transform="rotate(-91.7455 408.852 289.812)" fill="#EFA26F"/>
<rect x="494.662" y="121.492" width="205.89" height="221.959" fill="#FFD4AE"/>
<path d="M550.74 240.043C565.97 238.906 579.238 250.331 580.375 265.561C581.512 280.791 570.087 294.058 554.857 295.195L485.386 300.381L481.269 245.228L550.74 240.043Z" fill="#80060B"/>
<path d="M510.028 289.24C507.788 263.293 527.006 240.442 552.954 238.202C578.41 236.004 600.985 254.479 603.867 279.866L611.083 343.453L514.708 343.453L510.028 289.24Z" fill="#CD2026"/>
<circle cx="546.518" cy="198.725" r="31.3755" transform="rotate(-4.93405 546.518 198.725)" fill="#EFA26F"/>
<path fill-rule="evenodd" clip-rule="evenodd" d="M576.907 209.274C558.635 207.044 543.789 192.283 542.142 173.213C541.97 171.213 541.948 169.234 542.068 167.289C542.893 167.149 543.731 167.042 544.579 166.969C561.774 165.485 576.944 178.537 578.462 196.123C578.859 200.723 578.283 205.177 576.907 209.274Z" fill="#1F1F1F"/>
<rect x="525.938" y="274.031" width="37.2252" height="94.9086" rx="18.6126" transform="rotate(41.7924 525.938 274.031)" fill="#EFA26F"/>
<path d="M533.372 252.148C543.55 240.762 561.031 239.782 572.418 249.96C583.804 260.138 584.784 277.62 574.606 289.006L528.18 340.945L486.945 304.088L533.372 252.148Z" fill="#CD2026"/>
<path d="M521.448 334.938L528.041 340.97L550.391 316.547" stroke="#1F1F1F"/>
<rect x="35.4463" y="129.992" width="224.431" height="140.626" fill="#B589ED"/>
<path d="M137.463 205.513C148.872 188.352 168.21 178.039 188.817 178.039C224.635 178.039 246.271 217.935 226.442 247.764L211.247 270.62H94.1797L137.463 205.513Z" fill="#CD2026"/>
<circle cx="235.273" cy="157.903" r="30.9729" fill="#FFB27D"/>
<path d="M196.488 137.968C207.436 154.612 224.685 148.854 231.941 143.895C250.629 140.701 254.947 124.733 254.77 117.147C253.611 115.672 246.65 119.341 243.314 121.36C244.397 118.392 240.305 111.898 238.124 109.022C236.283 108.912 231.349 116.015 229.112 119.58C228.315 115.98 222.25 112.507 219.317 111.22C217.876 112.91 217.11 119.474 216.907 122.546C207.787 119.629 204.805 121.139 204.454 122.259C203.052 124.468 206.831 130.573 208.895 133.349C205.936 132.283 199.39 135.984 196.488 137.968Z" fill="#1F1F1F"/>
<rect x="147.707" y="199.344" width="36.7475" height="103.583" rx="18.3737" transform="rotate(64.852 147.707 199.344)" fill="#FFA05F"/>
<path d="M162.75 181.968C176.398 175.561 192.655 181.431 199.062 195.078C205.468 208.725 199.599 224.982 185.951 231.389L135.017 255.301L111.816 205.879L162.75 181.968Z" fill="#CD2026"/>
<rect x="60.0244" y="273.68" width="36.7475" height="103.583" rx="18.3737" transform="rotate(-90 60.0244 273.68)" fill="#FFB27D"/>
<rect width="36.7475" height="69.6227" rx="18.3737" transform="matrix(-0.777146 0.62932 0.62932 0.777146 238.286 224.719)" fill="#FFB27D"/>
<rect width="36.7475" height="100.808" rx="18.3737" transform="matrix(-0.543802 -0.839214 -0.839214 0.543802 339.855 249.695)" fill="#FFB27D"/>
<path d="M231.318 203.41C221.83 191.693 204.641 189.887 192.924 199.375C181.208 208.862 179.401 226.052 188.889 237.768L223.785 280.862L266.215 246.504L231.318 203.41Z" fill="#CD2026"/>
<rect x="421.558" y="298.836" width="37.2252" height="94.9086" rx="18.6126" transform="rotate(-41.79 421.558 298.836)" fill="#EFA26F"/>
<rect x="651.285" y="67.3516" width="5.95532" height="5.95532" stroke="#1F1F1F"/>
<circle cx="254.373" cy="361.602" r="7.5" stroke="#FF842B"/>
<path d="M624.813 430.781L626.244 419.781L634.813 426.656L624.813 430.781Z" stroke="#007618"/>
<path d="M657.74 174.094L665.546 184.182L673.76 174.386L681.565 184.182L688.963 175.117L696.886 184.474L703.934 175.263L710.692 184.328L718.323 174.971" stroke="#A7A7A7" stroke-miterlimit="10" stroke-linecap="round" stroke-linejoin="round"/>
<rect x="45.1211" y="279.734" width="14.1919" height="14.1919" fill="#E2CBFF"/>
<rect x="45.1211" y="297.922" width="14.1919" height="14.1919" fill="#E2CBFF"/>
<rect x="63.3135" y="279.734" width="14.1919" height="14.1919" fill="#E2CBFF"/>
<rect x="63.3135" y="297.922" width="14.1919" height="14.1919" fill="#E2CBFF"/>
<rect x="660.851" y="274.109" width="18.8239" height="69.8223" fill="#7CE391"/>
<rect x="683.675" y="295.93" width="18.8239" height="48" fill="#7CE391"/>
<rect x="706.499" y="317.57" width="18.8239" height="26.363" fill="#7CE391"/>
<path d="M14.7178 343.992L21.9434 353.33L29.5465 344.263L36.7722 353.33L43.6203 344.94L50.9538 353.601L57.4785 345.075L63.7335 353.466L70.7974 344.804" stroke="#A7A7A7" stroke-miterlimit="10" stroke-linecap="round" stroke-linejoin="round"/>
<path d="M425.848 412.016L417.261 403.672L425.848 395.327" stroke="#570DB4"/>
<path d="M416.855 412.016L408.269 403.672L416.855 395.327" stroke="#570DB4"/>
<path d="M407.863 412.016L399.276 403.672L407.863 395.327" stroke="#570DB4"/>
<path d="M398.871 412.016L390.284 403.672L398.871 395.327" stroke="#570DB4"/>
<path d="M17.4951 440.261L18.8194 430.078L26.7519 436.442L17.4951 440.261Z" stroke="#007618"/>
<rect x="128.739" y="39.1133" width="19.1128" height="19.1128" transform="rotate(44.5693 128.739 39.1133)" stroke="#FFB800"/>
<circle cx="725.635" cy="112.569" r="6.90539" stroke="#FF842B"/>
<path d="M414.341 140.812L415.327 155.579L406.802 144.808L414.341 140.812Z" fill="#F5F5F5"/>
<path d="M379.305 195.501C377.22 193.415 374.745 191.761 372.021 190.632C369.296 189.503 366.376 188.922 363.427 188.922C360.478 188.922 357.558 189.503 354.834 190.632C352.11 191.761 349.634 193.415 347.55 195.501L343.223 199.827L338.896 195.501C334.685 191.29 328.974 188.924 323.019 188.924C317.064 188.924 311.352 191.29 307.141 195.501C302.93 199.712 300.564 205.423 300.564 211.378C300.564 217.334 302.93 223.045 307.141 227.256L311.468 231.583L343.223 263.338L374.978 231.583L379.305 227.256C381.391 225.171 383.045 222.696 384.174 219.972C385.303 217.247 385.884 214.327 385.884 211.378C385.884 208.429 385.303 205.509 384.174 202.785C383.045 200.061 381.391 197.586 379.305 195.501Z" fill="#DD3B41"/>
<path d="M365.073 196.544C369.354 195.648 378.274 191.347 379.708 181.312C381.4 186.39 386.995 196.544 395.835 196.544C390.692 198.068 380.628 203.182 379.767 211.781C379.78 212.219 379.758 212.618 379.708 212.97C379.708 212.566 379.728 212.17 379.767 211.781C379.647 207.874 376.674 200.841 365.073 196.544Z" fill="#FFB800"/>
<path d="M388.426 136.084C390.138 135.726 393.706 134.006 394.279 129.992C394.956 132.023 397.194 136.084 400.73 136.084C398.673 136.694 394.647 138.739 394.303 142.179C394.308 142.354 394.299 142.514 394.279 142.654C394.279 142.493 394.287 142.334 394.303 142.179C394.255 140.616 393.066 137.803 388.426 136.084Z" fill="#FFB800"/>
<path d="M445.864 212.788C447.188 212.511 449.946 211.181 450.39 208.078C450.913 209.648 452.643 212.788 455.376 212.788C453.786 213.259 450.674 214.841 450.408 217.5C450.412 217.635 450.405 217.759 450.39 217.867C450.39 217.743 450.396 217.62 450.408 217.5C450.371 216.291 449.451 214.117 445.864 212.788Z" fill="#FFB800"/>
</svg>
