<svg width="34" height="36" viewBox="0 0 34 36" fill="none" xmlns="http://www.w3.org/2000/svg">
<path d="M0.333561 33.6658C0.333561 32.7491 1.08356 31.9991 2.00023 31.9991C3.45023 31.9991 4.88356 31.5991 6.2169 30.8324C6.70023 30.5658 7.30023 30.5491 7.78356 30.8324C10.4336 32.3324 13.5836 32.3324 16.2169 30.8324C16.7002 30.5658 17.3002 30.5658 17.7836 30.8324C20.4336 32.3324 23.5836 32.3324 26.2169 30.8324C26.7002 30.5658 27.3002 30.5658 27.7836 30.8324C29.1169 31.5991 30.5502 31.9991 32.0002 31.9991C32.9169 31.9991 33.6669 32.7491 33.6669 33.6658C33.6669 34.5824 32.9169 35.3324 32.0002 35.3324C30.2836 35.3324 28.5669 34.9158 27.0002 34.0824C23.8002 35.7824 20.0336 35.7491 16.8502 33.9991C13.8669 35.4491 10.3169 35.6324 7.55023 33.7658C5.83356 34.8158 3.91689 35.3324 2.00023 35.3324C1.08356 35.3324 0.333561 34.5824 0.333561 33.6658ZM17.0002 6.16577C15.1669 6.16577 13.6669 7.66577 13.6669 9.4991C13.6669 11.3324 15.1669 12.8324 17.0002 12.8324C18.8336 12.8324 20.3336 11.3324 20.3336 9.4991C20.3336 7.66577 18.8336 6.16577 17.0002 6.16577ZM32.7836 27.7491C32.0836 27.9824 31.2836 28.2158 30.4336 28.4491C29.5502 28.1991 28.7169 27.7324 28.0169 27.1658C27.4336 26.6824 26.5669 26.6824 25.9669 27.1658C24.8669 28.0491 23.5002 28.6658 22.0002 28.6658C20.5002 28.6658 19.1336 28.0491 18.0169 27.1491C17.4336 26.6824 16.5669 26.6824 15.9836 27.1491C14.8669 28.0491 13.5002 28.6658 12.0002 28.6658C10.5002 28.6658 9.13356 28.0491 8.01689 27.1491C7.43356 26.6658 6.56689 26.6824 5.96689 27.1491C5.25023 27.7324 4.43356 28.1824 3.55023 28.4324C2.70023 28.1991 1.91689 27.9658 1.21689 27.7324C-0.316439 27.2324 -0.316439 25.0658 1.21689 24.5658C3.23356 23.9158 5.86689 23.1991 8.88356 22.6824L11.1336 15.7324C11.6502 14.1491 13.3336 13.2824 14.9169 13.7991C15.0669 13.8491 15.2336 13.9158 15.3669 13.9824L19.4836 16.1491L24.2169 13.6491L26.9669 7.46577L26.3669 5.91577C26.2002 5.4991 26.2169 5.0491 26.4002 4.6491L27.6336 1.8491C28.0002 0.999102 29.0002 0.632435 29.8336 0.999101L32.1169 2.01577C32.9502 2.3991 33.3336 3.38243 32.9502 4.21577L31.7002 7.01577C31.5169 7.41577 31.1836 7.73243 30.7669 7.8991L29.2669 8.4991L23.0669 22.3991C26.9502 22.8991 30.3169 23.7991 32.7669 24.5824C34.3169 25.0824 34.3336 27.2491 32.7836 27.7491ZM22.0336 18.5991L21.0502 19.1158C20.0836 19.6324 18.9169 19.6324 17.9502 19.1158L16.6002 18.3991L15.4169 22.0158C15.9336 22.0158 16.4669 21.9991 17.0002 21.9991C18.1836 21.9991 19.3336 22.0491 20.4502 22.1324L22.0336 18.5991Z" fill="#169F32"/>
</svg>
