<svg width="1056" height="108" viewBox="0 0 1056 108" fill="none" xmlns="http://www.w3.org/2000/svg">
<path d="M2.448 50.36C8.336 45.944 12.88 41.992 16.08 38.504C19.312 34.984 20.928 31.544 20.928 28.184C20.928 25.976 20.368 24.216 19.248 22.904C18.16 21.56 16.368 20.888 13.872 20.888C11.44 20.888 9.552 21.656 8.208 23.192C6.896 24.696 6.16 26.712 6 29.24H2.736C2.928 25.688 4.016 22.936 6 20.984C8.016 19 10.64 18.008 13.872 18.008C16.976 18.008 19.488 18.888 21.408 20.648C23.328 22.376 24.288 24.84 24.288 28.04C24.288 31.912 22.672 35.672 19.44 39.32C16.24 42.936 12.288 46.472 7.584 49.928H25.344V52.76H2.448V50.36ZM52.2848 21.464H34.7168V33.752C35.5168 32.632 36.6848 31.72 38.2208 31.016C39.7568 30.28 41.4208 29.912 43.2128 29.912C45.8368 29.912 47.9808 30.456 49.6448 31.544C51.3088 32.6 52.5087 33.992 53.2448 35.72C53.9808 37.416 54.3488 39.24 54.3488 41.192C54.3488 43.432 53.9168 45.464 53.0528 47.288C52.2208 49.08 50.9248 50.504 49.1648 51.56C47.4368 52.616 45.2768 53.144 42.6848 53.144C39.3888 53.144 36.7168 52.296 34.6688 50.6C32.6208 48.872 31.3728 46.552 30.9248 43.64H34.2368C34.6528 45.752 35.6128 47.384 37.1168 48.536C38.6208 49.688 40.4768 50.264 42.6848 50.264C45.4688 50.264 47.5648 49.448 48.9728 47.816C50.4128 46.152 51.1328 43.96 51.1328 41.24C51.1328 38.584 50.4128 36.52 48.9728 35.048C47.5328 33.544 45.4688 32.792 42.7808 32.792C40.9248 32.792 39.2928 33.224 37.8848 34.088C36.4768 34.952 35.4368 36.12 34.7648 37.592H31.5968V18.536H52.2848V21.464ZM85.0778 36.68H74.3738V47.48H71.2538V36.68H60.5978V33.8H71.2538V23H74.3738V33.8H85.0778V36.68Z" fill="#1F1F1F"/>
<path d="M14.112 85.544V98H12.474V88.712L8.334 98H7.182L3.024 88.694V98H1.386V85.544H3.15L7.758 95.84L12.366 85.544H14.112ZM25.8899 92.69C25.8899 93.002 25.8719 93.332 25.8359 93.68H17.9519C18.0119 94.652 18.3419 95.414 18.9419 95.966C19.5539 96.506 20.2919 96.776 21.1559 96.776C21.8639 96.776 22.4519 96.614 22.9199 96.29C23.3999 95.954 23.7359 95.51 23.9279 94.958H25.6919C25.4279 95.906 24.8999 96.68 24.1079 97.28C23.3159 97.868 22.3319 98.162 21.1559 98.162C20.2199 98.162 19.3799 97.952 18.6359 97.532C17.9039 97.112 17.3279 96.518 16.9079 95.75C16.4879 94.97 16.2779 94.07 16.2779 93.05C16.2779 92.03 16.4819 91.136 16.8899 90.368C17.2979 89.6 17.8679 89.012 18.5999 88.604C19.3439 88.184 20.1959 87.974 21.1559 87.974C22.0919 87.974 22.9199 88.178 23.6399 88.586C24.3599 88.994 24.9119 89.558 25.2959 90.278C25.6919 90.986 25.8899 91.79 25.8899 92.69ZM24.1979 92.348C24.1979 91.724 24.0599 91.19 23.7839 90.746C23.5079 90.29 23.1299 89.948 22.6499 89.72C22.1819 89.48 21.6599 89.36 21.0839 89.36C20.2559 89.36 19.5479 89.624 18.9599 90.152C18.3839 90.68 18.0539 91.412 17.9699 92.348H24.1979ZM30.05 89.486V95.3C30.05 95.78 30.152 96.122 30.356 96.326C30.56 96.518 30.914 96.614 31.418 96.614H32.624V98H31.148C30.236 98 29.552 97.79 29.096 97.37C28.64 96.95 28.412 96.26 28.412 95.3V89.486H27.134V88.136H28.412V85.652H30.05V88.136H32.624V89.486H30.05ZM39.5047 87.956C40.2487 87.956 40.9207 88.118 41.5207 88.442C42.1207 88.754 42.5887 89.228 42.9247 89.864C43.2727 90.5 43.4467 91.274 43.4467 92.186V98H41.8267V92.42C41.8267 91.436 41.5807 90.686 41.0887 90.17C40.5967 89.642 39.9247 89.378 39.0727 89.378C38.2087 89.378 37.5187 89.648 37.0027 90.188C36.4987 90.728 36.2467 91.514 36.2467 92.546V98H34.6087V84.68H36.2467V89.54C36.5707 89.036 37.0147 88.646 37.5787 88.37C38.1547 88.094 38.7967 87.956 39.5047 87.956ZM50.4243 98.162C49.5003 98.162 48.6603 97.952 47.9043 97.532C47.1603 97.112 46.5723 96.518 46.1403 95.75C45.7203 94.97 45.5103 94.07 45.5103 93.05C45.5103 92.042 45.7263 91.154 46.1583 90.386C46.6023 89.606 47.2023 89.012 47.9583 88.604C48.7143 88.184 49.5603 87.974 50.4963 87.974C51.4323 87.974 52.2783 88.184 53.0343 88.604C53.7903 89.012 54.3843 89.6 54.8163 90.368C55.2603 91.136 55.4823 92.03 55.4823 93.05C55.4823 94.07 55.2543 94.97 54.7983 95.75C54.3543 96.518 53.7483 97.112 52.9803 97.532C52.2123 97.952 51.3603 98.162 50.4243 98.162ZM50.4243 96.722C51.0123 96.722 51.5643 96.584 52.0803 96.308C52.5963 96.032 53.0103 95.618 53.3223 95.066C53.6463 94.514 53.8083 93.842 53.8083 93.05C53.8083 92.258 53.6523 91.586 53.3403 91.034C53.0283 90.482 52.6203 90.074 52.1163 89.81C51.6123 89.534 51.0663 89.396 50.4783 89.396C49.8783 89.396 49.3263 89.534 48.8223 89.81C48.3303 90.074 47.9343 90.482 47.6343 91.034C47.3343 91.586 47.1843 92.258 47.1843 93.05C47.1843 93.854 47.3283 94.532 47.6163 95.084C47.9163 95.636 48.3123 96.05 48.8043 96.326C49.2963 96.59 49.8363 96.722 50.4243 96.722ZM57.024 93.032C57.024 92.024 57.228 91.142 57.636 90.386C58.044 89.618 58.602 89.024 59.31 88.604C60.03 88.184 60.834 87.974 61.722 87.974C62.49 87.974 63.204 88.154 63.864 88.514C64.524 88.862 65.028 89.324 65.376 89.9V84.68H67.032V98H65.376V96.146C65.052 96.734 64.572 97.22 63.936 97.604C63.3 97.976 62.556 98.162 61.704 98.162C60.828 98.162 60.03 97.946 59.31 97.514C58.602 97.082 58.044 96.476 57.636 95.696C57.228 94.916 57.024 94.028 57.024 93.032ZM65.376 93.05C65.376 92.306 65.226 91.658 64.926 91.106C64.626 90.554 64.218 90.134 63.702 89.846C63.198 89.546 62.64 89.396 62.028 89.396C61.416 89.396 60.858 89.54 60.354 89.828C59.85 90.116 59.448 90.536 59.148 91.088C58.848 91.64 58.698 92.288 58.698 93.032C58.698 93.788 58.848 94.448 59.148 95.012C59.448 95.564 59.85 95.99 60.354 96.29C60.858 96.578 61.416 96.722 62.028 96.722C62.64 96.722 63.198 96.578 63.702 96.29C64.218 95.99 64.626 95.564 64.926 95.012C65.226 94.448 65.376 93.794 65.376 93.05ZM73.2921 98.162C72.5361 98.162 71.8581 98.036 71.2581 97.784C70.6581 97.52 70.1841 97.16 69.8361 96.704C69.4881 96.236 69.2961 95.702 69.2601 95.102H70.9521C71.0001 95.594 71.2281 95.996 71.6361 96.308C72.0561 96.62 72.6021 96.776 73.2741 96.776C73.8981 96.776 74.3901 96.638 74.7501 96.362C75.1101 96.086 75.2901 95.738 75.2901 95.318C75.2901 94.886 75.0981 94.568 74.7141 94.364C74.3301 94.148 73.7361 93.938 72.9321 93.734C72.2001 93.542 71.6001 93.35 71.1321 93.158C70.6761 92.954 70.2801 92.66 69.9441 92.276C69.6201 91.88 69.4581 91.364 69.4581 90.728C69.4581 90.224 69.6081 89.762 69.9081 89.342C70.2081 88.922 70.6341 88.592 71.1861 88.352C71.7381 88.1 72.3681 87.974 73.0761 87.974C74.1681 87.974 75.0501 88.25 75.7221 88.802C76.3941 89.354 76.7541 90.11 76.8021 91.07H75.1641C75.1281 90.554 74.9181 90.14 74.5341 89.828C74.1621 89.516 73.6581 89.36 73.0221 89.36C72.4341 89.36 71.9661 89.486 71.6181 89.738C71.2701 89.99 71.0961 90.32 71.0961 90.728C71.0961 91.052 71.1981 91.322 71.4021 91.538C71.6181 91.742 71.8821 91.91 72.1941 92.042C72.5181 92.162 72.9621 92.3 73.5261 92.456C74.2341 92.648 74.8101 92.84 75.2541 93.032C75.6981 93.212 76.0761 93.488 76.3881 93.86C76.7121 94.232 76.8801 94.718 76.8921 95.318C76.8921 95.858 76.7421 96.344 76.4421 96.776C76.1421 97.208 75.7161 97.55 75.1641 97.802C74.6241 98.042 74.0001 98.162 73.2921 98.162Z" fill="#616161"/>
<path d="M244.988 21.608V18.584H253.148V53H249.74V21.608H244.988ZM282.332 21.464H264.764V33.752C265.564 32.632 266.732 31.72 268.268 31.016C269.804 30.28 271.468 29.912 273.26 29.912C275.884 29.912 278.028 30.456 279.692 31.544C281.356 32.6 282.556 33.992 283.292 35.72C284.028 37.416 284.396 39.24 284.396 41.192C284.396 43.432 283.964 45.464 283.1 47.288C282.268 49.08 280.972 50.504 279.212 51.56C277.484 52.616 275.324 53.144 272.732 53.144C269.436 53.144 266.764 52.296 264.716 50.6C262.668 48.872 261.42 46.552 260.972 43.64H264.284C264.7 45.752 265.66 47.384 267.164 48.536C268.668 49.688 270.524 50.264 272.732 50.264C275.516 50.264 277.612 49.448 279.02 47.816C280.46 46.152 281.18 43.96 281.18 41.24C281.18 38.584 280.46 36.52 279.02 35.048C277.58 33.544 275.516 32.792 272.828 32.792C270.972 32.792 269.34 33.224 267.932 34.088C266.524 34.952 265.484 36.12 264.812 37.592H261.644V18.536H282.332V21.464ZM315.125 36.68H304.421V47.48H301.301V36.68H290.645V33.8H301.301V23H304.421V33.8H315.125V36.68Z" fill="#1F1F1F"/>
<path d="M252.608 85.454V86.786H249.188V98H247.55V86.786H244.112V85.454H252.608ZM263.624 92.69C263.624 93.002 263.606 93.332 263.57 93.68H255.686C255.746 94.652 256.076 95.414 256.676 95.966C257.288 96.506 258.026 96.776 258.89 96.776C259.598 96.776 260.186 96.614 260.654 96.29C261.134 95.954 261.47 95.51 261.662 94.958H263.426C263.162 95.906 262.634 96.68 261.842 97.28C261.05 97.868 260.066 98.162 258.89 98.162C257.954 98.162 257.114 97.952 256.37 97.532C255.638 97.112 255.062 96.518 254.642 95.75C254.222 94.97 254.012 94.07 254.012 93.05C254.012 92.03 254.216 91.136 254.624 90.368C255.032 89.6 255.602 89.012 256.334 88.604C257.078 88.184 257.93 87.974 258.89 87.974C259.826 87.974 260.654 88.178 261.374 88.586C262.094 88.994 262.646 89.558 263.03 90.278C263.426 90.986 263.624 91.79 263.624 92.69ZM261.932 92.348C261.932 91.724 261.794 91.19 261.518 90.746C261.242 90.29 260.864 89.948 260.384 89.72C259.916 89.48 259.394 89.36 258.818 89.36C257.99 89.36 257.282 89.624 256.694 90.152C256.118 90.68 255.788 91.412 255.704 92.348H261.932ZM277.648 87.956C278.416 87.956 279.1 88.118 279.7 88.442C280.3 88.754 280.774 89.228 281.122 89.864C281.47 90.5 281.644 91.274 281.644 92.186V98H280.024V92.42C280.024 91.436 279.778 90.686 279.286 90.17C278.806 89.642 278.152 89.378 277.324 89.378C276.472 89.378 275.794 89.654 275.29 90.206C274.786 90.746 274.534 91.532 274.534 92.564V98H272.914V92.42C272.914 91.436 272.668 90.686 272.176 90.17C271.696 89.642 271.042 89.378 270.214 89.378C269.362 89.378 268.684 89.654 268.18 90.206C267.676 90.746 267.424 91.532 267.424 92.564V98H265.786V88.136H267.424V89.558C267.748 89.042 268.18 88.646 268.72 88.37C269.272 88.094 269.878 87.956 270.538 87.956C271.366 87.956 272.098 88.142 272.734 88.514C273.37 88.886 273.844 89.432 274.156 90.152C274.432 89.456 274.888 88.916 275.524 88.532C276.16 88.148 276.868 87.956 277.648 87.956ZM285.969 89.954C286.293 89.39 286.773 88.922 287.409 88.55C288.057 88.166 288.807 87.974 289.659 87.974C290.535 87.974 291.327 88.184 292.035 88.604C292.755 89.024 293.319 89.618 293.727 90.386C294.135 91.142 294.339 92.024 294.339 93.032C294.339 94.028 294.135 94.916 293.727 95.696C293.319 96.476 292.755 97.082 292.035 97.514C291.327 97.946 290.535 98.162 289.659 98.162C288.819 98.162 288.075 97.976 287.427 97.604C286.791 97.22 286.305 96.746 285.969 96.182V102.68H284.331V88.136H285.969V89.954ZM292.665 93.032C292.665 92.288 292.515 91.64 292.215 91.088C291.915 90.536 291.507 90.116 290.991 89.828C290.487 89.54 289.929 89.396 289.317 89.396C288.717 89.396 288.159 89.546 287.643 89.846C287.139 90.134 286.731 90.56 286.419 91.124C286.119 91.676 285.969 92.318 285.969 93.05C285.969 93.794 286.119 94.448 286.419 95.012C286.731 95.564 287.139 95.99 287.643 96.29C288.159 96.578 288.717 96.722 289.317 96.722C289.929 96.722 290.487 96.578 290.991 96.29C291.507 95.99 291.915 95.564 292.215 95.012C292.515 94.448 292.665 93.788 292.665 93.032ZM298.133 84.68V98H296.495V84.68H298.133ZM300.313 93.032C300.313 92.024 300.517 91.142 300.925 90.386C301.333 89.618 301.891 89.024 302.599 88.604C303.319 88.184 304.117 87.974 304.993 87.974C305.857 87.974 306.607 88.16 307.243 88.532C307.879 88.904 308.353 89.372 308.665 89.936V88.136H310.321V98H308.665V96.164C308.341 96.74 307.855 97.22 307.207 97.604C306.571 97.976 305.827 98.162 304.975 98.162C304.099 98.162 303.307 97.946 302.599 97.514C301.891 97.082 301.333 96.476 300.925 95.696C300.517 94.916 300.313 94.028 300.313 93.032ZM308.665 93.05C308.665 92.306 308.515 91.658 308.215 91.106C307.915 90.554 307.507 90.134 306.991 89.846C306.487 89.546 305.929 89.396 305.317 89.396C304.705 89.396 304.147 89.54 303.643 89.828C303.139 90.116 302.737 90.536 302.437 91.088C302.137 91.64 301.987 92.288 301.987 93.032C301.987 93.788 302.137 94.448 302.437 95.012C302.737 95.564 303.139 95.99 303.643 96.29C304.147 96.578 304.705 96.722 305.317 96.722C305.929 96.722 306.487 96.578 306.991 96.29C307.507 95.99 307.915 95.564 308.215 95.012C308.515 94.448 308.665 93.794 308.665 93.05ZM315.087 89.486V95.3C315.087 95.78 315.189 96.122 315.393 96.326C315.597 96.518 315.951 96.614 316.455 96.614H317.661V98H316.185C315.273 98 314.589 97.79 314.133 97.37C313.677 96.95 313.449 96.26 313.449 95.3V89.486H312.171V88.136H313.449V85.652H315.087V88.136H317.661V89.486H315.087ZM328.646 92.69C328.646 93.002 328.628 93.332 328.592 93.68H320.708C320.768 94.652 321.098 95.414 321.698 95.966C322.31 96.506 323.048 96.776 323.912 96.776C324.62 96.776 325.208 96.614 325.676 96.29C326.156 95.954 326.492 95.51 326.684 94.958H328.448C328.184 95.906 327.656 96.68 326.864 97.28C326.072 97.868 325.088 98.162 323.912 98.162C322.976 98.162 322.136 97.952 321.392 97.532C320.66 97.112 320.084 96.518 319.664 95.75C319.244 94.97 319.034 94.07 319.034 93.05C319.034 92.03 319.238 91.136 319.646 90.368C320.054 89.6 320.624 89.012 321.356 88.604C322.1 88.184 322.952 87.974 323.912 87.974C324.848 87.974 325.676 88.178 326.396 88.586C327.116 88.994 327.668 89.558 328.052 90.278C328.448 90.986 328.646 91.79 328.646 92.69ZM326.954 92.348C326.954 91.724 326.816 91.19 326.54 90.746C326.264 90.29 325.886 89.948 325.406 89.72C324.938 89.48 324.416 89.36 323.84 89.36C323.012 89.36 322.304 89.624 321.716 90.152C321.14 90.68 320.81 91.412 320.726 92.348H326.954ZM334.3 98.162C333.544 98.162 332.866 98.036 332.266 97.784C331.666 97.52 331.192 97.16 330.844 96.704C330.496 96.236 330.304 95.702 330.268 95.102H331.96C332.008 95.594 332.236 95.996 332.644 96.308C333.064 96.62 333.61 96.776 334.282 96.776C334.906 96.776 335.398 96.638 335.758 96.362C336.118 96.086 336.298 95.738 336.298 95.318C336.298 94.886 336.106 94.568 335.722 94.364C335.338 94.148 334.744 93.938 333.94 93.734C333.208 93.542 332.608 93.35 332.14 93.158C331.684 92.954 331.288 92.66 330.952 92.276C330.628 91.88 330.466 91.364 330.466 90.728C330.466 90.224 330.616 89.762 330.916 89.342C331.216 88.922 331.642 88.592 332.194 88.352C332.746 88.1 333.376 87.974 334.084 87.974C335.176 87.974 336.058 88.25 336.73 88.802C337.402 89.354 337.762 90.11 337.81 91.07H336.172C336.136 90.554 335.926 90.14 335.542 89.828C335.17 89.516 334.666 89.36 334.03 89.36C333.442 89.36 332.974 89.486 332.626 89.738C332.278 89.99 332.104 90.32 332.104 90.728C332.104 91.052 332.206 91.322 332.41 91.538C332.626 91.742 332.89 91.91 333.202 92.042C333.526 92.162 333.97 92.3 334.534 92.456C335.242 92.648 335.818 92.84 336.262 93.032C336.706 93.212 337.084 93.488 337.396 93.86C337.72 94.232 337.888 94.718 337.9 95.318C337.9 95.858 337.75 96.344 337.45 96.776C337.15 97.208 336.724 97.55 336.172 97.802C335.632 98.042 335.008 98.162 334.3 98.162Z" fill="#616161"/>
<path d="M496.976 27.368C497.2 24.456 498.32 22.168 500.336 20.504C502.384 18.808 505.024 17.96 508.256 17.96C510.4 17.96 512.24 18.344 513.776 19.112C515.312 19.88 516.464 20.936 517.232 22.28C518.032 23.592 518.432 25.08 518.432 26.744C518.432 28.76 517.84 30.504 516.656 31.976C515.472 33.448 513.792 34.36 511.616 34.712V34.952C513.888 35.4 515.696 36.392 517.04 37.928C518.384 39.432 519.056 41.416 519.056 43.88C519.056 46.632 518.128 48.888 516.272 50.648C514.448 52.376 511.792 53.24 508.304 53.24C504.976 53.24 502.24 52.376 500.096 50.648C497.952 48.888 496.72 46.408 496.4 43.208H499.664C499.952 45.352 500.848 47.096 502.352 48.44C503.856 49.752 505.84 50.408 508.304 50.408C510.736 50.408 512.592 49.768 513.872 48.488C515.184 47.208 515.84 45.576 515.84 43.592C515.84 38.728 512.336 36.296 505.328 36.296H504.272V33.464H505.376C511.904 33.464 515.168 31.336 515.168 27.08C515.168 25.224 514.56 23.736 513.344 22.616C512.128 21.464 510.4 20.888 508.16 20.888C505.984 20.888 504.176 21.464 502.736 22.616C501.328 23.736 500.496 25.32 500.24 27.368H496.976ZM550.062 36.68H539.358V47.48H536.238V36.68H525.582V33.8H536.238V23H539.358V33.8H550.062V36.68Z" fill="#1F1F1F"/>
<path d="M503.108 85.454V86.786H499.688V98H498.05V86.786H494.612V85.454H503.108ZM509.426 98.162C508.502 98.162 507.662 97.952 506.906 97.532C506.162 97.112 505.574 96.518 505.142 95.75C504.722 94.97 504.512 94.07 504.512 93.05C504.512 92.042 504.728 91.154 505.16 90.386C505.604 89.606 506.204 89.012 506.96 88.604C507.716 88.184 508.562 87.974 509.498 87.974C510.434 87.974 511.28 88.184 512.036 88.604C512.792 89.012 513.386 89.6 513.818 90.368C514.262 91.136 514.484 92.03 514.484 93.05C514.484 94.07 514.256 94.97 513.8 95.75C513.356 96.518 512.75 97.112 511.982 97.532C511.214 97.952 510.362 98.162 509.426 98.162ZM509.426 96.722C510.014 96.722 510.566 96.584 511.082 96.308C511.598 96.032 512.012 95.618 512.324 95.066C512.648 94.514 512.81 93.842 512.81 93.05C512.81 92.258 512.654 91.586 512.342 91.034C512.03 90.482 511.622 90.074 511.118 89.81C510.614 89.534 510.068 89.396 509.48 89.396C508.88 89.396 508.328 89.534 507.824 89.81C507.332 90.074 506.936 90.482 506.636 91.034C506.336 91.586 506.186 92.258 506.186 93.05C506.186 93.854 506.33 94.532 506.618 95.084C506.918 95.636 507.314 96.05 507.806 96.326C508.298 96.59 508.838 96.722 509.426 96.722ZM520.94 98.162C520.016 98.162 519.176 97.952 518.42 97.532C517.676 97.112 517.088 96.518 516.656 95.75C516.236 94.97 516.026 94.07 516.026 93.05C516.026 92.042 516.242 91.154 516.674 90.386C517.118 89.606 517.718 89.012 518.474 88.604C519.23 88.184 520.076 87.974 521.012 87.974C521.948 87.974 522.794 88.184 523.55 88.604C524.306 89.012 524.9 89.6 525.332 90.368C525.776 91.136 525.998 92.03 525.998 93.05C525.998 94.07 525.77 94.97 525.314 95.75C524.87 96.518 524.264 97.112 523.496 97.532C522.728 97.952 521.876 98.162 520.94 98.162ZM520.94 96.722C521.528 96.722 522.08 96.584 522.596 96.308C523.112 96.032 523.526 95.618 523.838 95.066C524.162 94.514 524.324 93.842 524.324 93.05C524.324 92.258 524.168 91.586 523.856 91.034C523.544 90.482 523.136 90.074 522.632 89.81C522.128 89.534 521.582 89.396 520.994 89.396C520.394 89.396 519.842 89.534 519.338 89.81C518.846 90.074 518.45 90.482 518.15 91.034C517.85 91.586 517.7 92.258 517.7 93.05C517.7 93.854 517.844 94.532 518.132 95.084C518.432 95.636 518.828 96.05 519.32 96.326C519.812 96.59 520.352 96.722 520.94 96.722ZM529.79 84.68V98H528.152V84.68H529.79ZM536.073 98.162C535.317 98.162 534.639 98.036 534.039 97.784C533.439 97.52 532.965 97.16 532.617 96.704C532.269 96.236 532.077 95.702 532.041 95.102H533.733C533.781 95.594 534.009 95.996 534.417 96.308C534.837 96.62 535.383 96.776 536.055 96.776C536.679 96.776 537.171 96.638 537.531 96.362C537.891 96.086 538.071 95.738 538.071 95.318C538.071 94.886 537.879 94.568 537.495 94.364C537.111 94.148 536.517 93.938 535.713 93.734C534.981 93.542 534.381 93.35 533.913 93.158C533.457 92.954 533.061 92.66 532.725 92.276C532.401 91.88 532.239 91.364 532.239 90.728C532.239 90.224 532.389 89.762 532.689 89.342C532.989 88.922 533.415 88.592 533.967 88.352C534.519 88.1 535.149 87.974 535.857 87.974C536.949 87.974 537.831 88.25 538.503 88.802C539.175 89.354 539.535 90.11 539.583 91.07H537.945C537.909 90.554 537.699 90.14 537.315 89.828C536.943 89.516 536.439 89.36 535.803 89.36C535.215 89.36 534.747 89.486 534.399 89.738C534.051 89.99 533.877 90.32 533.877 90.728C533.877 91.052 533.979 91.322 534.183 91.538C534.399 91.742 534.663 91.91 534.975 92.042C535.299 92.162 535.743 92.3 536.307 92.456C537.015 92.648 537.591 92.84 538.035 93.032C538.479 93.212 538.857 93.488 539.169 93.86C539.493 94.232 539.661 94.718 539.673 95.318C539.673 95.858 539.523 96.344 539.223 96.776C538.923 97.208 538.497 97.55 537.945 97.802C537.405 98.042 536.781 98.162 536.073 98.162Z" fill="#616161"/>
<path d="M733.316 21.464H715.748V33.752C716.548 32.632 717.716 31.72 719.252 31.016C720.788 30.28 722.452 29.912 724.244 29.912C726.868 29.912 729.012 30.456 730.676 31.544C732.34 32.6 733.54 33.992 734.276 35.72C735.012 37.416 735.38 39.24 735.38 41.192C735.38 43.432 734.948 45.464 734.084 47.288C733.252 49.08 731.956 50.504 730.196 51.56C728.468 52.616 726.308 53.144 723.716 53.144C720.42 53.144 717.748 52.296 715.7 50.6C713.652 48.872 712.404 46.552 711.956 43.64H715.268C715.684 45.752 716.644 47.384 718.148 48.536C719.652 49.688 721.508 50.264 723.716 50.264C726.5 50.264 728.596 49.448 730.004 47.816C731.444 46.152 732.164 43.96 732.164 41.24C732.164 38.584 731.444 36.52 730.004 35.048C728.564 33.544 726.5 32.792 723.812 32.792C721.956 32.792 720.324 33.224 718.916 34.088C717.508 34.952 716.468 36.12 715.796 37.592H712.628V18.536H733.316V21.464ZM741.245 35.48C741.245 29.976 742.093 25.704 743.789 22.664C745.485 19.624 748.525 18.104 752.909 18.104C757.293 18.104 760.333 19.624 762.029 22.664C763.725 25.704 764.573 29.976 764.573 35.48C764.573 41.08 763.725 45.416 762.029 48.488C760.333 51.56 757.293 53.096 752.909 53.096C748.493 53.096 745.437 51.56 743.741 48.488C742.077 45.416 741.245 41.08 741.245 35.48ZM761.261 35.48C761.261 32.504 761.053 29.992 760.637 27.944C760.221 25.896 759.405 24.248 758.189 23C756.973 21.752 755.213 21.128 752.909 21.128C750.605 21.128 748.845 21.752 747.629 23C746.413 24.248 745.597 25.896 745.181 27.944C744.765 29.992 744.557 32.504 744.557 35.48C744.557 38.552 744.765 41.128 745.181 43.208C745.597 45.256 746.413 46.904 747.629 48.152C748.845 49.4 750.605 50.024 752.909 50.024C755.213 50.024 756.973 49.4 758.189 48.152C759.405 46.904 760.221 45.256 760.637 43.208C761.053 41.128 761.261 38.552 761.261 35.48ZM795.687 36.68H784.983V47.48H781.863V36.68H771.207V33.8H781.863V23H784.983V33.8H795.687V36.68Z" fill="#1F1F1F"/>
<path d="M717.302 95.21H711.83L710.822 98H709.094L713.63 85.526H715.52L720.038 98H718.31L717.302 95.21ZM716.834 93.878L714.566 87.542L712.298 93.878H716.834ZM725.507 98.162C724.751 98.162 724.073 98.036 723.473 97.784C722.873 97.52 722.399 97.16 722.051 96.704C721.703 96.236 721.511 95.702 721.475 95.102H723.167C723.215 95.594 723.443 95.996 723.851 96.308C724.271 96.62 724.817 96.776 725.489 96.776C726.113 96.776 726.605 96.638 726.965 96.362C727.325 96.086 727.505 95.738 727.505 95.318C727.505 94.886 727.313 94.568 726.929 94.364C726.545 94.148 725.951 93.938 725.147 93.734C724.415 93.542 723.815 93.35 723.347 93.158C722.891 92.954 722.495 92.66 722.159 92.276C721.835 91.88 721.673 91.364 721.673 90.728C721.673 90.224 721.823 89.762 722.123 89.342C722.423 88.922 722.849 88.592 723.401 88.352C723.953 88.1 724.583 87.974 725.291 87.974C726.383 87.974 727.265 88.25 727.937 88.802C728.609 89.354 728.969 90.11 729.017 91.07H727.379C727.343 90.554 727.133 90.14 726.749 89.828C726.377 89.516 725.873 89.36 725.237 89.36C724.649 89.36 724.181 89.486 723.833 89.738C723.485 89.99 723.311 90.32 723.311 90.728C723.311 91.052 723.413 91.322 723.617 91.538C723.833 91.742 724.097 91.91 724.409 92.042C724.733 92.162 725.177 92.3 725.741 92.456C726.449 92.648 727.025 92.84 727.469 93.032C727.913 93.212 728.291 93.488 728.603 93.86C728.927 94.232 729.095 94.718 729.107 95.318C729.107 95.858 728.957 96.344 728.657 96.776C728.357 97.208 727.931 97.55 727.379 97.802C726.839 98.042 726.215 98.162 725.507 98.162ZM734.911 98.162C734.155 98.162 733.477 98.036 732.877 97.784C732.277 97.52 731.803 97.16 731.455 96.704C731.107 96.236 730.915 95.702 730.879 95.102H732.571C732.619 95.594 732.847 95.996 733.255 96.308C733.675 96.62 734.221 96.776 734.893 96.776C735.517 96.776 736.009 96.638 736.369 96.362C736.729 96.086 736.909 95.738 736.909 95.318C736.909 94.886 736.717 94.568 736.333 94.364C735.949 94.148 735.355 93.938 734.551 93.734C733.819 93.542 733.219 93.35 732.751 93.158C732.295 92.954 731.899 92.66 731.563 92.276C731.239 91.88 731.077 91.364 731.077 90.728C731.077 90.224 731.227 89.762 731.527 89.342C731.827 88.922 732.253 88.592 732.805 88.352C733.357 88.1 733.987 87.974 734.695 87.974C735.787 87.974 736.669 88.25 737.341 88.802C738.013 89.354 738.373 90.11 738.421 91.07H736.783C736.747 90.554 736.537 90.14 736.153 89.828C735.781 89.516 735.277 89.36 734.641 89.36C734.053 89.36 733.585 89.486 733.237 89.738C732.889 89.99 732.715 90.32 732.715 90.728C732.715 91.052 732.817 91.322 733.021 91.538C733.237 91.742 733.501 91.91 733.813 92.042C734.137 92.162 734.581 92.3 735.145 92.456C735.853 92.648 736.429 92.84 736.873 93.032C737.317 93.212 737.695 93.488 738.007 93.86C738.331 94.232 738.499 94.718 738.511 95.318C738.511 95.858 738.361 96.344 738.061 96.776C737.761 97.208 737.335 97.55 736.783 97.802C736.243 98.042 735.619 98.162 734.911 98.162ZM741.67 86.534C741.358 86.534 741.094 86.426 740.878 86.21C740.662 85.994 740.554 85.73 740.554 85.418C740.554 85.106 740.662 84.842 740.878 84.626C741.094 84.41 741.358 84.302 741.67 84.302C741.97 84.302 742.222 84.41 742.426 84.626C742.642 84.842 742.75 85.106 742.75 85.418C742.75 85.73 742.642 85.994 742.426 86.21C742.222 86.426 741.97 86.534 741.67 86.534ZM742.462 88.136V98H740.824V88.136H742.462ZM749.321 87.974C750.173 87.974 750.917 88.16 751.553 88.532C752.201 88.904 752.681 89.372 752.993 89.936V88.136H754.649V98.216C754.649 99.116 754.457 99.914 754.073 100.61C753.689 101.318 753.137 101.87 752.417 102.266C751.709 102.662 750.881 102.86 749.933 102.86C748.637 102.86 747.557 102.554 746.693 101.942C745.829 101.33 745.319 100.496 745.163 99.44H746.783C746.963 100.04 747.335 100.52 747.899 100.88C748.463 101.252 749.141 101.438 749.933 101.438C750.833 101.438 751.565 101.156 752.129 100.592C752.705 100.028 752.993 99.236 752.993 98.216V96.146C752.669 96.722 752.189 97.202 751.553 97.586C750.917 97.97 750.173 98.162 749.321 98.162C748.445 98.162 747.647 97.946 746.927 97.514C746.219 97.082 745.661 96.476 745.253 95.696C744.845 94.916 744.641 94.028 744.641 93.032C744.641 92.024 744.845 91.142 745.253 90.386C745.661 89.618 746.219 89.024 746.927 88.604C747.647 88.184 748.445 87.974 749.321 87.974ZM752.993 93.05C752.993 92.306 752.843 91.658 752.543 91.106C752.243 90.554 751.835 90.134 751.319 89.846C750.815 89.546 750.257 89.396 749.645 89.396C749.033 89.396 748.475 89.54 747.971 89.828C747.467 90.116 747.065 90.536 746.765 91.088C746.465 91.64 746.315 92.288 746.315 93.032C746.315 93.788 746.465 94.448 746.765 95.012C747.065 95.564 747.467 95.99 747.971 96.29C748.475 96.578 749.033 96.722 749.645 96.722C750.257 96.722 750.815 96.578 751.319 96.29C751.835 95.99 752.243 95.564 752.543 95.012C752.843 94.448 752.993 93.794 752.993 93.05ZM762.223 87.956C763.423 87.956 764.395 88.322 765.139 89.054C765.883 89.774 766.255 90.818 766.255 92.186V98H764.635V92.42C764.635 91.436 764.389 90.686 763.897 90.17C763.405 89.642 762.733 89.378 761.881 89.378C761.017 89.378 760.327 89.648 759.811 90.188C759.307 90.728 759.055 91.514 759.055 92.546V98H757.417V88.136H759.055V89.54C759.379 89.036 759.817 88.646 760.369 88.37C760.933 88.094 761.551 87.956 762.223 87.956ZM780.793 87.956C781.561 87.956 782.245 88.118 782.845 88.442C783.445 88.754 783.919 89.228 784.267 89.864C784.615 90.5 784.789 91.274 784.789 92.186V98H783.169V92.42C783.169 91.436 782.923 90.686 782.431 90.17C781.951 89.642 781.297 89.378 780.469 89.378C779.617 89.378 778.939 89.654 778.435 90.206C777.931 90.746 777.679 91.532 777.679 92.564V98H776.059V92.42C776.059 91.436 775.813 90.686 775.321 90.17C774.841 89.642 774.187 89.378 773.359 89.378C772.507 89.378 771.829 89.654 771.325 90.206C770.821 90.746 770.569 91.532 770.569 92.564V98H768.931V88.136H770.569V89.558C770.893 89.042 771.325 88.646 771.865 88.37C772.417 88.094 773.023 87.956 773.683 87.956C774.511 87.956 775.243 88.142 775.879 88.514C776.515 88.886 776.989 89.432 777.301 90.152C777.577 89.456 778.033 88.916 778.669 88.532C779.305 88.148 780.013 87.956 780.793 87.956ZM796.476 92.69C796.476 93.002 796.458 93.332 796.422 93.68H788.538C788.598 94.652 788.928 95.414 789.528 95.966C790.14 96.506 790.878 96.776 791.742 96.776C792.45 96.776 793.038 96.614 793.506 96.29C793.986 95.954 794.322 95.51 794.514 94.958H796.278C796.014 95.906 795.486 96.68 794.694 97.28C793.902 97.868 792.918 98.162 791.742 98.162C790.806 98.162 789.966 97.952 789.222 97.532C788.49 97.112 787.914 96.518 787.494 95.75C787.074 94.97 786.864 94.07 786.864 93.05C786.864 92.03 787.068 91.136 787.476 90.368C787.884 89.6 788.454 89.012 789.186 88.604C789.93 88.184 790.782 87.974 791.742 87.974C792.678 87.974 793.506 88.178 794.226 88.586C794.946 88.994 795.498 89.558 795.882 90.278C796.278 90.986 796.476 91.79 796.476 92.69ZM794.784 92.348C794.784 91.724 794.646 91.19 794.37 90.746C794.094 90.29 793.716 89.948 793.236 89.72C792.768 89.48 792.246 89.36 791.67 89.36C790.842 89.36 790.134 89.624 789.546 90.152C788.97 90.68 788.64 91.412 788.556 92.348H794.784ZM803.444 87.956C804.644 87.956 805.616 88.322 806.36 89.054C807.104 89.774 807.476 90.818 807.476 92.186V98H805.856V92.42C805.856 91.436 805.61 90.686 805.118 90.17C804.626 89.642 803.954 89.378 803.102 89.378C802.238 89.378 801.548 89.648 801.032 90.188C800.528 90.728 800.276 91.514 800.276 92.546V98H798.638V88.136H800.276V89.54C800.6 89.036 801.038 88.646 801.59 88.37C802.154 88.094 802.772 87.956 803.444 87.956ZM812.15 89.486V95.3C812.15 95.78 812.252 96.122 812.456 96.326C812.66 96.518 813.014 96.614 813.518 96.614H814.724V98H813.248C812.336 98 811.652 97.79 811.196 97.37C810.74 96.95 810.512 96.26 810.512 95.3V89.486H809.234V88.136H810.512V85.652H812.15V88.136H814.724V89.486H812.15ZM820.2 98.162C819.444 98.162 818.766 98.036 818.166 97.784C817.566 97.52 817.092 97.16 816.744 96.704C816.396 96.236 816.204 95.702 816.168 95.102H817.86C817.908 95.594 818.136 95.996 818.544 96.308C818.964 96.62 819.51 96.776 820.182 96.776C820.806 96.776 821.298 96.638 821.658 96.362C822.018 96.086 822.198 95.738 822.198 95.318C822.198 94.886 822.006 94.568 821.622 94.364C821.238 94.148 820.644 93.938 819.84 93.734C819.108 93.542 818.508 93.35 818.04 93.158C817.584 92.954 817.188 92.66 816.852 92.276C816.528 91.88 816.366 91.364 816.366 90.728C816.366 90.224 816.516 89.762 816.816 89.342C817.116 88.922 817.542 88.592 818.094 88.352C818.646 88.1 819.276 87.974 819.984 87.974C821.076 87.974 821.958 88.25 822.63 88.802C823.302 89.354 823.662 90.11 823.71 91.07H822.072C822.036 90.554 821.826 90.14 821.442 89.828C821.07 89.516 820.566 89.36 819.93 89.36C819.342 89.36 818.874 89.486 818.526 89.738C818.178 89.99 818.004 90.32 818.004 90.728C818.004 91.052 818.106 91.322 818.31 91.538C818.526 91.742 818.79 91.91 819.102 92.042C819.426 92.162 819.87 92.3 820.434 92.456C821.142 92.648 821.718 92.84 822.162 93.032C822.606 93.212 822.984 93.488 823.296 93.86C823.62 94.232 823.788 94.718 823.8 95.318C823.8 95.858 823.65 96.344 823.35 96.776C823.05 97.208 822.624 97.55 822.072 97.802C821.532 98.042 820.908 98.162 820.2 98.162Z" fill="#616161"/>
<path d="M981.488 21.608V18.584H989.648V53H986.24V21.608H981.488ZM997.136 35.48C997.136 29.976 997.984 25.704 999.68 22.664C1001.38 19.624 1004.42 18.104 1008.8 18.104C1013.18 18.104 1016.22 19.624 1017.92 22.664C1019.62 25.704 1020.46 29.976 1020.46 35.48C1020.46 41.08 1019.62 45.416 1017.92 48.488C1016.22 51.56 1013.18 53.096 1008.8 53.096C1004.38 53.096 1001.33 51.56 999.632 48.488C997.968 45.416 997.136 41.08 997.136 35.48ZM1017.15 35.48C1017.15 32.504 1016.94 29.992 1016.53 27.944C1016.11 25.896 1015.3 24.248 1014.08 23C1012.86 21.752 1011.1 21.128 1008.8 21.128C1006.5 21.128 1004.74 21.752 1003.52 23C1002.3 24.248 1001.49 25.896 1001.07 27.944C1000.66 29.992 1000.45 32.504 1000.45 35.48C1000.45 38.552 1000.66 41.128 1001.07 43.208C1001.49 45.256 1002.3 46.904 1003.52 48.152C1004.74 49.4 1006.5 50.024 1008.8 50.024C1011.1 50.024 1012.86 49.4 1014.08 48.152C1015.3 46.904 1016.11 45.256 1016.53 43.208C1016.94 41.128 1017.15 38.552 1017.15 35.48ZM1051.58 36.68H1040.87V47.48H1037.75V36.68H1027.1V33.8H1037.75V23H1040.87V33.8H1051.58V36.68Z" fill="#1F1F1F"/>
<path d="M989.774 89.126C989.774 90.17 989.414 91.04 988.694 91.736C987.986 92.42 986.9 92.762 985.436 92.762H983.024V98H981.386V85.454H985.436C986.852 85.454 987.926 85.796 988.658 86.48C989.402 87.164 989.774 88.046 989.774 89.126ZM985.436 91.412C986.348 91.412 987.02 91.214 987.452 90.818C987.884 90.422 988.1 89.858 988.1 89.126C988.1 87.578 987.212 86.804 985.436 86.804H983.024V91.412H985.436ZM993.448 84.68V98H991.81V84.68H993.448ZM1004.99 88.136V98H1003.35V96.542C1003.04 97.046 1002.6 97.442 1002.04 97.73C1001.48 98.006 1000.87 98.144 1000.2 98.144C999.432 98.144 998.742 97.988 998.13 97.676C997.518 97.352 997.032 96.872 996.672 96.236C996.324 95.6 996.15 94.826 996.15 93.914V88.136H997.77V93.698C997.77 94.67 998.016 95.42 998.508 95.948C999 96.464 999.672 96.722 1000.52 96.722C1001.4 96.722 1002.09 96.452 1002.59 95.912C1003.1 95.372 1003.35 94.586 1003.35 93.554V88.136H1004.99ZM1011.82 87.974C1012.67 87.974 1013.42 88.16 1014.05 88.532C1014.7 88.904 1015.18 89.372 1015.49 89.936V88.136H1017.15V98.216C1017.15 99.116 1016.96 99.914 1016.57 100.61C1016.19 101.318 1015.64 101.87 1014.92 102.266C1014.21 102.662 1013.38 102.86 1012.43 102.86C1011.14 102.86 1010.06 102.554 1009.19 101.942C1008.33 101.33 1007.82 100.496 1007.66 99.44H1009.28C1009.46 100.04 1009.84 100.52 1010.4 100.88C1010.96 101.252 1011.64 101.438 1012.43 101.438C1013.33 101.438 1014.07 101.156 1014.63 100.592C1015.21 100.028 1015.49 99.236 1015.49 98.216V96.146C1015.17 96.722 1014.69 97.202 1014.05 97.586C1013.42 97.97 1012.67 98.162 1011.82 98.162C1010.95 98.162 1010.15 97.946 1009.43 97.514C1008.72 97.082 1008.16 96.476 1007.75 95.696C1007.35 94.916 1007.14 94.028 1007.14 93.032C1007.14 92.024 1007.35 91.142 1007.75 90.386C1008.16 89.618 1008.72 89.024 1009.43 88.604C1010.15 88.184 1010.95 87.974 1011.82 87.974ZM1015.49 93.05C1015.49 92.306 1015.34 91.658 1015.04 91.106C1014.74 90.554 1014.34 90.134 1013.82 89.846C1013.32 89.546 1012.76 89.396 1012.15 89.396C1011.53 89.396 1010.98 89.54 1010.47 89.828C1009.97 90.116 1009.57 90.536 1009.27 91.088C1008.97 91.64 1008.82 92.288 1008.82 93.032C1008.82 93.788 1008.97 94.448 1009.27 95.012C1009.57 95.564 1009.97 95.99 1010.47 96.29C1010.98 96.578 1011.53 96.722 1012.15 96.722C1012.76 96.722 1013.32 96.578 1013.82 96.29C1014.34 95.99 1014.74 95.564 1015.04 95.012C1015.34 94.448 1015.49 93.794 1015.49 93.05ZM1020.76 86.534C1020.45 86.534 1020.19 86.426 1019.97 86.21C1019.76 85.994 1019.65 85.73 1019.65 85.418C1019.65 85.106 1019.76 84.842 1019.97 84.626C1020.19 84.41 1020.45 84.302 1020.76 84.302C1021.06 84.302 1021.32 84.41 1021.52 84.626C1021.74 84.842 1021.84 85.106 1021.84 85.418C1021.84 85.73 1021.74 85.994 1021.52 86.21C1021.32 86.426 1021.06 86.534 1020.76 86.534ZM1021.56 88.136V98H1019.92V88.136H1021.56ZM1029.15 87.956C1030.35 87.956 1031.32 88.322 1032.07 89.054C1032.81 89.774 1033.18 90.818 1033.18 92.186V98H1031.56V92.42C1031.56 91.436 1031.32 90.686 1030.83 90.17C1030.33 89.642 1029.66 89.378 1028.81 89.378C1027.95 89.378 1027.26 89.648 1026.74 90.188C1026.24 90.728 1025.98 91.514 1025.98 92.546V98H1024.35V88.136H1025.98V89.54C1026.31 89.036 1026.75 88.646 1027.3 88.37C1027.86 88.094 1028.48 87.956 1029.15 87.956ZM1039.35 98.162C1038.6 98.162 1037.92 98.036 1037.32 97.784C1036.72 97.52 1036.24 97.16 1035.9 96.704C1035.55 96.236 1035.36 95.702 1035.32 95.102H1037.01C1037.06 95.594 1037.29 95.996 1037.7 96.308C1038.12 96.62 1038.66 96.776 1039.33 96.776C1039.96 96.776 1040.45 96.638 1040.81 96.362C1041.17 96.086 1041.35 95.738 1041.35 95.318C1041.35 94.886 1041.16 94.568 1040.77 94.364C1040.39 94.148 1039.8 93.938 1038.99 93.734C1038.26 93.542 1037.66 93.35 1037.19 93.158C1036.74 92.954 1036.34 92.66 1036 92.276C1035.68 91.88 1035.52 91.364 1035.52 90.728C1035.52 90.224 1035.67 89.762 1035.97 89.342C1036.27 88.922 1036.69 88.592 1037.25 88.352C1037.8 88.1 1038.43 87.974 1039.14 87.974C1040.23 87.974 1041.11 88.25 1041.78 88.802C1042.45 89.354 1042.81 90.11 1042.86 91.07H1041.22C1041.19 90.554 1040.98 90.14 1040.59 89.828C1040.22 89.516 1039.72 89.36 1039.08 89.36C1038.49 89.36 1038.03 89.486 1037.68 89.738C1037.33 89.99 1037.16 90.32 1037.16 90.728C1037.16 91.052 1037.26 91.322 1037.46 91.538C1037.68 91.742 1037.94 91.91 1038.25 92.042C1038.58 92.162 1039.02 92.3 1039.59 92.456C1040.29 92.648 1040.87 92.84 1041.31 93.032C1041.76 93.212 1042.14 93.488 1042.45 93.86C1042.77 94.232 1042.94 94.718 1042.95 95.318C1042.95 95.858 1042.8 96.344 1042.5 96.776C1042.2 97.208 1041.78 97.55 1041.22 97.802C1040.68 98.042 1040.06 98.162 1039.35 98.162Z" fill="#616161"/>
</svg>
