<svg width="32" height="40" viewBox="0 0 32 40" fill="none" xmlns="http://www.w3.org/2000/svg">
<path d="M15.999 20C13.799 20 11.999 18.2 11.999 16C11.999 13.8 13.799 12 15.999 12C18.199 12 19.999 13.8 19.999 16C19.999 18.2 18.199 20 15.999 20ZM27.999 16.4C27.999 9.14 22.699 4 15.999 4C9.29902 4 3.99902 9.14 3.99902 16.4C3.99902 21.08 7.89902 27.28 15.999 34.68C24.099 27.28 27.999 21.08 27.999 16.4ZM15.999 0C24.399 0 31.999 6.44 31.999 16.4C31.999 23.04 26.659 30.9 15.999 40C5.33902 30.9 -0.000976562 23.04 -0.000976562 16.4C-0.000976562 6.44 7.59902 0 15.999 0Z" fill="#169F32"/>
</svg>
