<svg width="22" height="44" viewBox="0 0 22 44" fill="none" xmlns="http://www.w3.org/2000/svg">
<path d="M0.576375 34.6284L8.85659 43.0881C9.13863 43.3772 9.47373 43.6065 9.84269 43.763C10.2116 43.9195 10.6072 44 11.0067 44C11.4062 44 11.8017 43.9195 12.1707 43.763C12.5396 43.6065 12.8747 43.3772 13.1568 43.0881L21.437 34.6284C21.6707 34.3887 21.8401 34.0916 21.929 33.7657C22.018 33.4398 22.0234 33.096 21.9448 32.7673L16.9767 11.9677L19.4497 5.83164C19.7078 5.18713 19.8062 4.48748 19.7361 3.7948C19.666 3.10212 19.4296 2.43783 19.0479 1.86092C18.6661 1.284 18.1509 0.812299 17.5479 0.487683C16.9449 0.163067 16.2727 -0.00442064 15.5912 8.87015e-05H6.37252C5.69235 0.000392777 5.02271 0.171908 4.42284 0.49947C3.82296 0.827031 3.31132 1.30055 2.93314 1.87816C2.55496 2.45577 2.3219 3.11968 2.25457 3.81119C2.18723 4.5027 2.28769 5.20051 2.54707 5.84292L5.02009 11.9677L0.0519624 32.7673C-0.0245267 33.0974 -0.0164538 33.4421 0.0754028 33.7681C0.167259 34.0941 0.339799 34.3904 0.576375 34.6284ZM6.1462 4.06074C6.17061 4.02092 6.20495 3.98845 6.24569 3.96665C6.28642 3.94485 6.3321 3.9345 6.37804 3.93667H15.5967C15.6419 3.9369 15.6863 3.94847 15.7261 3.97036C15.7659 3.99226 15.7999 4.02381 15.825 4.06223C15.85 4.10066 15.8655 4.1448 15.87 4.19075C15.8744 4.23671 15.8678 4.28309 15.8506 4.32581L13.6425 9.83025H8.33769L6.12964 4.32581C6.10933 4.28405 6.10017 4.23755 6.10308 4.19101C6.10598 4.14446 6.12086 4.09953 6.1462 4.06074ZM8.56402 13.7781H13.4052L17.8931 32.6207L10.9818 39.6986L4.07615 32.6207L8.56402 13.7781Z" fill="#169F32"/>
</svg>
