<svg width="737" height="464" viewBox="0 0 737 464" fill="none" xmlns="http://www.w3.org/2000/svg">
<g clip-path="url(#clip0_12916_159731)">
<rect width="736" height="464" transform="translate(0.183594)" fill="#FAFAFA"/>
<path d="M449.164 50.7578L403.685 162.206L319.005 362.175L579.81 379.584L701.104 50.7578H449.164Z" fill="#EBEBEB"/>
<path d="M677.313 65.4062H459.432L398.428 223.328L614.054 237.2L677.313 65.4062Z" fill="#D7D7D7"/>
<path d="M146.769 270.359C148.295 249.765 166.227 234.307 186.821 235.833L222.121 238.449L198.048 563.316L125.459 557.937L146.769 270.359Z" fill="#570DB4"/>
<path d="M313.123 164.023L175.112 114.143L165.416 140.969C152.314 177.222 171.08 217.232 207.333 230.334L214.062 232.767C250.315 245.869 290.325 227.102 303.427 190.85L313.123 164.023Z" fill="#CD2026"/>
<path d="M232.353 249.094C223.755 232.558 204.04 225.188 186.7 232.027L165.621 240.342L213.258 361.405C220.797 380.565 243.354 388.899 261.543 379.243C278.243 370.377 284.671 349.72 275.948 332.944L232.353 249.094Z" fill="#7128CE"/>
<path d="M285.902 360.103C286.108 340.004 269.982 323.527 249.883 323.301C229.785 323.075 213.325 339.184 213.118 359.283L211.059 560.084L283.842 560.904L285.902 360.103Z" fill="#7128CE"/>
<rect x="390.313" y="203.766" width="7.55076" height="70.6437" rx="3.77538" transform="rotate(39.0874 390.313 203.766)" fill="#1F1F1F"/>
<ellipse opacity="0.1" cx="415.111" cy="179.458" rx="22.6089" ry="32.3435" transform="rotate(38.4812 415.111 179.458)" fill="#1F1F1F"/>
<path fill-rule="evenodd" clip-rule="evenodd" d="M390.283 210.692C402.341 220.277 423.232 214.063 436.944 196.813C450.657 179.563 451.997 157.808 439.939 148.223C427.881 138.638 406.99 144.852 393.277 162.102C379.565 179.352 378.224 201.107 390.283 210.692ZM394.985 204.775C404.76 212.545 421.694 207.508 432.81 193.525C443.925 179.542 445.012 161.907 435.237 154.137C425.463 146.368 408.528 151.405 397.413 165.388C386.297 179.371 385.211 197.005 394.985 204.775Z" fill="#1F1F1F"/>
<ellipse rx="32.4054" ry="31.7822" transform="matrix(-1 0 0 1 262.068 97.3916)" fill="#E1B48B"/>
<rect width="42.8748" height="86.4216" rx="21.4374" transform="matrix(-0.609603 0.792707 0.792707 0.609603 253.118 163.703)" fill="#E1B48B"/>
<rect width="42.8748" height="116.105" rx="21.4374" transform="matrix(-0.1907 0.981648 0.981648 0.1907 277.656 196.312)" fill="#E1B48B"/>
<path d="M245.836 147.415C232.74 137.344 213.96 139.796 203.889 152.892C193.818 165.987 196.27 184.768 209.366 194.839L257.976 232.22L294.446 184.796L245.836 147.415Z" fill="#A70B11"/>
<path fill-rule="evenodd" clip-rule="evenodd" d="M271.156 66.1389C266.218 64.8753 260.914 64.7321 255.601 65.934C237.69 69.9857 226.455 87.79 230.507 105.701C230.773 106.878 231.099 108.027 231.48 109.144C236.418 110.408 241.722 110.551 247.035 109.349C264.946 105.297 276.181 87.4931 272.129 69.582C271.863 68.4047 271.537 67.2561 271.156 66.1389Z" fill="#1F1F1F"/>
<path d="M677.65 66.7969L398.89 222.893" stroke="#C5C5C5"/>
<path d="M459.563 65.5078L613.236 235.557" stroke="#C5C5C5"/>
<g filter="url(#filter0_d_12916_159731)">
<path d="M609.177 248.367L395.016 235.562L381.05 268.571L596.374 282.612L609.177 248.367Z" fill="#F5F5F5"/>
</g>
<path d="M591.279 290.836L377.117 278.031L363.151 311.04L578.475 325.08L591.279 290.836Z" fill="#F5F5F5"/>
<rect x="106.379" y="261.254" width="22.6373" height="22.6373" transform="rotate(44.5693 106.379 261.254)" stroke="#FFB800"/>
<circle cx="699.654" cy="427.562" r="7.5" stroke="#FF842B"/>
<path d="M44.0234 56.8906L45.454 45.8906L54.0234 52.7656L44.0234 56.8906Z" stroke="#007618"/>
<rect x="704.677" y="39.4375" width="5.95532" height="5.95532" stroke="#1F1F1F"/>
<path d="M651.655 272.375L642.379 263.361L651.655 254.347" stroke="#570DB4"/>
<path d="M641.941 272.375L632.665 263.361L641.941 254.347" stroke="#570DB4"/>
<path d="M632.226 272.375L622.949 263.361L632.226 254.347" stroke="#570DB4"/>
<path d="M622.512 272.375L613.235 263.361L622.512 254.347" stroke="#570DB4"/>
<path d="M462.49 418.063L466.8 428.284L455.933 426.666L462.49 418.063Z" stroke="#007618"/>
<path d="M279.465 322.891L291.381 338.29L303.919 323.337L315.834 338.29L327.128 324.453L339.221 338.736L349.981 324.676L360.296 338.513L371.945 324.23" stroke="#A7A7A7" stroke-miterlimit="10" stroke-linecap="round" stroke-linejoin="round"/>
<path d="M98.7461 148.727L98.7669 149.227L98.7461 148.727ZM41.3907 126.54C41.5792 126.742 41.8956 126.753 42.0974 126.564C42.2993 126.376 42.3101 126.06 42.1217 125.858L41.3907 126.54ZM50.6266 133.428C50.4056 133.262 50.0922 133.307 49.9266 133.528C49.7609 133.749 49.8058 134.062 50.0267 134.228L50.6266 133.428ZM59.7703 140.419C60.014 140.549 60.3169 140.457 60.4467 140.213C60.5766 139.969 60.4844 139.667 60.2407 139.537L59.7703 140.419ZM70.6749 144.115C70.4143 144.024 70.129 144.161 70.0377 144.422C69.9464 144.682 70.0837 144.968 70.3443 145.059L70.6749 144.115ZM81.5085 148.028C81.78 148.078 82.0409 147.899 82.0911 147.627C82.1413 147.356 81.9619 147.095 81.6904 147.045L81.5085 148.028ZM93.0202 148.258C92.7442 148.25 92.5134 148.466 92.5047 148.742C92.4961 149.018 92.7128 149.249 92.9888 149.258L93.0202 148.258ZM103.353 148.824C103.627 148.787 103.818 148.534 103.78 148.261C103.743 147.987 103.49 147.796 103.217 147.834L103.353 148.824ZM111.813 145.548C111.559 145.657 111.441 145.951 111.549 146.205C111.658 146.459 111.952 146.577 112.206 146.468L111.813 145.548ZM119.811 141.3C120.001 141.099 119.991 140.783 119.79 140.594C119.589 140.404 119.273 140.414 119.083 140.615L119.811 141.3ZM123.261 132.974C123.195 133.242 123.36 133.513 123.628 133.578C123.896 133.644 124.167 133.479 124.232 133.211L123.261 132.974ZM124.147 123.995C124.079 123.728 123.806 123.566 123.539 123.634C123.271 123.703 123.11 123.975 123.178 124.242L124.147 123.995ZM119.114 116.495C119.296 116.702 119.612 116.723 119.819 116.54C120.027 116.358 120.047 116.042 119.865 115.835L119.114 116.495ZM112.227 110.671C111.966 110.582 111.681 110.721 111.592 110.982C111.502 111.243 111.641 111.527 111.902 111.617L112.227 110.671ZM103.207 110.978C103.48 110.933 103.664 110.675 103.619 110.403C103.573 110.13 103.316 109.946 103.043 109.991L103.207 110.978ZM93.4604 113.675C93.2252 113.819 93.1519 114.127 93.2966 114.362C93.4413 114.598 93.7492 114.671 93.9844 114.526L93.4604 113.675ZM86.7994 122.409C86.9079 122.156 86.7901 121.862 86.5362 121.753C86.2823 121.644 85.9885 121.762 85.8799 122.016L86.7994 122.409ZM85.4102 133.261C85.4878 133.526 85.7656 133.678 86.0306 133.601C86.2956 133.523 86.4475 133.245 86.3698 132.98L85.4102 133.261ZM91.713 142.44C91.5346 142.23 91.2191 142.203 91.0083 142.382C90.7975 142.56 90.7712 142.875 90.9496 143.086L91.713 142.44ZM99.2964 150.629C99.5214 150.789 99.8336 150.736 99.9938 150.511C100.154 150.286 100.102 149.974 99.8766 149.814L99.2964 150.629ZM109.407 155.379C109.158 155.26 108.86 155.365 108.74 155.614C108.621 155.863 108.726 156.161 108.975 156.281L109.407 155.379ZM119.388 160.429C119.651 160.515 119.933 160.372 120.019 160.11C120.105 159.847 119.962 159.565 119.699 159.479L119.388 160.429ZM130.414 162.353C130.144 162.295 129.878 162.467 129.82 162.737C129.762 163.007 129.934 163.272 130.204 163.33L130.414 162.353ZM37.7048 122.068C38.6531 123.412 39.8858 124.928 41.3907 126.54L42.1217 125.858C40.6433 124.274 39.4403 122.793 38.5218 121.492L37.7048 122.068ZM50.0267 134.228C52.8843 136.37 56.139 138.484 59.7703 140.419L60.2407 139.537C56.6569 137.627 53.4454 135.541 50.6266 133.428L50.0267 134.228ZM70.3443 145.059C73.8319 146.281 77.557 147.297 81.5085 148.028L81.6904 147.045C77.7915 146.324 74.1161 145.321 70.6749 144.115L70.3443 145.059ZM92.9888 149.258C94.8748 149.317 96.8012 149.309 98.7669 149.227L98.7253 148.228C96.784 148.309 94.882 148.317 93.0202 148.258L92.9888 149.258ZM98.7669 149.227C100.378 149.16 101.906 149.024 103.353 148.824L103.217 147.834C101.803 148.028 100.306 148.162 98.7253 148.228L98.7669 149.227ZM112.206 146.468C115.368 145.117 117.886 143.345 119.811 141.3L119.083 140.615C117.26 142.551 114.86 144.247 111.813 145.548L112.206 146.468ZM124.232 133.211C124.98 130.155 124.909 126.982 124.147 123.995L123.178 124.242C123.902 127.08 123.967 130.087 123.261 132.974L124.232 133.211ZM119.865 115.835C117.844 113.534 115.258 111.711 112.227 110.671L111.902 111.617C114.757 112.597 117.199 114.315 119.114 116.495L119.865 115.835ZM103.043 109.991C101.597 110.232 100.103 110.632 98.5705 111.206L98.9217 112.143C100.397 111.589 101.828 111.207 103.207 110.978L103.043 109.991ZM98.5705 111.206C96.6749 111.917 94.9713 112.745 93.4604 113.675L93.9844 114.526C95.4354 113.634 97.0803 112.833 98.9217 112.143L98.5705 111.206ZM85.8799 122.016C84.3996 125.477 84.2583 129.329 85.4102 133.261L86.3698 132.98C85.2754 129.244 85.4206 125.633 86.7994 122.409L85.8799 122.016ZM90.9496 143.086C93.1607 145.699 95.9463 148.242 99.2964 150.629L99.8766 149.814C96.5858 147.47 93.8638 144.982 91.713 142.44L90.9496 143.086ZM108.975 156.281C112.143 157.799 115.615 159.194 119.388 160.429L119.699 159.479C115.965 158.256 112.534 156.878 109.407 155.379L108.975 156.281ZM130.204 163.33C131.99 163.713 133.828 164.063 135.716 164.378L135.881 163.392C134.007 163.079 132.184 162.732 130.414 162.353L130.204 163.33Z" fill="#D7D7D7"/>
<path d="M376.133 62.5547L372.575 69.266L365.175 66.9653L367.543 74.1559L360.636 77.6136L367.543 81.0713L365.175 88.2619L372.575 85.9612L376.133 92.6725L379.692 85.9612L387.092 88.2619L384.724 81.0713L391.631 77.6136L384.724 74.1559L387.092 66.9653L379.692 69.266L376.133 62.5547Z" fill="#FF842B"/>
</g>
<defs>
<filter id="filter0_d_12916_159731" x="357.05" y="215.562" width="276.127" height="95.0469" filterUnits="userSpaceOnUse" color-interpolation-filters="sRGB">
<feFlood flood-opacity="0" result="BackgroundImageFix"/>
<feColorMatrix in="SourceAlpha" type="matrix" values="0 0 0 0 0 0 0 0 0 0 0 0 0 0 0 0 0 0 127 0" result="hardAlpha"/>
<feOffset dy="4"/>
<feGaussianBlur stdDeviation="12"/>
<feComposite in2="hardAlpha" operator="out"/>
<feColorMatrix type="matrix" values="0 0 0 0 0 0 0 0 0 0 0 0 0 0 0 0 0 0 0.09 0"/>
<feBlend mode="normal" in2="BackgroundImageFix" result="effect1_dropShadow_12916_159731"/>
<feBlend mode="normal" in="SourceGraphic" in2="effect1_dropShadow_12916_159731" result="shape"/>
</filter>
<clipPath id="clip0_12916_159731">
<rect width="736" height="464" fill="white" transform="translate(0.183594)"/>
</clipPath>
</defs>
</svg>
