<svg width="737" height="464" viewBox="0 0 737 464" fill="none" xmlns="http://www.w3.org/2000/svg">
<g clip-path="url(#clip0_12916_159657)">
<rect width="736" height="464" transform="translate(0.183594)" fill="#FAFAFA"/>
<rect x="48.0972" y="243.688" width="217.146" height="145.546" fill="#F5F5F5"/>
<rect x="66.1812" y="266.367" width="180.978" height="5.02432" fill="#EBEBEB"/>
<rect x="66.1812" y="285.867" width="180.978" height="5.02432" fill="#EBEBEB"/>
<rect x="66.1812" y="305.367" width="180.978" height="5.02432" fill="#EBEBEB"/>
<rect x="66.1812" y="324.867" width="180.978" height="46.87" fill="#EBEBEB"/>
<path fill-rule="evenodd" clip-rule="evenodd" d="M375.047 57.4219C371.55 57.4219 368.403 58.923 366.216 61.316C364.029 58.923 360.882 57.4219 357.385 57.4219C351.699 57.4219 346.939 61.3895 345.724 66.7072C345.651 66.7454 345.578 66.7839 345.505 66.8226C344.32 66.4288 343.051 66.2156 341.733 66.2156C335.127 66.2156 329.772 71.5707 329.772 78.1765C329.772 79.3779 329.95 80.5379 330.279 81.6319C327.063 83.7758 324.944 87.4362 324.944 91.5915C324.944 93.1475 325.241 94.6341 325.782 95.9977C325.644 97.3027 325.574 98.6278 325.574 99.9692V117.82H400.601V99.9692C400.601 99.2938 400.583 98.6225 400.548 97.9559C401.152 96.526 401.486 94.9541 401.486 93.3042C401.486 89.6926 399.885 86.4548 397.355 84.2617C398.036 82.7576 398.416 81.0873 398.416 79.3283C398.416 72.8513 393.268 67.5768 386.84 67.3735C385.885 61.7243 380.969 57.4219 375.047 57.4219Z" fill="#1F1F1F"/>
<rect width="49.7795" height="122.877" rx="24.8897" transform="matrix(-0.678269 -0.734814 -0.734814 0.678269 320.796 233.117)" fill="#E1B48B"/>
<rect width="49.7795" height="122.877" rx="24.8897" transform="matrix(0.707107 -0.707107 -0.707107 -0.707107 230.042 316.461)" fill="#E1B48B"/>
<rect width="49.7795" height="74.2237" rx="24.8897" transform="matrix(0 -1 -1 0 201.268 252.523)" fill="#E1B48B"/>
<rect width="49.7795" height="73.2559" rx="24.8897" transform="matrix(0 -1 -1 0 609.109 252.523)" fill="#E1B48B"/>
<path d="M346.66 221.921C360.115 209.502 361.12 188.585 348.917 174.933C336.719 161.285 315.83 159.94 301.983 171.912L245.961 220.344L293.073 271.384L346.66 221.921Z" fill="#CD2026"/>
<path d="M300.199 264.805L253.007 214.017L245.961 220.342L293.073 271.382L300.199 264.805Z" fill="#A70B11"/>
<path d="M295.578 276.305C292.578 277.123 285.841 278.268 282.896 276.305" stroke="#1F1F1F" stroke-linecap="round"/>
<rect x="411.797" y="233.117" width="49.7795" height="122.877" rx="24.8897" transform="rotate(-47.2915 411.797 233.117)" fill="#E1B48B"/>
<rect x="502.551" y="316.461" width="49.7795" height="122.877" rx="24.8897" transform="rotate(-135 502.551 316.461)" fill="#E1B48B"/>
<path d="M385.934 221.921C372.479 209.502 371.474 188.585 383.676 174.933C395.874 161.285 416.763 159.94 430.61 171.912L486.633 220.344L439.52 271.384L385.934 221.921Z" fill="#CD2026"/>
<path d="M432.839 265.219L480.162 214.516L486.632 220.346L439.52 271.386L432.839 265.219Z" fill="#A70B11"/>
<rect x="284.054" y="354.758" width="79.8446" height="332.486" fill="#7128CE"/>
<rect x="367.57" y="354.758" width="82.4689" height="332.486" fill="#7128CE"/>
<ellipse cx="362.907" cy="118.19" rx="37.624" ry="36.9005" fill="#E1B48B"/>
<path d="M360.665 100.628L330.512 92.7887C332.257 84.7196 342.289 69.4974 368.459 73.1612C394.629 76.825 397.682 87.7728 395.937 92.7887L365.785 100.628C364.106 101.065 362.344 101.065 360.665 100.628Z" fill="#1F1F1F"/>
<rect x="284.055" y="354.758" width="165.985" height="62.3734" fill="#7128CE"/>
<rect x="284.055" y="354.758" width="165.985" height="12.3453" fill="#570DB4"/>
<circle cx="368.077" cy="252.528" r="92.8405" fill="#CD2026"/>
<path d="M367.331 389.234L367.331 464.392" stroke="#1F1F1F" stroke-linecap="round"/>
<path d="M166.375 252.523C169.375 253.342 176.112 254.487 179.057 252.523" stroke="#1F1F1F" stroke-linecap="round"/>
<path d="M566.716 252.523C563.716 253.342 556.979 254.487 554.034 252.523" stroke="#1F1F1F" stroke-linecap="round"/>
<path fill-rule="evenodd" clip-rule="evenodd" d="M64.3621 39.0781H177.314V118.971H64.3621V39.0781ZM177.314 118.971V142.388L152.52 118.971H177.314Z" fill="#C29FEF"/>
<path fill-rule="evenodd" clip-rule="evenodd" d="M645.899 379.282C677.082 379.282 702.36 354.003 702.36 322.82C702.36 291.638 677.082 266.359 645.899 266.359C614.716 266.359 589.438 291.638 589.438 322.82C589.438 348.271 606.277 369.789 629.422 376.84C628.673 381.756 625.646 388.428 617.26 392.374C622.758 392.624 635.081 390.218 643.652 379.238C644.397 379.267 645.147 379.282 645.899 379.282Z" fill="#7CE391"/>
<path fill-rule="evenodd" clip-rule="evenodd" d="M468.348 104.875C444.681 104.875 425.495 124.061 425.495 147.728C425.495 167.213 438.499 183.661 456.303 188.865L448.186 205.299L484.071 190.581H546.723C570.391 190.581 589.576 171.395 589.576 147.728C589.576 124.061 570.391 104.875 546.723 104.875H468.348Z" fill="#FFB1B4"/>
<circle cx="490.119" cy="147.895" r="4.70779" fill="white"/>
<circle cx="507.535" cy="147.895" r="4.70779" fill="white"/>
<circle cx="524.951" cy="147.895" r="4.70779" fill="white"/>
<rect x="704.677" y="40" width="5.95532" height="5.95532" stroke="#1F1F1F"/>
<path d="M85.9268 178.234L87.3574 167.234L95.9268 174.109L85.9268 178.234Z" stroke="#007618"/>
<path d="M574.272 435.156L564.996 426.142L574.272 417.128" stroke="#570DB4"/>
<path d="M564.559 435.156L555.282 426.142L564.559 417.128" stroke="#570DB4"/>
<path d="M554.843 435.156L545.567 426.142L554.843 417.128" stroke="#570DB4"/>
<path d="M545.129 435.156L535.853 426.142L545.129 417.128" stroke="#570DB4"/>
<rect x="60.9194" y="410.395" width="20.7277" height="20.7277" transform="rotate(44.5693 60.9194 410.395)" stroke="#FFB800"/>
<circle cx="653.898" cy="170.234" r="7.5" stroke="#FF842B"/>
<path d="M223.472 404.5L231.278 414.588L239.492 404.792L247.297 414.588L254.695 405.523L262.618 414.88L269.666 405.67L276.424 414.734L284.055 405.377" stroke="#A7A7A7" stroke-miterlimit="10" stroke-linecap="round" stroke-linejoin="round"/>
<path d="M553.152 39.8309C570.838 39.2112 606.209 45.2318 606.209 74.2723C606.209 110.573 560.244 86.2909 580.23 65.4359C600.216 44.581 644.967 63.5512 648.443 68.9118" stroke="#A7A7A7" stroke-linecap="round" stroke-dasharray="11 11"/>
<path d="M327.109 128.638C324.683 128.638 322.356 127.674 320.641 125.959C318.925 124.243 317.961 121.917 317.961 119.491C317.961 117.065 318.925 114.738 320.641 113.023C322.356 111.307 324.683 110.344 327.109 110.344V119.491V128.638Z" fill="#E1B48B"/>
<path d="M397.338 127.638C399.764 127.638 402.091 126.674 403.806 124.959C405.522 123.243 406.485 120.917 406.485 118.491C406.485 116.065 405.522 113.738 403.806 112.023C402.091 110.307 399.764 109.344 397.338 109.344V118.491V127.638Z" fill="#E1B48B"/>
</g>
<defs>
<clipPath id="clip0_12916_159657">
<rect width="736" height="464" fill="white" transform="translate(0.183594)"/>
</clipPath>
</defs>
</svg>
