<svg width="737" height="464" viewBox="0 0 737 464" fill="none" xmlns="http://www.w3.org/2000/svg">
<g clip-path="url(#clip0_12916_159777)">
<rect width="736" height="464" transform="translate(0.183594)" fill="#FAFAFA"/>
<rect x="51.0928" y="106.281" width="419.705" height="236.426" fill="#F5F5F5"/>
<rect x="71.1064" y="136.234" width="209.852" height="148.526" fill="#EBEBEB"/>
<path d="M207.445 173.747C209.002 175.806 209.788 178.347 209.667 180.926C209.545 183.505 208.524 185.96 206.78 187.864" stroke="#1F1F1F" stroke-width="0.548804" stroke-linecap="round" stroke-linejoin="round"/>
<path d="M211.173 170.327C213.618 173.379 214.865 177.218 214.681 181.124C214.497 185.03 212.895 188.734 210.174 191.543" stroke="#1F1F1F" stroke-width="0.548804" stroke-linecap="round" stroke-linejoin="round"/>
<path d="M203.709 177.119C204.384 178.171 204.715 179.407 204.657 180.656C204.598 181.905 204.152 183.104 203.381 184.088" stroke="#1F1F1F" stroke-width="0.548804" stroke-linecap="round" stroke-linejoin="round"/>
<path d="M117.156 259.545C118.581 228.063 144.519 203.273 176.033 203.273C207.546 203.273 233.484 228.063 234.91 259.545L236.052 284.76H116.014L117.156 259.545Z" fill="#CD2026"/>
<circle cx="176.034" cy="174.65" r="24.416" fill="#EDB675"/>
<path fill-rule="evenodd" clip-rule="evenodd" d="M161.55 181.434C175.035 181.434 185.966 170.503 185.966 157.018C185.966 155.343 185.797 153.708 185.476 152.128C182.571 150.908 179.38 150.234 176.032 150.234C162.548 150.234 151.616 161.166 151.616 174.65C151.616 176.325 151.785 177.961 152.106 179.54C155.011 180.76 158.202 181.434 161.55 181.434Z" fill="#1F1F1F"/>
<rect x="297.557" y="136.234" width="152.629" height="148.526" fill="#EBEBEB"/>
<path d="M317.815 259.587C317.318 228.629 342.277 203.266 373.239 203.266C404.201 203.266 429.16 228.629 428.663 259.587L428.258 284.752H318.22L317.815 259.587Z" fill="#169F32"/>
<path d="M71.1064 309.195H449.566" stroke="#C5C5C5"/>
<path d="M71.1064 309.195H103.375" stroke="#CD2026"/>
<circle cx="103.375" cy="309.195" r="4.5" fill="#CD2026" stroke="white"/>
<path d="M144.804 248.281L146.84 284.359" stroke="#1F1F1F"/>
<path d="M402.42 248.68L400.384 284.758" stroke="#1F1F1F"/>
<circle cx="369.703" cy="176.542" r="23.5187" fill="#FFB27D"/>
<path d="M369.705 143.39C361.691 156.4 371.29 166.519 377.091 169.953C385.376 181.904 397.875 179.723 403.089 177.138C403.739 175.854 398.929 172.207 396.443 170.544C398.858 170.333 402.043 165.382 403.334 162.932C402.814 161.617 396.276 160.494 393.072 160.096C395.315 158.374 395.761 153.031 395.703 150.576C394.061 150.122 389.25 151.72 387.05 152.576C386.118 145.291 384.1 143.709 383.208 143.828C381.217 143.571 378.201 148.178 376.942 150.514C376.722 148.111 372.026 144.763 369.705 143.39Z" fill="#1F1F1F"/>
<rect width="200.511" height="43.9501" transform="matrix(-1 0 0 1 688.513 106.281)" fill="#B589ED"/>
<rect x="688.513" y="342.703" width="200.511" height="192.476" transform="rotate(-180 688.513 342.703)" fill="#F5EEFF"/>
<rect x="629.223" y="187.062" width="96.6674" height="6.84235" transform="rotate(-180 629.223 187.062)" fill="#D7D7D7"/>
<rect x="629.223" y="225.875" width="96.6674" height="6.84235" transform="rotate(-180 629.223 225.875)" fill="#D7D7D7"/>
<rect x="629.223" y="264.688" width="96.6674" height="6.84235" transform="rotate(-180 629.223 264.688)" fill="#D7D7D7"/>
<rect x="629.223" y="303.508" width="96.6674" height="6.84235" transform="rotate(-180 629.223 303.508)" fill="#D7D7D7"/>
<circle cx="513.41" cy="183.642" r="9.40773" fill="#C4C4C4"/>
<circle cx="513.41" cy="222.455" r="9.40773" fill="#C4C4C4"/>
<circle cx="513.41" cy="261.267" r="9.40773" fill="#C4C4C4"/>
<circle cx="513.41" cy="300.087" r="9.40773" fill="#C4C4C4"/>
<ellipse cx="727.263" cy="397.38" rx="9" ry="9.05923" fill="#43BE5C"/>
<ellipse cx="709.956" cy="47.0491" rx="8.30693" ry="8.36161" fill="#FF842B"/>
<ellipse cx="405.92" cy="73.4445" rx="3.5" ry="3.49922" fill="#DD3B41"/>
<rect x="79.4336" y="388.82" width="5.95532" height="5.95532" stroke="#1F1F1F"/>
<path d="M79.5713 55.4141L91.9408 69.7378L104.311 55.4141L116.681 69.7378L129.051 55.4141L141.421 69.7378L153.791 55.4141L166.16 69.7378L178.53 55.4141" stroke="#A26AE9"/>
<path d="M350.364 406.438L353.304 414.38L361.246 417.32L353.304 420.259L350.364 428.202L347.425 420.259L339.482 417.32L347.425 414.38L350.364 406.438Z" fill="#FFB800"/>
<path d="M504.002 388.32L494.726 379.306L504.002 370.292" stroke="#FFB800"/>
<path d="M494.288 388.32L485.012 379.306L494.288 370.292" stroke="#FFB800"/>
<path d="M484.573 388.32L475.296 379.306L484.573 370.292" stroke="#FFB800"/>
<path d="M474.859 388.32L465.583 379.306L474.859 370.292" stroke="#FFB800"/>
<rect x="13.7251" y="178.414" width="18.8239" height="69.8223" fill="#7CE391"/>
<rect x="36.5493" y="200.234" width="18.8239" height="48" fill="#7CE391"/>
<rect x="59.3735" y="221.875" width="18.8239" height="26.363" fill="#7CE391"/>
<path d="M607.712 408.328V371.109H646.058V333.89H688.916V296.672H727.262" stroke="#A7A7A7" stroke-linecap="round" stroke-linejoin="round"/>
</g>
<defs>
<clipPath id="clip0_12916_159777">
<rect width="736" height="464" fill="white" transform="translate(0.183594)"/>
</clipPath>
</defs>
</svg>
